<svg width="50" height="50" viewBox="0 0 50 50" fill="none" xmlns="http://www.w3.org/2000/svg">
<g clip-path="url(#clip0)">
<path d="M33.0067 33.5428H31.7041V34.8289H33.0067V33.5428Z" fill="#0E0E11"/>
<path d="M33.0067 32.25H31.7041V33.5494H33.0067V32.25Z" fill="#0E0E11"/>
<path d="M33.0067 30.9638H31.7041V32.25H33.0067V30.9638Z" fill="#0E0E11"/>
<path d="M33.0067 29.6645H31.7041V30.9638H33.0067V29.6645Z" fill="#0E0E11"/>
<path d="M31.7041 36.1283H30.3882V37.4145H31.7041V36.1283Z" fill="#0E0E11"/>
<path d="M31.7041 34.8289H30.3882V36.1283H31.7041V34.8289Z" fill="#0E0E11"/>
<path d="M31.7041 33.5428H30.3882V34.8289H31.7041V33.5428Z" fill="#E6E6E6"/>
<path d="M31.7041 32.25H30.3882V33.5494H31.7041V32.25Z" fill="#E6E6E6"/>
<path d="M31.7041 30.9638H30.3882V32.25H31.7041V30.9638Z" fill="#E6E6E6"/>
<path d="M31.7041 29.6645H30.3882V30.9638H31.7041V29.6645Z" fill="#E6E6E6"/>
<path d="M31.7041 28.3783H30.3882V29.6645H31.7041V28.3783Z" fill="#0E0E11"/>
<path d="M31.7041 27.0789H30.3882V28.3783H31.7041V27.0789Z" fill="#0E0E11"/>
<path d="M30.3949 37.4145H29.079V38.7138H30.3949V37.4145Z" fill="#0E0E11"/>
<path d="M30.3949 36.1283H29.079V37.4145H30.3949V36.1283Z" fill="#E6E6E6"/>
<path d="M30.3949 34.8289H29.079V36.1283H30.3949V34.8289Z" fill="#E6E6E6"/>
<path d="M30.3949 33.5428H29.079V34.8289H30.3949V33.5428Z" fill="#FD0505"/>
<path d="M30.3949 32.25H29.079V33.5494H30.3949V32.25Z" fill="#FD0505"/>
<path d="M30.3949 30.9638H29.079V32.25H30.3949V30.9638Z" fill="#FD0505"/>
<path d="M30.3949 29.6645H29.079V30.9638H30.3949V29.6645Z" fill="#FD0505"/>
<path d="M30.3949 28.3783H29.079V29.6645H30.3949V28.3783Z" fill="#E6E6E6"/>
<path d="M30.3949 27.0789H29.079V28.3783H30.3949V27.0789Z" fill="#E6E6E6"/>
<path d="M30.3949 25.7994H29.079V27.0855H30.3949V25.7994Z" fill="#0E0E11"/>
<path d="M30.3949 15.4506H29.079V16.75H30.3949V15.4506Z" fill="#E32121"/>
<path d="M30.3949 10.2862H29.079V11.5855H30.3949V10.2862Z" fill="#E32121"/>
<path d="M29.0789 37.4145H27.7764V38.7138H29.0789V37.4145Z" fill="#0E0E11"/>
<path d="M29.0789 36.1283H27.7764V37.4145H29.0789V36.1283Z" fill="#E6E6E6"/>
<path d="M29.0789 34.8289H27.7764V36.1283H29.0789V34.8289Z" fill="#FD0505"/>
<path d="M29.0789 33.5428H27.7764V34.8289H29.0789V33.5428Z" fill="#FD0505"/>
<path d="M29.0789 32.25H27.7764V33.5494H29.0789V32.25Z" fill="#FD0505"/>
<path d="M29.0789 30.9638H27.7764V32.25H29.0789V30.9638Z" fill="#FD0505"/>
<path d="M29.0789 29.6645H27.7764V30.9638H29.0789V29.6645Z" fill="#FD0505"/>
<path d="M29.0789 28.3783H27.7764V29.6645H29.0789V28.3783Z" fill="white"/>
<path d="M29.0789 27.0789H27.7764V28.3783H29.0789V27.0789Z" fill="#E6E6E6"/>
<path d="M29.0789 25.7994H27.7764V27.0855H29.0789V25.7994Z" fill="#0E0E11"/>
<path d="M29.0789 19.3355H27.7764V20.6217H29.0789V19.3355Z" fill="#0E0E11"/>
<path d="M27.7832 38.7138H26.4673V40H27.7832V38.7138Z" fill="#0E0E11"/>
<path d="M27.7832 37.4145H26.4673V38.7138H27.7832V37.4145Z" fill="#E6E6E6"/>
<path d="M27.7832 36.1283H26.4673V37.4145H27.7832V36.1283Z" fill="#FD0505"/>
<path d="M27.7832 34.8289H26.4673V36.1283H27.7832V34.8289Z" fill="#FD0505"/>
<path d="M27.7832 33.5428H26.4673V34.8289H27.7832V33.5428Z" fill="#FD0505"/>
<path d="M27.7832 32.25H26.4673V33.5494H27.7832V32.25Z" fill="#FD0505"/>
<path d="M27.7832 30.9638H26.4673V32.25H27.7832V30.9638Z" fill="#FD0505"/>
<path d="M27.7832 29.6645H26.4673V30.9638H27.7832V29.6645Z" fill="#FD0505"/>
<path d="M27.7832 28.3783H26.4673V29.6645H27.7832V28.3783Z" fill="white"/>
<path d="M27.7832 27.0789H26.4673V28.3783H27.7832V27.0789Z" fill="white"/>
<path d="M27.7832 25.7994H26.4673V27.0855H27.7832V25.7994Z" fill="#E6E6E6"/>
<path d="M27.7832 24.5H26.4673V25.7994H27.7832V24.5Z" fill="#0E0E11"/>
<path d="M27.7832 23.2138H26.4673V24.5H27.7832V23.2138Z" fill="#0E0E11"/>
<path d="M27.7832 21.9145H26.4673V23.2138H27.7832V21.9145Z" fill="#0E0E11"/>
<path d="M27.7832 20.6151H26.4673V21.9145H27.7832V20.6151Z" fill="#0E0E11"/>
<path d="M27.7832 19.3355H26.4673V20.6217H27.7832V19.3355Z" fill="#E6E6E6"/>
<path d="M27.7832 18.0362H26.4673V19.3355H27.7832V18.0362Z" fill="#0E0E11"/>
<path d="M26.4672 38.7138H25.1512V40H26.4672V38.7138Z" fill="#0E0E11"/>
<path d="M26.4672 37.4145H25.1512V38.7138H26.4672V37.4145Z" fill="#E6E6E6"/>
<path d="M26.4672 36.1283H25.1512V37.4145H26.4672V36.1283Z" fill="#FD0505"/>
<path d="M26.4672 34.8289H25.1512V36.1283H26.4672V34.8289Z" fill="#FD0505"/>
<path d="M26.4672 33.5428H25.1512V34.8289H26.4672V33.5428Z" fill="#FD0505"/>
<path d="M26.4672 32.25H25.1512V33.5494H26.4672V32.25Z" fill="#FD0505"/>
<path d="M26.4672 30.9638H25.1512V32.25H26.4672V30.9638Z" fill="#FD0505"/>
<path d="M26.4672 29.6645H25.1512V30.9638H26.4672V29.6645Z" fill="#FD0505"/>
<path d="M26.4672 28.3783H25.1512V29.6645H26.4672V28.3783Z" fill="white"/>
<path d="M26.4672 27.0789H25.1512V28.3783H26.4672V27.0789Z" fill="white"/>
<path d="M26.4672 25.7994H25.1512V27.0855H26.4672V25.7994Z" fill="white"/>
<path d="M26.4672 24.5H25.1512V25.7994H26.4672V24.5Z" fill="white"/>
<path d="M26.4672 23.2138H25.1512V24.5H26.4672V23.2138Z" fill="white"/>
<path d="M26.4672 21.9145H25.1512V23.2138H26.4672V21.9145Z" fill="white"/>
<path d="M26.4672 20.6151H25.1512V21.9145H26.4672V20.6151Z" fill="#B42F02"/>
<path d="M26.4672 19.3355H25.1512V20.6217H26.4672V19.3355Z" fill="#B42F02"/>
<path d="M26.4672 18.0362H25.1512V19.3355H26.4672V18.0362Z" fill="#0E0E11"/>
<path d="M26.4672 16.75H25.1512V18.0362H26.4672V16.75Z" fill="#B42F02"/>
<path d="M26.4672 11.5855H25.1512V12.8717H26.4672V11.5855Z" fill="#E32121"/>
<path d="M25.1513 38.7138H23.8488V40H25.1513V38.7138Z" fill="#0E0E11"/>
<path d="M25.1513 37.4145H23.8488V38.7138H25.1513V37.4145Z" fill="#E6E6E6"/>
<path d="M25.1513 36.1283H23.8488V37.4145H25.1513V36.1283Z" fill="#FD0505"/>
<path d="M25.1513 34.8289H23.8488V36.1283H25.1513V34.8289Z" fill="#FD0505"/>
<path d="M25.1513 33.5428H23.8488V34.8289H25.1513V33.5428Z" fill="#FD0505"/>
<path d="M25.1513 32.25H23.8488V33.5494H25.1513V32.25Z" fill="#FD0505"/>
<path d="M25.1513 30.9638H23.8488V32.25H25.1513V30.9638Z" fill="#FD0505"/>
<path d="M25.1513 29.6645H23.8488V30.9638H25.1513V29.6645Z" fill="#FD0505"/>
<path d="M25.1513 28.3783H23.8488V29.6645H25.1513V28.3783Z" fill="white"/>
<path d="M25.1513 27.0789H23.8488V28.3783H25.1513V27.0789Z" fill="white"/>
<path d="M25.1513 25.7994H23.8488V27.0855H25.1513V25.7994Z" fill="white"/>
<path d="M25.1513 24.5H23.8488V25.7994H25.1513V24.5Z" fill="white"/>
<path d="M25.1513 23.2138H23.8488V24.5H25.1513V23.2138Z" fill="white"/>
<path d="M25.1513 21.9145H23.8488V23.2138H25.1513V21.9145Z" fill="white"/>
<path d="M25.1513 20.6151H23.8488V21.9145H25.1513V20.6151Z" fill="#B42F02"/>
<path d="M25.1513 19.3355H23.8488V20.6217H25.1513V19.3355Z" fill="#B42F02"/>
<path d="M25.1513 18.0362H23.8488V19.3355H25.1513V18.0362Z" fill="#0E0E11"/>
<path d="M25.1513 16.75H23.8488V18.0362H25.1513V16.75Z" fill="#B42F02"/>
<path d="M23.8553 38.7138H22.5394V40H23.8553V38.7138Z" fill="#0E0E11"/>
<path d="M23.8553 37.4145H22.5394V38.7138H23.8553V37.4145Z" fill="#E6E6E6"/>
<path d="M23.8553 36.1283H22.5394V37.4145H23.8553V36.1283Z" fill="#FD0505"/>
<path d="M23.8553 34.8289H22.5394V36.1283H23.8553V34.8289Z" fill="#FD0505"/>
<path d="M23.8553 33.5428H22.5394V34.8289H23.8553V33.5428Z" fill="#FD0505"/>
<path d="M23.8553 32.25H22.5394V33.5494H23.8553V32.25Z" fill="#FD0505"/>
<path d="M23.8553 30.9638H22.5394V32.25H23.8553V30.9638Z" fill="#FD0505"/>
<path d="M23.8553 29.6645H22.5394V30.9638H23.8553V29.6645Z" fill="#FD0505"/>
<path d="M23.8553 28.3783H22.5394V29.6645H23.8553V28.3783Z" fill="white"/>
<path d="M23.8553 27.0789H22.5394V28.3783H23.8553V27.0789Z" fill="white"/>
<path d="M23.8553 25.7994H22.5394V27.0855H23.8553V25.7994Z" fill="white"/>
<path d="M23.8553 24.5H22.5394V25.7994H23.8553V24.5Z" fill="#E6E6E6"/>
<path d="M23.8553 23.2138H22.5394V24.5H23.8553V23.2138Z" fill="#E6E6E6"/>
<path d="M23.8553 21.9145H22.5394V23.2138H23.8553V21.9145Z" fill="#E6E6E6"/>
<path d="M23.8553 20.6151H22.5394V21.9145H23.8553V20.6151Z" fill="#F7A285"/>
<path d="M23.8553 19.3355H22.5394V20.6217H23.8553V19.3355Z" fill="#F7A285"/>
<path d="M23.8553 18.0362H22.5394V19.3355H23.8553V18.0362Z" fill="#0E0E11"/>
<path d="M23.8553 16.75H22.5394V18.0362H23.8553V16.75Z" fill="#F7A285"/>
<path d="M22.5395 38.7138H21.2236V40H22.5395V38.7138Z" fill="#0E0E11"/>
<path d="M22.5395 37.4145H21.2236V38.7138H22.5395V37.4145Z" fill="#E6E6E6"/>
<path d="M22.5395 36.1283H21.2236V37.4145H22.5395V36.1283Z" fill="#FD0505"/>
<path d="M22.5395 34.8289H21.2236V36.1283H22.5395V34.8289Z" fill="#FD0505"/>
<path d="M22.5395 33.5428H21.2236V34.8289H22.5395V33.5428Z" fill="white"/>
<path d="M22.5395 32.25H21.2236V33.5494H22.5395V32.25Z" fill="#FD0505"/>
<path d="M22.5395 30.9638H21.2236V32.25H22.5395V30.9638Z" fill="#FD0505"/>
<path d="M22.5395 29.6645H21.2236V30.9638H22.5395V29.6645Z" fill="#FD0505"/>
<path d="M22.5395 28.3783H21.2236V29.6645H22.5395V28.3783Z" fill="white"/>
<path d="M22.5395 27.0789H21.2236V28.3783H22.5395V27.0789Z" fill="white"/>
<path d="M22.5395 25.7994H21.2236V27.0855H22.5395V25.7994Z" fill="#E6E6E6"/>
<path d="M22.5395 24.5H21.2236V25.7994H22.5395V24.5Z" fill="#0E0E11"/>
<path d="M22.5395 23.2138H21.2236V24.5H22.5395V23.2138Z" fill="#0E0E11"/>
<path d="M22.5395 21.9145H21.2236V23.2138H22.5395V21.9145Z" fill="#0E0E11"/>
<path d="M22.5395 20.6151H21.2236V21.9145H22.5395V20.6151Z" fill="#0E0E11"/>
<path d="M22.5395 19.3355H21.2236V20.6217H22.5395V19.3355Z" fill="#E6E6E6"/>
<path d="M22.5395 18.0362H21.2236V19.3355H22.5395V18.0362Z" fill="#0E0E11"/>
<path d="M22.5395 9H21.2236V10.2862H22.5395V9Z" fill="#E32121"/>
<path d="M21.2303 37.4145H19.9277V38.7138H21.2303V37.4145Z" fill="#0E0E11"/>
<path d="M21.2303 36.1283H19.9277V37.4145H21.2303V36.1283Z" fill="#E6E6E6"/>
<path d="M21.2303 34.8289H19.9277V36.1283H21.2303V34.8289Z" fill="#FD0505"/>
<path d="M21.2303 33.5428H19.9277V34.8289H21.2303V33.5428Z" fill="#FD0505"/>
<path d="M21.2303 32.25H19.9277V33.5494H21.2303V32.25Z" fill="white"/>
<path d="M21.2303 30.9638H19.9277V32.25H21.2303V30.9638Z" fill="white"/>
<path d="M21.2303 29.6645H19.9277V30.9638H21.2303V29.6645Z" fill="#FD0505"/>
<path d="M21.2303 28.3783H19.9277V29.6645H21.2303V28.3783Z" fill="white"/>
<path d="M21.2303 27.0789H19.9277V28.3783H21.2303V27.0789Z" fill="#E6E6E6"/>
<path d="M21.2303 25.7994H19.9277V27.0855H21.2303V25.7994Z" fill="#0E0E11"/>
<path d="M21.2303 19.3355H19.9277V20.6217H21.2303V19.3355Z" fill="#0E0E11"/>
<path d="M19.9277 37.4145H18.6118V38.7138H19.9277V37.4145Z" fill="#0E0E11"/>
<path d="M19.9277 36.1283H18.6118V37.4145H19.9277V36.1283Z" fill="#E6E6E6"/>
<path d="M19.9277 34.8289H18.6118V36.1283H19.9277V34.8289Z" fill="#E6E6E6"/>
<path d="M19.9277 33.5428H18.6118V34.8289H19.9277V33.5428Z" fill="#FD0505"/>
<path d="M19.9277 32.25H18.6118V33.5494H19.9277V32.25Z" fill="#FD0505"/>
<path d="M19.9277 30.9638H18.6118V32.25H19.9277V30.9638Z" fill="#FD0505"/>
<path d="M19.9277 29.6645H18.6118V30.9638H19.9277V29.6645Z" fill="#FD0505"/>
<path d="M19.9277 28.3783H18.6118V29.6645H19.9277V28.3783Z" fill="#E6E6E6"/>
<path d="M19.9277 27.0789H18.6118V28.3783H19.9277V27.0789Z" fill="#E6E6E6"/>
<path d="M19.9277 25.7994H18.6118V27.0855H19.9277V25.7994Z" fill="#0E0E11"/>
<path d="M19.9277 14.1645H18.6118V15.4506H19.9277V14.1645Z" fill="#E32121"/>
<path d="M18.6185 36.1283H17.3159V37.4145H18.6185V36.1283Z" fill="#0E0E11"/>
<path d="M18.6185 34.8289H17.3159V36.1283H18.6185V34.8289Z" fill="#0E0E11"/>
<path d="M18.6185 33.5428H17.3159V34.8289H18.6185V33.5428Z" fill="#E6E6E6"/>
<path d="M18.6185 32.25H17.3159V33.5494H18.6185V32.25Z" fill="#E6E6E6"/>
<path d="M18.6185 30.9638H17.3159V32.25H18.6185V30.9638Z" fill="#E6E6E6"/>
<path d="M18.6185 29.6645H17.3159V30.9638H18.6185V29.6645Z" fill="#E6E6E6"/>
<path d="M18.6185 28.3783H17.3159V29.6645H18.6185V28.3783Z" fill="#0E0E11"/>
<path d="M18.6185 27.0789H17.3159V28.3783H18.6185V27.0789Z" fill="#0E0E11"/>
<path d="M17.3159 33.5428H16V34.8289H17.3159V33.5428Z" fill="#0E0E11"/>
<path d="M17.3159 32.25H16V33.5494H17.3159V32.25Z" fill="#0E0E11"/>
<path d="M17.3159 30.9638H16V32.25H17.3159V30.9638Z" fill="#0E0E11"/>
<path d="M17.3159 29.6645H16V30.9638H17.3159V29.6645Z" fill="#0E0E11"/>
</g>
<defs>
<clipPath id="clip0">
<rect width="17" height="31" fill="white" transform="translate(16 9)"/>
</clipPath>
</defs>
</svg>
