<svg width="50" height="50" viewBox="0 0 50 50" fill="none" xmlns="http://www.w3.org/2000/svg">
<g clip-path="url(#clip0)">
<path d="M36.0007 27.3748H34.5575V28.8049H36.0007V27.3748Z" fill="black"/>
<path d="M36.0007 25.9301H34.5575V27.3748H36.0007V25.9301Z" fill="black"/>
<path d="M36.0007 24.5H34.5575V25.9301H36.0007V24.5Z" fill="black"/>
<path d="M36.0007 23.0553H34.5575V24.5H36.0007V23.0553Z" fill="black"/>
<path d="M36.0007 21.6252H34.5575V23.0553H36.0007V21.6252Z" fill="black"/>
<path d="M36.0007 20.1804H34.5575V21.6252H36.0007V20.1804Z" fill="black"/>
<path d="M34.5575 30.2504H33.1289V31.6804H34.5575V30.2504Z" fill="black"/>
<path d="M34.5575 28.8056H33.1289V30.2504H34.5575V28.8056Z" fill="black"/>
<path d="M34.5575 27.3748H33.1289V28.8049H34.5575V27.3748Z" fill="#FFDD1A"/>
<path d="M34.5575 25.9301H33.1289V27.3748H34.5575V25.9301Z" fill="#FFDD1A"/>
<path d="M34.5575 24.5H33.1289V25.9301H34.5575V24.5Z" fill="#FFDD1A"/>
<path d="M34.5575 23.0553H33.1289V24.5H34.5575V23.0553Z" fill="#FFDD1A"/>
<path d="M34.5575 21.6252H33.1289V23.0553H34.5575V21.6252Z" fill="#FFDD1A"/>
<path d="M34.5575 20.1804H33.1289V21.6252H34.5575V20.1804Z" fill="#FFDD1A"/>
<path d="M34.5575 18.7504H33.1289V20.1804H34.5575V18.7504Z" fill="black"/>
<path d="M34.5575 17.3056H33.1289V18.7504H34.5575V17.3056Z" fill="black"/>
<path d="M33.1289 31.6804H31.6857V33.1252H33.1289V31.6804Z" fill="black"/>
<path d="M33.1289 30.2504H31.6857V31.6804H33.1289V30.2504Z" fill="#FFDD1A"/>
<path d="M33.1289 28.8056H31.6857V30.2504H33.1289V28.8056Z" fill="#FFDD1A"/>
<path d="M33.1289 27.3748H31.6857V28.8049H33.1289V27.3748Z" fill="#EA9E09"/>
<path d="M33.1289 25.9301H31.6857V27.3748H33.1289V25.9301Z" fill="#EA9E09"/>
<path d="M33.1289 24.5H31.6857V25.9301H33.1289V24.5Z" fill="#EA9E09"/>
<path d="M33.1289 23.0553H31.6857V24.5H33.1289V23.0553Z" fill="#EA9E09"/>
<path d="M33.1289 21.6252H31.6857V23.0553H33.1289V21.6252Z" fill="#EA9E09"/>
<path d="M33.1289 20.1804H31.6857V21.6252H33.1289V20.1804Z" fill="#EA9E09"/>
<path d="M33.1289 18.7504H31.6857V20.1804H33.1289V18.7504Z" fill="#FFDD1A"/>
<path d="M33.1289 17.3056H31.6857V18.7504H33.1289V17.3056Z" fill="#FFDD1A"/>
<path d="M33.1289 15.8748H31.6857V17.3049H33.1289V15.8748Z" fill="black"/>
<path d="M31.6864 33.1252H30.2432V34.5553H31.6864V33.1252Z" fill="black"/>
<path d="M31.6864 31.6804H30.2432V33.1252H31.6864V31.6804Z" fill="#FFDD1A"/>
<path d="M31.6864 30.2504H30.2432V31.6804H31.6864V30.2504Z" fill="#EA9E09"/>
<path d="M31.6864 28.8056H30.2432V30.2504H31.6864V28.8056Z" fill="#EA9E09"/>
<path d="M31.6864 27.3748H30.2432V28.8049H31.6864V27.3748Z" fill="#FFDD1A"/>
<path d="M31.6864 25.9301H30.2432V27.3748H31.6864V25.9301Z" fill="#FFDD1A"/>
<path d="M31.6864 24.5H30.2432V25.9301H31.6864V24.5Z" fill="#FFDD1A"/>
<path d="M31.6864 23.0553H30.2432V24.5H31.6864V23.0553Z" fill="#FFDD1A"/>
<path d="M31.6864 21.6252H30.2432V23.0553H31.6864V21.6252Z" fill="#FFDD1A"/>
<path d="M31.6864 20.1804H30.2432V21.6252H31.6864V20.1804Z" fill="#FFDD1A"/>
<path d="M31.6864 18.7504H30.2432V20.1804H31.6864V18.7504Z" fill="#EA9E09"/>
<path d="M31.6864 17.3056H30.2432V18.7504H31.6864V17.3056Z" fill="#EA9E09"/>
<path d="M31.6864 15.8748H30.2432V17.3049H31.6864V15.8748Z" fill="#FFDD1A"/>
<path d="M31.6864 14.4301H30.2432V15.8748H31.6864V14.4301Z" fill="black"/>
<path d="M30.2433 33.1252H28.8147V34.5553H30.2433V33.1252Z" fill="black"/>
<path d="M30.2433 31.6804H28.8147V33.1252H30.2433V31.6804Z" fill="#FFDD1A"/>
<path d="M30.2433 30.2504H28.8147V31.6804H30.2433V30.2504Z" fill="#EA9E09"/>
<path d="M30.2433 28.8056H28.8147V30.2504H30.2433V28.8056Z" fill="#FFDD1A"/>
<path d="M30.2433 27.3748H28.8147V28.8049H30.2433V27.3748Z" fill="#FFDD1A"/>
<path d="M30.2433 25.9301H28.8147V27.3748H30.2433V25.9301Z" fill="#FFDD1A"/>
<path d="M30.2433 24.5H28.8147V25.9301H30.2433V24.5Z" fill="#FFDD1A"/>
<path d="M30.2433 23.0553H28.8147V24.5H30.2433V23.0553Z" fill="#FFDD1A"/>
<path d="M30.2433 21.6252H28.8147V23.0553H30.2433V21.6252Z" fill="#FFDD1A"/>
<path d="M30.2433 20.1804H28.8147V21.6252H30.2433V20.1804Z" fill="#FFDD1A"/>
<path d="M30.2433 18.7504H28.8147V20.1804H30.2433V18.7504Z" fill="#FFDD1A"/>
<path d="M30.2433 17.3056H28.8147V18.7504H30.2433V17.3056Z" fill="white"/>
<path d="M30.2433 15.8748H28.8147V17.3049H30.2433V15.8748Z" fill="#FFDD1A"/>
<path d="M30.2433 14.4301H28.8147V15.8748H30.2433V14.4301Z" fill="black"/>
<path d="M28.8147 34.5553H27.3715V36H28.8147V34.5553Z" fill="black"/>
<path d="M28.8147 33.1252H27.3715V34.5553H28.8147V33.1252Z" fill="#FFDD1A"/>
<path d="M28.8147 31.6804H27.3715V33.1252H28.8147V31.6804Z" fill="#EA9E09"/>
<path d="M28.8147 30.2504H27.3715V31.6804H28.8147V30.2504Z" fill="#FFDD1A"/>
<path d="M28.8147 28.8056H27.3715V30.2504H28.8147V28.8056Z" fill="#FFDD1A"/>
<path d="M28.8147 27.3748H27.3715V28.8049H28.8147V27.3748Z" fill="#FFDD1A"/>
<path d="M28.8147 25.9301H27.3715V27.3748H28.8147V25.9301Z" fill="#FFDD1A"/>
<path d="M28.8147 24.5H27.3715V25.9301H28.8147V24.5Z" fill="#FFDD1A"/>
<path d="M28.8147 23.0553H27.3715V24.5H28.8147V23.0553Z" fill="#FFDD1A"/>
<path d="M28.8147 21.6252H27.3715V23.0553H28.8147V21.6252Z" fill="#FFDD1A"/>
<path d="M28.8147 20.1804H27.3715V21.6252H28.8147V20.1804Z" fill="#FFDD1A"/>
<path d="M28.8147 18.7504H27.3715V20.1804H28.8147V18.7504Z" fill="#FFDD1A"/>
<path d="M28.8147 17.3056H27.3715V18.7504H28.8147V17.3056Z" fill="#FFDD1A"/>
<path d="M28.8147 15.8748H27.3715V17.3049H28.8147V15.8748Z" fill="white"/>
<path d="M28.8147 14.4301H27.3715V15.8748H28.8147V14.4301Z" fill="#FFDD1A"/>
<path d="M28.8147 13H27.3715V14.4301H28.8147V13Z" fill="black"/>
<path d="M27.3715 34.5553H25.9282V36H27.3715V34.5553Z" fill="black"/>
<path d="M27.3715 33.1252H25.9282V34.5553H27.3715V33.1252Z" fill="#FFDD1A"/>
<path d="M27.3715 31.6804H25.9282V33.1252H27.3715V31.6804Z" fill="#EA9E09"/>
<path d="M27.3715 30.2504H25.9282V31.6804H27.3715V30.2504Z" fill="#FFDD1A"/>
<path d="M27.3715 28.8056H25.9282V30.2504H27.3715V28.8056Z" fill="#EA9E09"/>
<path d="M27.3715 27.3748H25.9282V28.8049H27.3715V27.3748Z" fill="#EA9E09"/>
<path d="M27.3715 25.9301H25.9282V27.3748H27.3715V25.9301Z" fill="#EA9E09"/>
<path d="M27.3715 24.5H25.9282V25.9301H27.3715V24.5Z" fill="#EA9E09"/>
<path d="M27.3715 23.0553H25.9282V24.5H27.3715V23.0553Z" fill="#EA9E09"/>
<path d="M27.3715 21.6252H25.9282V23.0553H27.3715V21.6252Z" fill="#EA9E09"/>
<path d="M27.3715 20.1804H25.9282V21.6252H27.3715V20.1804Z" fill="#EA9E09"/>
<path d="M27.3715 18.7504H25.9282V20.1804H27.3715V18.7504Z" fill="#EA9E09"/>
<path d="M27.3715 17.3056H25.9282V18.7504H27.3715V17.3056Z" fill="#FFDD1A"/>
<path d="M27.3715 15.8748H25.9282V17.3049H27.3715V15.8748Z" fill="white"/>
<path d="M27.3715 14.4301H25.9282V15.8748H27.3715V14.4301Z" fill="#FFDD1A"/>
<path d="M27.3715 13H25.9282V14.4301H27.3715V13Z" fill="black"/>
<path d="M25.9289 34.5553H24.5004V36H25.9289V34.5553Z" fill="black"/>
<path d="M25.9289 33.1252H24.5004V34.5553H25.9289V33.1252Z" fill="#FFDD1A"/>
<path d="M25.9289 31.6804H24.5004V33.1252H25.9289V31.6804Z" fill="#EA9E09"/>
<path d="M25.9289 30.2504H24.5004V31.6804H25.9289V30.2504Z" fill="#FFDD1A"/>
<path d="M25.9289 28.8056H24.5004V30.2504H25.9289V28.8056Z" fill="#EA9E09"/>
<path d="M25.9289 27.3748H24.5004V28.8049H25.9289V27.3748Z" fill="#FFDD1A"/>
<path d="M25.9289 25.9301H24.5004V27.3748H25.9289V25.9301Z" fill="#FFDD1A"/>
<path d="M25.9289 24.5H24.5004V25.9301H25.9289V24.5Z" fill="#FFDD1A"/>
<path d="M25.9289 23.0553H24.5004V24.5H25.9289V23.0553Z" fill="#FFDD1A"/>
<path d="M25.9289 21.6252H24.5004V23.0553H25.9289V21.6252Z" fill="#FFDD1A"/>
<path d="M25.9289 20.1804H24.5004V21.6252H25.9289V20.1804Z" fill="#FFDD1A"/>
<path d="M25.9289 18.7504H24.5004V20.1804H25.9289V18.7504Z" fill="white"/>
<path d="M25.9289 17.3056H24.5004V18.7504H25.9289V17.3056Z" fill="#FFDD1A"/>
<path d="M25.9289 15.8748H24.5004V17.3049H25.9289V15.8748Z" fill="white"/>
<path d="M25.9289 14.4301H24.5004V15.8748H25.9289V14.4301Z" fill="#FFDD1A"/>
<path d="M25.9289 13H24.5004V14.4301H25.9289V13Z" fill="black"/>
<path d="M24.5004 34.5553H23.0571V36H24.5004V34.5553Z" fill="black"/>
<path d="M24.5004 33.1252H23.0571V34.5553H24.5004V33.1252Z" fill="#FFDD1A"/>
<path d="M24.5004 31.6804H23.0571V33.1252H24.5004V31.6804Z" fill="#EA9E09"/>
<path d="M24.5004 30.2504H23.0571V31.6804H24.5004V30.2504Z" fill="#FFDD1A"/>
<path d="M24.5004 28.8056H23.0571V30.2504H24.5004V28.8056Z" fill="#EA9E09"/>
<path d="M24.5004 27.3748H23.0571V28.8049H24.5004V27.3748Z" fill="#FFDD1A"/>
<path d="M24.5004 25.9301H23.0571V27.3748H24.5004V25.9301Z" fill="#FFDD1A"/>
<path d="M24.5004 24.5H23.0571V25.9301H24.5004V24.5Z" fill="#FFDD1A"/>
<path d="M24.5004 23.0553H23.0571V24.5H24.5004V23.0553Z" fill="#FFDD1A"/>
<path d="M24.5004 21.6252H23.0571V23.0553H24.5004V21.6252Z" fill="#FFDD1A"/>
<path d="M24.5004 20.1804H23.0571V21.6252H24.5004V20.1804Z" fill="#FFDD1A"/>
<path d="M24.5004 18.7504H23.0571V20.1804H24.5004V18.7504Z" fill="white"/>
<path d="M24.5004 17.3056H23.0571V18.7504H24.5004V17.3056Z" fill="#FFDD1A"/>
<path d="M24.5004 15.8748H23.0571V17.3049H24.5004V15.8748Z" fill="white"/>
<path d="M24.5004 14.4301H23.0571V15.8748H24.5004V14.4301Z" fill="#FFDD1A"/>
<path d="M24.5004 13H23.0571V14.4301H24.5004V13Z" fill="black"/>
<path d="M23.0571 34.5553H21.6285V36H23.0571V34.5553Z" fill="black"/>
<path d="M23.0571 33.1252H21.6285V34.5553H23.0571V33.1252Z" fill="#FFDD1A"/>
<path d="M23.0571 31.6804H21.6285V33.1252H23.0571V31.6804Z" fill="#EA9E09"/>
<path d="M23.0571 30.2504H21.6285V31.6804H23.0571V30.2504Z" fill="#FFDD1A"/>
<path d="M23.0571 28.8056H21.6285V30.2504H23.0571V28.8056Z" fill="white"/>
<path d="M23.0571 27.3748H21.6285V28.8049H23.0571V27.3748Z" fill="white"/>
<path d="M23.0571 25.9301H21.6285V27.3748H23.0571V25.9301Z" fill="white"/>
<path d="M23.0571 24.5H21.6285V25.9301H23.0571V24.5Z" fill="white"/>
<path d="M23.0571 23.0553H21.6285V24.5H23.0571V23.0553Z" fill="white"/>
<path d="M23.0571 21.6252H21.6285V23.0553H23.0571V21.6252Z" fill="white"/>
<path d="M23.0571 20.1804H21.6285V21.6252H23.0571V20.1804Z" fill="white"/>
<path d="M23.0571 18.7504H21.6285V20.1804H23.0571V18.7504Z" fill="white"/>
<path d="M23.0571 17.3056H21.6285V18.7504H23.0571V17.3056Z" fill="#FFDD1A"/>
<path d="M23.0571 15.8748H21.6285V17.3049H23.0571V15.8748Z" fill="white"/>
<path d="M23.0571 14.4301H21.6285V15.8748H23.0571V14.4301Z" fill="#FFDD1A"/>
<path d="M23.0571 13H21.6285V14.4301H23.0571V13Z" fill="black"/>
<path d="M21.6293 34.5553H20.186V36H21.6293V34.5553Z" fill="black"/>
<path d="M21.6293 33.1252H20.186V34.5553H21.6293V33.1252Z" fill="#FFDD1A"/>
<path d="M21.6293 31.6804H20.186V33.1252H21.6293V31.6804Z" fill="#EA9E09"/>
<path d="M21.6293 30.2504H20.186V31.6804H21.6293V30.2504Z" fill="#FFDD1A"/>
<path d="M21.6293 28.8056H20.186V30.2504H21.6293V28.8056Z" fill="#FFDD1A"/>
<path d="M21.6293 27.3748H20.186V28.8049H21.6293V27.3748Z" fill="#FFDD1A"/>
<path d="M21.6293 25.9301H20.186V27.3748H21.6293V25.9301Z" fill="#FFDD1A"/>
<path d="M21.6293 24.5H20.186V25.9301H21.6293V24.5Z" fill="#FFDD1A"/>
<path d="M21.6293 23.0553H20.186V24.5H21.6293V23.0553Z" fill="#FFDD1A"/>
<path d="M21.6293 21.6252H20.186V23.0553H21.6293V21.6252Z" fill="#FFDD1A"/>
<path d="M21.6293 20.1804H20.186V21.6252H21.6293V20.1804Z" fill="#FFDD1A"/>
<path d="M21.6293 18.7504H20.186V20.1804H21.6293V18.7504Z" fill="#FFDD1A"/>
<path d="M21.6293 17.3056H20.186V18.7504H21.6293V17.3056Z" fill="#FFDD1A"/>
<path d="M21.6293 15.8748H20.186V17.3049H21.6293V15.8748Z" fill="white"/>
<path d="M21.6293 14.4301H20.186V15.8748H21.6293V14.4301Z" fill="#FFDD1A"/>
<path d="M21.6293 13H20.186V14.4301H21.6293V13Z" fill="black"/>
<path d="M20.186 33.1252H18.7428V34.5553H20.186V33.1252Z" fill="black"/>
<path d="M20.186 31.6804H18.7428V33.1252H20.186V31.6804Z" fill="#FFDD1A"/>
<path d="M20.186 30.2504H18.7428V31.6804H20.186V30.2504Z" fill="#EA9E09"/>
<path d="M20.186 28.8056H18.7428V30.2504H20.186V28.8056Z" fill="#FFDD1A"/>
<path d="M20.186 27.3748H18.7428V28.8049H20.186V27.3748Z" fill="#FFDD1A"/>
<path d="M20.186 25.9301H18.7428V27.3748H20.186V25.9301Z" fill="#FFDD1A"/>
<path d="M20.186 24.5H18.7428V25.9301H20.186V24.5Z" fill="#FFDD1A"/>
<path d="M20.186 23.0553H18.7428V24.5H20.186V23.0553Z" fill="#FFDD1A"/>
<path d="M20.186 21.6252H18.7428V23.0553H20.186V21.6252Z" fill="#FFDD1A"/>
<path d="M20.186 20.1804H18.7428V21.6252H20.186V20.1804Z" fill="#FFDD1A"/>
<path d="M20.186 18.7504H18.7428V20.1804H20.186V18.7504Z" fill="#FFDD1A"/>
<path d="M20.186 17.3056H18.7428V18.7504H20.186V17.3056Z" fill="white"/>
<path d="M20.186 15.8748H18.7428V17.3049H20.186V15.8748Z" fill="#FFDD1A"/>
<path d="M20.186 14.4301H18.7428V15.8748H20.186V14.4301Z" fill="black"/>
<path d="M18.7429 33.1252H17.3143V34.5553H18.7429V33.1252Z" fill="black"/>
<path d="M18.7429 31.6804H17.3143V33.1252H18.7429V31.6804Z" fill="#FFDD1A"/>
<path d="M18.7429 30.2504H17.3143V31.6804H18.7429V30.2504Z" fill="#EA9E09"/>
<path d="M18.7429 28.8056H17.3143V30.2504H18.7429V28.8056Z" fill="white"/>
<path d="M18.7429 27.3748H17.3143V28.8049H18.7429V27.3748Z" fill="#FFDD1A"/>
<path d="M18.7429 25.9301H17.3143V27.3748H18.7429V25.9301Z" fill="#FFDD1A"/>
<path d="M18.7429 24.5H17.3143V25.9301H18.7429V24.5Z" fill="#FFDD1A"/>
<path d="M18.7429 23.0553H17.3143V24.5H18.7429V23.0553Z" fill="#FFDD1A"/>
<path d="M18.7429 21.6252H17.3143V23.0553H18.7429V21.6252Z" fill="#FFDD1A"/>
<path d="M18.7429 20.1804H17.3143V21.6252H18.7429V20.1804Z" fill="#FFDD1A"/>
<path d="M18.7429 18.7504H17.3143V20.1804H18.7429V18.7504Z" fill="white"/>
<path d="M18.7429 17.3056H17.3143V18.7504H18.7429V17.3056Z" fill="white"/>
<path d="M18.7429 15.8748H17.3143V17.3049H18.7429V15.8748Z" fill="#FFDD1A"/>
<path d="M18.7429 14.4301H17.3143V15.8748H18.7429V14.4301Z" fill="black"/>
<path d="M17.3143 31.6804H15.8711V33.1252H17.3143V31.6804Z" fill="black"/>
<path d="M17.3143 30.2504H15.8711V31.6804H17.3143V30.2504Z" fill="#FFDD1A"/>
<path d="M17.3143 28.8056H15.8711V30.2504H17.3143V28.8056Z" fill="#FFDD1A"/>
<path d="M17.3143 27.3748H15.8711V28.8049H17.3143V27.3748Z" fill="white"/>
<path d="M17.3143 25.9301H15.8711V27.3748H17.3143V25.9301Z" fill="white"/>
<path d="M17.3143 24.5H15.8711V25.9301H17.3143V24.5Z" fill="white"/>
<path d="M17.3143 23.0553H15.8711V24.5H17.3143V23.0553Z" fill="white"/>
<path d="M17.3143 21.6252H15.8711V23.0553H17.3143V21.6252Z" fill="white"/>
<path d="M17.3143 20.1804H15.8711V21.6252H17.3143V20.1804Z" fill="white"/>
<path d="M17.3143 18.7504H15.8711V20.1804H17.3143V18.7504Z" fill="#FFDD1A"/>
<path d="M17.3143 17.3056H15.8711V18.7504H17.3143V17.3056Z" fill="#FFDD1A"/>
<path d="M17.3143 15.8748H15.8711V17.3049H17.3143V15.8748Z" fill="black"/>
<path d="M15.8718 30.2504H14.4286V31.6804H15.8718V30.2504Z" fill="black"/>
<path d="M15.8718 28.8056H14.4286V30.2504H15.8718V28.8056Z" fill="black"/>
<path d="M15.8718 27.3748H14.4286V28.8049H15.8718V27.3748Z" fill="#FFDD1A"/>
<path d="M15.8718 25.9301H14.4286V27.3748H15.8718V25.9301Z" fill="#FFDD1A"/>
<path d="M15.8718 24.5H14.4286V25.9301H15.8718V24.5Z" fill="#FFDD1A"/>
<path d="M15.8718 23.0553H14.4286V24.5H15.8718V23.0553Z" fill="#FFDD1A"/>
<path d="M15.8718 21.6252H14.4286V23.0553H15.8718V21.6252Z" fill="#FFDD1A"/>
<path d="M15.8718 20.1804H14.4286V21.6252H15.8718V20.1804Z" fill="#FFDD1A"/>
<path d="M15.8718 18.7504H14.4286V20.1804H15.8718V18.7504Z" fill="black"/>
<path d="M15.8718 17.3056H14.4286V18.7504H15.8718V17.3056Z" fill="black"/>
<path d="M14.4286 28.8056H13V30.2504H14.4286V28.8056Z" fill="black"/>
<path d="M14.4286 27.3748H13V28.8049H14.4286V27.3748Z" fill="black"/>
<path d="M14.4286 25.9301H13V27.3748H14.4286V25.9301Z" fill="black"/>
<path d="M14.4286 24.5H13V25.9301H14.4286V24.5Z" fill="black"/>
<path d="M14.4286 23.0553H13V24.5H14.4286V23.0553Z" fill="black"/>
<path d="M14.4286 21.6252H13V23.0553H14.4286V21.6252Z" fill="black"/>
<path d="M14.4286 20.1804H13V21.6252H14.4286V20.1804Z" fill="black"/>
</g>
<defs>
<clipPath id="clip0">
<rect width="23" height="23" fill="white" transform="translate(13 13)"/>
</clipPath>
</defs>
</svg>
