<svg width="50" height="50" viewBox="0 0 50 50" fill="none" xmlns="http://www.w3.org/2000/svg">
<path d="M38.0008 22.2987H36.5511V23.7762H38.0008V22.2987Z" fill="#0E0E11"/>
<path d="M38.0008 20.8361H36.5511V22.2987H38.0008V20.8361Z" fill="#0E0E11"/>
<path d="M38.0008 19.3585H36.5511V20.8361H38.0008V19.3585Z" fill="#0E0E11"/>
<path d="M38.0008 17.8953H36.5511V19.3578H38.0008V17.8953Z" fill="#0E0E11"/>
<path d="M36.5512 23.7762H35.1016V25.2388H36.5512V23.7762Z" fill="#0E0E11"/>
<path d="M36.5512 22.2987H35.1016V23.7762H36.5512V22.2987Z" fill="#EA9E09"/>
<path d="M36.5512 20.8361H35.1016V22.2987H36.5512V20.8361Z" fill="#EA9E09"/>
<path d="M36.5512 19.3585H35.1016V20.8361H36.5512V19.3585Z" fill="#EA9E09"/>
<path d="M36.5512 17.8953H35.1016V19.3578H36.5512V17.8953Z" fill="#EA9E09"/>
<path d="M36.5512 16.4177H35.1016V17.8953H36.5512V16.4177Z" fill="#0E0E11"/>
<path d="M35.1015 25.2388H33.6666V26.7163H35.1015V25.2388Z" fill="#0E0E11"/>
<path d="M35.1015 23.7762H33.6666V25.2388H35.1015V23.7762Z" fill="#EA9E09"/>
<path d="M35.1015 22.2987H33.6666V23.7762H35.1015V22.2987Z" fill="#FFFF00"/>
<path d="M35.1015 20.8361H33.6666V22.2987H35.1015V20.8361Z" fill="#0E0E11"/>
<path d="M35.1015 19.3585H33.6666V20.8361H35.1015V19.3585Z" fill="#0E0E11"/>
<path d="M35.1015 17.8953H33.6666V19.3578H35.1015V17.8953Z" fill="#FFFF00"/>
<path d="M35.1015 16.4177H33.6666V17.8953H35.1015V16.4177Z" fill="#FFFF00"/>
<path d="M35.1015 14.9401H33.6666V16.4177H35.1015V14.9401Z" fill="#0E0E11"/>
<path d="M33.6674 25.2388H32.2178V26.7163H33.6674V25.2388Z" fill="#0E0E11"/>
<path d="M33.6674 23.7762H32.2178V25.2388H33.6674V23.7762Z" fill="#EA9E09"/>
<path d="M33.6674 22.2987H32.2178V23.7762H33.6674V22.2987Z" fill="#0E0E11"/>
<path d="M33.6674 20.8361H32.2178V22.2987H33.6674V20.8361Z" fill="white"/>
<path d="M33.6674 19.3585H32.2178V20.8361H33.6674V19.3585Z" fill="white"/>
<path d="M33.6674 17.8953H32.2178V19.3578H33.6674V17.8953Z" fill="#0E0E11"/>
<path d="M33.6674 16.4177H32.2178V17.8953H33.6674V16.4177Z" fill="#FFFF00"/>
<path d="M33.6674 14.9401H32.2178V16.4177H33.6674V14.9401Z" fill="#FFFF00"/>
<path d="M33.6674 13.4776H32.2178V14.9401H33.6674V13.4776Z" fill="#0E0E11"/>
<path d="M32.2178 26.7163H30.783V28.1789H32.2178V26.7163Z" fill="#0E0E11"/>
<path d="M32.2178 25.2388H30.783V26.7163H32.2178V25.2388Z" fill="#EA9E09"/>
<path d="M32.2178 23.7762H30.783V25.2388H32.2178V23.7762Z" fill="#FFFF00"/>
<path d="M32.2178 22.2987H30.783V23.7762H32.2178V22.2987Z" fill="#0E0E11"/>
<path d="M32.2178 20.8361H30.783V22.2987H32.2178V20.8361Z" fill="white"/>
<path d="M32.2178 19.3585H30.783V20.8361H32.2178V19.3585Z" fill="white"/>
<path d="M32.2178 17.8953H30.783V19.3578H32.2178V17.8953Z" fill="white"/>
<path d="M32.2178 16.4177H30.783V17.8953H32.2178V16.4177Z" fill="#0E0E11"/>
<path d="M32.2178 14.9401H30.783V16.4177H32.2178V14.9401Z" fill="#FFFF00"/>
<path d="M32.2178 13.4776H30.783V14.9401H32.2178V13.4776Z" fill="#FFFF00"/>
<path d="M32.2178 12H30.783V13.4776H32.2178V12Z" fill="#0E0E11"/>
<path d="M30.783 26.7163H29.3334V28.1789H30.783V26.7163Z" fill="#0E0E11"/>
<path d="M30.783 25.2388H29.3334V26.7163H30.783V25.2388Z" fill="#EA9E09"/>
<path d="M30.783 23.7762H29.3334V25.2388H30.783V23.7762Z" fill="#FFFF00"/>
<path d="M30.783 22.2987H29.3334V23.7762H30.783V22.2987Z" fill="#0E0E11"/>
<path d="M30.783 20.8361H29.3334V22.2987H30.783V20.8361Z" fill="white"/>
<path d="M30.783 19.3585H29.3334V20.8361H30.783V19.3585Z" fill="white"/>
<path d="M30.783 17.8953H29.3334V19.3578H30.783V17.8953Z" fill="white"/>
<path d="M30.783 16.4177H29.3334V17.8953H30.783V16.4177Z" fill="white"/>
<path d="M30.783 14.9401H29.3334V16.4177H30.783V14.9401Z" fill="#0E0E11"/>
<path d="M30.783 13.4776H29.3334V14.9401H30.783V13.4776Z" fill="#FFFF00"/>
<path d="M30.783 12H29.3334V13.4776H30.783V12Z" fill="#0E0E11"/>
<path d="M29.3341 25.2388H27.8845V26.7163H29.3341V25.2388Z" fill="#0E0E11"/>
<path d="M29.3341 23.7762H27.8845V25.2388H29.3341V23.7762Z" fill="#EA9E09"/>
<path d="M29.3341 22.2987H27.8845V23.7762H29.3341V22.2987Z" fill="#FFFF00"/>
<path d="M29.3341 20.8361H27.8845V22.2987H29.3341V20.8361Z" fill="#0E0E11"/>
<path d="M29.3341 19.3585H27.8845V20.8361H29.3341V19.3585Z" fill="white"/>
<path d="M29.3341 17.8953H27.8845V19.3578H29.3341V17.8953Z" fill="white"/>
<path d="M29.3341 16.4177H27.8845V17.8953H29.3341V16.4177Z" fill="white"/>
<path d="M29.3341 14.9401H27.8845V16.4177H29.3341V14.9401Z" fill="#0E0E11"/>
<path d="M29.3341 13.4776H27.8845V14.9401H29.3341V13.4776Z" fill="#FFFF00"/>
<path d="M29.3341 12H27.8845V13.4776H29.3341V12Z" fill="#0E0E11"/>
<path d="M27.8844 25.2388H26.4496V26.7163H27.8844V25.2388Z" fill="#0E0E11"/>
<path d="M27.8844 23.7762H26.4496V25.2388H27.8844V23.7762Z" fill="#EA9E09"/>
<path d="M27.8844 22.2987H26.4496V23.7762H27.8844V22.2987Z" fill="#FFFF00"/>
<path d="M27.8844 20.8361H26.4496V22.2987H27.8844V20.8361Z" fill="#FFFF00"/>
<path d="M27.8844 19.3585H26.4496V20.8361H27.8844V19.3585Z" fill="#0E0E11"/>
<path d="M27.8844 17.8953H26.4496V19.3578H27.8844V17.8953Z" fill="#0E0E11"/>
<path d="M27.8844 16.4177H26.4496V17.8953H27.8844V16.4177Z" fill="#0E0E11"/>
<path d="M27.8844 14.9401H26.4496V16.4177H27.8844V14.9401Z" fill="#FFFF00"/>
<path d="M27.8844 13.4776H26.4496V14.9401H27.8844V13.4776Z" fill="white"/>
<path d="M27.8844 12H26.4496V13.4776H27.8844V12Z" fill="#0E0E11"/>
<path d="M26.4496 26.7163H25V28.1789H26.4496V26.7163Z" fill="#0E0E11"/>
<path d="M26.4496 25.2388H25V26.7163H26.4496V25.2388Z" fill="#EA9E09"/>
<path d="M26.4496 23.7762H25V25.2388H26.4496V23.7762Z" fill="#FFFF00"/>
<path d="M26.4496 22.2987H25V23.7762H26.4496V22.2987Z" fill="white"/>
<path d="M26.4496 20.8361H25V22.2987H26.4496V20.8361Z" fill="white"/>
<path d="M26.4496 19.3585H25V20.8361H26.4496V19.3585Z" fill="#FFFF00"/>
<path d="M26.4496 17.8953H25V19.3578H26.4496V17.8953Z" fill="#FFFF00"/>
<path d="M26.4496 16.4177H25V17.8953H26.4496V16.4177Z" fill="white"/>
<path d="M26.4496 14.9401H25V16.4177H26.4496V14.9401Z" fill="white"/>
<path d="M26.4496 13.4776H25V14.9401H26.4496V13.4776Z" fill="#0E0E11"/>
<path d="M25.0008 28.1789H23.5511V29.6565H25.0008V28.1789Z" fill="#0E0E11"/>
<path d="M25.0008 26.7163H23.5511V28.1789H25.0008V26.7163Z" fill="#EA9E09"/>
<path d="M25.0008 25.2388H23.5511V26.7163H25.0008V25.2388Z" fill="#FFFF00"/>
<path d="M25.0008 23.7762H23.5511V25.2388H25.0008V23.7762Z" fill="white"/>
<path d="M25.0008 22.2987H23.5511V23.7762H25.0008V22.2987Z" fill="#0E0E11"/>
<path d="M25.0008 20.8361H23.5511V22.2987H25.0008V20.8361Z" fill="#0E0E11"/>
<path d="M25.0008 19.3585H23.5511V20.8361H25.0008V19.3585Z" fill="white"/>
<path d="M25.0008 17.8953H23.5511V19.3578H25.0008V17.8953Z" fill="white"/>
<path d="M25.0008 16.4177H23.5511V17.8953H25.0008V16.4177Z" fill="#0E0E11"/>
<path d="M25.0008 14.9401H23.5511V16.4177H25.0008V14.9401Z" fill="#0E0E11"/>
<path d="M23.5512 29.6565H22.1163V31.119H23.5512V29.6565Z" fill="#0E0E11"/>
<path d="M23.5512 28.1789H22.1163V29.6565H23.5512V28.1789Z" fill="#EA9E09"/>
<path d="M23.5512 26.7163H22.1163V28.1789H23.5512V26.7163Z" fill="#FFFF00"/>
<path d="M23.5512 25.2388H22.1163V26.7163H23.5512V25.2388Z" fill="white"/>
<path d="M23.5512 23.7762H22.1163V25.2388H23.5512V23.7762Z" fill="#0E0E11"/>
<path d="M23.5512 19.3585H22.1163V20.8361H23.5512V19.3585Z" fill="#0E0E11"/>
<path d="M23.5512 17.8953H22.1163V19.3578H23.5512V17.8953Z" fill="#0E0E11"/>
<path d="M22.1162 31.1198H20.6666V32.5973H22.1162V31.1198Z" fill="#0E0E11"/>
<path d="M22.1162 29.6565H20.6666V31.119H22.1162V29.6565Z" fill="#EA9E09"/>
<path d="M22.1162 28.1789H20.6666V29.6565H22.1162V28.1789Z" fill="#FFFF00"/>
<path d="M22.1162 26.7163H20.6666V28.1789H22.1162V26.7163Z" fill="white"/>
<path d="M22.1162 25.2388H20.6666V26.7163H22.1162V25.2388Z" fill="#0E0E11"/>
<path d="M20.6674 32.5973H19.2178V34.0599H20.6674V32.5973Z" fill="#0E0E11"/>
<path d="M20.6674 31.1198H19.2178V32.5973H20.6674V31.1198Z" fill="#EA9E09"/>
<path d="M20.6674 29.6565H19.2178V31.119H20.6674V29.6565Z" fill="#FFFF00"/>
<path d="M20.6674 28.1789H19.2178V29.6565H20.6674V28.1789Z" fill="white"/>
<path d="M20.6674 26.7163H19.2178V28.1789H20.6674V26.7163Z" fill="#0E0E11"/>
<path d="M19.2178 34.0599H17.783V35.5375H19.2178V34.0599Z" fill="#0E0E11"/>
<path d="M19.2178 32.5973H17.783V34.0599H19.2178V32.5973Z" fill="#EA9E09"/>
<path d="M19.2178 31.1198H17.783V32.5973H19.2178V31.1198Z" fill="#FFFF00"/>
<path d="M19.2178 29.6565H17.783V31.119H19.2178V29.6565Z" fill="#FFFF00"/>
<path d="M19.2178 28.1789H17.783V29.6565H19.2178V28.1789Z" fill="#FFFF00"/>
<path d="M19.2178 26.7163H17.783V28.1789H19.2178V26.7163Z" fill="white"/>
<path d="M19.2178 25.2388H17.783V26.7163H19.2178V25.2388Z" fill="#0E0E11"/>
<path d="M17.783 35.5375H16.3334V37H17.783V35.5375Z" fill="#0E0E11"/>
<path d="M17.783 34.0599H16.3334V35.5375H17.783V34.0599Z" fill="#EA9E09"/>
<path d="M17.783 32.5973H16.3334V34.0599H17.783V32.5973Z" fill="#FFFF00"/>
<path d="M17.783 31.1198H16.3334V32.5973H17.783V31.1198Z" fill="#FFFF00"/>
<path d="M17.783 29.6565H16.3334V31.119H17.783V29.6565Z" fill="#FFFF00"/>
<path d="M17.783 28.1789H16.3334V29.6565H17.783V28.1789Z" fill="#FFFF00"/>
<path d="M17.783 26.7163H16.3334V28.1789H17.783V26.7163Z" fill="white"/>
<path d="M17.783 25.2388H16.3334V26.7163H17.783V25.2388Z" fill="#0E0E11"/>
<path d="M16.3333 34.0599H14.8984V35.5375H16.3333V34.0599Z" fill="#0E0E11"/>
<path d="M16.3333 32.5973H14.8984V34.0599H16.3333V32.5973Z" fill="#EA9E09"/>
<path d="M16.3333 31.1198H14.8984V32.5973H16.3333V31.1198Z" fill="#FFFF00"/>
<path d="M16.3333 29.6565H14.8984V31.119H16.3333V29.6565Z" fill="white"/>
<path d="M16.3333 28.1789H14.8984V29.6565H16.3333V28.1789Z" fill="#0E0E11"/>
<path d="M16.3333 26.7163H14.8984V28.1789H16.3333V26.7163Z" fill="#0E0E11"/>
<path d="M16.3333 25.2388H14.8984V26.7163H16.3333V25.2388Z" fill="#0E0E11"/>
<path d="M14.8992 32.5973H13.4496V34.0599H14.8992V32.5973Z" fill="#0E0E11"/>
<path d="M14.8992 31.1198H13.4496V32.5973H14.8992V31.1198Z" fill="#FFFF00"/>
<path d="M14.8992 29.6565H13.4496V31.119H14.8992V29.6565Z" fill="white"/>
<path d="M14.8992 28.1789H13.4496V29.6565H14.8992V28.1789Z" fill="#0E0E11"/>
<path d="M13.4496 31.1198H12V32.5973H13.4496V31.1198Z" fill="#0E0E11"/>
<path d="M13.4496 29.6565H12V31.119H13.4496V29.6565Z" fill="#0E0E11"/>
<path d="M13.4496 28.1789H12V29.6565H13.4496V28.1789Z" fill="#0E0E11"/>
</svg>
