<svg width="50" height="50" viewBox="0 0 50 50" fill="none" xmlns="http://www.w3.org/2000/svg">
<path d="M39.569 14.4047H37.8235V16.1156H39.569V14.4047Z" fill="#0E0E11"/>
<path d="M39.569 12.7109H37.8235V14.4047H39.569V12.7109Z" fill="#0E0E11"/>
<path d="M39.569 11H37.8235V12.7109H39.569V11Z" fill="#0E0E11"/>
<path d="M37.8236 16.1157H36.0781V17.8095H37.8236V16.1157Z" fill="#0E0E11"/>
<path d="M37.8236 14.4047H36.0781V16.1156H37.8236V14.4047Z" fill="#AFAFAF"/>
<path d="M37.8236 12.7109H36.0781V14.4047H37.8236V12.7109Z" fill="#AFAFAF"/>
<path d="M37.8236 11H36.0781V12.7109H37.8236V11Z" fill="#0E0E11"/>
<path d="M36.078 17.8095H34.35V19.5203H36.078V17.8095Z" fill="#0E0E11"/>
<path d="M36.078 16.1157H34.35V17.8095H36.078V16.1157Z" fill="#E6E6E6"/>
<path d="M36.078 14.4047H34.35V16.1156H36.078V14.4047Z" fill="#E6E6E6"/>
<path d="M36.0781 11H34.3501V12.7109H36.0781V11Z" fill="#0E0E11"/>
<path d="M34.3499 19.5204H32.6044V21.2142H34.3499V19.5204Z" fill="#0E0E11"/>
<path d="M34.3499 17.8095H32.6044V19.5203H34.3499V17.8095Z" fill="#E6E6E6"/>
<path d="M34.3499 16.1157H32.6044V17.8095H34.3499V16.1157Z" fill="#E6E6E6"/>
<path d="M34.3499 12.7109H32.6044V14.4047H34.3499V12.7109Z" fill="#0E0E11"/>
<path d="M32.6045 21.2143H30.859V22.9251H32.6045V21.2143Z" fill="#0E0E11"/>
<path d="M32.6045 19.5204H30.859V21.2142H32.6045V19.5204Z" fill="#AFAFAF"/>
<path d="M32.6045 17.8095H30.859V19.5203H32.6045V17.8095Z" fill="#AFAFAF"/>
<path d="M32.6045 14.4047H30.859V16.1156H32.6045V14.4047Z" fill="#0E0E11"/>
<path d="M30.8589 22.9251H29.1309V24.619H30.8589V22.9251Z" fill="#0E0E11"/>
<path d="M30.8589 21.2143H29.1309V22.9251H30.8589V21.2143Z" fill="#AFAFAF"/>
<path d="M30.8589 19.5204H29.1309V21.2142H30.8589V19.5204Z" fill="#AFAFAF"/>
<path d="M30.8589 16.1157H29.1309V17.8095H30.8589V16.1157Z" fill="#0E0E11"/>
<path d="M29.131 24.619H27.3855V26.3299H29.131V24.619Z" fill="#0E0E11"/>
<path d="M29.131 22.9251H27.3855V24.619H29.131V22.9251Z" fill="#E6E6E6"/>
<path d="M29.131 21.2143H27.3855V22.9251H29.131V21.2143Z" fill="#E6E6E6"/>
<path d="M29.131 17.8095H27.3855V19.5203H29.131V17.8095Z" fill="#0E0E11"/>
<path d="M27.3855 26.3299H25.6573V28.0237H27.3855V26.3299Z" fill="#0E0E11"/>
<path d="M27.3855 24.619H25.6573V26.3299H27.3855V24.619Z" fill="#E6E6E6"/>
<path d="M27.3855 22.9251H25.6573V24.619H27.3855V22.9251Z" fill="#E6E6E6"/>
<path d="M27.3855 19.5204H25.6573V21.2142H27.3855V19.5204Z" fill="#0E0E11"/>
<path d="M25.6573 33.1394H23.9119V34.8332H25.6573V33.1394Z" fill="#0E0E11"/>
<path d="M25.6573 31.4285H23.9119V33.1394H25.6573V31.4285Z" fill="#0E0E11"/>
<path d="M25.6573 28.0237H23.9119V29.7347H25.6573V28.0237Z" fill="#0E0E11"/>
<path d="M25.6573 26.3299H23.9119V28.0237H25.6573V26.3299Z" fill="#AFAFAF"/>
<path d="M25.6573 24.619H23.9119V26.3299H25.6573V24.619Z" fill="#AFAFAF"/>
<path d="M25.6573 21.2143H23.9119V22.9251H25.6573V21.2143Z" fill="#0E0E11"/>
<path d="M23.9118 34.8333H22.1663V36.5442H23.9118V34.8333Z" fill="#0E0E11"/>
<path d="M23.9118 33.1394H22.1663V34.8332H23.9118V33.1394Z" fill="#FFFF00"/>
<path d="M23.9118 31.4285H22.1663V33.1394H23.9118V31.4285Z" fill="#FEFEA3"/>
<path d="M23.9118 29.7347H22.1663V31.4285H23.9118V29.7347Z" fill="#0E0E11"/>
<path d="M23.9118 28.0237H22.1663V29.7347H23.9118V28.0237Z" fill="#AFAFAF"/>
<path d="M23.9118 26.3299H22.1663V28.0237H23.9118V26.3299Z" fill="#AFAFAF"/>
<path d="M23.9118 22.9251H22.1663V24.619H23.9118V22.9251Z" fill="#0E0E11"/>
<path d="M22.1662 33.1394H20.4381V34.8332H22.1662V33.1394Z" fill="#0E0E11"/>
<path d="M22.1662 31.4285H20.4381V33.1394H22.1662V31.4285Z" fill="#FFFF00"/>
<path d="M22.1662 29.7347H20.4381V31.4285H22.1662V29.7347Z" fill="#FEFEA3"/>
<path d="M22.1662 28.0237H20.4381V29.7347H22.1662V28.0237Z" fill="#E32121"/>
<path d="M22.1662 24.619H20.4381V26.3299H22.1662V24.619Z" fill="#0E0E11"/>
<path d="M20.4382 33.1394H18.6926V34.8332H20.4382V33.1394Z" fill="#0E0E11"/>
<path d="M20.4382 31.4285H18.6926V33.1394H20.4382V31.4285Z" fill="#FFFF00"/>
<path d="M20.4382 29.7347H18.6926V31.4285H20.4382V29.7347Z" fill="#E32121"/>
<path d="M20.4382 28.0237H18.6926V29.7347H20.4382V28.0237Z" fill="#FEFEA3"/>
<path d="M20.4382 26.3299H18.6926V28.0237H20.4382V26.3299Z" fill="#0E0E11"/>
<path d="M18.6926 33.1394H16.9471V34.8332H18.6926V33.1394Z" fill="#0E0E11"/>
<path d="M18.6926 31.4285H16.9471V33.1394H18.6926V31.4285Z" fill="#0E0E11"/>
<path d="M18.6926 29.7347H16.9471V31.4285H18.6926V29.7347Z" fill="#FFFF00"/>
<path d="M18.6926 28.0237H16.9471V29.7347H18.6926V28.0237Z" fill="#FFFF00"/>
<path d="M18.6926 26.3299H16.9471V28.0237H18.6926V26.3299Z" fill="#FEFEA3"/>
<path d="M18.6926 24.619H16.9471V26.3299H18.6926V24.619Z" fill="#0E0E11"/>
<path d="M16.9471 34.8333H15.219V36.5442H16.9471V34.8333Z" fill="#0E0E11"/>
<path d="M16.9471 33.1394H15.219V34.8332H16.9471V33.1394Z" fill="#C53C0D"/>
<path d="M16.9471 31.4285H15.219V33.1394H16.9471V31.4285Z" fill="#0E0E11"/>
<path d="M16.9471 29.7347H15.219V31.4285H16.9471V29.7347Z" fill="#0E0E11"/>
<path d="M16.9471 28.0237H15.219V29.7347H16.9471V28.0237Z" fill="#0E0E11"/>
<path d="M16.9471 26.3299H15.219V28.0237H16.9471V26.3299Z" fill="#FFFF00"/>
<path d="M16.9471 24.619H15.219V26.3299H16.9471V24.619Z" fill="#0E0E11"/>
<path d="M15.2191 36.5442H13.4736V38.238H15.2191V36.5442Z" fill="#0E0E11"/>
<path d="M15.2191 34.8333H13.4736V36.5442H15.2191V34.8333Z" fill="#EA9E09"/>
<path d="M15.2191 33.1394H13.4736V34.8332H15.2191V33.1394Z" fill="#0E0E11"/>
<path d="M15.2191 26.3299H13.4736V28.0237H15.2191V26.3299Z" fill="#0E0E11"/>
<path d="M13.4735 38.238H11.728V39.9489H13.4735V38.238Z" fill="#0E0E11"/>
<path d="M13.4735 36.5442H11.728V38.238H13.4735V36.5442Z" fill="#C53C0D"/>
<path d="M13.4735 34.8333H11.728V36.5442H13.4735V34.8333Z" fill="#0E0E11"/>
<path d="M11.728 38.238H10V39.9489H11.728V38.238Z" fill="#0E0E11"/>
<path d="M11.728 36.5442H10V38.238H11.728V36.5442Z" fill="#0E0E11"/>
</svg>
