<svg width="50" height="50" viewBox="0 0 50 50" fill="none" xmlns="http://www.w3.org/2000/svg">
<path d="M22.3575 18.3637H20.7305V19.9427H22.3575V18.3637Z" fill="#4CC9FF"/>
<path d="M20.7304 19.9427H19.1033V21.5376H20.7304V19.9427Z" fill="#4CC9FF"/>
<path d="M22.3575 21.5375H20.7305V23.1165H22.3575V21.5375Z" fill="#4CC9FF"/>
<path d="M38.564 24.7115H36.9369V26.2904H38.564V24.7115Z" fill="#0E0E11"/>
<path d="M38.564 23.1166H36.9369V24.7115H38.564V23.1166Z" fill="#0E0E11"/>
<path d="M38.564 21.5375H36.9369V23.1165H38.564V21.5375Z" fill="#0E0E11"/>
<path d="M38.564 19.9427H36.9369V21.5376H38.564V19.9427Z" fill="#0E0E11"/>
<path d="M38.564 18.3637H36.9369V19.9427H38.564V18.3637Z" fill="#0E0E11"/>
<path d="M36.9369 26.2904H35.326V27.8853H36.9369V26.2904Z" fill="#0E0E11"/>
<path d="M36.9369 24.7115H35.326V26.2904H36.9369V24.7115Z" fill="#1FA1ED"/>
<path d="M36.9369 23.1166H35.326V24.7115H36.9369V23.1166Z" fill="#1FA1ED"/>
<path d="M36.9369 21.5375H35.326V23.1165H36.9369V21.5375Z" fill="#4CC9FF"/>
<path d="M36.9369 19.9427H35.326V21.5376H36.9369V19.9427Z" fill="#4CC9FF"/>
<path d="M36.9369 18.3637H35.326V19.9427H36.9369V18.3637Z" fill="#A4FFED"/>
<path d="M36.9369 16.7688H35.326V18.3637H36.9369V16.7688Z" fill="#0E0E11"/>
<path d="M35.326 27.8853H33.6989V29.4643H35.326V27.8853Z" fill="#0E0E11"/>
<path d="M35.326 26.2904H33.6989V27.8853H35.326V26.2904Z" fill="#1FA1ED"/>
<path d="M35.326 24.7115H33.6989V26.2904H35.326V24.7115Z" fill="#4CC9FF"/>
<path d="M35.326 23.1166H33.6989V24.7115H35.326V23.1166Z" fill="#4CC9FF"/>
<path d="M35.326 21.5375H33.6989V23.1165H35.326V21.5375Z" fill="#4CC9FF"/>
<path d="M35.326 19.9427H33.6989V21.5376H35.326V19.9427Z" fill="#4CC9FF"/>
<path d="M35.326 18.3637H33.6989V19.9427H35.326V18.3637Z" fill="#A4FFED"/>
<path d="M35.326 16.7688H33.6989V18.3637H35.326V16.7688Z" fill="#4CC9FF"/>
<path d="M35.326 15.1739H33.6989V16.7688H35.326V15.1739Z" fill="#0E0E11"/>
<path d="M33.6989 29.4644H32.088V31.0592H33.6989V29.4644Z" fill="#0E0E11"/>
<path d="M33.6989 27.8853H32.088V29.4643H33.6989V27.8853Z" fill="#1FA1ED"/>
<path d="M33.6989 26.2904H32.088V27.8853H33.6989V26.2904Z" fill="#A4FFED"/>
<path d="M33.6989 24.7115H32.088V26.2904H33.6989V24.7115Z" fill="#4CC9FF"/>
<path d="M33.6989 23.1166H32.088V24.7115H33.6989V23.1166Z" fill="#4CC9FF"/>
<path d="M33.6989 21.5375H32.088V23.1165H33.6989V21.5375Z" fill="#4CC9FF"/>
<path d="M33.6989 19.9427H32.088V21.5376H33.6989V19.9427Z" fill="#A4FFED"/>
<path d="M33.6989 18.3637H32.088V19.9427H33.6989V18.3637Z" fill="#4CC9FF"/>
<path d="M33.6989 16.7688H32.088V18.3637H33.6989V16.7688Z" fill="#4CC9FF"/>
<path d="M33.6989 15.1739H32.088V16.7688H33.6989V15.1739Z" fill="#4CC9FF"/>
<path d="M33.6989 13.5949H32.088V15.1738H33.6989V13.5949Z" fill="#0E0E11"/>
<path d="M32.0878 31.0592H30.4606V32.6382H32.0878V31.0592Z" fill="#0E0E11"/>
<path d="M32.0878 29.4644H30.4606V31.0592H32.0878V29.4644Z" fill="#1FA1ED"/>
<path d="M32.0878 27.8853H30.4606V29.4643H32.0878V27.8853Z" fill="#4CC9FF"/>
<path d="M32.0878 26.2904H30.4606V27.8853H32.0878V26.2904Z" fill="#4CC9FF"/>
<path d="M32.0878 24.7115H30.4606V26.2904H32.0878V24.7115Z" fill="#A4FFED"/>
<path d="M32.0878 23.1166H30.4606V24.7115H32.0878V23.1166Z" fill="#A4FFED"/>
<path d="M32.0878 21.5375H30.4606V23.1165H32.0878V21.5375Z" fill="#4CC9FF"/>
<path d="M32.0878 19.9427H30.4606V21.5376H32.0878V19.9427Z" fill="#A4FFED"/>
<path d="M32.0878 18.3637H30.4606V19.9427H32.0878V18.3637Z" fill="#4CC9FF"/>
<path d="M32.0878 16.7688H30.4606V18.3637H32.0878V16.7688Z" fill="#4CC9FF"/>
<path d="M32.0878 15.1739H30.4606V16.7688H32.0878V15.1739Z" fill="#4CC9FF"/>
<path d="M32.0878 13.5949H30.4606V15.1738H32.0878V13.5949Z" fill="#A4FFED"/>
<path d="M32.088 12H30.4607V13.5949H32.088V12Z" fill="#0E0E11"/>
<path d="M30.4607 32.6381H28.8336V34.233H30.4607V32.6381Z" fill="#0E0E11"/>
<path d="M30.4607 31.0592H28.8336V32.6382H30.4607V31.0592Z" fill="#1FA1ED"/>
<path d="M30.4607 29.4644H28.8336V31.0592H30.4607V29.4644Z" fill="#4CC9FF"/>
<path d="M30.4607 27.8853H28.8336V29.4643H30.4607V27.8853Z" fill="#4CC9FF"/>
<path d="M30.4607 26.2904H28.8336V27.8853H30.4607V26.2904Z" fill="#A4FFED"/>
<path d="M30.4607 24.7115H28.8336V26.2904H30.4607V24.7115Z" fill="#4CC9FF"/>
<path d="M30.4607 23.1166H28.8336V24.7115H30.4607V23.1166Z" fill="#4CC9FF"/>
<path d="M30.4607 21.5375H28.8336V23.1165H30.4607V21.5375Z" fill="#A4FFED"/>
<path d="M30.4607 19.9427H28.8336V21.5376H30.4607V19.9427Z" fill="#4CC9FF"/>
<path d="M30.4607 18.3637H28.8336V19.9427H30.4607V18.3637Z" fill="#4CC9FF"/>
<path d="M30.4607 16.7688H28.8336V18.3637H30.4607V16.7688Z" fill="#4CC9FF"/>
<path d="M30.4607 15.1739H28.8336V16.7688H30.4607V15.1739Z" fill="#A4FFED"/>
<path d="M30.4607 13.5949H28.8336V15.1738H30.4607V13.5949Z" fill="white"/>
<path d="M30.4607 12H28.8336V13.5949H30.4607V12Z" fill="#0E0E11"/>
<path d="M28.8335 34.2331H27.2227V35.812H28.8335V34.2331Z" fill="#0E0E11"/>
<path d="M28.8335 32.6381H27.2227V34.233H28.8335V32.6381Z" fill="#1FA1ED"/>
<path d="M28.8335 31.0592H27.2227V32.6382H28.8335V31.0592Z" fill="#4CC9FF"/>
<path d="M28.8335 29.4644H27.2227V31.0592H28.8335V29.4644Z" fill="#4CC9FF"/>
<path d="M28.8335 27.8853H27.2227V29.4643H28.8335V27.8853Z" fill="#A4FFED"/>
<path d="M28.8335 26.2904H27.2227V27.8853H28.8335V26.2904Z" fill="#4CC9FF"/>
<path d="M28.8335 24.7115H27.2227V26.2904H28.8335V24.7115Z" fill="#4CC9FF"/>
<path d="M28.8335 23.1166H27.2227V24.7115H28.8335V23.1166Z" fill="#4CC9FF"/>
<path d="M28.8335 21.5375H27.2227V23.1165H28.8335V21.5375Z" fill="#4CC9FF"/>
<path d="M28.8335 19.9427H27.2227V21.5376H28.8335V19.9427Z" fill="#A4FFED"/>
<path d="M28.8335 18.3637H27.2227V19.9427H28.8335V18.3637Z" fill="#4CC9FF"/>
<path d="M28.8335 16.7688H27.2227V18.3637H28.8335V16.7688Z" fill="#A4FFED"/>
<path d="M28.8335 15.1739H27.2227V16.7688H28.8335V15.1739Z" fill="#4CC9FF"/>
<path d="M28.8335 13.5949H27.2227V15.1738H28.8335V13.5949Z" fill="white"/>
<path d="M28.8335 12H27.2227V13.5949H28.8335V12Z" fill="#0E0E11"/>
<path d="M27.2227 35.812H25.5956V37.4069H27.2227V35.812Z" fill="#0E0E11"/>
<path d="M27.2227 34.2331H25.5956V35.812H27.2227V34.2331Z" fill="#1FA1ED"/>
<path d="M27.2227 32.6381H25.5956V34.233H27.2227V32.6381Z" fill="#4CC9FF"/>
<path d="M27.2227 31.0592H25.5956V32.6382H27.2227V31.0592Z" fill="#4CC9FF"/>
<path d="M27.2227 29.4644H25.5956V31.0592H27.2227V29.4644Z" fill="#A4FFED"/>
<path d="M27.2227 27.8853H25.5956V29.4643H27.2227V27.8853Z" fill="#4CC9FF"/>
<path d="M27.2227 26.2904H25.5956V27.8853H27.2227V26.2904Z" fill="#4CC9FF"/>
<path d="M27.2227 24.7115H25.5956V26.2904H27.2227V24.7115Z" fill="#4CC9FF"/>
<path d="M27.2227 23.1166H25.5956V24.7115H27.2227V23.1166Z" fill="#4CC9FF"/>
<path d="M27.2227 21.5375H25.5956V23.1165H27.2227V21.5375Z" fill="#4CC9FF"/>
<path d="M27.2227 19.9427H25.5956V21.5376H27.2227V19.9427Z" fill="#4CC9FF"/>
<path d="M27.2227 18.3637H25.5956V19.9427H27.2227V18.3637Z" fill="#A4FFED"/>
<path d="M27.2227 16.7688H25.5956V18.3637H27.2227V16.7688Z" fill="white"/>
<path d="M27.2227 15.1739H25.5956V16.7688H27.2227V15.1739Z" fill="#4CC9FF"/>
<path d="M27.2227 13.5949H25.5956V15.1738H27.2227V13.5949Z" fill="white"/>
<path d="M27.2227 12H25.5956V13.5949H27.2227V12Z" fill="#0E0E11"/>
<path d="M25.5956 37.4069H23.9685V38.9859H25.5956V37.4069Z" fill="#0E0E11"/>
<path d="M25.5956 35.812H23.9685V37.4069H25.5956V35.812Z" fill="#A4FFED"/>
<path d="M25.5956 34.2331H23.9685V35.812H25.5956V34.2331Z" fill="#A4FFED"/>
<path d="M25.5956 32.6381H23.9685V34.233H25.5956V32.6381Z" fill="#A4FFED"/>
<path d="M25.5956 31.0592H23.9685V32.6382H25.5956V31.0592Z" fill="#A4FFED"/>
<path d="M25.5956 29.4644H23.9685V31.0592H25.5956V29.4644Z" fill="#4CC9FF"/>
<path d="M25.5956 27.8853H23.9685V29.4643H25.5956V27.8853Z" fill="#4CC9FF"/>
<path d="M25.5956 26.2904H23.9685V27.8853H25.5956V26.2904Z" fill="#4CC9FF"/>
<path d="M25.5956 24.7115H23.9685V26.2904H25.5956V24.7115Z" fill="#4CC9FF"/>
<path d="M25.5956 23.1166H23.9685V24.7115H25.5956V23.1166Z" fill="#4CC9FF"/>
<path d="M25.5956 21.5375H23.9685V23.1165H25.5956V21.5375Z" fill="#4CC9FF"/>
<path d="M25.5956 19.9427H23.9685V21.5376H25.5956V19.9427Z" fill="#4CC9FF"/>
<path d="M25.5956 18.3637H23.9685V19.9427H25.5956V18.3637Z" fill="#A4FFED"/>
<path d="M25.5956 16.7688H23.9685V18.3637H25.5956V16.7688Z" fill="white"/>
<path d="M25.5956 15.1739H23.9685V16.7688H25.5956V15.1739Z" fill="#4CC9FF"/>
<path d="M25.5956 13.5949H23.9685V15.1738H25.5956V13.5949Z" fill="white"/>
<path d="M25.5956 12H23.9685V13.5949H25.5956V12Z" fill="#0E0E11"/>
<path d="M23.9684 35.812H22.3575V37.4069H23.9684V35.812Z" fill="#0E0E11"/>
<path d="M23.9684 34.2331H22.3575V35.812H23.9684V34.2331Z" fill="#1FA1ED"/>
<path d="M23.9684 32.6381H22.3575V34.233H23.9684V32.6381Z" fill="#4CC9FF"/>
<path d="M23.9684 31.0592H22.3575V32.6382H23.9684V31.0592Z" fill="#4CC9FF"/>
<path d="M23.9684 29.4644H22.3575V31.0592H23.9684V29.4644Z" fill="#A4FFED"/>
<path d="M23.9684 27.8853H22.3575V29.4643H23.9684V27.8853Z" fill="#4CC9FF"/>
<path d="M23.9684 26.2904H22.3575V27.8853H23.9684V26.2904Z" fill="#4CC9FF"/>
<path d="M23.9684 24.7115H22.3575V26.2904H23.9684V24.7115Z" fill="#4CC9FF"/>
<path d="M23.9684 23.1166H22.3575V24.7115H23.9684V23.1166Z" fill="#4CC9FF"/>
<path d="M23.9684 21.5375H22.3575V23.1165H23.9684V21.5375Z" fill="white"/>
<path d="M23.9684 19.9427H22.3575V21.5376H23.9684V19.9427Z" fill="#4CC9FF"/>
<path d="M23.9684 18.3637H22.3575V19.9427H23.9684V18.3637Z" fill="#A4FFED"/>
<path d="M23.9684 16.7688H22.3575V18.3637H23.9684V16.7688Z" fill="white"/>
<path d="M23.9684 15.1739H22.3575V16.7688H23.9684V15.1739Z" fill="#4CC9FF"/>
<path d="M23.9684 13.5949H22.3575V15.1738H23.9684V13.5949Z" fill="white"/>
<path d="M23.9684 12H22.3575V13.5949H23.9684V12Z" fill="#0E0E11"/>
<path d="M22.3575 34.2331H20.7305V35.812H22.3575V34.2331Z" fill="#0E0E11"/>
<path d="M22.3575 32.6381H20.7305V34.233H22.3575V32.6381Z" fill="#1FA1ED"/>
<path d="M22.3575 31.0592H20.7305V32.6382H22.3575V31.0592Z" fill="#4CC9FF"/>
<path d="M22.3575 29.4644H20.7305V31.0592H22.3575V29.4644Z" fill="#4CC9FF"/>
<path d="M22.3575 27.8853H20.7305V29.4643H22.3575V27.8853Z" fill="#A4FFED"/>
<path d="M22.3575 26.2904H20.7305V27.8853H22.3575V26.2904Z" fill="#4CC9FF"/>
<path d="M22.3575 24.7115H20.7305V26.2904H22.3575V24.7115Z" fill="#4CC9FF"/>
<path d="M22.3575 23.1166H20.7305V24.7115H22.3575V23.1166Z" fill="white"/>
<path d="M22.3575 19.9427H20.7305V21.5376H22.3575V19.9427Z" fill="#A4FFED"/>
<path d="M22.3575 16.7688H20.7305V18.3637H22.3575V16.7688Z" fill="#A4FFED"/>
<path d="M22.3575 15.1739H20.7305V16.7688H22.3575V15.1739Z" fill="#4CC9FF"/>
<path d="M22.3575 13.5949H20.7305V15.1738H22.3575V13.5949Z" fill="white"/>
<path d="M22.3575 12H20.7305V13.5949H22.3575V12Z" fill="#0E0E11"/>
<path d="M20.7304 32.6381H19.1033V34.233H20.7304V32.6381Z" fill="#0E0E11"/>
<path d="M20.7304 31.0592H19.1033V32.6382H20.7304V31.0592Z" fill="#1FA1ED"/>
<path d="M20.7304 29.4644H19.1033V31.0592H20.7304V29.4644Z" fill="#4CC9FF"/>
<path d="M20.7304 27.8853H19.1033V29.4643H20.7304V27.8853Z" fill="#4CC9FF"/>
<path d="M20.7304 26.2904H19.1033V27.8853H20.7304V26.2904Z" fill="#A4FFED"/>
<path d="M20.7304 24.7115H19.1033V26.2904H20.7304V24.7115Z" fill="#4CC9FF"/>
<path d="M20.7304 23.1166H19.1033V24.7115H20.7304V23.1166Z" fill="#4CC9FF"/>
<path d="M20.7304 21.5375H19.1033V23.1165H20.7304V21.5375Z" fill="#A4FFED"/>
<path d="M20.7304 18.3637H19.1033V19.9427H20.7304V18.3637Z" fill="white"/>
<path d="M20.7304 16.7688H19.1033V18.3637H20.7304V16.7688Z" fill="#4CC9FF"/>
<path d="M20.7304 15.1739H19.1033V16.7688H20.7304V15.1739Z" fill="#A4FFED"/>
<path d="M20.7304 13.5949H19.1033V15.1738H20.7304V13.5949Z" fill="white"/>
<path d="M20.7304 12H19.1033V13.5949H20.7304V12Z" fill="#0E0E11"/>
<path d="M19.1033 31.0592H17.4923V32.6382H19.1033V31.0592Z" fill="#0E0E11"/>
<path d="M19.1033 29.4644H17.4923V31.0592H19.1033V29.4644Z" fill="#1FA1ED"/>
<path d="M19.1033 27.8853H17.4923V29.4643H19.1033V27.8853Z" fill="#4CC9FF"/>
<path d="M19.1033 26.2904H17.4923V27.8853H19.1033V26.2904Z" fill="#4CC9FF"/>
<path d="M19.1033 24.7115H17.4923V26.2904H19.1033V24.7115Z" fill="#A4FFED"/>
<path d="M19.1033 23.1166H17.4923V24.7115H19.1033V23.1166Z" fill="#A4FFED"/>
<path d="M19.1033 21.5375H17.4923V23.1165H19.1033V21.5375Z" fill="white"/>
<path d="M19.1033 19.9427H17.4923V21.5376H19.1033V19.9427Z" fill="#A4FFED"/>
<path d="M19.1033 18.3637H17.4923V19.9427H19.1033V18.3637Z" fill="#4CC9FF"/>
<path d="M19.1033 16.7688H17.4923V18.3637H19.1033V16.7688Z" fill="#4CC9FF"/>
<path d="M19.1033 15.1739H17.4923V16.7688H19.1033V15.1739Z" fill="#4CC9FF"/>
<path d="M19.1033 13.5949H17.4923V15.1738H19.1033V13.5949Z" fill="#A4FFED"/>
<path d="M19.1033 12H17.4923V13.5949H19.1033V12Z" fill="#0E0E11"/>
<path d="M17.4923 29.4644H15.8652V31.0592H17.4923V29.4644Z" fill="#0E0E11"/>
<path d="M17.4923 27.8853H15.8652V29.4643H17.4923V27.8853Z" fill="#4CC9FF"/>
<path d="M17.4923 26.2904H15.8652V27.8853H17.4923V26.2904Z" fill="#A4FFED"/>
<path d="M17.4923 24.7115H15.8652V26.2904H17.4923V24.7115Z" fill="white"/>
<path d="M17.4923 23.1166H15.8652V24.7115H17.4923V23.1166Z" fill="white"/>
<path d="M17.4923 21.5375H15.8652V23.1165H17.4923V21.5375Z" fill="#4CC9FF"/>
<path d="M17.4923 19.9427H15.8652V21.5376H17.4923V19.9427Z" fill="#A4FFED"/>
<path d="M17.4923 18.3637H15.8652V19.9427H17.4923V18.3637Z" fill="#4CC9FF"/>
<path d="M17.4923 16.7688H15.8652V18.3637H17.4923V16.7688Z" fill="#4CC9FF"/>
<path d="M17.4923 15.1739H15.8652V16.7688H17.4923V15.1739Z" fill="white"/>
<path d="M17.4923 13.5949H15.8652V15.1738H17.4923V13.5949Z" fill="#0E0E11"/>
<path d="M15.8653 27.8853H14.2544V29.4643H15.8653V27.8853Z" fill="#0E0E11"/>
<path d="M15.8653 26.2904H14.2544V27.8853H15.8653V26.2904Z" fill="#4CC9FF"/>
<path d="M15.8653 24.7115H14.2544V26.2904H15.8653V24.7115Z" fill="#4CC9FF"/>
<path d="M15.8653 23.1166H14.2544V24.7115H15.8653V23.1166Z" fill="#4CC9FF"/>
<path d="M15.8653 21.5375H14.2544V23.1165H15.8653V21.5375Z" fill="#4CC9FF"/>
<path d="M15.8653 19.9427H14.2544V21.5376H15.8653V19.9427Z" fill="#4CC9FF"/>
<path d="M15.8653 18.3637H14.2544V19.9427H15.8653V18.3637Z" fill="#A4FFED"/>
<path d="M15.8653 16.7688H14.2544V18.3637H15.8653V16.7688Z" fill="white"/>
<path d="M15.8653 15.1739H14.2544V16.7688H15.8653V15.1739Z" fill="#0E0E11"/>
<path d="M14.2543 26.2904H12.6272V27.8853H14.2543V26.2904Z" fill="#0E0E11"/>
<path d="M14.2543 24.7115H12.6272V26.2904H14.2543V24.7115Z" fill="white"/>
<path d="M14.2543 23.1166H12.6272V24.7115H14.2543V23.1166Z" fill="white"/>
<path d="M14.2543 21.5375H12.6272V23.1165H14.2543V21.5375Z" fill="white"/>
<path d="M14.2543 19.9427H12.6272V21.5376H14.2543V19.9427Z" fill="white"/>
<path d="M14.2543 18.3637H12.6272V19.9427H14.2543V18.3637Z" fill="#A4FFED"/>
<path d="M14.2543 16.7688H12.6272V18.3637H14.2543V16.7688Z" fill="#0E0E11"/>
<path d="M12.6273 24.7115H11V26.2904H12.6273V24.7115Z" fill="#0E0E11"/>
<path d="M12.6273 23.1166H11V24.7115H12.6273V23.1166Z" fill="#0E0E11"/>
<path d="M12.6273 21.5375H11V23.1165H12.6273V21.5375Z" fill="#0E0E11"/>
<path d="M12.6273 19.9427H11V21.5376H12.6273V19.9427Z" fill="#0E0E11"/>
<path d="M12.6273 18.3637H11V19.9427H12.6273V18.3637Z" fill="#0E0E11"/>
</svg>
