<svg width="104" height="115" viewBox="0 0 104 115" fill="none" xmlns="http://www.w3.org/2000/svg">
<g clip-path="url(#clip0)">
<path d="M104 39.1538H100.738V42.4221H104V39.1538Z" fill="black"/>
<path d="M104 35.8521H100.738V39.1539H104V35.8521Z" fill="black"/>
<path d="M104 32.5837H100.738V35.852H104V32.5837Z" fill="black"/>
<path d="M100.74 42.4221H97.4778V45.7239H100.74V42.4221Z" fill="black"/>
<path d="M100.74 39.1538H97.4778V42.4221H100.74V39.1538Z" fill="#AF370D"/>
<path d="M100.74 35.8521H97.4778V39.1539H100.74V35.8521Z" fill="#C53C0D"/>
<path d="M100.74 32.5837H97.4778V35.852H100.74V32.5837Z" fill="#AF370D"/>
<path d="M100.74 29.2822H97.4778V32.584H100.74V29.2822Z" fill="black"/>
<path d="M97.4777 42.4221H94.249V45.7239H97.4777V42.4221Z" fill="black"/>
<path d="M97.4777 39.1538H94.249V42.4221H97.4777V39.1538Z" fill="#AF370D"/>
<path d="M97.4777 35.8521H94.249V39.1539H97.4777V35.8521Z" fill="#C53C0D"/>
<path d="M97.4777 32.5837H94.249V35.852H97.4777V32.5837Z" fill="black"/>
<path d="M97.4777 29.2822H94.249V32.584H97.4777V29.2822Z" fill="black"/>
<path d="M94.2491 42.4221H90.9872V45.7239H94.2491V42.4221Z" fill="black"/>
<path d="M94.2491 39.1538H90.9872V42.4221H94.2491V39.1538Z" fill="#AF370D"/>
<path d="M94.2491 35.8521H90.9872V39.1539H94.2491V35.8521Z" fill="black"/>
<path d="M94.2491 32.5837H90.9872V35.852H94.2491V32.5837Z" fill="#F7A285"/>
<path d="M94.2491 29.2822H90.9872V32.584H94.2491V29.2822Z" fill="black"/>
<path d="M90.9889 45.7258H87.7602V48.9941H90.9889V45.7258Z" fill="black"/>
<path d="M90.9889 42.4221H87.7602V45.7239H90.9889V42.4221Z" fill="#AF370D"/>
<path d="M90.9889 39.1538H87.7602V42.4221H90.9889V39.1538Z" fill="#C53C0D"/>
<path d="M90.9889 35.8521H87.7602V39.1539H90.9889V35.8521Z" fill="#C53C0D"/>
<path d="M90.9889 32.5837H87.7602V35.852H90.9889V32.5837Z" fill="#F7A285"/>
<path d="M90.9889 29.2822H87.7602V32.584H90.9889V29.2822Z" fill="black"/>
<path d="M87.7601 48.9937H84.498V52.2955H87.7601V48.9937Z" fill="black"/>
<path d="M87.7601 45.7258H84.498V48.9941H87.7601V45.7258Z" fill="#AF370D"/>
<path d="M87.7601 42.4221H84.498V45.7239H87.7601V42.4221Z" fill="#C53C0D"/>
<path d="M87.7601 39.1538H84.498V42.4221H87.7601V39.1538Z" fill="#F7A285"/>
<path d="M87.7601 35.8521H84.498V39.1539H87.7601V35.8521Z" fill="black"/>
<path d="M87.7601 32.5837H84.498V35.852H87.7601V32.5837Z" fill="black"/>
<path d="M84.4981 52.2957H81.2362V55.5639H84.4981V52.2957Z" fill="black"/>
<path d="M84.4981 48.9937H81.2362V52.2955H84.4981V48.9937Z" fill="#C53C0D"/>
<path d="M84.4981 45.7258H81.2362V48.9941H84.4981V45.7258Z" fill="black"/>
<path d="M84.4981 42.4221H81.2362V45.7239H84.4981V42.4221Z" fill="black"/>
<path d="M84.4981 39.1538H81.2362V42.4221H84.4981V39.1538Z" fill="black"/>
<path d="M81.2362 55.564H78.0074V58.8658H81.2362V55.564Z" fill="black"/>
<path d="M81.2362 52.2957H78.0074V55.5639H81.2362V52.2957Z" fill="#C53C0D"/>
<path d="M81.2362 48.9937H78.0074V52.2955H81.2362V48.9937Z" fill="black"/>
<path d="M78.0091 58.866H74.7473V62.1678H78.0091V58.866Z" fill="black"/>
<path d="M78.0091 55.564H74.7473V58.8658H78.0091V55.564Z" fill="#F7A285"/>
<path d="M78.0091 52.2957H74.7473V55.5639H78.0091V52.2957Z" fill="black"/>
<path d="M74.7472 62.1677H71.4853V65.4359H74.7472V62.1677Z" fill="black"/>
<path d="M74.7472 58.866H71.4853V62.1678H74.7472V58.866Z" fill="#C53C0D"/>
<path d="M74.7472 55.564H71.4853V58.8658H74.7472V55.564Z" fill="black"/>
<path d="M71.4852 111.43H68.2565V114.732H71.4852V111.43Z" fill="black"/>
<path d="M71.4852 65.4358H68.2565V68.7377H71.4852V65.4358Z" fill="black"/>
<path d="M71.4852 62.1677H68.2565V65.4359H71.4852V62.1677Z" fill="#C53C0D"/>
<path d="M71.4852 58.866H68.2565V62.1678H71.4852V58.866Z" fill="black"/>
<path d="M68.2582 114.732H64.9963V118H68.2582V114.732Z" fill="black"/>
<path d="M68.2582 111.43H64.9963V114.732H68.2582V111.43Z" fill="#43C50D"/>
<path d="M68.2582 108.162H64.9963V111.43H68.2582V108.162Z" fill="black"/>
<path d="M68.2582 81.8799H64.9963V85.1481H68.2582V81.8799Z" fill="black"/>
<path d="M68.2582 78.5779H64.9963V81.8796H68.2582V78.5779Z" fill="black"/>
<path d="M68.2582 75.3096H64.9963V78.5778H68.2582V75.3096Z" fill="black"/>
<path d="M68.2582 68.7378H64.9963V72.0061H68.2582V68.7378Z" fill="black"/>
<path d="M68.2582 65.4358H64.9963V68.7377H68.2582V65.4358Z" fill="#C53C0D"/>
<path d="M68.2582 62.1677H64.9963V65.4359H68.2582V62.1677Z" fill="black"/>
<path d="M68.2582 45.7258H64.9963V48.9941H68.2582V45.7258Z" fill="black"/>
<path d="M68.2582 42.4221H64.9963V45.7239H68.2582V42.4221Z" fill="black"/>
<path d="M64.9963 114.732H61.7344V118H64.9963V114.732Z" fill="black"/>
<path d="M64.9963 111.43H61.7344V114.732H64.9963V111.43Z" fill="#43C50D"/>
<path d="M64.9963 108.162H61.7344V111.43H64.9963V108.162Z" fill="#43C50D"/>
<path d="M64.9963 104.86H61.7344V108.161H64.9963V104.86Z" fill="black"/>
<path d="M64.9963 101.591H61.7344V104.86H64.9963V101.591Z" fill="black"/>
<path d="M64.9963 98.2898H61.7344V101.592H64.9963V98.2898Z" fill="black"/>
<path d="M64.9963 95.0198H61.7344V98.288H64.9963V95.0198Z" fill="black"/>
<path d="M64.9963 91.7178H61.7344V95.0196H64.9963V91.7178Z" fill="black"/>
<path d="M64.9963 88.4497H61.7344V91.718H64.9963V88.4497Z" fill="black"/>
<path d="M64.9963 85.1482H61.7344V88.45H64.9963V85.1482Z" fill="black"/>
<path d="M64.9963 81.8799H61.7344V85.1481H64.9963V81.8799Z" fill="#52E915"/>
<path d="M64.9963 78.5779H61.7344V81.8796H64.9963V78.5779Z" fill="#43C50D"/>
<path d="M64.9963 75.3096H61.7344V78.5778H64.9963V75.3096Z" fill="#43C50D"/>
<path d="M64.9963 72.0076H61.7344V75.3094H64.9963V72.0076Z" fill="black"/>
<path d="M64.9963 68.7378H61.7344V72.0061H64.9963V68.7378Z" fill="#C53C0D"/>
<path d="M64.9963 65.4358H61.7344V68.7377H64.9963V65.4358Z" fill="black"/>
<path d="M64.9963 62.1677H61.7344V65.4359H64.9963V62.1677Z" fill="black"/>
<path d="M64.9963 48.9937H61.7344V52.2955H64.9963V48.9937Z" fill="black"/>
<path d="M64.9963 45.7258H61.7344V48.9941H64.9963V45.7258Z" fill="#43C50D"/>
<path d="M64.9963 42.4221H61.7344V45.7239H64.9963V42.4221Z" fill="#43C50D"/>
<path d="M64.9963 39.1538H61.7344V42.4221H64.9963V39.1538Z" fill="black"/>
<path d="M64.9963 9.57031H61.7344V12.8721H64.9963V9.57031Z" fill="black"/>
<path d="M61.7343 114.732H58.5056V118H61.7343V114.732Z" fill="black"/>
<path d="M61.7343 111.43H58.5056V114.732H61.7343V111.43Z" fill="#43C50D"/>
<path d="M61.7343 108.162H58.5056V111.43H61.7343V108.162Z" fill="#52E915"/>
<path d="M61.7343 104.86H58.5056V108.161H61.7343V104.86Z" fill="#52E915"/>
<path d="M61.7343 101.591H58.5056V104.86H61.7343V101.591Z" fill="#52E915"/>
<path d="M61.7343 98.2898H58.5056V101.592H61.7343V98.2898Z" fill="#52E915"/>
<path d="M61.7343 95.0198H58.5056V98.288H61.7343V95.0198Z" fill="#52E915"/>
<path d="M61.7343 91.7178H58.5056V95.0196H61.7343V91.7178Z" fill="#52E915"/>
<path d="M61.7343 88.4497H58.5056V91.718H61.7343V88.4497Z" fill="#52E915"/>
<path d="M61.7343 85.1482H58.5056V88.45H61.7343V85.1482Z" fill="#52E915"/>
<path d="M61.7343 81.8799H58.5056V85.1481H61.7343V81.8799Z" fill="#43C50D"/>
<path d="M61.7343 78.5779H58.5056V81.8796H61.7343V78.5779Z" fill="black"/>
<path d="M61.7343 75.3096H58.5056V78.5778H61.7343V75.3096Z" fill="black"/>
<path d="M61.7343 72.0076H58.5056V75.3094H61.7343V72.0076Z" fill="#C53C0D"/>
<path d="M61.7343 68.7378H58.5056V72.0061H61.7343V68.7378Z" fill="black"/>
<path d="M61.7343 65.4358H58.5056V68.7377H61.7343V65.4358Z" fill="#52E915"/>
<path d="M61.7343 62.1677H58.5056V65.4359H61.7343V62.1677Z" fill="#52E915"/>
<path d="M61.7343 58.866H58.5056V62.1678H61.7343V58.866Z" fill="black"/>
<path d="M61.7343 48.9937H58.5056V52.2955H61.7343V48.9937Z" fill="black"/>
<path d="M61.7343 45.7258H58.5056V48.9941H61.7343V45.7258Z" fill="#43C50D"/>
<path d="M61.7343 42.4221H58.5056V45.7239H61.7343V42.4221Z" fill="#52E915"/>
<path d="M61.7343 39.1538H58.5056V42.4221H61.7343V39.1538Z" fill="black"/>
<path d="M61.7343 35.8521H58.5056V39.1539H61.7343V35.8521Z" fill="black"/>
<path d="M61.7343 32.5837H58.5056V35.852H61.7343V32.5837Z" fill="black"/>
<path d="M61.7343 29.2822H58.5056V32.584H61.7343V29.2822Z" fill="black"/>
<path d="M61.7343 26.0139H58.5056V29.2822H61.7343V26.0139Z" fill="black"/>
<path d="M61.7343 22.7119H58.5056V26.0138H61.7343V22.7119Z" fill="black"/>
<path d="M61.7343 12.8718H58.5056V16.1401H61.7343V12.8718Z" fill="black"/>
<path d="M61.7343 9.57031H58.5056V12.8721H61.7343V9.57031Z" fill="#52E915"/>
<path d="M61.7343 6.30176H58.5056V9.57002H61.7343V6.30176Z" fill="black"/>
<path d="M58.5073 114.732H55.2454V118H58.5073V114.732Z" fill="black"/>
<path d="M58.5073 111.43H55.2454V114.732H58.5073V111.43Z" fill="#43C50D"/>
<path d="M58.5073 108.162H55.2454V111.43H58.5073V108.162Z" fill="#52E915"/>
<path d="M58.5073 104.86H55.2454V108.161H58.5073V104.86Z" fill="#52E915"/>
<path d="M58.5073 101.591H55.2454V104.86H58.5073V101.591Z" fill="#52E915"/>
<path d="M58.5073 98.2898H55.2454V101.592H58.5073V98.2898Z" fill="#52E915"/>
<path d="M58.5073 95.0198H55.2454V98.288H58.5073V95.0198Z" fill="#52E915"/>
<path d="M58.5073 91.7178H55.2454V95.0196H58.5073V91.7178Z" fill="#52E915"/>
<path d="M58.5073 88.4497H55.2454V91.718H58.5073V88.4497Z" fill="#52E915"/>
<path d="M58.5073 85.1482H55.2454V88.45H58.5073V85.1482Z" fill="#43C50D"/>
<path d="M58.5073 81.8799H55.2454V85.1481H58.5073V81.8799Z" fill="black"/>
<path d="M58.5073 78.5779H55.2454V81.8796H58.5073V78.5779Z" fill="#F7A285"/>
<path d="M58.5073 75.3096H55.2454V78.5778H58.5073V75.3096Z" fill="#C53C0D"/>
<path d="M58.5073 72.0076H55.2454V75.3094H58.5073V72.0076Z" fill="black"/>
<path d="M58.5073 68.7378H55.2454V72.0061H58.5073V68.7378Z" fill="#52E915"/>
<path d="M58.5073 65.4358H55.2454V68.7377H58.5073V65.4358Z" fill="#52E915"/>
<path d="M58.5073 62.1677H55.2454V65.4359H58.5073V62.1677Z" fill="#52E915"/>
<path d="M58.5073 58.866H55.2454V62.1678H58.5073V58.866Z" fill="#52E915"/>
<path d="M58.5073 55.564H55.2454V58.8658H58.5073V55.564Z" fill="black"/>
<path d="M58.5073 48.9937H55.2454V52.2955H58.5073V48.9937Z" fill="black"/>
<path d="M58.5073 45.7258H55.2454V48.9941H58.5073V45.7258Z" fill="black"/>
<path d="M58.5073 42.4221H55.2454V45.7239H58.5073V42.4221Z" fill="#43C50D"/>
<path d="M58.5073 39.1538H55.2454V42.4221H58.5073V39.1538Z" fill="#52E915"/>
<path d="M58.5073 35.8521H55.2454V39.1539H58.5073V35.8521Z" fill="black"/>
<path d="M58.5073 32.5837H55.2454V35.852H58.5073V32.5837Z" fill="#52E915"/>
<path d="M58.5073 29.2822H55.2454V32.584H58.5073V29.2822Z" fill="#52E915"/>
<path d="M58.5073 26.0139H55.2454V29.2822H58.5073V26.0139Z" fill="#43C50D"/>
<path d="M58.5073 22.7119H55.2454V26.0138H58.5073V22.7119Z" fill="#52E915"/>
<path d="M58.5073 19.4421H55.2454V22.7104H58.5073V19.4421Z" fill="black"/>
<path d="M58.5073 16.1418H55.2454V19.4437H58.5073V16.1418Z" fill="black"/>
<path d="M58.5073 12.8718H55.2454V16.1401H58.5073V12.8718Z" fill="black"/>
<path d="M58.5073 9.57031H55.2454V12.8721H58.5073V9.57031Z" fill="#43C50D"/>
<path d="M58.5073 6.30176H55.2454V9.57002H58.5073V6.30176Z" fill="#52E915"/>
<path d="M58.5073 3H55.2454V6.30182H58.5073V3Z" fill="black"/>
<path d="M55.2453 114.732H52.0166V118H55.2453V114.732Z" fill="black"/>
<path d="M55.2453 111.43H52.0166V114.732H55.2453V111.43Z" fill="#43C50D"/>
<path d="M55.2453 108.162H52.0166V111.43H55.2453V108.162Z" fill="#43C50D"/>
<path d="M55.2453 104.86H52.0166V108.161H55.2453V104.86Z" fill="#43C50D"/>
<path d="M55.2453 101.591H52.0166V104.86H55.2453V101.591Z" fill="#43C50D"/>
<path d="M55.2453 98.2898H52.0166V101.592H55.2453V98.2898Z" fill="#43C50D"/>
<path d="M55.2453 95.0198H52.0166V98.288H55.2453V95.0198Z" fill="#43C50D"/>
<path d="M55.2453 91.7178H52.0166V95.0196H55.2453V91.7178Z" fill="#43C50D"/>
<path d="M55.2453 88.4497H52.0166V91.718H55.2453V88.4497Z" fill="#43C50D"/>
<path d="M55.2453 85.1482H52.0166V88.45H55.2453V85.1482Z" fill="#43C50D"/>
<path d="M55.2453 81.8799H52.0166V85.1481H55.2453V81.8799Z" fill="black"/>
<path d="M55.2453 78.5779H52.0166V81.8796H55.2453V78.5779Z" fill="#C53C0D"/>
<path d="M55.2453 75.3096H52.0166V78.5778H55.2453V75.3096Z" fill="#F7A285"/>
<path d="M55.2453 72.0076H52.0166V75.3094H55.2453V72.0076Z" fill="black"/>
<path d="M55.2453 68.7378H52.0166V72.0061H55.2453V68.7378Z" fill="#52E915"/>
<path d="M55.2453 65.4358H52.0166V68.7377H55.2453V65.4358Z" fill="#52E915"/>
<path d="M55.2453 62.1677H52.0166V65.4359H55.2453V62.1677Z" fill="#52E915"/>
<path d="M55.2453 58.866H52.0166V62.1678H55.2453V58.866Z" fill="#87F35C"/>
<path d="M55.2453 55.564H52.0166V58.8658H55.2453V55.564Z" fill="#87F35C"/>
<path d="M55.2453 52.2957H52.0166V55.5639H55.2453V52.2957Z" fill="black"/>
<path d="M55.2453 48.9937H52.0166V52.2955H55.2453V48.9937Z" fill="#E4976F"/>
<path d="M55.2453 45.7258H52.0166V48.9941H55.2453V45.7258Z" fill="black"/>
<path d="M55.2453 42.4221H52.0166V45.7239H55.2453V42.4221Z" fill="#43C50D"/>
<path d="M55.2453 39.1538H52.0166V42.4221H55.2453V39.1538Z" fill="#52E915"/>
<path d="M55.2453 35.8521H52.0166V39.1539H55.2453V35.8521Z" fill="#52E915"/>
<path d="M55.2453 32.5837H52.0166V35.852H55.2453V32.5837Z" fill="black"/>
<path d="M55.2453 29.2822H52.0166V32.584H55.2453V29.2822Z" fill="#43C50D"/>
<path d="M55.2453 26.0139H52.0166V29.2822H55.2453V26.0139Z" fill="black"/>
<path d="M55.2453 22.7119H52.0166V26.0138H55.2453V22.7119Z" fill="#43C50D"/>
<path d="M55.2453 19.4421H52.0166V22.7104H55.2453V19.4421Z" fill="#43C50D"/>
<path d="M55.2453 16.1418H52.0166V19.4437H55.2453V16.1418Z" fill="#52E915"/>
<path d="M55.2453 12.8718H52.0166V16.1401H55.2453V12.8718Z" fill="black"/>
<path d="M55.2453 9.57031H52.0166V12.8721H55.2453V9.57031Z" fill="black"/>
<path d="M55.2453 6.30176H52.0166V9.57002H55.2453V6.30176Z" fill="#87F35C"/>
<path d="M55.2453 3H52.0166V6.30182H55.2453V3Z" fill="black"/>
<path d="M52.0166 114.732H48.7547V118H52.0166V114.732Z" fill="black"/>
<path d="M52.0166 111.43H48.7547V114.732H52.0166V111.43Z" fill="black"/>
<path d="M52.0166 108.162H48.7547V111.43H52.0166V108.162Z" fill="black"/>
<path d="M52.0166 104.86H48.7547V108.161H52.0166V104.86Z" fill="black"/>
<path d="M52.0166 101.591H48.7547V104.86H52.0166V101.591Z" fill="black"/>
<path d="M52.0166 98.2898H48.7547V101.592H52.0166V98.2898Z" fill="black"/>
<path d="M52.0166 95.0198H48.7547V98.288H52.0166V95.0198Z" fill="black"/>
<path d="M52.0166 91.7178H48.7547V95.0196H52.0166V91.7178Z" fill="black"/>
<path d="M52.0166 88.4497H48.7547V91.718H52.0166V88.4497Z" fill="black"/>
<path d="M52.0166 85.1482H48.7547V88.45H52.0166V85.1482Z" fill="black"/>
<path d="M52.0166 81.8799H48.7547V85.1481H52.0166V81.8799Z" fill="#C53C0D"/>
<path d="M52.0166 78.5779H48.7547V81.8796H52.0166V78.5779Z" fill="black"/>
<path d="M52.0166 75.3096H48.7547V78.5778H52.0166V75.3096Z" fill="black"/>
<path d="M52.0166 72.0076H48.7547V75.3094H52.0166V72.0076Z" fill="#43C50D"/>
<path d="M52.0166 68.7378H48.7547V72.0061H52.0166V68.7378Z" fill="#43C50D"/>
<path d="M52.0166 65.4358H48.7547V68.7377H52.0166V65.4358Z" fill="#43C50D"/>
<path d="M52.0166 62.1677H48.7547V65.4359H52.0166V62.1677Z" fill="#87F35C"/>
<path d="M52.0166 58.866H48.7547V62.1678H52.0166V58.866Z" fill="black"/>
<path d="M52.0166 55.564H48.7547V58.8658H52.0166V55.564Z" fill="black"/>
<path d="M52.0166 52.2957H48.7547V55.5639H52.0166V52.2957Z" fill="#FFCB8B"/>
<path d="M52.0166 48.9937H48.7547V52.2955H52.0166V48.9937Z" fill="#F1B380"/>
<path d="M52.0166 45.7258H48.7547V48.9941H52.0166V45.7258Z" fill="#E4976F"/>
<path d="M52.0166 42.4221H48.7547V45.7239H52.0166V42.4221Z" fill="black"/>
<path d="M52.0166 39.1538H48.7547V42.4221H52.0166V39.1538Z" fill="#43C50D"/>
<path d="M52.0166 35.8521H48.7547V39.1539H52.0166V35.8521Z" fill="#52E915"/>
<path d="M52.0166 32.5837H48.7547V35.852H52.0166V32.5837Z" fill="#52E915"/>
<path d="M52.0166 29.2822H48.7547V32.584H52.0166V29.2822Z" fill="black"/>
<path d="M52.0166 26.0139H48.7547V29.2822H52.0166V26.0139Z" fill="#EA9E09"/>
<path d="M52.0166 22.7119H48.7547V26.0138H52.0166V22.7119Z" fill="black"/>
<path d="M52.0166 19.4421H48.7547V22.7104H52.0166V19.4421Z" fill="#52E915"/>
<path d="M52.0166 16.1418H48.7547V19.4437H52.0166V16.1418Z" fill="#52E915"/>
<path d="M52.0166 12.8718H48.7547V16.1401H52.0166V12.8718Z" fill="#52E915"/>
<path d="M52.0166 9.57031H48.7547V12.8721H52.0166V9.57031Z" fill="#43C50D"/>
<path d="M52.0166 6.30176H48.7547V9.57002H52.0166V6.30176Z" fill="#87F35C"/>
<path d="M52.0166 3H48.7547V6.30182H52.0166V3Z" fill="black"/>
<path d="M48.7564 114.732H45.4945V118H48.7564V114.732Z" fill="black"/>
<path d="M48.7564 111.43H45.4945V114.732H48.7564V111.43Z" fill="#131313"/>
<path d="M48.7564 108.162H45.4945V111.43H48.7564V108.162Z" fill="#131313"/>
<path d="M48.7564 104.86H45.4945V108.161H48.7564V104.86Z" fill="black"/>
<path d="M48.7564 101.591H45.4945V104.86H48.7564V101.591Z" fill="#131313"/>
<path d="M48.7564 98.2898H45.4945V101.592H48.7564V98.2898Z" fill="black"/>
<path d="M48.7564 95.0198H45.4945V98.288H48.7564V95.0198Z" fill="#131313"/>
<path d="M48.7564 91.7178H45.4945V95.0196H48.7564V91.7178Z" fill="#1A1919"/>
<path d="M48.7564 88.4497H45.4945V91.718H48.7564V88.4497Z" fill="black"/>
<path d="M48.7564 85.1482H45.4945V88.45H48.7564V85.1482Z" fill="#C53C0D"/>
<path d="M48.7564 81.8799H45.4945V85.1481H48.7564V81.8799Z" fill="black"/>
<path d="M48.7564 78.5779H45.4945V81.8796H48.7564V78.5779Z" fill="#131313"/>
<path d="M48.7564 75.3096H45.4945V78.5778H48.7564V75.3096Z" fill="black"/>
<path d="M48.7564 72.0076H45.4945V75.3094H48.7564V72.0076Z" fill="black"/>
<path d="M48.7564 68.7378H45.4945V72.0061H48.7564V68.7378Z" fill="black"/>
<path d="M48.7564 65.4358H45.4945V68.7377H48.7564V65.4358Z" fill="black"/>
<path d="M48.7564 62.1677H45.4945V65.4359H48.7564V62.1677Z" fill="black"/>
<path d="M48.7564 58.866H45.4945V62.1678H48.7564V58.866Z" fill="#131313"/>
<path d="M48.7564 55.564H45.4945V58.8658H48.7564V55.564Z" fill="black"/>
<path d="M48.7564 52.2957H45.4945V55.5639H48.7564V52.2957Z" fill="#FFCB8B"/>
<path d="M48.7564 48.9937H45.4945V52.2955H48.7564V48.9937Z" fill="#F1B380"/>
<path d="M48.7564 45.7258H45.4945V48.9941H48.7564V45.7258Z" fill="black"/>
<path d="M48.7564 42.4221H45.4945V45.7239H48.7564V42.4221Z" fill="black"/>
<path d="M48.7564 39.1538H45.4945V42.4221H48.7564V39.1538Z" fill="black"/>
<path d="M48.7564 35.8521H45.4945V39.1539H48.7564V35.8521Z" fill="#43C50D"/>
<path d="M48.7564 32.5837H45.4945V35.852H48.7564V32.5837Z" fill="#52E915"/>
<path d="M48.7564 29.2822H45.4945V32.584H48.7564V29.2822Z" fill="black"/>
<path d="M48.7564 26.0139H45.4945V29.2822H48.7564V26.0139Z" fill="#EA9E09"/>
<path d="M48.7564 22.7119H45.4945V26.0138H48.7564V22.7119Z" fill="black"/>
<path d="M48.7564 19.4421H45.4945V22.7104H48.7564V19.4421Z" fill="#52E915"/>
<path d="M48.7564 16.1418H45.4945V19.4437H48.7564V16.1418Z" fill="#43C50D"/>
<path d="M48.7564 12.8718H45.4945V16.1401H48.7564V12.8718Z" fill="#87F35C"/>
<path d="M48.7564 9.57031H45.4945V12.8721H48.7564V9.57031Z" fill="black"/>
<path d="M48.7564 6.30176H45.4945V9.57002H48.7564V6.30176Z" fill="black"/>
<path d="M45.4944 114.732H42.2657V118H45.4944V114.732Z" fill="black"/>
<path d="M45.4944 111.43H42.2657V114.732H45.4944V111.43Z" fill="#1A1919"/>
<path d="M45.4944 108.162H42.2657V111.43H45.4944V108.162Z" fill="#1A1919"/>
<path d="M45.4944 104.86H42.2657V108.161H45.4944V104.86Z" fill="black"/>
<path d="M45.4944 101.591H42.2657V104.86H45.4944V101.591Z" fill="#1A1919"/>
<path d="M45.4944 98.2898H42.2657V101.592H45.4944V98.2898Z" fill="black"/>
<path d="M45.4944 95.0198H42.2657V98.288H45.4944V95.0198Z" fill="#1A1919"/>
<path d="M45.4944 91.7178H42.2657V95.0196H45.4944V91.7178Z" fill="black"/>
<path d="M45.4944 88.4497H42.2657V91.718H45.4944V88.4497Z" fill="#C53C0D"/>
<path d="M45.4944 85.1482H42.2657V88.45H45.4944V85.1482Z" fill="black"/>
<path d="M45.4944 81.8799H42.2657V85.1481H45.4944V81.8799Z" fill="#131313"/>
<path d="M45.4944 78.5779H42.2657V81.8796H45.4944V78.5779Z" fill="#1A1919"/>
<path d="M45.4944 75.3096H42.2657V78.5778H45.4944V75.3096Z" fill="#131313"/>
<path d="M45.4944 72.0076H42.2657V75.3094H45.4944V72.0076Z" fill="#131313"/>
<path d="M45.4944 68.7378H42.2657V72.0061H45.4944V68.7378Z" fill="#131313"/>
<path d="M45.4944 65.4358H42.2657V68.7377H45.4944V65.4358Z" fill="#131313"/>
<path d="M45.4944 62.1677H42.2657V65.4359H45.4944V62.1677Z" fill="#131313"/>
<path d="M45.4944 58.866H42.2657V62.1678H45.4944V58.866Z" fill="#1A1919"/>
<path d="M45.4944 55.564H42.2657V58.8658H45.4944V55.564Z" fill="black"/>
<path d="M45.4944 52.2957H42.2657V55.5639H45.4944V52.2957Z" fill="#FFCB8B"/>
<path d="M45.4944 48.9937H42.2657V52.2955H45.4944V48.9937Z" fill="#F1B380"/>
<path d="M45.4944 45.7258H42.2657V48.9941H45.4944V45.7258Z" fill="#F1B380"/>
<path d="M45.4944 42.4221H42.2657V45.7239H45.4944V42.4221Z" fill="#E4976F"/>
<path d="M45.4944 39.1538H42.2657V42.4221H45.4944V39.1538Z" fill="black"/>
<path d="M45.4944 35.8521H42.2657V39.1539H45.4944V35.8521Z" fill="#43C50D"/>
<path d="M45.4944 32.5837H42.2657V35.852H45.4944V32.5837Z" fill="#52E915"/>
<path d="M45.4944 29.2822H42.2657V32.584H45.4944V29.2822Z" fill="black"/>
<path d="M45.4944 26.0139H42.2657V29.2822H45.4944V26.0139Z" fill="#FFDD1A"/>
<path d="M45.4944 22.7119H42.2657V26.0138H45.4944V22.7119Z" fill="black"/>
<path d="M45.4944 19.4421H42.2657V22.7104H45.4944V19.4421Z" fill="#87F35C"/>
<path d="M45.4944 16.1418H42.2657V19.4437H45.4944V16.1418Z" fill="black"/>
<path d="M45.4944 12.8718H42.2657V16.1401H45.4944V12.8718Z" fill="black"/>
<path d="M42.2657 114.732H39.0038V118H42.2657V114.732Z" fill="black"/>
<path d="M42.2657 111.43H39.0038V114.732H42.2657V111.43Z" fill="#1A1919"/>
<path d="M42.2657 108.162H39.0038V111.43H42.2657V108.162Z" fill="black"/>
<path d="M42.2657 104.86H39.0038V108.161H42.2657V104.86Z" fill="black"/>
<path d="M42.2657 101.591H39.0038V104.86H42.2657V101.591Z" fill="black"/>
<path d="M42.2657 98.2898H39.0038V101.592H42.2657V98.2898Z" fill="black"/>
<path d="M42.2657 95.0198H39.0038V98.288H42.2657V95.0198Z" fill="black"/>
<path d="M42.2657 91.7178H39.0038V95.0196H42.2657V91.7178Z" fill="#F7A285"/>
<path d="M42.2657 88.4497H39.0038V91.718H42.2657V88.4497Z" fill="black"/>
<path d="M42.2657 85.1482H39.0038V88.45H42.2657V85.1482Z" fill="#131313"/>
<path d="M42.2657 81.8799H39.0038V85.1481H42.2657V81.8799Z" fill="#1A1919"/>
<path d="M42.2657 78.5779H39.0038V81.8796H42.2657V78.5779Z" fill="#1A1919"/>
<path d="M42.2657 75.3096H39.0038V78.5778H42.2657V75.3096Z" fill="#1A1919"/>
<path d="M42.2657 72.0076H39.0038V75.3094H42.2657V72.0076Z" fill="#1A1919"/>
<path d="M42.2657 68.7378H39.0038V72.0061H42.2657V68.7378Z" fill="#1A1919"/>
<path d="M42.2657 65.4358H39.0038V68.7377H42.2657V65.4358Z" fill="#1A1919"/>
<path d="M42.2657 62.1677H39.0038V65.4359H42.2657V62.1677Z" fill="#1A1919"/>
<path d="M42.2657 58.866H39.0038V62.1678H42.2657V58.866Z" fill="#1A1919"/>
<path d="M42.2657 55.564H39.0038V58.8658H42.2657V55.564Z" fill="black"/>
<path d="M42.2657 52.2957H39.0038V55.5639H42.2657V52.2957Z" fill="#FFCB8B"/>
<path d="M42.2657 48.9937H39.0038V52.2955H42.2657V48.9937Z" fill="#E4976F"/>
<path d="M42.2657 45.7258H39.0038V48.9941H42.2657V45.7258Z" fill="#F1B380"/>
<path d="M42.2657 42.4221H39.0038V45.7239H42.2657V42.4221Z" fill="#E4976F"/>
<path d="M42.2657 39.1538H39.0038V42.4221H42.2657V39.1538Z" fill="black"/>
<path d="M42.2657 35.8521H39.0038V39.1539H42.2657V35.8521Z" fill="#43C50D"/>
<path d="M42.2657 32.5837H39.0038V35.852H42.2657V32.5837Z" fill="#52E915"/>
<path d="M42.2657 29.2822H39.0038V32.584H42.2657V29.2822Z" fill="black"/>
<path d="M42.2657 26.0139H39.0038V29.2822H42.2657V26.0139Z" fill="#FFDD1A"/>
<path d="M42.2657 22.7119H39.0038V26.0138H42.2657V22.7119Z" fill="black"/>
<path d="M42.2657 19.4421H39.0038V22.7104H42.2657V19.4421Z" fill="black"/>
<path d="M39.0055 114.732H35.7436V118H39.0055V114.732Z" fill="black"/>
<path d="M39.0055 111.43H35.7436V114.732H39.0055V111.43Z" fill="black"/>
<path d="M39.0055 108.162H35.7436V111.43H39.0055V108.162Z" fill="black"/>
<path d="M39.0055 104.86H35.7436V108.161H39.0055V104.86Z" fill="black"/>
<path d="M39.0055 101.591H35.7436V104.86H39.0055V101.591Z" fill="#1A1919"/>
<path d="M39.0055 98.2898H35.7436V101.592H39.0055V98.2898Z" fill="black"/>
<path d="M39.0055 95.0198H35.7436V98.288H39.0055V95.0198Z" fill="#C53C0D"/>
<path d="M39.0055 91.7178H35.7436V95.0196H39.0055V91.7178Z" fill="black"/>
<path d="M39.0055 88.4497H35.7436V91.718H39.0055V88.4497Z" fill="#131313"/>
<path d="M39.0055 85.1482H35.7436V88.45H39.0055V85.1482Z" fill="#1A1919"/>
<path d="M39.0055 81.8799H35.7436V85.1481H39.0055V81.8799Z" fill="black"/>
<path d="M39.0055 78.5779H35.7436V81.8796H39.0055V78.5779Z" fill="black"/>
<path d="M39.0055 75.3096H35.7436V78.5778H39.0055V75.3096Z" fill="black"/>
<path d="M39.0055 72.0076H35.7436V75.3094H39.0055V72.0076Z" fill="black"/>
<path d="M39.0055 68.7378H35.7436V72.0061H39.0055V68.7378Z" fill="black"/>
<path d="M39.0055 65.4358H35.7436V68.7377H39.0055V65.4358Z" fill="black"/>
<path d="M39.0055 62.1677H35.7436V65.4359H39.0055V62.1677Z" fill="black"/>
<path d="M39.0055 58.866H35.7436V62.1678H39.0055V58.866Z" fill="black"/>
<path d="M39.0055 55.564H35.7436V58.8658H39.0055V55.564Z" fill="black"/>
<path d="M39.0055 52.2957H35.7436V55.5639H39.0055V52.2957Z" fill="#FFCB8B"/>
<path d="M39.0055 48.9937H35.7436V52.2955H39.0055V48.9937Z" fill="#F1B380"/>
<path d="M39.0055 45.7258H35.7436V48.9941H39.0055V45.7258Z" fill="black"/>
<path d="M39.0055 42.4221H35.7436V45.7239H39.0055V42.4221Z" fill="black"/>
<path d="M39.0055 39.1538H35.7436V42.4221H39.0055V39.1538Z" fill="black"/>
<path d="M39.0055 35.8521H35.7436V39.1539H39.0055V35.8521Z" fill="#43C50D"/>
<path d="M39.0055 32.5837H35.7436V35.852H39.0055V32.5837Z" fill="#87F35C"/>
<path d="M39.0055 29.2822H35.7436V32.584H39.0055V29.2822Z" fill="black"/>
<path d="M39.0055 26.0139H35.7436V29.2822H39.0055V26.0139Z" fill="black"/>
<path d="M35.7435 114.732H32.5148V118H35.7435V114.732Z" fill="black"/>
<path d="M35.7435 111.43H32.5148V114.732H35.7435V111.43Z" fill="#131313"/>
<path d="M35.7435 108.162H32.5148V111.43H35.7435V108.162Z" fill="#131313"/>
<path d="M35.7435 104.86H32.5148V108.161H35.7435V104.86Z" fill="black"/>
<path d="M35.7435 101.591H32.5148V104.86H35.7435V101.591Z" fill="black"/>
<path d="M35.7435 98.2898H32.5148V101.592H35.7435V98.2898Z" fill="#C53C0D"/>
<path d="M35.7435 95.0198H32.5148V98.288H35.7435V95.0198Z" fill="black"/>
<path d="M35.7435 91.7178H32.5148V95.0196H35.7435V91.7178Z" fill="#1A1919"/>
<path d="M35.7435 88.4497H32.5148V91.718H35.7435V88.4497Z" fill="black"/>
<path d="M35.7435 85.1482H32.5148V88.45H35.7435V85.1482Z" fill="#43C50D"/>
<path d="M35.7435 81.8799H32.5148V85.1481H35.7435V81.8799Z" fill="#43C50D"/>
<path d="M35.7435 78.5779H32.5148V81.8796H35.7435V78.5779Z" fill="#43C50D"/>
<path d="M35.7435 75.3096H32.5148V78.5778H35.7435V75.3096Z" fill="#52E915"/>
<path d="M35.7435 72.0076H32.5148V75.3094H35.7435V72.0076Z" fill="#52E915"/>
<path d="M35.7435 68.7378H32.5148V72.0061H35.7435V68.7378Z" fill="#52E915"/>
<path d="M35.7435 65.4358H32.5148V68.7377H35.7435V65.4358Z" fill="#52E915"/>
<path d="M35.7435 62.1677H32.5148V65.4359H35.7435V62.1677Z" fill="#52E915"/>
<path d="M35.7435 58.866H32.5148V62.1678H35.7435V58.866Z" fill="black"/>
<path d="M35.7435 52.2957H32.5148V55.5639H35.7435V52.2957Z" fill="black"/>
<path d="M35.7435 48.9937H32.5148V52.2955H35.7435V48.9937Z" fill="black"/>
<path d="M35.7435 45.7258H32.5148V48.9941H35.7435V45.7258Z" fill="black"/>
<path d="M35.7435 42.4221H32.5148V45.7239H35.7435V42.4221Z" fill="black"/>
<path d="M35.7435 39.1538H32.5148V42.4221H35.7435V39.1538Z" fill="black"/>
<path d="M35.7435 35.8521H32.5148V39.1539H35.7435V35.8521Z" fill="#43C50D"/>
<path d="M35.7435 32.5837H32.5148V35.852H35.7435V32.5837Z" fill="#87F35C"/>
<path d="M35.7435 29.2822H32.5148V32.584H35.7435V29.2822Z" fill="black"/>
<path d="M32.5146 114.732H29.2527V118H32.5146V114.732Z" fill="black"/>
<path d="M32.5146 111.43H29.2527V114.732H32.5146V111.43Z" fill="#1A1919"/>
<path d="M32.5146 108.162H29.2527V111.43H32.5146V108.162Z" fill="#1A1919"/>
<path d="M32.5146 104.86H29.2527V108.161H32.5146V104.86Z" fill="black"/>
<path d="M32.5146 101.591H29.2527V104.86H32.5146V101.591Z" fill="#F7A285"/>
<path d="M32.5146 98.2898H29.2527V101.592H32.5146V98.2898Z" fill="black"/>
<path d="M32.5146 95.0198H29.2527V98.288H32.5146V95.0198Z" fill="black"/>
<path d="M32.5146 91.7178H29.2527V95.0196H32.5146V91.7178Z" fill="black"/>
<path d="M32.5146 88.4497H29.2527V91.718H32.5146V88.4497Z" fill="black"/>
<path d="M32.5146 85.1482H29.2527V88.45H32.5146V85.1482Z" fill="black"/>
<path d="M32.5146 81.8799H29.2527V85.1481H32.5146V81.8799Z" fill="black"/>
<path d="M32.5146 78.5779H29.2527V81.8796H32.5146V78.5779Z" fill="black"/>
<path d="M32.5146 75.3096H29.2527V78.5778H32.5146V75.3096Z" fill="#43C50D"/>
<path d="M32.5146 72.0076H29.2527V75.3094H32.5146V72.0076Z" fill="#52E915"/>
<path d="M32.5146 68.7378H29.2527V72.0061H32.5146V68.7378Z" fill="#52E915"/>
<path d="M32.5146 65.4358H29.2527V68.7377H32.5146V65.4358Z" fill="#87F35C"/>
<path d="M32.5146 62.1677H29.2527V65.4359H32.5146V62.1677Z" fill="black"/>
<path d="M32.5146 42.4221H29.2527V45.7239H32.5146V42.4221Z" fill="black"/>
<path d="M32.5146 39.1538H29.2527V42.4221H32.5146V39.1538Z" fill="#43C50D"/>
<path d="M32.5146 35.8521H29.2527V39.1539H32.5146V35.8521Z" fill="#43C50D"/>
<path d="M32.5146 32.5837H29.2527V35.852H32.5146V32.5837Z" fill="#87F35C"/>
<path d="M32.5146 29.2822H29.2527V32.584H32.5146V29.2822Z" fill="black"/>
<path d="M29.2544 114.732H25.9925V118H29.2544V114.732Z" fill="black"/>
<path d="M29.2544 111.43H25.9925V114.732H29.2544V111.43Z" fill="#1A1919"/>
<path d="M29.2544 108.162H25.9925V111.43H29.2544V108.162Z" fill="black"/>
<path d="M29.2544 104.86H25.9925V108.161H29.2544V104.86Z" fill="#C53C0D"/>
<path d="M29.2544 101.591H25.9925V104.86H29.2544V101.591Z" fill="black"/>
<path d="M29.2544 78.5779H25.9925V81.8796H29.2544V78.5779Z" fill="black"/>
<path d="M29.2544 75.3096H25.9925V78.5778H29.2544V75.3096Z" fill="#43C50D"/>
<path d="M29.2544 72.0076H25.9925V75.3094H29.2544V72.0076Z" fill="#52E915"/>
<path d="M29.2544 68.7378H25.9925V72.0061H29.2544V68.7378Z" fill="#87F35C"/>
<path d="M29.2544 65.4358H25.9925V68.7377H29.2544V65.4358Z" fill="black"/>
<path d="M29.2544 39.1538H25.9925V42.4221H29.2544V39.1538Z" fill="black"/>
<path d="M29.2544 35.8521H25.9925V39.1539H29.2544V35.8521Z" fill="#87F35C"/>
<path d="M29.2544 32.5837H25.9925V35.852H29.2544V32.5837Z" fill="#87F35C"/>
<path d="M29.2544 29.2822H25.9925V32.584H29.2544V29.2822Z" fill="black"/>
<path d="M25.9926 111.43H22.7639V114.732H25.9926V111.43Z" fill="black"/>
<path d="M25.9926 108.162H22.7639V111.43H25.9926V108.162Z" fill="#C53C0D"/>
<path d="M25.9926 104.86H22.7639V108.161H25.9926V104.86Z" fill="black"/>
<path d="M25.9926 78.5779H22.7639V81.8796H25.9926V78.5779Z" fill="black"/>
<path d="M25.9926 75.3096H22.7639V78.5778H25.9926V75.3096Z" fill="#43C50D"/>
<path d="M25.9926 72.0076H22.7639V75.3094H25.9926V72.0076Z" fill="#52E915"/>
<path d="M25.9926 68.7378H22.7639V72.0061H25.9926V68.7378Z" fill="#87F35C"/>
<path d="M25.9926 65.4358H22.7639V68.7377H25.9926V65.4358Z" fill="black"/>
<path d="M25.9926 35.8521H22.7639V39.1539H25.9926V35.8521Z" fill="black"/>
<path d="M25.9926 32.5837H22.7639V35.852H25.9926V32.5837Z" fill="black"/>
<path d="M22.7637 114.732H19.5018V118H22.7637V114.732Z" fill="black"/>
<path d="M22.7637 111.43H19.5018V114.732H22.7637V111.43Z" fill="#C53C0D"/>
<path d="M22.7637 108.162H19.5018V111.43H22.7637V108.162Z" fill="black"/>
<path d="M22.7637 85.1482H19.5018V88.45H22.7637V85.1482Z" fill="black"/>
<path d="M22.7637 81.8799H19.5018V85.1481H22.7637V81.8799Z" fill="black"/>
<path d="M22.7637 78.5779H19.5018V81.8796H22.7637V78.5779Z" fill="#43C50D"/>
<path d="M22.7637 75.3096H19.5018V78.5778H22.7637V75.3096Z" fill="#52E915"/>
<path d="M22.7637 72.0076H19.5018V75.3094H22.7637V72.0076Z" fill="#52E915"/>
<path d="M22.7637 68.7378H19.5018V72.0061H22.7637V68.7378Z" fill="#87F35C"/>
<path d="M22.7637 65.4358H19.5018V68.7377H22.7637V65.4358Z" fill="black"/>
<path d="M19.5019 114.732H16.2732V118H19.5019V114.732Z" fill="black"/>
<path d="M19.5019 111.43H16.2732V114.732H19.5019V111.43Z" fill="black"/>
<path d="M19.5019 88.4497H16.2732V91.718H19.5019V88.4497Z" fill="black"/>
<path d="M19.5019 85.1482H16.2732V88.45H19.5019V85.1482Z" fill="#43C50D"/>
<path d="M19.5019 81.8799H16.2732V85.1481H19.5019V81.8799Z" fill="#43C50D"/>
<path d="M19.5019 78.5779H16.2732V81.8796H19.5019V78.5779Z" fill="#52E915"/>
<path d="M19.5019 75.3096H16.2732V78.5778H19.5019V75.3096Z" fill="#52E915"/>
<path d="M19.5019 72.0076H16.2732V75.3094H19.5019V72.0076Z" fill="#52E915"/>
<path d="M19.5019 68.7378H16.2732V72.0061H19.5019V68.7378Z" fill="#87F35C"/>
<path d="M19.5019 65.4358H16.2732V68.7377H19.5019V65.4358Z" fill="black"/>
<path d="M19.5019 42.4221H16.2732V45.7239H19.5019V42.4221Z" fill="#43C50D"/>
<path d="M16.2747 91.7178H13.0128V95.0196H16.2747V91.7178Z" fill="black"/>
<path d="M16.2747 88.4497H13.0128V91.718H16.2747V88.4497Z" fill="#43C50D"/>
<path d="M16.2747 85.1482H13.0128V88.45H16.2747V85.1482Z" fill="#52E915"/>
<path d="M16.2747 81.8799H13.0128V85.1481H16.2747V81.8799Z" fill="#52E915"/>
<path d="M16.2747 78.5779H13.0128V81.8796H16.2747V78.5779Z" fill="#52E915"/>
<path d="M16.2747 75.3096H13.0128V78.5778H16.2747V75.3096Z" fill="#87F35C"/>
<path d="M16.2747 72.0076H13.0128V75.3094H16.2747V72.0076Z" fill="#87F35C"/>
<path d="M16.2747 68.7378H13.0128V72.0061H16.2747V68.7378Z" fill="black"/>
<path d="M16.2747 65.4358H13.0128V68.7377H16.2747V65.4358Z" fill="black"/>
<path d="M16.2747 55.564H13.0128V58.8658H16.2747V55.564Z" fill="#43C50D"/>
<path d="M16.2747 52.2957H13.0128V55.5639H16.2747V52.2957Z" fill="#52E915"/>
<path d="M16.2747 32.5837H13.0128V35.852H16.2747V32.5837Z" fill="#43C50D"/>
<path d="M13.0128 88.4497H9.75091V91.718H13.0128V88.4497Z" fill="black"/>
<path d="M13.0128 85.1482H9.75091V88.45H13.0128V85.1482Z" fill="black"/>
<path d="M13.0128 81.8799H9.75091V85.1481H13.0128V81.8799Z" fill="black"/>
<path d="M13.0128 78.5779H9.75091V81.8796H13.0128V78.5779Z" fill="black"/>
<path d="M13.0128 75.3096H9.75091V78.5778H13.0128V75.3096Z" fill="black"/>
<path d="M13.0128 72.0076H9.75091V75.3094H13.0128V72.0076Z" fill="black"/>
<path d="M13.0128 68.7378H9.75091V72.0061H13.0128V68.7378Z" fill="#E4976F"/>
<path d="M13.0128 65.4358H9.75091V68.7377H13.0128V65.4358Z" fill="black"/>
<path d="M13.0128 58.866H9.75091V62.1678H13.0128V58.866Z" fill="#43C50D"/>
<path d="M13.0128 55.564H9.75091V58.8658H13.0128V55.564Z" fill="#52E915"/>
<path d="M13.0128 52.2957H9.75091V55.5639H13.0128V52.2957Z" fill="#52E915"/>
<path d="M13.0128 48.9937H9.75091V52.2955H13.0128V48.9937Z" fill="#87F35C"/>
<path d="M9.75084 72.0076H6.5221V75.3094H9.75084V72.0076Z" fill="black"/>
<path d="M9.75084 68.7378H6.5221V72.0061H9.75084V68.7378Z" fill="#F7A285"/>
<path d="M9.75084 65.4358H6.5221V68.7377H9.75084V65.4358Z" fill="black"/>
<path d="M9.75084 58.866H6.5221V62.1678H9.75084V58.866Z" fill="#43C50D"/>
<path d="M9.75084 55.564H6.5221V58.8658H9.75084V55.564Z" fill="#52E915"/>
<path d="M9.75084 52.2957H6.5221V55.5639H9.75084V52.2957Z" fill="#52E915"/>
<path d="M9.75084 48.9937H6.5221V52.2955H9.75084V48.9937Z" fill="#87F35C"/>
<path d="M9.75084 39.1538H6.5221V42.4221H9.75084V39.1538Z" fill="#43C50D"/>
<path d="M6.5238 68.7378H3.26187V72.0061H6.5238V68.7378Z" fill="black"/>
<path d="M6.5238 65.4358H3.26187V68.7377H6.5238V65.4358Z" fill="black"/>
<path d="M6.5238 55.564H3.26187V58.8658H6.5238V55.564Z" fill="#52E915"/>
<path d="M6.5238 52.2957H3.26187V55.5639H6.5238V52.2957Z" fill="#87F35C"/>
<path d="M6.5238 29.2822H3.26187V32.584H6.5238V29.2822Z" fill="#43C50D"/>
<path d="M3.26193 45.7258H0V48.9941H3.26193V45.7258Z" fill="#43C50D"/>
</g>
<defs>
<clipPath id="clip0">
<rect width="104" height="115" fill="white"/>
</clipPath>
</defs>
</svg>
