<svg width="15" height="15" viewBox="0 0 15 15" fill="none" xmlns="http://www.w3.org/2000/svg">
<path d="M3.5997 12.3493H2.69525V13.2358H3.5997V12.3493Z" fill="#FFDD1A"/>
<path d="M11.7125 12.3493H10.8081V13.2358H11.7125V12.3493Z" fill="#FFDD1A"/>
<path d="M14.4169 5.29255H13.5124V6.17909H14.4169V5.29255Z" fill="#0E0E11"/>
<path d="M14.4169 4.41489H13.5124V5.29255H14.4169V4.41489Z" fill="#0E0E11"/>
<path d="M13.5124 13.2358H12.608V14.1135H13.5124V13.2358Z" fill="#0E0E11"/>
<path d="M13.5124 12.3493H12.608V13.2358H13.5124V12.3493Z" fill="#0E0E11"/>
<path d="M13.5124 6.179H12.608V7.05666H13.5124V6.179Z" fill="#0E0E11"/>
<path d="M13.5124 5.29255H12.608V6.17909H13.5124V5.29255Z" fill="#EA9E09"/>
<path d="M13.5124 4.41489H12.608V5.29255H13.5124V4.41489Z" fill="#0E0E11"/>
<path d="M12.608 14.1135H11.7125V15H12.608V14.1135Z" fill="#0E0E11"/>
<path d="M12.608 13.2358H11.7125V14.1135H12.608V13.2358Z" fill="#EA9E09"/>
<path d="M12.608 12.3493H11.7125V13.2358H12.608V12.3493Z" fill="#EA9E09"/>
<path d="M12.608 11.4715H11.7125V12.3492H12.608V11.4715Z" fill="#0E0E11"/>
<path d="M12.608 10.5851H11.7125V11.4716H12.608V10.5851Z" fill="#0E0E11"/>
<path d="M12.608 9.70744H11.7125V10.5851H12.608V9.70744Z" fill="#0E0E11"/>
<path d="M12.608 7.05673H11.7125V7.94323H12.608V7.05673Z" fill="#0E0E11"/>
<path d="M12.608 6.179H11.7125V7.05666H12.608V6.179Z" fill="#EA9E09"/>
<path d="M12.608 5.29255H11.7125V6.17909H12.608V5.29255Z" fill="#FFDD1A"/>
<path d="M12.608 4.41489H11.7125V5.29255H12.608V4.41489Z" fill="#0E0E11"/>
<path d="M11.7125 14.1135H10.8081V15H11.7125V14.1135Z" fill="#0E0E11"/>
<path d="M11.7125 13.2358H10.8081V14.1135H11.7125V13.2358Z" fill="#EA9E09"/>
<path d="M11.7125 11.4715H10.8081V12.3492H11.7125V11.4715Z" fill="#EA9E09"/>
<path d="M11.7125 10.5851H10.8081V11.4716H11.7125V10.5851Z" fill="#EA9E09"/>
<path d="M11.7125 9.70744H10.8081V10.5851H11.7125V9.70744Z" fill="#EA9E09"/>
<path d="M11.7125 8.82092H10.8081V9.70741H11.7125V8.82092Z" fill="#0E0E11"/>
<path d="M11.7125 7.94325H10.8081V8.82092H11.7125V7.94325Z" fill="#0E0E11"/>
<path d="M11.7125 7.05673H10.8081V7.94323H11.7125V7.05673Z" fill="#EA9E09"/>
<path d="M11.7125 6.179H10.8081V7.05666H11.7125V6.179Z" fill="#FFDD1A"/>
<path d="M11.7125 5.29255H10.8081V6.17909H11.7125V5.29255Z" fill="#FFDD1A"/>
<path d="M11.7125 4.41489H10.8081V5.29255H11.7125V4.41489Z" fill="#0E0E11"/>
<path d="M10.8081 13.2358H9.91266V14.1135H10.8081V13.2358Z" fill="#0E0E11"/>
<path d="M10.8081 12.3493H9.91266V13.2358H10.8081V12.3493Z" fill="#EA9E09"/>
<path d="M10.8081 11.4715H9.91266V12.3492H10.8081V11.4715Z" fill="#FFDD1A"/>
<path d="M10.8081 10.5851H9.91266V11.4716H10.8081V10.5851Z" fill="#FFDD1A"/>
<path d="M10.8081 9.70744H9.91266V10.5851H10.8081V9.70744Z" fill="#FFDD1A"/>
<path d="M10.8081 8.82092H9.91266V9.70741H10.8081V8.82092Z" fill="#EA9E09"/>
<path d="M10.8081 7.94325H9.91266V8.82092H10.8081V7.94325Z" fill="#EA9E09"/>
<path d="M10.8081 7.05673H9.91266V7.94323H10.8081V7.05673Z" fill="#FFDD1A"/>
<path d="M10.8081 6.179H9.91266V7.05666H10.8081V6.179Z" fill="#FFDD1A"/>
<path d="M10.8081 5.29255H9.91266V6.17909H10.8081V5.29255Z" fill="#FFDD1A"/>
<path d="M10.8081 4.41489H9.91266V5.29255H10.8081V4.41489Z" fill="#0E0E11"/>
<path d="M9.9127 12.3493H9.00824V13.2358H9.9127V12.3493Z" fill="#0E0E11"/>
<path d="M9.9127 11.4715H9.00824V12.3492H9.9127V11.4715Z" fill="#EA9E09"/>
<path d="M9.9127 10.5851H9.00824V11.4716H9.9127V10.5851Z" fill="#FFDD1A"/>
<path d="M9.9127 9.70744H9.00824V10.5851H9.9127V9.70744Z" fill="#FFDD1A"/>
<path d="M9.9127 8.82092H9.00824V9.70741H9.9127V8.82092Z" fill="#FFDD1A"/>
<path d="M9.9127 7.94325H9.00824V8.82092H9.9127V7.94325Z" fill="#FFDD1A"/>
<path d="M9.9127 7.05673H9.00824V7.94323H9.9127V7.05673Z" fill="#FFDD1A"/>
<path d="M9.9127 6.179H9.00824V7.05666H9.9127V6.179Z" fill="#FFDD1A"/>
<path d="M9.9127 5.29255H9.00824V6.17909H9.9127V5.29255Z" fill="#FFDD1A"/>
<path d="M9.9127 4.41489H9.00824V5.29255H9.9127V4.41489Z" fill="#FFDD1A"/>
<path d="M9.9127 3.52836H9.00824V4.4149H9.9127V3.52836Z" fill="#0E0E11"/>
<path d="M9.9127 2.64177H9.00824V3.5283H9.9127V2.64177Z" fill="#0E0E11"/>
<path d="M9.00824 12.3493H8.10388V13.2358H9.00824V12.3493Z" fill="#0E0E11"/>
<path d="M9.00824 11.4715H8.10388V12.3492H9.00824V11.4715Z" fill="#EA9E09"/>
<path d="M9.00824 10.5851H8.10388V11.4716H9.00824V10.5851Z" fill="#FFDD1A"/>
<path d="M9.00824 9.70744H8.10388V10.5851H9.00824V9.70744Z" fill="#FFDD1A"/>
<path d="M9.00824 8.82092H8.10388V9.70741H9.00824V8.82092Z" fill="#FFDD1A"/>
<path d="M9.00824 7.94325H8.10388V8.82092H9.00824V7.94325Z" fill="#FFDD1A"/>
<path d="M9.00824 7.05673H8.10388V7.94323H9.00824V7.05673Z" fill="#FFDD1A"/>
<path d="M9.00824 6.179H8.10388V7.05666H9.00824V6.179Z" fill="#FFDD1A"/>
<path d="M9.00824 5.29255H8.10388V6.17909H9.00824V5.29255Z" fill="#FFDD1A"/>
<path d="M9.00824 4.41489H8.10388V5.29255H9.00824V4.41489Z" fill="#FFDD1A"/>
<path d="M9.00824 3.52836H8.10388V4.4149H9.00824V3.52836Z" fill="#FFDD1A"/>
<path d="M9.00824 2.64177H8.10388V3.5283H9.00824V2.64177Z" fill="#FFDD1A"/>
<path d="M9.00824 1.76418H8.10388V2.6418H9.00824V1.76418Z" fill="#0E0E11"/>
<path d="M9.00824 0.877583H8.10388V1.76412H9.00824V0.877583Z" fill="#0E0E11"/>
<path d="M8.10388 11.4715H7.20844V12.3492H8.10388V11.4715Z" fill="#0E0E11"/>
<path d="M8.10388 10.5851H7.20844V11.4716H8.10388V10.5851Z" fill="#EA9E09"/>
<path d="M8.10388 9.70744H7.20844V10.5851H8.10388V9.70744Z" fill="#FFDD1A"/>
<path d="M8.10388 8.82092H7.20844V9.70741H8.10388V8.82092Z" fill="#FFDD1A"/>
<path d="M8.10388 7.94325H7.20844V8.82092H8.10388V7.94325Z" fill="#FFDD1A"/>
<path d="M8.10388 7.05673H7.20844V7.94323H8.10388V7.05673Z" fill="#FFDD1A"/>
<path d="M8.10388 6.179H7.20844V7.05666H8.10388V6.179Z" fill="#FFDD1A"/>
<path d="M8.10388 5.29255H7.20844V6.17909H8.10388V5.29255Z" fill="#FFDD1A"/>
<path d="M8.10388 4.41489H7.20844V5.29255H8.10388V4.41489Z" fill="#FFDD1A"/>
<path d="M8.10388 3.52836H7.20844V4.4149H8.10388V3.52836Z" fill="#FFDD1A"/>
<path d="M8.10388 2.64177H7.20844V3.5283H8.10388V2.64177Z" fill="#FFDD1A"/>
<path d="M8.10388 1.76418H7.20844V2.6418H8.10388V1.76418Z" fill="#FFDD1A"/>
<path d="M8.10388 0.877583H7.20844V1.76412H8.10388V0.877583Z" fill="white"/>
<path d="M8.10388 -3.8147e-06H7.20844V0.877612H8.10388V-3.8147e-06Z" fill="#0E0E11"/>
<path d="M7.20842 11.4715H6.30402V12.3492H7.20842V11.4715Z" fill="#0E0E11"/>
<path d="M7.20842 10.5851H6.30402V11.4716H7.20842V10.5851Z" fill="#EA9E09"/>
<path d="M7.20842 9.70744H6.30402V10.5851H7.20842V9.70744Z" fill="#FFDD1A"/>
<path d="M7.20842 8.82092H6.30402V9.70741H7.20842V8.82092Z" fill="#FFDD1A"/>
<path d="M7.20842 7.94325H6.30402V8.82092H7.20842V7.94325Z" fill="#FFDD1A"/>
<path d="M7.20842 7.05673H6.30402V7.94323H7.20842V7.05673Z" fill="#FFDD1A"/>
<path d="M7.20842 6.179H6.30402V7.05666H7.20842V6.179Z" fill="#FFDD1A"/>
<path d="M7.20842 5.29255H6.30402V6.17909H7.20842V5.29255Z" fill="white"/>
<path d="M7.20842 4.41489H6.30402V5.29255H7.20842V4.41489Z" fill="#FFDD1A"/>
<path d="M7.20842 3.52836H6.30402V4.4149H7.20842V3.52836Z" fill="#FFDD1A"/>
<path d="M7.20842 2.64177H6.30402V3.5283H7.20842V2.64177Z" fill="#FFDD1A"/>
<path d="M7.20842 1.76418H6.30402V2.6418H7.20842V1.76418Z" fill="white"/>
<path d="M7.20842 0.877583H6.30402V1.76412H7.20842V0.877583Z" fill="white"/>
<path d="M7.20842 -3.8147e-06H6.30402V0.877612H7.20842V-3.8147e-06Z" fill="#0E0E11"/>
<path d="M6.30398 12.3493H5.39954V13.2358H6.30398V12.3493Z" fill="#0E0E11"/>
<path d="M6.30398 11.4715H5.39954V12.3492H6.30398V11.4715Z" fill="#EA9E09"/>
<path d="M6.30398 10.5851H5.39954V11.4716H6.30398V10.5851Z" fill="#FFDD1A"/>
<path d="M6.30398 9.70744H5.39954V10.5851H6.30398V9.70744Z" fill="#FFDD1A"/>
<path d="M6.30398 8.82092H5.39954V9.70741H6.30398V8.82092Z" fill="#FFDD1A"/>
<path d="M6.30398 7.94325H5.39954V8.82092H6.30398V7.94325Z" fill="#FFDD1A"/>
<path d="M6.30398 7.05673H5.39954V7.94323H6.30398V7.05673Z" fill="white"/>
<path d="M6.30398 6.179H5.39954V7.05666H6.30398V6.179Z" fill="white"/>
<path d="M6.30398 5.29255H5.39954V6.17909H6.30398V5.29255Z" fill="#FFDD1A"/>
<path d="M6.30398 4.41489H5.39954V5.29255H6.30398V4.41489Z" fill="#FFDD1A"/>
<path d="M6.30398 3.52836H5.39954V4.4149H6.30398V3.52836Z" fill="white"/>
<path d="M6.30398 2.64177H5.39954V3.5283H6.30398V2.64177Z" fill="white"/>
<path d="M6.30398 1.76418H5.39954V2.6418H6.30398V1.76418Z" fill="#0E0E11"/>
<path d="M6.30398 0.877583H5.39954V1.76412H6.30398V0.877583Z" fill="#0E0E11"/>
<path d="M5.39948 12.3493H4.50409V13.2358H5.39948V12.3493Z" fill="#0E0E11"/>
<path d="M5.39948 11.4715H4.50409V12.3492H5.39948V11.4715Z" fill="#EA9E09"/>
<path d="M5.39948 10.5851H4.50409V11.4716H5.39948V10.5851Z" fill="#FFDD1A"/>
<path d="M5.39948 9.70744H4.50409V10.5851H5.39948V9.70744Z" fill="#FFDD1A"/>
<path d="M5.39948 8.82092H4.50409V9.70741H5.39948V8.82092Z" fill="#FFDD1A"/>
<path d="M5.39948 7.94325H4.50409V8.82092H5.39948V7.94325Z" fill="#FFDD1A"/>
<path d="M5.39948 7.05673H4.50409V7.94323H5.39948V7.05673Z" fill="#FFDD1A"/>
<path d="M5.39948 6.179H4.50409V7.05666H5.39948V6.179Z" fill="#FFDD1A"/>
<path d="M5.39948 5.29255H4.50409V6.17909H5.39948V5.29255Z" fill="#FFDD1A"/>
<path d="M5.39948 4.41489H4.50409V5.29255H5.39948V4.41489Z" fill="white"/>
<path d="M5.39948 3.52836H4.50409V4.4149H5.39948V3.52836Z" fill="#0E0E11"/>
<path d="M5.39948 2.64177H4.50409V3.5283H5.39948V2.64177Z" fill="#0E0E11"/>
<path d="M4.50415 13.2358H3.59973V14.1135H4.50415V13.2358Z" fill="#0E0E11"/>
<path d="M4.50415 12.3493H3.59973V13.2358H4.50415V12.3493Z" fill="#EA9E09"/>
<path d="M4.50415 11.4715H3.59973V12.3492H4.50415V11.4715Z" fill="#FFDD1A"/>
<path d="M4.50415 10.5851H3.59973V11.4716H4.50415V10.5851Z" fill="#FFDD1A"/>
<path d="M4.50415 9.70744H3.59973V10.5851H4.50415V9.70744Z" fill="#FFDD1A"/>
<path d="M4.50415 8.82092H3.59973V9.70741H4.50415V8.82092Z" fill="white"/>
<path d="M4.50415 7.94325H3.59973V8.82092H4.50415V7.94325Z" fill="white"/>
<path d="M4.50415 7.05673H3.59973V7.94323H4.50415V7.05673Z" fill="#FFDD1A"/>
<path d="M4.50415 6.179H3.59973V7.05666H4.50415V6.179Z" fill="#FFDD1A"/>
<path d="M4.50415 5.29255H3.59973V6.17909H4.50415V5.29255Z" fill="white"/>
<path d="M4.50415 4.41489H3.59973V5.29255H4.50415V4.41489Z" fill="#0E0E11"/>
<path d="M3.5997 14.1135H2.69525V15H3.5997V14.1135Z" fill="#0E0E11"/>
<path d="M3.5997 13.2358H2.69525V14.1135H3.5997V13.2358Z" fill="#EA9E09"/>
<path d="M3.5997 11.4715H2.69525V12.3492H3.5997V11.4715Z" fill="white"/>
<path d="M3.5997 10.5851H2.69525V11.4716H3.5997V10.5851Z" fill="white"/>
<path d="M3.5997 9.70744H2.69525V10.5851H3.5997V9.70744Z" fill="white"/>
<path d="M3.5997 8.82092H2.69525V9.70741H3.5997V8.82092Z" fill="#0E0E11"/>
<path d="M3.5997 7.94325H2.69525V8.82092H3.5997V7.94325Z" fill="#0E0E11"/>
<path d="M3.5997 7.05673H2.69525V7.94323H3.5997V7.05673Z" fill="white"/>
<path d="M3.5997 6.179H2.69525V7.05666H3.5997V6.179Z" fill="#FFDD1A"/>
<path d="M3.5997 5.29255H2.69525V6.17909H3.5997V5.29255Z" fill="white"/>
<path d="M3.5997 4.41489H2.69525V5.29255H3.5997V4.41489Z" fill="#0E0E11"/>
<path d="M2.69525 14.1135H1.7998V15H2.69525V14.1135Z" fill="#0E0E11"/>
<path d="M2.69525 13.2358H1.7998V14.1135H2.69525V13.2358Z" fill="white"/>
<path d="M2.69525 12.3493H1.7998V13.2358H2.69525V12.3493Z" fill="white"/>
<path d="M2.69525 11.4715H1.7998V12.3492H2.69525V11.4715Z" fill="#0E0E11"/>
<path d="M2.69525 10.5851H1.7998V11.4716H2.69525V10.5851Z" fill="#0E0E11"/>
<path d="M2.69525 9.70744H1.7998V10.5851H2.69525V9.70744Z" fill="#0E0E11"/>
<path d="M2.69525 7.05673H1.7998V7.94323H2.69525V7.05673Z" fill="#0E0E11"/>
<path d="M2.69525 6.179H1.7998V7.05666H2.69525V6.179Z" fill="white"/>
<path d="M2.69525 5.29255H1.7998V6.17909H2.69525V5.29255Z" fill="white"/>
<path d="M2.69525 4.41489H1.7998V5.29255H2.69525V4.41489Z" fill="#0E0E11"/>
<path d="M1.79985 13.2358H0.895447V14.1135H1.79985V13.2358Z" fill="#0E0E11"/>
<path d="M1.79985 12.3493H0.895447V13.2358H1.79985V12.3493Z" fill="#0E0E11"/>
<path d="M1.79985 6.179H0.895447V7.05666H1.79985V6.179Z" fill="#0E0E11"/>
<path d="M1.79985 5.29255H0.895447V6.17909H1.79985V5.29255Z" fill="white"/>
<path d="M1.79985 4.41489H0.895447V5.29255H1.79985V4.41489Z" fill="#0E0E11"/>
<path d="M0.895405 5.29255H0V6.17909H0.895405V5.29255Z" fill="#0E0E11"/>
<path d="M0.895405 4.41489H0V5.29255H0.895405V4.41489Z" fill="#0E0E11"/>
</svg>
