<svg width="50" height="50" viewBox="0 0 50 50" fill="none" xmlns="http://www.w3.org/2000/svg">
<path d="M34.047 36.3742H32.5773V37.8004H34.047V36.3742Z" fill="#0E0E11"/>
<path d="M34.047 34.9336H32.5773V36.3742H34.047V34.9336Z" fill="#0E0E11"/>
<path d="M34.047 33.5075H32.5773V34.9336H34.047V33.5075Z" fill="#0E0E11"/>
<path d="M34.047 14.8666H32.5773V16.2927H34.047V14.8666Z" fill="#0E0E11"/>
<path d="M34.047 13.4261H32.5773V14.8667H34.047V13.4261Z" fill="#0E0E11"/>
<path d="M34.047 12H32.5773V13.4261H34.047V12Z" fill="#0E0E11"/>
<path d="M32.5773 36.3742H31.1077V37.8004H32.5773V36.3742Z" fill="#0E0E11"/>
<path d="M32.5773 34.9336H31.1077V36.3742H32.5773V34.9336Z" fill="#C53C0D"/>
<path d="M32.5773 33.5075H31.1077V34.9336H32.5773V33.5075Z" fill="#C53C0D"/>
<path d="M32.5773 32.067H31.1077V33.5075H32.5773V32.067Z" fill="#0E0E11"/>
<path d="M32.5773 30.6408H31.1077V32.0669H32.5773V30.6408Z" fill="#0E0E11"/>
<path d="M32.5773 17.7334H31.1077V19.174H32.5773V17.7334Z" fill="#0E0E11"/>
<path d="M32.5773 16.2928H31.1077V17.7334H32.5773V16.2928Z" fill="#0E0E11"/>
<path d="M32.5773 14.8666H31.1077V16.2927H32.5773V14.8666Z" fill="#C53C0D"/>
<path d="M32.5773 13.4261H31.1077V14.8667H32.5773V13.4261Z" fill="#C53C0D"/>
<path d="M32.5773 12H31.1077V13.4261H32.5773V12Z" fill="#0E0E11"/>
<path d="M31.1076 36.3742H29.6526V37.8004H31.1076V36.3742Z" fill="#0E0E11"/>
<path d="M31.1076 34.9336H29.6526V36.3742H31.1076V34.9336Z" fill="#AF370D"/>
<path d="M31.1076 33.5075H29.6526V34.9336H31.1076V33.5075Z" fill="#AF370D"/>
<path d="M31.1076 32.067H29.6526V33.5075H31.1076V32.067Z" fill="white"/>
<path d="M31.1076 30.6408H29.6526V32.0669H31.1076V30.6408Z" fill="white"/>
<path d="M31.1076 29.2003H29.6526V30.6408H31.1076V29.2003Z" fill="#0E0E11"/>
<path d="M31.1076 27.7741H29.6526V29.2002H31.1076V27.7741Z" fill="#0E0E11"/>
<path d="M31.1076 20.6001H29.6526V22.0407H31.1076V20.6001Z" fill="#0E0E11"/>
<path d="M31.1076 19.174H29.6526V20.6002H31.1076V19.174Z" fill="#0E0E11"/>
<path d="M31.1076 17.7334H29.6526V19.174H31.1076V17.7334Z" fill="white"/>
<path d="M31.1076 16.2928H29.6526V17.7334H31.1076V16.2928Z" fill="white"/>
<path d="M31.1076 14.8666H29.6526V16.2927H31.1076V14.8666Z" fill="#AF370D"/>
<path d="M31.1076 13.4261H29.6526V14.8667H31.1076V13.4261Z" fill="#AF370D"/>
<path d="M31.1077 12H29.6527V13.4261H31.1077V12Z" fill="#0E0E11"/>
<path d="M29.6527 36.3742H28.183V37.8004H29.6527V36.3742Z" fill="#0E0E11"/>
<path d="M29.6527 34.9336H28.183V36.3742H29.6527V34.9336Z" fill="#C53C0D"/>
<path d="M29.6527 33.5075H28.183V34.9336H29.6527V33.5075Z" fill="#C53C0D"/>
<path d="M29.6527 32.067H28.183V33.5075H29.6527V32.067Z" fill="#FFDD1A"/>
<path d="M29.6527 30.6408H28.183V32.0669H29.6527V30.6408Z" fill="white"/>
<path d="M29.6527 29.2003H28.183V30.6408H29.6527V29.2003Z" fill="white"/>
<path d="M29.6527 27.7741H28.183V29.2002H29.6527V27.7741Z" fill="white"/>
<path d="M29.6527 26.3336H28.183V27.7741H29.6527V26.3336Z" fill="#0E0E11"/>
<path d="M29.6527 22.0406H28.183V23.4668H29.6527V22.0406Z" fill="#0E0E11"/>
<path d="M29.6527 20.6001H28.183V22.0407H29.6527V20.6001Z" fill="white"/>
<path d="M29.6527 19.174H28.183V20.6002H29.6527V19.174Z" fill="white"/>
<path d="M29.6527 17.7334H28.183V19.174H29.6527V17.7334Z" fill="white"/>
<path d="M29.6527 16.2928H28.183V17.7334H29.6527V16.2928Z" fill="white"/>
<path d="M29.6527 14.8666H28.183V16.2927H29.6527V14.8666Z" fill="#C53C0D"/>
<path d="M29.6527 13.4261H28.183V14.8667H29.6527V13.4261Z" fill="#C53C0D"/>
<path d="M29.6527 12H28.183V13.4261H29.6527V12Z" fill="#0E0E11"/>
<path d="M28.183 36.3742H26.7133V37.8004H28.183V36.3742Z" fill="#0E0E11"/>
<path d="M28.183 34.9336H26.7133V36.3742H28.183V34.9336Z" fill="#C53C0D"/>
<path d="M28.183 33.5075H26.7133V34.9336H28.183V33.5075Z" fill="#C53C0D"/>
<path d="M28.183 32.067H26.7133V33.5075H28.183V32.067Z" fill="#FFDD1A"/>
<path d="M28.183 30.6408H26.7133V32.0669H28.183V30.6408Z" fill="#FFDD1A"/>
<path d="M28.183 29.2003H26.7133V30.6408H28.183V29.2003Z" fill="#FFDD1A"/>
<path d="M28.183 27.7741H26.7133V29.2002H28.183V27.7741Z" fill="white"/>
<path d="M28.183 26.3336H26.7133V27.7741H28.183V26.3336Z" fill="white"/>
<path d="M28.183 24.9073H26.7133V26.3335H28.183V24.9073Z" fill="#0E0E11"/>
<path d="M28.183 23.4669H26.7133V24.9074H28.183V23.4669Z" fill="#0E0E11"/>
<path d="M28.183 22.0406H26.7133V23.4668H28.183V22.0406Z" fill="white"/>
<path d="M28.183 20.6001H26.7133V22.0407H28.183V20.6001Z" fill="white"/>
<path d="M28.183 19.174H26.7133V20.6002H28.183V19.174Z" fill="#FFDD1A"/>
<path d="M28.183 17.7334H26.7133V19.174H28.183V17.7334Z" fill="white"/>
<path d="M28.183 16.2928H26.7133V17.7334H28.183V16.2928Z" fill="white"/>
<path d="M28.183 14.8666H26.7133V16.2927H28.183V14.8666Z" fill="#C53C0D"/>
<path d="M28.183 13.4261H26.7133V14.8667H28.183V13.4261Z" fill="#C53C0D"/>
<path d="M28.183 12H26.7133V13.4261H28.183V12Z" fill="#0E0E11"/>
<path d="M26.7133 36.3742H25.2584V37.8004H26.7133V36.3742Z" fill="#0E0E11"/>
<path d="M26.7133 34.9336H25.2584V36.3742H26.7133V34.9336Z" fill="#C53C0D"/>
<path d="M26.7133 33.5075H25.2584V34.9336H26.7133V33.5075Z" fill="#C53C0D"/>
<path d="M26.7133 32.067H25.2584V33.5075H26.7133V32.067Z" fill="#FFDD1A"/>
<path d="M26.7133 30.6408H25.2584V32.0669H26.7133V30.6408Z" fill="#FFDD1A"/>
<path d="M26.7133 29.2003H25.2584V30.6408H26.7133V29.2003Z" fill="#FFDD1A"/>
<path d="M26.7133 27.7741H25.2584V29.2002H26.7133V27.7741Z" fill="#FFDD1A"/>
<path d="M26.7133 26.3336H25.2584V27.7741H26.7133V26.3336Z" fill="white"/>
<path d="M26.7133 24.9073H25.2584V26.3335H26.7133V24.9073Z" fill="white"/>
<path d="M26.7133 23.4669H25.2584V24.9074H26.7133V23.4669Z" fill="white"/>
<path d="M26.7133 22.0406H25.2584V23.4668H26.7133V22.0406Z" fill="white"/>
<path d="M26.7133 20.6001H25.2584V22.0407H26.7133V20.6001Z" fill="#FFDD1A"/>
<path d="M26.7133 19.174H25.2584V20.6002H26.7133V19.174Z" fill="#FFDD1A"/>
<path d="M26.7133 17.7334H25.2584V19.174H26.7133V17.7334Z" fill="#FFDD1A"/>
<path d="M26.7133 16.2928H25.2584V17.7334H26.7133V16.2928Z" fill="white"/>
<path d="M26.7133 14.8666H25.2584V16.2927H26.7133V14.8666Z" fill="#C53C0D"/>
<path d="M26.7133 13.4261H25.2584V14.8667H26.7133V13.4261Z" fill="#C53C0D"/>
<path d="M26.7133 12H25.2584V13.4261H26.7133V12Z" fill="#0E0E11"/>
<path d="M25.2583 36.3742H23.7886V37.8004H25.2583V36.3742Z" fill="#0E0E11"/>
<path d="M25.2583 34.9336H23.7886V36.3742H25.2583V34.9336Z" fill="#C53C0D"/>
<path d="M25.2583 33.5075H23.7886V34.9336H25.2583V33.5075Z" fill="#C53C0D"/>
<path d="M25.2583 32.067H23.7886V33.5075H25.2583V32.067Z" fill="#FFDD1A"/>
<path d="M25.2583 30.6408H23.7886V32.0669H25.2583V30.6408Z" fill="#FFDD1A"/>
<path d="M25.2583 29.2003H23.7886V30.6408H25.2583V29.2003Z" fill="#FFDD1A"/>
<path d="M25.2583 27.7741H23.7886V29.2002H25.2583V27.7741Z" fill="#FFDD1A"/>
<path d="M25.2583 26.3336H23.7886V27.7741H25.2583V26.3336Z" fill="#FFDD1A"/>
<path d="M25.2583 24.9073H23.7886V26.3335H25.2583V24.9073Z" fill="#FFDD1A"/>
<path d="M25.2583 23.4669H23.7886V24.9074H25.2583V23.4669Z" fill="#FFDD1A"/>
<path d="M25.2583 22.0406H23.7886V23.4668H25.2583V22.0406Z" fill="#FFDD1A"/>
<path d="M25.2583 20.6001H23.7886V22.0407H25.2583V20.6001Z" fill="#FFDD1A"/>
<path d="M25.2583 19.174H23.7886V20.6002H25.2583V19.174Z" fill="#FFDD1A"/>
<path d="M25.2583 17.7334H23.7886V19.174H25.2583V17.7334Z" fill="#FFDD1A"/>
<path d="M25.2583 16.2928H23.7886V17.7334H25.2583V16.2928Z" fill="white"/>
<path d="M25.2583 14.8666H23.7886V16.2927H25.2583V14.8666Z" fill="#C53C0D"/>
<path d="M25.2583 13.4261H23.7886V14.8667H25.2583V13.4261Z" fill="#C53C0D"/>
<path d="M25.2583 12H23.7886V13.4261H25.2583V12Z" fill="#0E0E11"/>
<path d="M23.7887 36.3742H22.319V37.8004H23.7887V36.3742Z" fill="#0E0E11"/>
<path d="M23.7887 34.9336H22.319V36.3742H23.7887V34.9336Z" fill="#C53C0D"/>
<path d="M23.7887 33.5075H22.319V34.9336H23.7887V33.5075Z" fill="#C53C0D"/>
<path d="M23.7887 32.067H22.319V33.5075H23.7887V32.067Z" fill="#FFDD1A"/>
<path d="M23.7887 30.6408H22.319V32.0669H23.7887V30.6408Z" fill="#FFDD1A"/>
<path d="M23.7887 29.2003H22.319V30.6408H23.7887V29.2003Z" fill="#FFDD1A"/>
<path d="M23.7887 27.7741H22.319V29.2002H23.7887V27.7741Z" fill="#FFDD1A"/>
<path d="M23.7887 26.3336H22.319V27.7741H23.7887V26.3336Z" fill="white"/>
<path d="M23.7887 24.9073H22.319V26.3335H23.7887V24.9073Z" fill="white"/>
<path d="M23.7887 23.4669H22.319V24.9074H23.7887V23.4669Z" fill="white"/>
<path d="M23.7887 22.0406H22.319V23.4668H23.7887V22.0406Z" fill="white"/>
<path d="M23.7887 20.6001H22.319V22.0407H23.7887V20.6001Z" fill="#FFDD1A"/>
<path d="M23.7887 19.174H22.319V20.6002H23.7887V19.174Z" fill="#FFDD1A"/>
<path d="M23.7887 17.7334H22.319V19.174H23.7887V17.7334Z" fill="#FFDD1A"/>
<path d="M23.7887 16.2928H22.319V17.7334H23.7887V16.2928Z" fill="white"/>
<path d="M23.7887 14.8666H22.319V16.2927H23.7887V14.8666Z" fill="#C53C0D"/>
<path d="M23.7887 13.4261H22.319V14.8667H23.7887V13.4261Z" fill="#C53C0D"/>
<path d="M23.7887 12H22.319V13.4261H23.7887V12Z" fill="#0E0E11"/>
<path d="M22.3189 36.3742H20.8639V37.8004H22.3189V36.3742Z" fill="#0E0E11"/>
<path d="M22.3189 34.9336H20.8639V36.3742H22.3189V34.9336Z" fill="#C53C0D"/>
<path d="M22.3189 33.5075H20.8639V34.9336H22.3189V33.5075Z" fill="#C53C0D"/>
<path d="M22.3189 32.067H20.8639V33.5075H22.3189V32.067Z" fill="#FFDD1A"/>
<path d="M22.3189 30.6408H20.8639V32.0669H22.3189V30.6408Z" fill="#FFDD1A"/>
<path d="M22.3189 29.2003H20.8639V30.6408H22.3189V29.2003Z" fill="#FFDD1A"/>
<path d="M22.3189 27.7741H20.8639V29.2002H22.3189V27.7741Z" fill="white"/>
<path d="M22.3189 26.3336H20.8639V27.7741H22.3189V26.3336Z" fill="white"/>
<path d="M22.3189 24.9073H20.8639V26.3335H22.3189V24.9073Z" fill="#0E0E11"/>
<path d="M22.3189 23.4669H20.8639V24.9074H22.3189V23.4669Z" fill="#0E0E11"/>
<path d="M22.3189 22.0406H20.8639V23.4668H22.3189V22.0406Z" fill="white"/>
<path d="M22.3189 20.6001H20.8639V22.0407H22.3189V20.6001Z" fill="white"/>
<path d="M22.3189 19.174H20.8639V20.6002H22.3189V19.174Z" fill="#FFDD1A"/>
<path d="M22.3189 17.7334H20.8639V19.174H22.3189V17.7334Z" fill="white"/>
<path d="M22.3189 16.2928H20.8639V17.7334H22.3189V16.2928Z" fill="white"/>
<path d="M22.3189 14.8666H20.8639V16.2927H22.3189V14.8666Z" fill="#C53C0D"/>
<path d="M22.3189 13.4261H20.8639V14.8667H22.3189V13.4261Z" fill="#C53C0D"/>
<path d="M22.3189 12H20.8639V13.4261H22.3189V12Z" fill="#0E0E11"/>
<path d="M20.8639 36.3742H19.3943V37.8004H20.8639V36.3742Z" fill="#0E0E11"/>
<path d="M20.8639 34.9336H19.3943V36.3742H20.8639V34.9336Z" fill="white"/>
<path d="M20.8639 33.5075H19.3943V34.9336H20.8639V33.5075Z" fill="white"/>
<path d="M20.8639 32.067H19.3943V33.5075H20.8639V32.067Z" fill="#FFDD1A"/>
<path d="M20.8639 30.6408H19.3943V32.0669H20.8639V30.6408Z" fill="white"/>
<path d="M20.8639 29.2003H19.3943V30.6408H20.8639V29.2003Z" fill="white"/>
<path d="M20.8639 27.7741H19.3943V29.2002H20.8639V27.7741Z" fill="white"/>
<path d="M20.8639 26.3336H19.3943V27.7741H20.8639V26.3336Z" fill="#0E0E11"/>
<path d="M20.8639 22.0406H19.3943V23.4668H20.8639V22.0406Z" fill="#0E0E11"/>
<path d="M20.8639 20.6001H19.3943V22.0407H20.8639V20.6001Z" fill="white"/>
<path d="M20.8639 19.174H19.3943V20.6002H20.8639V19.174Z" fill="white"/>
<path d="M20.8639 17.7334H19.3943V19.174H20.8639V17.7334Z" fill="white"/>
<path d="M20.8639 16.2928H19.3943V17.7334H20.8639V16.2928Z" fill="white"/>
<path d="M20.8639 14.8666H19.3943V16.2927H20.8639V14.8666Z" fill="white"/>
<path d="M20.8639 13.4261H19.3943V14.8667H20.8639V13.4261Z" fill="white"/>
<path d="M20.8639 12H19.3943V13.4261H20.8639V12Z" fill="#0E0E11"/>
<path d="M19.3942 36.3742H17.9392V37.8004H19.3942V36.3742Z" fill="#0E0E11"/>
<path d="M19.3942 34.9336H17.9392V36.3742H19.3942V34.9336Z" fill="#C53C0D"/>
<path d="M19.3942 33.5075H17.9392V34.9336H19.3942V33.5075Z" fill="#C53C0D"/>
<path d="M19.3942 32.067H17.9392V33.5075H19.3942V32.067Z" fill="white"/>
<path d="M19.3942 30.6408H17.9392V32.0669H19.3942V30.6408Z" fill="white"/>
<path d="M19.3942 29.2003H17.9392V30.6408H19.3942V29.2003Z" fill="#0E0E11"/>
<path d="M19.3942 27.7741H17.9392V29.2002H19.3942V27.7741Z" fill="#0E0E11"/>
<path d="M19.3942 20.6001H17.9392V22.0407H19.3942V20.6001Z" fill="#0E0E11"/>
<path d="M19.3942 19.174H17.9392V20.6002H19.3942V19.174Z" fill="#0E0E11"/>
<path d="M19.3942 17.7334H17.9392V19.174H19.3942V17.7334Z" fill="white"/>
<path d="M19.3942 16.2928H17.9392V17.7334H19.3942V16.2928Z" fill="white"/>
<path d="M19.3942 14.8666H17.9392V16.2927H19.3942V14.8666Z" fill="#C53C0D"/>
<path d="M19.3942 13.4261H17.9392V14.8667H19.3942V13.4261Z" fill="#C53C0D"/>
<path d="M19.3942 12H17.9392V13.4261H19.3942V12Z" fill="#0E0E11"/>
<path d="M17.9392 36.3742H16.4696V37.8004H17.9392V36.3742Z" fill="#0E0E11"/>
<path d="M17.9392 34.9336H16.4696V36.3742H17.9392V34.9336Z" fill="#C53C0D"/>
<path d="M17.9392 33.5075H16.4696V34.9336H17.9392V33.5075Z" fill="#C53C0D"/>
<path d="M17.9392 32.067H16.4696V33.5075H17.9392V32.067Z" fill="#0E0E11"/>
<path d="M17.9392 30.6408H16.4696V32.0669H17.9392V30.6408Z" fill="#0E0E11"/>
<path d="M17.9392 17.7334H16.4696V19.174H17.9392V17.7334Z" fill="#0E0E11"/>
<path d="M17.9392 16.2928H16.4696V17.7334H17.9392V16.2928Z" fill="#0E0E11"/>
<path d="M17.9392 14.8666H16.4696V16.2927H17.9392V14.8666Z" fill="#C53C0D"/>
<path d="M17.9392 13.4261H16.4696V14.8667H17.9392V13.4261Z" fill="#C53C0D"/>
<path d="M17.9392 12H16.4696V13.4261H17.9392V12Z" fill="#0E0E11"/>
<path d="M16.4696 36.3742H15V37.8004H16.4696V36.3742Z" fill="#0E0E11"/>
<path d="M16.4696 34.9336H15V36.3742H16.4696V34.9336Z" fill="#0E0E11"/>
<path d="M16.4696 33.5075H15V34.9336H16.4696V33.5075Z" fill="#0E0E11"/>
<path d="M16.4696 14.8666H15V16.2927H16.4696V14.8666Z" fill="#0E0E11"/>
<path d="M16.4696 13.4261H15V14.8667H16.4696V13.4261Z" fill="#0E0E11"/>
<path d="M16.4696 12H15V13.4261H16.4696V12Z" fill="#0E0E11"/>
</svg>
