<svg width="23" height="19" viewBox="0 0 23 19" fill="none" xmlns="http://www.w3.org/2000/svg">
<path d="M23 7.10984H21.7971V8.28887H23V7.10984Z" fill="#0E0E11"/>
<path d="M23 5.91893H21.7971V7.10982H23V5.91893Z" fill="#0E0E11"/>
<path d="M23 4.73985H21.7971V5.91888H23V4.73985Z" fill="#0E0E11"/>
<path d="M23 3.54901H21.7971V4.73989H23V3.54901Z" fill="#0E0E11"/>
<path d="M21.7972 8.28886H20.5822V9.47981H21.7972V8.28886Z" fill="#0E0E11"/>
<path d="M21.7972 7.10984H20.5822V8.28887H21.7972V7.10984Z" fill="#BC1830"/>
<path d="M21.7972 5.91893H20.5822V7.10982H21.7972V5.91893Z" fill="#BC1830"/>
<path d="M21.7972 4.73985H20.5822V5.91888H21.7972V4.73985Z" fill="#BC1830"/>
<path d="M21.7972 3.54901H20.5822V4.73989H21.7972V3.54901Z" fill="#BC1830"/>
<path d="M21.7972 2.36999H20.5822V3.54901H21.7972V2.36999Z" fill="#0E0E11"/>
<path d="M20.5822 9.47983H19.3672V10.6589H20.5822V9.47983Z" fill="#0E0E11"/>
<path d="M20.5822 8.28886H19.3672V9.47981H20.5822V8.28886Z" fill="#BC1830"/>
<path d="M20.5822 7.10984H19.3672V8.28887H20.5822V7.10984Z" fill="#FD0505"/>
<path d="M20.5822 5.91893H19.3672V7.10982H20.5822V5.91893Z" fill="#FD0505"/>
<path d="M20.5822 4.73985H19.3672V5.91888H20.5822V4.73985Z" fill="#FD0505"/>
<path d="M20.5822 3.54901H19.3672V4.73989H20.5822V3.54901Z" fill="#FD0505"/>
<path d="M20.5822 2.36999H19.3672V3.54901H20.5822V2.36999Z" fill="#BC1830"/>
<path d="M20.5822 1.17902H19.3672V2.36991H20.5822V1.17902Z" fill="#0E0E11"/>
<path d="M19.3672 10.6588H18.1644V11.8498H19.3672V10.6588Z" fill="#0E0E11"/>
<path d="M19.3672 9.47983H18.1644V10.6589H19.3672V9.47983Z" fill="#BC1830"/>
<path d="M19.3672 8.28886H18.1644V9.47981H19.3672V8.28886Z" fill="#FD0505"/>
<path d="M19.3672 7.10984H18.1644V8.28887H19.3672V7.10984Z" fill="#FD0505"/>
<path d="M19.3672 5.91893H18.1644V7.10982H19.3672V5.91893Z" fill="#FD0505"/>
<path d="M19.3672 4.73985H18.1644V5.91888H19.3672V4.73985Z" fill="#FD0505"/>
<path d="M19.3672 3.54901H18.1644V4.73989H19.3672V3.54901Z" fill="#FD0505"/>
<path d="M19.3672 2.36999H18.1644V3.54901H19.3672V2.36999Z" fill="#FD0505"/>
<path d="M19.3672 1.17902H18.1644V2.36991H19.3672V1.17902Z" fill="#BC1830"/>
<path d="M19.3672 0H18.1644V1.17903H19.3672V0Z" fill="#0E0E11"/>
<path d="M18.1644 11.8498H16.9494V13.0288H18.1644V11.8498Z" fill="#0E0E11"/>
<path d="M18.1644 10.6588H16.9494V11.8498H18.1644V10.6588Z" fill="#BC1830"/>
<path d="M18.1644 9.47983H16.9494V10.6589H18.1644V9.47983Z" fill="#FD0505"/>
<path d="M18.1644 8.28886H16.9494V9.47981H18.1644V8.28886Z" fill="#FD0505"/>
<path d="M18.1644 7.10984H16.9494V8.28887H18.1644V7.10984Z" fill="#FD0505"/>
<path d="M18.1644 5.91893H16.9494V7.10982H18.1644V5.91893Z" fill="#FD0505"/>
<path d="M18.1644 4.73985H16.9494V5.91888H18.1644V4.73985Z" fill="#FD0505"/>
<path d="M18.1644 3.54901H16.9494V4.73989H18.1644V3.54901Z" fill="#FD0505"/>
<path d="M18.1644 2.36999H16.9494V3.54901H18.1644V2.36999Z" fill="#FD0505"/>
<path d="M18.1644 1.17902H16.9494V2.36991H18.1644V1.17902Z" fill="#BC1830"/>
<path d="M18.1644 0H16.9494V1.17903H18.1644V0Z" fill="#0E0E11"/>
<path d="M16.9494 13.0288H15.7465V14.2197H16.9494V13.0288Z" fill="#0E0E11"/>
<path d="M16.9494 11.8498H15.7465V13.0288H16.9494V11.8498Z" fill="#BC1830"/>
<path d="M16.9494 10.6588H15.7465V11.8498H16.9494V10.6588Z" fill="#FD0505"/>
<path d="M16.9494 9.47983H15.7465V10.6589H16.9494V9.47983Z" fill="#FD0505"/>
<path d="M16.9494 8.28886H15.7465V9.47981H16.9494V8.28886Z" fill="#FD0505"/>
<path d="M16.9494 7.10984H15.7465V8.28887H16.9494V7.10984Z" fill="#FD0505"/>
<path d="M16.9494 5.91893H15.7465V7.10982H16.9494V5.91893Z" fill="#FD0505"/>
<path d="M16.9494 4.73985H15.7465V5.91888H16.9494V4.73985Z" fill="#FD0505"/>
<path d="M16.9494 3.54901H15.7465V4.73989H16.9494V3.54901Z" fill="#FD0505"/>
<path d="M16.9494 2.36999H15.7465V3.54901H16.9494V2.36999Z" fill="#FD0505"/>
<path d="M16.9494 1.17902H15.7465V2.36991H16.9494V1.17902Z" fill="#BC1830"/>
<path d="M16.9494 0H15.7465V1.17903H16.9494V0Z" fill="#0E0E11"/>
<path d="M15.7465 14.2197H14.5314V15.3988H15.7465V14.2197Z" fill="#0E0E11"/>
<path d="M15.7465 13.0288H14.5314V14.2197H15.7465V13.0288Z" fill="#BC1830"/>
<path d="M15.7465 11.8498H14.5314V13.0288H15.7465V11.8498Z" fill="#FD0505"/>
<path d="M15.7465 10.6588H14.5314V11.8498H15.7465V10.6588Z" fill="#FD0505"/>
<path d="M15.7465 9.47983H14.5314V10.6589H15.7465V9.47983Z" fill="#FD0505"/>
<path d="M15.7465 8.28886H14.5314V9.47981H15.7465V8.28886Z" fill="#FD0505"/>
<path d="M15.7465 7.10984H14.5314V8.28887H15.7465V7.10984Z" fill="#FD0505"/>
<path d="M15.7465 5.91893H14.5314V7.10982H15.7465V5.91893Z" fill="#FD0505"/>
<path d="M15.7465 4.73985H14.5314V5.91888H15.7465V4.73985Z" fill="#FD0505"/>
<path d="M15.7465 3.54901H14.5314V4.73989H15.7465V3.54901Z" fill="#FD0505"/>
<path d="M15.7465 2.36999H14.5314V3.54901H15.7465V2.36999Z" fill="#FD0505"/>
<path d="M15.7465 1.17902H14.5314V2.36991H15.7465V1.17902Z" fill="#BC1830"/>
<path d="M15.7465 0H14.5314V1.17903H15.7465V0Z" fill="#0E0E11"/>
<path d="M14.5314 15.3988H13.3165V16.5897H14.5314V15.3988Z" fill="#0E0E11"/>
<path d="M14.5314 14.2197H13.3165V15.3988H14.5314V14.2197Z" fill="#BC1830"/>
<path d="M14.5314 13.0288H13.3165V14.2197H14.5314V13.0288Z" fill="#FD0505"/>
<path d="M14.5314 11.8498H13.3165V13.0288H14.5314V11.8498Z" fill="#FD0505"/>
<path d="M14.5314 10.6588H13.3165V11.8498H14.5314V10.6588Z" fill="#FD0505"/>
<path d="M14.5314 9.47983H13.3165V10.6589H14.5314V9.47983Z" fill="#FD0505"/>
<path d="M14.5314 8.28886H13.3165V9.47981H14.5314V8.28886Z" fill="#FD0505"/>
<path d="M14.5314 7.10984H13.3165V8.28887H14.5314V7.10984Z" fill="#FD0505"/>
<path d="M14.5314 5.91893H13.3165V7.10982H14.5314V5.91893Z" fill="#FD0505"/>
<path d="M14.5314 4.73985H13.3165V5.91888H14.5314V4.73985Z" fill="#FD0505"/>
<path d="M14.5314 3.54901H13.3165V4.73989H14.5314V3.54901Z" fill="#FD0505"/>
<path d="M14.5314 2.36999H13.3165V3.54901H14.5314V2.36999Z" fill="#FD0505"/>
<path d="M14.5314 1.17902H13.3165V2.36991H14.5314V1.17902Z" fill="#0E0E11"/>
<path d="M13.3166 16.5897H12.1136V17.7687H13.3166V16.5897Z" fill="#0E0E11"/>
<path d="M13.3166 15.3988H12.1136V16.5897H13.3166V15.3988Z" fill="#BC1830"/>
<path d="M13.3166 14.2197H12.1136V15.3988H13.3166V14.2197Z" fill="#FD0505"/>
<path d="M13.3166 13.0288H12.1136V14.2197H13.3166V13.0288Z" fill="#FD0505"/>
<path d="M13.3166 11.8498H12.1136V13.0288H13.3166V11.8498Z" fill="#FD0505"/>
<path d="M13.3166 10.6588H12.1136V11.8498H13.3166V10.6588Z" fill="#FD0505"/>
<path d="M13.3166 9.47983H12.1136V10.6589H13.3166V9.47983Z" fill="#FD0505"/>
<path d="M13.3166 8.28886H12.1136V9.47981H13.3166V8.28886Z" fill="#FD0505"/>
<path d="M13.3166 7.10984H12.1136V8.28887H13.3166V7.10984Z" fill="#FD0505"/>
<path d="M13.3166 5.91893H12.1136V7.10982H13.3166V5.91893Z" fill="#FD0505"/>
<path d="M13.3166 4.73985H12.1136V5.91888H13.3166V4.73985Z" fill="#FD0505"/>
<path d="M13.3166 3.54901H12.1136V4.73989H13.3166V3.54901Z" fill="#FD0505"/>
<path d="M13.3166 2.36999H12.1136V3.54901H13.3166V2.36999Z" fill="#0E0E11"/>
<path d="M12.1137 17.7687H10.8987V18.9596H12.1137V17.7687Z" fill="#0E0E11"/>
<path d="M12.1137 16.5897H10.8987V17.7687H12.1137V16.5897Z" fill="#BC1830"/>
<path d="M12.1137 15.3988H10.8987V16.5897H12.1137V15.3988Z" fill="#FD0505"/>
<path d="M12.1137 14.2197H10.8987V15.3988H12.1137V14.2197Z" fill="#FD0505"/>
<path d="M12.1137 13.0288H10.8987V14.2197H12.1137V13.0288Z" fill="#FD0505"/>
<path d="M12.1137 11.8498H10.8987V13.0288H12.1137V11.8498Z" fill="#FD0505"/>
<path d="M12.1137 10.6588H10.8987V11.8498H12.1137V10.6588Z" fill="#FD0505"/>
<path d="M12.1137 9.47983H10.8987V10.6589H12.1137V9.47983Z" fill="#FD0505"/>
<path d="M12.1137 8.28886H10.8987V9.47981H12.1137V8.28886Z" fill="#FD0505"/>
<path d="M12.1137 7.10984H10.8987V8.28887H12.1137V7.10984Z" fill="#FD0505"/>
<path d="M12.1137 5.91893H10.8987V7.10982H12.1137V5.91893Z" fill="#FD0505"/>
<path d="M12.1137 4.73985H10.8987V5.91888H12.1137V4.73985Z" fill="#FD0505"/>
<path d="M12.1137 3.54901H10.8987V4.73989H12.1137V3.54901Z" fill="#0E0E11"/>
<path d="M10.8987 16.5897H9.68359V17.7687H10.8987V16.5897Z" fill="#0E0E11"/>
<path d="M10.8987 15.3988H9.68359V16.5897H10.8987V15.3988Z" fill="#BC1830"/>
<path d="M10.8987 14.2197H9.68359V15.3988H10.8987V14.2197Z" fill="#FD0505"/>
<path d="M10.8987 13.0288H9.68359V14.2197H10.8987V13.0288Z" fill="#FD0505"/>
<path d="M10.8987 11.8498H9.68359V13.0288H10.8987V11.8498Z" fill="#FD0505"/>
<path d="M10.8987 10.6588H9.68359V11.8498H10.8987V10.6588Z" fill="#FD0505"/>
<path d="M10.8987 9.47983H9.68359V10.6589H10.8987V9.47983Z" fill="#FD0505"/>
<path d="M10.8987 8.28886H9.68359V9.47981H10.8987V8.28886Z" fill="#FD0505"/>
<path d="M10.8987 7.10984H9.68359V8.28887H10.8987V7.10984Z" fill="#FD0505"/>
<path d="M10.8987 5.91893H9.68359V7.10982H10.8987V5.91893Z" fill="#FD0505"/>
<path d="M10.8987 4.73985H9.68359V5.91888H10.8987V4.73985Z" fill="#FD0505"/>
<path d="M10.8987 3.54901H9.68359V4.73989H10.8987V3.54901Z" fill="#FD0505"/>
<path d="M10.8987 2.36999H9.68359V3.54901H10.8987V2.36999Z" fill="#0E0E11"/>
<path d="M9.68357 15.3988H8.48077V16.5897H9.68357V15.3988Z" fill="#0E0E11"/>
<path d="M9.68357 14.2197H8.48077V15.3988H9.68357V14.2197Z" fill="#BC1830"/>
<path d="M9.68357 13.0288H8.48077V14.2197H9.68357V13.0288Z" fill="#FD0505"/>
<path d="M9.68357 11.8498H8.48077V13.0288H9.68357V11.8498Z" fill="#FD0505"/>
<path d="M9.68357 10.6588H8.48077V11.8498H9.68357V10.6588Z" fill="#FD0505"/>
<path d="M9.68357 9.47983H8.48077V10.6589H9.68357V9.47983Z" fill="#FD0505"/>
<path d="M9.68357 8.28886H8.48077V9.47981H9.68357V8.28886Z" fill="#FD0505"/>
<path d="M9.68357 7.10984H8.48077V8.28887H9.68357V7.10984Z" fill="#FD0505"/>
<path d="M9.68357 5.91893H8.48077V7.10982H9.68357V5.91893Z" fill="#FD0505"/>
<path d="M9.68357 4.73985H8.48077V5.91888H9.68357V4.73985Z" fill="#FD0505"/>
<path d="M9.68357 3.54901H8.48077V4.73989H9.68357V3.54901Z" fill="#FD0505"/>
<path d="M9.68357 2.36999H8.48077V3.54901H9.68357V2.36999Z" fill="#FD0505"/>
<path d="M9.68357 1.17902H8.48077V2.36991H9.68357V1.17902Z" fill="#0E0E11"/>
<path d="M8.48077 14.2197H7.26575V15.3988H8.48077V14.2197Z" fill="#0E0E11"/>
<path d="M8.48077 13.0288H7.26575V14.2197H8.48077V13.0288Z" fill="#FD0505"/>
<path d="M8.48077 11.8498H7.26575V13.0288H8.48077V11.8498Z" fill="#FD0505"/>
<path d="M8.48077 10.6588H7.26575V11.8498H8.48077V10.6588Z" fill="#FD0505"/>
<path d="M8.48077 9.47983H7.26575V10.6589H8.48077V9.47983Z" fill="#FD0505"/>
<path d="M8.48077 8.28886H7.26575V9.47981H8.48077V8.28886Z" fill="#FD0505"/>
<path d="M8.48077 7.10984H7.26575V8.28887H8.48077V7.10984Z" fill="#FD0505"/>
<path d="M8.48077 5.91893H7.26575V7.10982H8.48077V5.91893Z" fill="#FD0505"/>
<path d="M8.48077 4.73985H7.26575V5.91888H8.48077V4.73985Z" fill="#FD0505"/>
<path d="M8.48077 3.54901H7.26575V4.73989H8.48077V3.54901Z" fill="#FD0505"/>
<path d="M8.48077 2.36999H7.26575V3.54901H8.48077V2.36999Z" fill="#FD0505"/>
<path d="M8.48077 1.17902H7.26575V2.36991H8.48077V1.17902Z" fill="#FD0505"/>
<path d="M8.48077 0H7.26575V1.17903H8.48077V0Z" fill="#0E0E11"/>
<path d="M7.26574 13.0288H6.05078V14.2197H7.26574V13.0288Z" fill="#0E0E11"/>
<path d="M7.26574 11.8498H6.05078V13.0288H7.26574V11.8498Z" fill="#FD0505"/>
<path d="M7.26574 10.6588H6.05078V11.8498H7.26574V10.6588Z" fill="#FD0505"/>
<path d="M7.26574 9.47983H6.05078V10.6589H7.26574V9.47983Z" fill="#FD0505"/>
<path d="M7.26574 8.28886H6.05078V9.47981H7.26574V8.28886Z" fill="#FD0505"/>
<path d="M7.26574 7.10984H6.05078V8.28887H7.26574V7.10984Z" fill="#FD0505"/>
<path d="M7.26574 5.91893H6.05078V7.10982H7.26574V5.91893Z" fill="#FD0505"/>
<path d="M7.26574 4.73985H6.05078V5.91888H7.26574V4.73985Z" fill="#FD0505"/>
<path d="M7.26574 3.54901H6.05078V4.73989H7.26574V3.54901Z" fill="white"/>
<path d="M7.26574 2.36999H6.05078V3.54901H7.26574V2.36999Z" fill="#FD0505"/>
<path d="M7.26574 1.17902H6.05078V2.36991H7.26574V1.17902Z" fill="#FD0505"/>
<path d="M7.26574 0H6.05078V1.17903H7.26574V0Z" fill="#0E0E11"/>
<path d="M6.05074 11.8498H4.84784V13.0288H6.05074V11.8498Z" fill="#0E0E11"/>
<path d="M6.05074 10.6588H4.84784V11.8498H6.05074V10.6588Z" fill="#FD0505"/>
<path d="M6.05074 9.47983H4.84784V10.6589H6.05074V9.47983Z" fill="#FD0505"/>
<path d="M6.05074 8.28886H4.84784V9.47981H6.05074V8.28886Z" fill="#FD0505"/>
<path d="M6.05074 7.10984H4.84784V8.28887H6.05074V7.10984Z" fill="#FD0505"/>
<path d="M6.05074 5.91893H4.84784V7.10982H6.05074V5.91893Z" fill="#FD0505"/>
<path d="M6.05074 4.73985H4.84784V5.91888H6.05074V4.73985Z" fill="white"/>
<path d="M6.05074 3.54901H4.84784V4.73989H6.05074V3.54901Z" fill="white"/>
<path d="M6.05074 2.36999H4.84784V3.54901H6.05074V2.36999Z" fill="#FD0505"/>
<path d="M6.05074 1.17902H4.84784V2.36991H6.05074V1.17902Z" fill="#FD0505"/>
<path d="M6.05074 0H4.84784V1.17903H6.05074V0Z" fill="#0E0E11"/>
<path d="M4.84784 10.6588H3.63287V11.8498H4.84784V10.6588Z" fill="#0E0E11"/>
<path d="M4.84784 9.47983H3.63287V10.6589H4.84784V9.47983Z" fill="#FD0505"/>
<path d="M4.84784 8.28886H3.63287V9.47981H4.84784V8.28886Z" fill="#FD0505"/>
<path d="M4.84784 7.10984H3.63287V8.28887H4.84784V7.10984Z" fill="#FD0505"/>
<path d="M4.84784 5.91893H3.63287V7.10982H4.84784V5.91893Z" fill="white"/>
<path d="M4.84784 4.73985H3.63287V5.91888H4.84784V4.73985Z" fill="white"/>
<path d="M4.84784 3.54901H3.63287V4.73989H4.84784V3.54901Z" fill="#FD0505"/>
<path d="M4.84784 2.36999H3.63287V3.54901H4.84784V2.36999Z" fill="#FD0505"/>
<path d="M4.84784 1.17902H3.63287V2.36991H4.84784V1.17902Z" fill="#FD0505"/>
<path d="M4.84784 0H3.63287V1.17903H4.84784V0Z" fill="#0E0E11"/>
<path d="M3.6329 9.47983H2.42999V10.6589H3.6329V9.47983Z" fill="#0E0E11"/>
<path d="M3.6329 8.28886H2.42999V9.47981H3.6329V8.28886Z" fill="#FD0505"/>
<path d="M3.6329 7.10984H2.42999V8.28887H3.6329V7.10984Z" fill="#FD0505"/>
<path d="M3.6329 5.91893H2.42999V7.10982H3.6329V5.91893Z" fill="#FD0505"/>
<path d="M3.6329 4.73985H2.42999V5.91888H3.6329V4.73985Z" fill="#FD0505"/>
<path d="M3.6329 3.54901H2.42999V4.73989H3.6329V3.54901Z" fill="#FD0505"/>
<path d="M3.6329 2.36999H2.42999V3.54901H3.6329V2.36999Z" fill="#FD0505"/>
<path d="M3.6329 1.17902H2.42999V2.36991H3.6329V1.17902Z" fill="#0E0E11"/>
<path d="M2.42999 8.28886H1.21503V9.47981H2.42999V8.28886Z" fill="#0E0E11"/>
<path d="M2.42999 7.10984H1.21503V8.28887H2.42999V7.10984Z" fill="#FD0505"/>
<path d="M2.42999 5.91893H1.21503V7.10982H2.42999V5.91893Z" fill="#FD0505"/>
<path d="M2.42999 4.73985H1.21503V5.91888H2.42999V4.73985Z" fill="#FD0505"/>
<path d="M2.42999 3.54901H1.21503V4.73989H2.42999V3.54901Z" fill="#FD0505"/>
<path d="M2.42999 2.36999H1.21503V3.54901H2.42999V2.36999Z" fill="#0E0E11"/>
<path d="M1.21495 7.10984H0V8.28887H1.21495V7.10984Z" fill="#0E0E11"/>
<path d="M1.21495 5.91893H0V7.10982H1.21495V5.91893Z" fill="#0E0E11"/>
<path d="M1.21495 4.73985H0V5.91888H1.21495V4.73985Z" fill="#0E0E11"/>
<path d="M1.21495 3.54901H0V4.73989H1.21495V3.54901Z" fill="#0E0E11"/>
</svg>
