<svg width="50" height="50" viewBox="0 0 50 50" fill="none" xmlns="http://www.w3.org/2000/svg">
<path d="M35 16.7092H33.5951V18.1436H35V16.7092Z" fill="#0E0E11"/>
<path d="M35 15.2741H33.5951V16.7085H35V15.2741Z" fill="#0E0E11"/>
<path d="M35 13.8542H33.5951V15.2741H35V13.8542Z" fill="#0E0E11"/>
<path d="M33.595 35.2698H32.2043V36.6897H33.595V35.2698Z" fill="#0E0E11"/>
<path d="M33.595 19.5635H32.2043V20.9979H33.595V19.5635Z" fill="#0E0E11"/>
<path d="M33.595 18.1429H32.2043V19.5627H33.595V18.1429Z" fill="#0E0E11"/>
<path d="M33.595 16.7092H32.2043V18.1436H33.595V16.7092Z" fill="#F1B380"/>
<path d="M33.595 15.2741H32.2043V16.7085H33.595V15.2741Z" fill="#F1B380"/>
<path d="M33.595 13.8542H32.2043V15.2741H33.595V13.8542Z" fill="#F1B380"/>
<path d="M33.595 12.4198H32.2043V13.8542H33.595V12.4198Z" fill="#0E0E11"/>
<path d="M32.2044 35.2698H30.7994V36.6897H32.2044V35.2698Z" fill="#0E0E11"/>
<path d="M32.2044 33.8354H30.7994V35.2698H32.2044V33.8354Z" fill="#0E0E11"/>
<path d="M32.2044 22.4177H30.7994V23.8521H32.2044V22.4177Z" fill="#0E0E11"/>
<path d="M32.2044 20.9979H30.7994V22.4177H32.2044V20.9979Z" fill="#0E0E11"/>
<path d="M32.2044 19.5635H30.7994V20.9979H32.2044V19.5635Z" fill="#F1B380"/>
<path d="M32.2044 18.1429H30.7994V19.5627H32.2044V18.1429Z" fill="#F1B380"/>
<path d="M32.2044 16.7092H30.7994V18.1436H32.2044V16.7092Z" fill="#F1B380"/>
<path d="M32.2044 15.2741H30.7994V16.7085H32.2044V15.2741Z" fill="#E4976F"/>
<path d="M32.2044 13.8542H30.7994V15.2741H32.2044V13.8542Z" fill="#F1B380"/>
<path d="M32.2044 12.4198H30.7994V13.8542H32.2044V12.4198Z" fill="#FFCB8B"/>
<path d="M32.2044 11H30.7994V12.4198H32.2044V11Z" fill="#0E0E11"/>
<path d="M30.8001 36.6897H29.3951V38.1241H30.8001V36.6897Z" fill="#E32121"/>
<path d="M30.8001 35.2698H29.3951V36.6897H30.8001V35.2698Z" fill="#E32121"/>
<path d="M30.8001 33.8354H29.3951V35.2698H30.8001V33.8354Z" fill="#FFCB8B"/>
<path d="M30.8001 32.4156H29.3951V33.8354H30.8001V32.4156Z" fill="#0E0E11"/>
<path d="M30.8001 30.9812H29.3951V32.4156H30.8001V30.9812Z" fill="#0E0E11"/>
<path d="M30.8001 25.272H29.3951V26.7064H30.8001V25.272Z" fill="#0E0E11"/>
<path d="M30.8001 23.8521H29.3951V25.272H30.8001V23.8521Z" fill="#0E0E11"/>
<path d="M30.8001 22.4177H29.3951V23.8521H30.8001V22.4177Z" fill="#F1B380"/>
<path d="M30.8001 20.9979H29.3951V22.4177H30.8001V20.9979Z" fill="#F1B380"/>
<path d="M30.8001 19.5635H29.3951V20.9979H30.8001V19.5635Z" fill="#F1B380"/>
<path d="M30.8001 18.1429H29.3951V19.5627H30.8001V18.1429Z" fill="#E4976F"/>
<path d="M30.8001 16.7092H29.3951V18.1436H30.8001V16.7092Z" fill="#F1B380"/>
<path d="M30.8001 15.2741H29.3951V16.7085H30.8001V15.2741Z" fill="#E4976F"/>
<path d="M30.8001 13.8542H29.3951V15.2741H30.8001V13.8542Z" fill="#F1B380"/>
<path d="M30.8001 12.4198H29.3951V13.8542H30.8001V12.4198Z" fill="#FFCB8B"/>
<path d="M30.8001 11H29.3951V12.4198H30.8001V11Z" fill="#0E0E11"/>
<path d="M29.3952 35.2698H28.0045V36.6897H29.3952V35.2698Z" fill="#0E0E11"/>
<path d="M29.3952 33.8354H28.0045V35.2698H29.3952V33.8354Z" fill="#E32121"/>
<path d="M29.3952 32.4156H28.0045V33.8354H29.3952V32.4156Z" fill="#F1B380"/>
<path d="M29.3952 30.9812H28.0045V32.4156H29.3952V30.9812Z" fill="#F1B380"/>
<path d="M29.3952 29.5613H28.0045V30.9812H29.3952V29.5613Z" fill="#0E0E11"/>
<path d="M29.3952 28.1269H28.0045V29.5614H29.3952V28.1269Z" fill="#0E0E11"/>
<path d="M29.3952 26.7064H28.0045V28.1262H29.3952V26.7064Z" fill="#0E0E11"/>
<path d="M29.3952 25.272H28.0045V26.7064H29.3952V25.272Z" fill="#F1B380"/>
<path d="M29.3952 23.8521H28.0045V25.272H29.3952V23.8521Z" fill="#F1B380"/>
<path d="M29.3952 22.4177H28.0045V23.8521H29.3952V22.4177Z" fill="#F1B380"/>
<path d="M29.3952 20.9979H28.0045V22.4177H29.3952V20.9979Z" fill="#E4976F"/>
<path d="M29.3952 19.5635H28.0045V20.9979H29.3952V19.5635Z" fill="#F1B380"/>
<path d="M29.3952 18.1429H28.0045V19.5627H29.3952V18.1429Z" fill="#E4976F"/>
<path d="M29.3952 16.7092H28.0045V18.1436H29.3952V16.7092Z" fill="#F1B380"/>
<path d="M29.3952 15.2741H28.0045V16.7085H29.3952V15.2741Z" fill="#E4976F"/>
<path d="M29.3952 13.8542H28.0045V15.2741H29.3952V13.8542Z" fill="#F1B380"/>
<path d="M29.3952 12.4198H28.0045V13.8542H29.3952V12.4198Z" fill="#FFCB8B"/>
<path d="M29.3952 11H28.0045V12.4198H29.3952V11Z" fill="#0E0E11"/>
<path d="M28.0046 35.2698H26.5996V36.6897H28.0046V35.2698Z" fill="#0E0E11"/>
<path d="M28.0046 33.8354H26.5996V35.2698H28.0046V33.8354Z" fill="#FFCB8B"/>
<path d="M28.0046 32.4156H26.5996V33.8354H28.0046V32.4156Z" fill="#EA9E09"/>
<path d="M28.0046 30.9812H26.5996V32.4156H28.0046V30.9812Z" fill="#EA9E09"/>
<path d="M28.0046 29.5613H26.5996V30.9812H28.0046V29.5613Z" fill="#F1B380"/>
<path d="M28.0046 28.1269H26.5996V29.5614H28.0046V28.1269Z" fill="#F1B380"/>
<path d="M28.0046 26.7064H26.5996V28.1262H28.0046V26.7064Z" fill="#F1B380"/>
<path d="M28.0046 25.272H26.5996V26.7064H28.0046V25.272Z" fill="#F1B380"/>
<path d="M28.0046 23.8521H26.5996V25.272H28.0046V23.8521Z" fill="#E4976F"/>
<path d="M28.0046 22.4177H26.5996V23.8521H28.0046V22.4177Z" fill="#F1B380"/>
<path d="M28.0046 20.9979H26.5996V22.4177H28.0046V20.9979Z" fill="#E4976F"/>
<path d="M28.0046 19.5635H26.5996V20.9979H28.0046V19.5635Z" fill="#F1B380"/>
<path d="M28.0046 18.1429H26.5996V19.5627H28.0046V18.1429Z" fill="#E4976F"/>
<path d="M28.0046 16.7092H26.5996V18.1436H28.0046V16.7092Z" fill="#F1B380"/>
<path d="M28.0046 15.2741H26.5996V16.7085H28.0046V15.2741Z" fill="#E4976F"/>
<path d="M28.0046 13.8542H26.5996V15.2741H28.0046V13.8542Z" fill="#F1B380"/>
<path d="M28.0046 12.4198H26.5996V13.8542H28.0046V12.4198Z" fill="#FFCB8B"/>
<path d="M28.0046 11H26.5996V12.4198H28.0046V11Z" fill="#0E0E11"/>
<path d="M26.5996 35.2698H25.209V36.6897H26.5996V35.2698Z" fill="#0E0E11"/>
<path d="M26.5996 33.8354H25.209V35.2698H26.5996V33.8354Z" fill="#FFCB8B"/>
<path d="M26.5996 32.4156H25.209V33.8354H26.5996V32.4156Z" fill="#EA9E09"/>
<path d="M26.5996 30.9812H25.209V32.4156H26.5996V30.9812Z" fill="#EA9E09"/>
<path d="M26.5996 29.5613H25.209V30.9812H26.5996V29.5613Z" fill="#E4976F"/>
<path d="M26.5996 28.1269H25.209V29.5614H26.5996V28.1269Z" fill="#F1B380"/>
<path d="M26.5996 26.7064H25.209V28.1262H26.5996V26.7064Z" fill="#E4976F"/>
<path d="M26.5996 25.272H25.209V26.7064H26.5996V25.272Z" fill="#F1B380"/>
<path d="M26.5996 23.8521H25.209V25.272H26.5996V23.8521Z" fill="#E4976F"/>
<path d="M26.5996 22.4177H25.209V23.8521H26.5996V22.4177Z" fill="#F1B380"/>
<path d="M26.5996 20.9979H25.209V22.4177H26.5996V20.9979Z" fill="#E4976F"/>
<path d="M26.5996 19.5635H25.209V20.9979H26.5996V19.5635Z" fill="#F1B380"/>
<path d="M26.5996 18.1429H25.209V19.5627H26.5996V18.1429Z" fill="#E4976F"/>
<path d="M26.5996 16.7092H25.209V18.1436H26.5996V16.7092Z" fill="#F1B380"/>
<path d="M26.5996 15.2741H25.209V16.7085H26.5996V15.2741Z" fill="#E4976F"/>
<path d="M26.5996 13.8542H25.209V15.2741H26.5996V13.8542Z" fill="#F1B380"/>
<path d="M26.5996 12.4198H25.209V13.8542H26.5996V12.4198Z" fill="#FFCB8B"/>
<path d="M26.5996 11H25.209V12.4198H26.5996V11Z" fill="#0E0E11"/>
<path d="M25.2096 35.2698H23.8047V36.6897H25.2096V35.2698Z" fill="#0E0E11"/>
<path d="M25.2096 33.8354H23.8047V35.2698H25.2096V33.8354Z" fill="#FFCB8B"/>
<path d="M25.2096 32.4156H23.8047V33.8354H25.2096V32.4156Z" fill="#F1B380"/>
<path d="M25.2096 30.9812H23.8047V32.4156H25.2096V30.9812Z" fill="#F1B380"/>
<path d="M25.2096 29.5613H23.8047V30.9812H25.2096V29.5613Z" fill="#E4976F"/>
<path d="M25.2096 28.1269H23.8047V29.5614H25.2096V28.1269Z" fill="#F1B380"/>
<path d="M25.2096 26.7064H23.8047V28.1262H25.2096V26.7064Z" fill="#E4976F"/>
<path d="M25.2096 25.272H23.8047V26.7064H25.2096V25.272Z" fill="#F1B380"/>
<path d="M25.2096 23.8521H23.8047V25.272H25.2096V23.8521Z" fill="#E4976F"/>
<path d="M25.2096 22.4177H23.8047V23.8521H25.2096V22.4177Z" fill="#F1B380"/>
<path d="M25.2096 20.9979H23.8047V22.4177H25.2096V20.9979Z" fill="#E4976F"/>
<path d="M25.2096 19.5635H23.8047V20.9979H25.2096V19.5635Z" fill="#F1B380"/>
<path d="M25.2096 18.1429H23.8047V19.5627H25.2096V18.1429Z" fill="#E4976F"/>
<path d="M25.2096 16.7092H23.8047V18.1436H25.2096V16.7092Z" fill="#F1B380"/>
<path d="M25.2096 15.2741H23.8047V16.7085H25.2096V15.2741Z" fill="#E4976F"/>
<path d="M25.2096 13.8542H23.8047V15.2741H25.2096V13.8542Z" fill="#F1B380"/>
<path d="M25.2096 12.4198H23.8047V13.8542H25.2096V12.4198Z" fill="#FFCB8B"/>
<path d="M25.2096 11H23.8047V12.4198H25.2096V11Z" fill="#0E0E11"/>
<path d="M23.8046 35.2698H22.3997V36.6897H23.8046V35.2698Z" fill="#0E0E11"/>
<path d="M23.8046 33.8354H22.3997V35.2698H23.8046V33.8354Z" fill="#FFCB8B"/>
<path d="M23.8046 32.4156H22.3997V33.8354H23.8046V32.4156Z" fill="#F1B380"/>
<path d="M23.8046 30.9812H22.3997V32.4156H23.8046V30.9812Z" fill="#F1B380"/>
<path d="M23.8046 29.5613H22.3997V30.9812H23.8046V29.5613Z" fill="#E4976F"/>
<path d="M23.8046 28.1269H22.3997V29.5614H23.8046V28.1269Z" fill="#F1B380"/>
<path d="M23.8046 26.7064H22.3997V28.1262H23.8046V26.7064Z" fill="#E4976F"/>
<path d="M23.8046 25.272H22.3997V26.7064H23.8046V25.272Z" fill="#F1B380"/>
<path d="M23.8046 23.8521H22.3997V25.272H23.8046V23.8521Z" fill="#E4976F"/>
<path d="M23.8046 22.4177H22.3997V23.8521H23.8046V22.4177Z" fill="#F1B380"/>
<path d="M23.8046 20.9979H22.3997V22.4177H23.8046V20.9979Z" fill="#E4976F"/>
<path d="M23.8046 19.5635H22.3997V20.9979H23.8046V19.5635Z" fill="#F1B380"/>
<path d="M23.8046 18.1429H22.3997V19.5627H23.8046V18.1429Z" fill="#E4976F"/>
<path d="M23.8046 16.7092H22.3997V18.1436H23.8046V16.7092Z" fill="#F1B380"/>
<path d="M23.8046 15.2741H22.3997V16.7085H23.8046V15.2741Z" fill="#F1B380"/>
<path d="M23.8046 13.8542H22.3997V15.2741H23.8046V13.8542Z" fill="#F1B380"/>
<path d="M23.8046 12.4198H22.3997V13.8542H23.8046V12.4198Z" fill="#FFCB8B"/>
<path d="M23.8046 11H22.3997V12.4198H23.8046V11Z" fill="#0E0E11"/>
<path d="M22.3997 35.2698H21.009V36.6897H22.3997V35.2698Z" fill="#0E0E11"/>
<path d="M22.3997 33.8354H21.009V35.2698H22.3997V33.8354Z" fill="#FFCB8B"/>
<path d="M22.3997 32.4156H21.009V33.8354H22.3997V32.4156Z" fill="#F1B380"/>
<path d="M22.3997 30.9812H21.009V32.4156H22.3997V30.9812Z" fill="#F1B380"/>
<path d="M22.3997 29.5613H21.009V30.9812H22.3997V29.5613Z" fill="#E4976F"/>
<path d="M22.3997 28.1269H21.009V29.5614H22.3997V28.1269Z" fill="#F1B380"/>
<path d="M22.3997 26.7064H21.009V28.1262H22.3997V26.7064Z" fill="#E4976F"/>
<path d="M22.3997 25.272H21.009V26.7064H22.3997V25.272Z" fill="#F1B380"/>
<path d="M22.3997 23.8521H21.009V25.272H22.3997V23.8521Z" fill="#E4976F"/>
<path d="M22.3997 22.4177H21.009V23.8521H22.3997V22.4177Z" fill="#F1B380"/>
<path d="M22.3997 20.9979H21.009V22.4177H22.3997V20.9979Z" fill="#E4976F"/>
<path d="M22.3997 19.5635H21.009V20.9979H22.3997V19.5635Z" fill="#F1B380"/>
<path d="M22.3997 18.1429H21.009V19.5627H22.3997V18.1429Z" fill="#F1B380"/>
<path d="M22.3997 16.7092H21.009V18.1436H22.3997V16.7092Z" fill="#FFCB8B"/>
<path d="M22.3997 15.2741H21.009V16.7085H22.3997V15.2741Z" fill="#FFCB8B"/>
<path d="M22.3997 13.8542H21.009V15.2741H22.3997V13.8542Z" fill="#FFCB8B"/>
<path d="M22.3997 12.4198H21.009V13.8542H22.3997V12.4198Z" fill="#FFCB8B"/>
<path d="M22.3997 11H21.009V12.4198H22.3997V11Z" fill="#0E0E11"/>
<path d="M21.0098 35.2698H19.6049V36.6897H21.0098V35.2698Z" fill="#0E0E11"/>
<path d="M21.0098 33.8354H19.6049V35.2698H21.0098V33.8354Z" fill="#FFCB8B"/>
<path d="M21.0098 32.4156H19.6049V33.8354H21.0098V32.4156Z" fill="#F1B380"/>
<path d="M21.0098 30.9812H19.6049V32.4156H21.0098V30.9812Z" fill="#F1B380"/>
<path d="M21.0098 29.5613H19.6049V30.9812H21.0098V29.5613Z" fill="#E4976F"/>
<path d="M21.0098 28.1269H19.6049V29.5614H21.0098V28.1269Z" fill="#F1B380"/>
<path d="M21.0098 26.7064H19.6049V28.1262H21.0098V26.7064Z" fill="#E4976F"/>
<path d="M21.0098 25.272H19.6049V26.7064H21.0098V25.272Z" fill="#F1B380"/>
<path d="M21.0098 23.8521H19.6049V25.272H21.0098V23.8521Z" fill="#E4976F"/>
<path d="M21.0098 22.4177H19.6049V23.8521H21.0098V22.4177Z" fill="#F1B380"/>
<path d="M21.0098 20.9979H19.6049V22.4177H21.0098V20.9979Z" fill="#F1B380"/>
<path d="M21.0098 19.5635H19.6049V20.9979H21.0098V19.5635Z" fill="#FFCB8B"/>
<path d="M21.0098 18.1429H19.6049V19.5627H21.0098V18.1429Z" fill="#FFCB8B"/>
<path d="M21.0098 16.7092H19.6049V18.1436H21.0098V16.7092Z" fill="#0E0E11"/>
<path d="M21.0098 15.2741H19.6049V16.7085H21.0098V15.2741Z" fill="#0E0E11"/>
<path d="M21.0098 13.8542H19.6049V15.2741H21.0098V13.8542Z" fill="#0E0E11"/>
<path d="M21.0098 12.4198H19.6049V13.8542H21.0098V12.4198Z" fill="#FFCB8B"/>
<path d="M21.0098 11H19.6049V12.4198H21.0098V11Z" fill="#0E0E11"/>
<path d="M19.6049 35.2698H18.2V36.6897H19.6049V35.2698Z" fill="#0E0E11"/>
<path d="M19.6049 33.8354H18.2V35.2698H19.6049V33.8354Z" fill="#FFCB8B"/>
<path d="M19.6049 32.4156H18.2V33.8354H19.6049V32.4156Z" fill="#F1B380"/>
<path d="M19.6049 30.9812H18.2V32.4156H19.6049V30.9812Z" fill="#F1B380"/>
<path d="M19.6049 29.5613H18.2V30.9812H19.6049V29.5613Z" fill="#E4976F"/>
<path d="M19.6049 28.1269H18.2V29.5614H19.6049V28.1269Z" fill="#F1B380"/>
<path d="M19.6049 26.7064H18.2V28.1262H19.6049V26.7064Z" fill="#E4976F"/>
<path d="M19.6049 25.272H18.2V26.7064H19.6049V25.272Z" fill="#F1B380"/>
<path d="M19.6049 23.8521H18.2V25.272H19.6049V23.8521Z" fill="#F1B380"/>
<path d="M19.6049 22.4177H18.2V23.8521H19.6049V22.4177Z" fill="#FFCB8B"/>
<path d="M19.6049 20.9979H18.2V22.4177H19.6049V20.9979Z" fill="#FFCB8B"/>
<path d="M19.6049 19.5635H18.2V20.9979H19.6049V19.5635Z" fill="#0E0E11"/>
<path d="M19.6049 18.1429H18.2V19.5627H19.6049V18.1429Z" fill="#0E0E11"/>
<path d="M19.6049 16.7092H18.2V18.1436H19.6049V16.7092Z" fill="#E4976F"/>
<path d="M19.6049 15.2741H18.2V16.7085H19.6049V15.2741Z" fill="#E4976F"/>
<path d="M19.6049 13.8542H18.2V15.2741H19.6049V13.8542Z" fill="#E4976F"/>
<path d="M19.6049 12.4198H18.2V13.8542H19.6049V12.4198Z" fill="#0E0E11"/>
<path d="M19.6049 11H18.2V12.4198H19.6049V11Z" fill="#0E0E11"/>
<path d="M18.1999 33.8354H16.8092V35.2698H18.1999V33.8354Z" fill="#0E0E11"/>
<path d="M18.1999 32.4156H16.8092V33.8354H18.1999V32.4156Z" fill="#FFCB8B"/>
<path d="M18.1999 30.9812H16.8092V32.4156H18.1999V30.9812Z" fill="#FFCB8B"/>
<path d="M18.1999 29.5613H16.8092V30.9812H18.1999V29.5613Z" fill="#F1B380"/>
<path d="M18.1999 28.1269H16.8092V29.5614H18.1999V28.1269Z" fill="#F1B380"/>
<path d="M18.1999 26.7064H16.8092V28.1262H18.1999V26.7064Z" fill="#F1B380"/>
<path d="M18.1999 25.272H16.8092V26.7064H18.1999V25.272Z" fill="#FFCB8B"/>
<path d="M18.1999 23.8521H16.8092V25.272H18.1999V23.8521Z" fill="#FFCB8B"/>
<path d="M18.1999 22.4177H16.8092V23.8521H18.1999V22.4177Z" fill="#0E0E11"/>
<path d="M18.1999 20.9979H16.8092V22.4177H18.1999V20.9979Z" fill="#0E0E11"/>
<path d="M18.1999 16.7092H16.8092V18.1436H18.1999V16.7092Z" fill="#0E0E11"/>
<path d="M18.1999 15.2741H16.8092V16.7085H18.1999V15.2741Z" fill="#E4976F"/>
<path d="M18.1999 13.8542H16.8092V15.2741H18.1999V13.8542Z" fill="#E4976F"/>
<path d="M18.1999 12.4198H16.8092V13.8542H18.1999V12.4198Z" fill="#0E0E11"/>
<path d="M16.8099 32.4156H15.4049V33.8354H16.8099V32.4156Z" fill="#0E0E11"/>
<path d="M16.8099 30.9812H15.4049V32.4156H16.8099V30.9812Z" fill="#0E0E11"/>
<path d="M16.8099 29.5613H15.4049V30.9812H16.8099V29.5613Z" fill="#FFCB8B"/>
<path d="M16.8099 28.1269H15.4049V29.5614H16.8099V28.1269Z" fill="#FFCB8B"/>
<path d="M16.8099 26.7064H15.4049V28.1262H16.8099V26.7064Z" fill="#FFCB8B"/>
<path d="M16.8099 25.272H15.4049V26.7064H16.8099V25.272Z" fill="#0E0E11"/>
<path d="M16.8099 23.8521H15.4049V25.272H16.8099V23.8521Z" fill="#0E0E11"/>
<path d="M16.8099 15.2741H15.4049V16.7085H16.8099V15.2741Z" fill="#0E0E11"/>
<path d="M16.8099 13.8542H15.4049V15.2741H16.8099V13.8542Z" fill="#0E0E11"/>
<path d="M15.405 29.5613H14V30.9812H15.405V29.5613Z" fill="#0E0E11"/>
<path d="M15.405 28.1269H14V29.5614H15.405V28.1269Z" fill="#0E0E11"/>
<path d="M15.405 26.7064H14V28.1262H15.405V26.7064Z" fill="#0E0E11"/>
</svg>
