<svg width="50" height="50" viewBox="0 0 50 50" fill="none" xmlns="http://www.w3.org/2000/svg">
<path d="M38.0849 13.9467H36.5898V15.4269H38.0849V13.9467Z" fill="#FD0505"/>
<path d="M36.5894 16.8932H35.0793V18.3734H36.5894V16.8932Z" fill="#FD0505"/>
<path d="M36.5894 11H35.0793V12.4803H36.5894V11Z" fill="#FD0505"/>
<path d="M35.0787 13.9467H33.5686V15.4269H35.0787V13.9467Z" fill="#FD0505"/>
<path d="M33.5682 30.1602H32.0732V31.6403H33.5682V30.1602Z" fill="black"/>
<path d="M33.5682 28.6943H32.0732V30.1597H33.5682V28.6943Z" fill="black"/>
<path d="M33.5682 27.2137H32.0732V28.6938H33.5682V27.2137Z" fill="black"/>
<path d="M33.5682 25.7478H32.0732V27.2132H33.5682V25.7478Z" fill="black"/>
<path d="M33.5682 24.2672H32.0732V25.7473H33.5682V24.2672Z" fill="black"/>
<path d="M33.5682 15.4273H32.0732V16.8926H33.5682V15.4273Z" fill="#FD0505"/>
<path d="M33.5682 13.9467H32.0732V15.4269H33.5682V13.9467Z" fill="#FFDD1A"/>
<path d="M33.5682 12.4808H32.0732V13.9461H33.5682V12.4808Z" fill="#FD0505"/>
<path d="M32.0726 33.1067H30.5625V34.5868H32.0726V33.1067Z" fill="black"/>
<path d="M32.0726 31.6409H30.5625V33.1062H32.0726V31.6409Z" fill="black"/>
<path d="M32.0726 30.1602H30.5625V31.6403H32.0726V30.1602Z" fill="black"/>
<path d="M32.0726 28.6943H30.5625V30.1597H32.0726V28.6943Z" fill="black"/>
<path d="M32.0726 27.2137H30.5625V28.6938H32.0726V27.2137Z" fill="black"/>
<path d="M32.0726 25.7478H30.5625V27.2132H32.0726V25.7478Z" fill="black"/>
<path d="M32.0726 24.2672H30.5625V25.7473H32.0726V24.2672Z" fill="black"/>
<path d="M32.0726 22.8012H30.5625V24.2665H32.0726V22.8012Z" fill="black"/>
<path d="M32.0726 21.3205H30.5625V22.8007H32.0726V21.3205Z" fill="black"/>
<path d="M32.0726 13.9467H30.5625V15.4269H32.0726V13.9467Z" fill="black"/>
<path d="M30.5619 34.5875H29.0519V36.0529H30.5619V34.5875Z" fill="black"/>
<path d="M30.5619 33.1067H29.0519V34.5868H30.5619V33.1067Z" fill="black"/>
<path d="M30.5619 31.6409H29.0519V33.1062H30.5619V31.6409Z" fill="black"/>
<path d="M30.5619 30.1602H29.0519V31.6403H30.5619V30.1602Z" fill="black"/>
<path d="M30.5619 28.6943H29.0519V30.1597H30.5619V28.6943Z" fill="black"/>
<path d="M30.5619 27.2137H29.0519V28.6938H30.5619V27.2137Z" fill="black"/>
<path d="M30.5619 25.7478H29.0519V27.2132H30.5619V25.7478Z" fill="black"/>
<path d="M30.5619 24.2672H29.0519V25.7473H30.5619V24.2672Z" fill="black"/>
<path d="M30.5619 22.8012H29.0519V24.2665H30.5619V22.8012Z" fill="black"/>
<path d="M30.5619 21.3205H29.0519V22.8007H30.5619V21.3205Z" fill="black"/>
<path d="M30.5619 19.8546H29.0519V21.32H30.5619V19.8546Z" fill="black"/>
<path d="M30.5619 12.4808H29.0519V13.9461H30.5619V12.4808Z" fill="black"/>
<path d="M29.0514 36.0534H27.5564V37.5336H29.0514V36.0534Z" fill="black"/>
<path d="M29.0514 34.5875H27.5564V36.0529H29.0514V34.5875Z" fill="black"/>
<path d="M29.0514 33.1067H27.5564V34.5868H29.0514V33.1067Z" fill="black"/>
<path d="M29.0514 31.6409H27.5564V33.1062H29.0514V31.6409Z" fill="black"/>
<path d="M29.0514 30.1602H27.5564V31.6403H29.0514V30.1602Z" fill="black"/>
<path d="M29.0514 28.6943H27.5564V30.1597H29.0514V28.6943Z" fill="black"/>
<path d="M29.0514 27.2137H27.5564V28.6938H29.0514V27.2137Z" fill="black"/>
<path d="M29.0514 25.7478H27.5564V27.2132H29.0514V25.7478Z" fill="black"/>
<path d="M29.0514 24.2672H27.5564V25.7473H29.0514V24.2672Z" fill="black"/>
<path d="M29.0514 22.8012H27.5564V24.2665H29.0514V22.8012Z" fill="black"/>
<path d="M29.0514 21.3205H27.5564V22.8007H29.0514V21.3205Z" fill="black"/>
<path d="M29.0514 19.8546H27.5564V21.32H29.0514V19.8546Z" fill="black"/>
<path d="M29.0514 18.374H27.5564V19.8542H29.0514V18.374Z" fill="black"/>
<path d="M29.0514 11H27.5564V12.4803H29.0514V11Z" fill="black"/>
<path d="M27.5558 36.0534H26.0458V37.5336H27.5558V36.0534Z" fill="black"/>
<path d="M27.5558 34.5875H26.0458V36.0529H27.5558V34.5875Z" fill="black"/>
<path d="M27.5558 33.1067H26.0458V34.5868H27.5558V33.1067Z" fill="black"/>
<path d="M27.5558 31.6409H26.0458V33.1062H27.5558V31.6409Z" fill="black"/>
<path d="M27.5558 30.1602H26.0458V31.6403H27.5558V30.1602Z" fill="black"/>
<path d="M27.5558 28.6943H26.0458V30.1597H27.5558V28.6943Z" fill="black"/>
<path d="M27.5558 27.2137H26.0458V28.6938H27.5558V27.2137Z" fill="black"/>
<path d="M27.5558 25.7478H26.0458V27.2132H27.5558V25.7478Z" fill="black"/>
<path d="M27.5558 24.2672H26.0458V25.7473H27.5558V24.2672Z" fill="black"/>
<path d="M27.5558 22.8012H26.0458V24.2665H27.5558V22.8012Z" fill="black"/>
<path d="M27.5558 21.3205H26.0458V22.8007H27.5558V21.3205Z" fill="black"/>
<path d="M27.5558 19.8546H26.0458V21.32H27.5558V19.8546Z" fill="black"/>
<path d="M27.5558 18.374H26.0458V19.8542H27.5558V18.374Z" fill="black"/>
<path d="M27.5558 11H26.0458V12.4803H27.5558V11Z" fill="black"/>
<path d="M26.0453 37.5342H24.5352V38.9996H26.0453V37.5342Z" fill="black"/>
<path d="M26.0453 36.0534H24.5352V37.5336H26.0453V36.0534Z" fill="black"/>
<path d="M26.0453 34.5875H24.5352V36.0529H26.0453V34.5875Z" fill="black"/>
<path d="M26.0453 33.1067H24.5352V34.5868H26.0453V33.1067Z" fill="black"/>
<path d="M26.0453 31.6409H24.5352V33.1062H26.0453V31.6409Z" fill="black"/>
<path d="M26.0453 30.1602H24.5352V31.6403H26.0453V30.1602Z" fill="black"/>
<path d="M26.0453 28.6943H24.5352V30.1597H26.0453V28.6943Z" fill="black"/>
<path d="M26.0453 27.2137H24.5352V28.6938H26.0453V27.2137Z" fill="black"/>
<path d="M26.0453 25.7478H24.5352V27.2132H26.0453V25.7478Z" fill="black"/>
<path d="M26.0453 24.2672H24.5352V25.7473H26.0453V24.2672Z" fill="black"/>
<path d="M26.0453 22.8012H24.5352V24.2665H26.0453V22.8012Z" fill="black"/>
<path d="M26.0453 21.3205H24.5352V22.8007H26.0453V21.3205Z" fill="black"/>
<path d="M26.0453 19.8546H24.5352V21.32H26.0453V19.8546Z" fill="black"/>
<path d="M26.0453 18.374H24.5352V19.8542H26.0453V18.374Z" fill="black"/>
<path d="M26.0453 16.8932H24.5352V18.3734H26.0453V16.8932Z" fill="black"/>
<path d="M26.0453 11H24.5352V12.4803H26.0453V11Z" fill="black"/>
<path d="M24.5347 37.5342H23.0397V38.9996H24.5347V37.5342Z" fill="black"/>
<path d="M24.5347 36.0534H23.0397V37.5336H24.5347V36.0534Z" fill="black"/>
<path d="M24.5347 34.5875H23.0397V36.0529H24.5347V34.5875Z" fill="black"/>
<path d="M24.5347 33.1067H23.0397V34.5868H24.5347V33.1067Z" fill="black"/>
<path d="M24.5347 31.6409H23.0397V33.1062H24.5347V31.6409Z" fill="black"/>
<path d="M24.5347 30.1602H23.0397V31.6403H24.5347V30.1602Z" fill="black"/>
<path d="M24.5347 28.6943H23.0397V30.1597H24.5347V28.6943Z" fill="black"/>
<path d="M24.5347 27.2137H23.0397V28.6938H24.5347V27.2137Z" fill="black"/>
<path d="M24.5347 25.7478H23.0397V27.2132H24.5347V25.7478Z" fill="black"/>
<path d="M24.5347 24.2672H23.0397V25.7473H24.5347V24.2672Z" fill="black"/>
<path d="M24.5347 22.8012H23.0397V24.2665H24.5347V22.8012Z" fill="black"/>
<path d="M24.5347 21.3205H23.0397V22.8007H24.5347V21.3205Z" fill="black"/>
<path d="M24.5347 19.8546H23.0397V21.32H24.5347V19.8546Z" fill="black"/>
<path d="M24.5347 18.374H23.0397V19.8542H24.5347V18.374Z" fill="black"/>
<path d="M24.5347 16.8932H23.0397V18.3734H24.5347V16.8932Z" fill="black"/>
<path d="M24.5347 15.4273H23.0397V16.8926H24.5347V15.4273Z" fill="black"/>
<path d="M24.5347 13.9467H23.0397V15.4269H24.5347V13.9467Z" fill="black"/>
<path d="M24.5347 11H23.0397V12.4803H24.5347V11Z" fill="black"/>
<path d="M23.0392 37.5342H21.5291V38.9996H23.0392V37.5342Z" fill="black"/>
<path d="M23.0392 36.0534H21.5291V37.5336H23.0392V36.0534Z" fill="black"/>
<path d="M23.0392 34.5875H21.5291V36.0529H23.0392V34.5875Z" fill="black"/>
<path d="M23.0392 33.1067H21.5291V34.5868H23.0392V33.1067Z" fill="black"/>
<path d="M23.0392 31.6409H21.5291V33.1062H23.0392V31.6409Z" fill="black"/>
<path d="M23.0392 30.1602H21.5291V31.6403H23.0392V30.1602Z" fill="black"/>
<path d="M23.0392 28.6943H21.5291V30.1597H23.0392V28.6943Z" fill="black"/>
<path d="M23.0392 27.2137H21.5291V28.6938H23.0392V27.2137Z" fill="black"/>
<path d="M23.0392 25.7478H21.5291V27.2132H23.0392V25.7478Z" fill="black"/>
<path d="M23.0392 24.2672H21.5291V25.7473H23.0392V24.2672Z" fill="black"/>
<path d="M23.0392 22.8012H21.5291V24.2665H23.0392V22.8012Z" fill="black"/>
<path d="M23.0392 21.3205H21.5291V22.8007H23.0392V21.3205Z" fill="black"/>
<path d="M23.0392 19.8546H21.5291V21.32H23.0392V19.8546Z" fill="black"/>
<path d="M23.0392 18.374H21.5291V19.8542H23.0392V18.374Z" fill="black"/>
<path d="M23.0392 16.8932H21.5291V18.3734H23.0392V16.8932Z" fill="black"/>
<path d="M23.0392 13.9467H21.5291V15.4269H23.0392V13.9467Z" fill="black"/>
<path d="M23.0392 12.4808H21.5291V13.9461H23.0392V12.4808Z" fill="black"/>
<path d="M21.5285 37.5342H20.0334V38.9996H21.5285V37.5342Z" fill="black"/>
<path d="M21.5285 36.0534H20.0334V37.5336H21.5285V36.0534Z" fill="black"/>
<path d="M21.5285 34.5875H20.0334V36.0529H21.5285V34.5875Z" fill="black"/>
<path d="M21.5285 33.1067H20.0334V34.5868H21.5285V33.1067Z" fill="black"/>
<path d="M21.5285 31.6409H20.0334V33.1062H21.5285V31.6409Z" fill="black"/>
<path d="M21.5285 30.1602H20.0334V31.6403H21.5285V30.1602Z" fill="black"/>
<path d="M21.5285 28.6943H20.0334V30.1597H21.5285V28.6943Z" fill="black"/>
<path d="M21.5285 27.2137H20.0334V28.6938H21.5285V27.2137Z" fill="black"/>
<path d="M21.5285 25.7478H20.0334V27.2132H21.5285V25.7478Z" fill="black"/>
<path d="M21.5285 24.2672H20.0334V25.7473H21.5285V24.2672Z" fill="black"/>
<path d="M21.5285 22.8012H20.0334V24.2665H21.5285V22.8012Z" fill="black"/>
<path d="M21.5285 21.3205H20.0334V22.8007H21.5285V21.3205Z" fill="black"/>
<path d="M21.5285 19.8546H20.0334V21.32H21.5285V19.8546Z" fill="white"/>
<path d="M21.5285 18.374H20.0334V19.8542H21.5285V18.374Z" fill="black"/>
<path d="M21.5285 16.8932H20.0334V18.3734H21.5285V16.8932Z" fill="black"/>
<path d="M21.5285 15.4273H20.0334V16.8926H21.5285V15.4273Z" fill="black"/>
<path d="M21.5285 13.9467H20.0334V15.4269H21.5285V13.9467Z" fill="black"/>
<path d="M20.0329 37.5342H18.5228V38.9996H20.0329V37.5342Z" fill="black"/>
<path d="M20.0329 36.0534H18.5228V37.5336H20.0329V36.0534Z" fill="black"/>
<path d="M20.0329 34.5875H18.5228V36.0529H20.0329V34.5875Z" fill="black"/>
<path d="M20.0329 33.1067H18.5228V34.5868H20.0329V33.1067Z" fill="white"/>
<path d="M20.0329 31.6409H18.5228V33.1062H20.0329V31.6409Z" fill="black"/>
<path d="M20.0329 30.1602H18.5228V31.6403H20.0329V30.1602Z" fill="black"/>
<path d="M20.0329 28.6943H18.5228V30.1597H20.0329V28.6943Z" fill="black"/>
<path d="M20.0329 27.2137H18.5228V28.6938H20.0329V27.2137Z" fill="black"/>
<path d="M20.0329 25.7478H18.5228V27.2132H20.0329V25.7478Z" fill="black"/>
<path d="M20.0329 24.2672H18.5228V25.7473H20.0329V24.2672Z" fill="black"/>
<path d="M20.0329 22.8012H18.5228V24.2665H20.0329V22.8012Z" fill="black"/>
<path d="M20.0329 21.3205H18.5228V22.8007H20.0329V21.3205Z" fill="white"/>
<path d="M20.0329 19.8546H18.5228V21.32H20.0329V19.8546Z" fill="black"/>
<path d="M20.0329 18.374H18.5228V19.8542H20.0329V18.374Z" fill="black"/>
<path d="M20.0329 16.8932H18.5228V18.3734H20.0329V16.8932Z" fill="black"/>
<path d="M18.5224 36.0534H17.0123V37.5336H18.5224V36.0534Z" fill="black"/>
<path d="M18.5224 34.5875H17.0123V36.0529H18.5224V34.5875Z" fill="black"/>
<path d="M18.5224 33.1067H17.0123V34.5868H18.5224V33.1067Z" fill="black"/>
<path d="M18.5224 31.6409H17.0123V33.1062H18.5224V31.6409Z" fill="white"/>
<path d="M18.5224 30.1602H17.0123V31.6403H18.5224V30.1602Z" fill="white"/>
<path d="M18.5224 28.6943H17.0123V30.1597H18.5224V28.6943Z" fill="black"/>
<path d="M18.5224 27.2137H17.0123V28.6938H18.5224V27.2137Z" fill="black"/>
<path d="M18.5224 25.7478H17.0123V27.2132H18.5224V25.7478Z" fill="black"/>
<path d="M18.5224 24.2672H17.0123V25.7473H18.5224V24.2672Z" fill="white"/>
<path d="M18.5224 22.8012H17.0123V24.2665H18.5224V22.8012Z" fill="white"/>
<path d="M18.5224 21.3205H17.0123V22.8007H18.5224V21.3205Z" fill="black"/>
<path d="M18.5224 19.8546H17.0123V21.32H18.5224V19.8546Z" fill="black"/>
<path d="M18.5224 18.374H17.0123V19.8542H18.5224V18.374Z" fill="black"/>
<path d="M17.0118 36.0534H15.5168V37.5336H17.0118V36.0534Z" fill="black"/>
<path d="M17.0118 34.5875H15.5168V36.0529H17.0118V34.5875Z" fill="black"/>
<path d="M17.0118 33.1067H15.5168V34.5868H17.0118V33.1067Z" fill="black"/>
<path d="M17.0118 31.6409H15.5168V33.1062H17.0118V31.6409Z" fill="black"/>
<path d="M17.0118 30.1602H15.5168V31.6403H17.0118V30.1602Z" fill="black"/>
<path d="M17.0118 28.6943H15.5168V30.1597H17.0118V28.6943Z" fill="white"/>
<path d="M17.0118 27.2137H15.5168V28.6938H17.0118V27.2137Z" fill="white"/>
<path d="M17.0118 25.7478H15.5168V27.2132H17.0118V25.7478Z" fill="white"/>
<path d="M17.0118 24.2672H15.5168V25.7473H17.0118V24.2672Z" fill="black"/>
<path d="M17.0118 22.8012H15.5168V24.2665H17.0118V22.8012Z" fill="black"/>
<path d="M17.0118 21.3205H15.5168V22.8007H17.0118V21.3205Z" fill="black"/>
<path d="M17.0118 19.8546H15.5168V21.32H17.0118V19.8546Z" fill="black"/>
<path d="M17.0118 18.374H15.5168V19.8542H17.0118V18.374Z" fill="black"/>
<path d="M15.5163 34.5875H14.0062V36.0529H15.5163V34.5875Z" fill="black"/>
<path d="M15.5163 33.1067H14.0062V34.5868H15.5163V33.1067Z" fill="black"/>
<path d="M15.5163 31.6409H14.0062V33.1062H15.5163V31.6409Z" fill="black"/>
<path d="M15.5163 30.1602H14.0062V31.6403H15.5163V30.1602Z" fill="black"/>
<path d="M15.5163 28.6943H14.0062V30.1597H15.5163V28.6943Z" fill="black"/>
<path d="M15.5163 27.2137H14.0062V28.6938H15.5163V27.2137Z" fill="black"/>
<path d="M15.5163 25.7478H14.0062V27.2132H15.5163V25.7478Z" fill="black"/>
<path d="M15.5163 24.2672H14.0062V25.7473H15.5163V24.2672Z" fill="black"/>
<path d="M15.5163 22.8012H14.0062V24.2665H15.5163V22.8012Z" fill="black"/>
<path d="M15.5163 21.3205H14.0062V22.8007H15.5163V21.3205Z" fill="black"/>
<path d="M15.5163 19.8546H14.0062V21.32H15.5163V19.8546Z" fill="black"/>
<path d="M14.0056 33.1067H12.4955V34.5868H14.0056V33.1067Z" fill="black"/>
<path d="M14.0056 31.6409H12.4955V33.1062H14.0056V31.6409Z" fill="black"/>
<path d="M14.0056 30.1602H12.4955V31.6403H14.0056V30.1602Z" fill="black"/>
<path d="M14.0056 28.6943H12.4955V30.1597H14.0056V28.6943Z" fill="black"/>
<path d="M14.0056 27.2137H12.4955V28.6938H14.0056V27.2137Z" fill="black"/>
<path d="M14.0056 25.7478H12.4955V27.2132H14.0056V25.7478Z" fill="black"/>
<path d="M14.0056 24.2672H12.4955V25.7473H14.0056V24.2672Z" fill="black"/>
<path d="M14.0056 22.8012H12.4955V24.2665H14.0056V22.8012Z" fill="black"/>
<path d="M14.0056 21.3205H12.4955V22.8007H14.0056V21.3205Z" fill="black"/>
<path d="M12.495 30.1602H11V31.6403H12.495V30.1602Z" fill="black"/>
<path d="M12.495 28.6943H11V30.1597H12.495V28.6943Z" fill="black"/>
<path d="M12.495 27.2137H11V28.6938H12.495V27.2137Z" fill="black"/>
<path d="M12.495 25.7478H11V27.2132H12.495V25.7478Z" fill="black"/>
<path d="M12.495 24.2672H11V25.7473H12.495V24.2672Z" fill="black"/>
</svg>
