<svg width="21" height="21" viewBox="0 0 21 21" fill="none" xmlns="http://www.w3.org/2000/svg">
<path d="M18 11.6368H17.2155V12.4058H18V11.6368Z" fill="#0E0E11"/>
<path d="M18 10.8602H17.2155V11.6368H18V10.8602Z" fill="#0E0E11"/>
<path d="M18 10.0912H17.2155V10.8602H18V10.0912Z" fill="#0E0E11"/>
<path d="M18 9.31451H17.2155V10.0912H18V9.31451Z" fill="#0E0E11"/>
<path d="M17.2155 12.4058H16.4231V13.1825H17.2155V12.4058Z" fill="#0E0E11"/>
<path d="M17.2155 11.6368H16.4231V12.4058H17.2155V11.6368Z" fill="#BC1830"/>
<path d="M17.2155 10.8602H16.4231V11.6368H17.2155V10.8602Z" fill="#BC1830"/>
<path d="M17.2155 10.0912H16.4231V10.8602H17.2155V10.0912Z" fill="#BC1830"/>
<path d="M17.2155 9.31451H16.4231V10.0912H17.2155V9.31451Z" fill="#BC1830"/>
<path d="M17.2155 8.54565H16.4231V9.31458H17.2155V8.54565Z" fill="#0E0E11"/>
<path d="M16.4231 13.1825H15.6308V13.9514H16.4231V13.1825Z" fill="#0E0E11"/>
<path d="M16.4231 12.4058H15.6308V13.1825H16.4231V12.4058Z" fill="#BC1830"/>
<path d="M16.4231 11.6368H15.6308V12.4058H16.4231V11.6368Z" fill="#FD0505"/>
<path d="M16.4231 10.8602H15.6308V11.6368H16.4231V10.8602Z" fill="#FD0505"/>
<path d="M16.4231 10.0912H15.6308V10.8602H16.4231V10.0912Z" fill="#FD0505"/>
<path d="M16.4231 9.31451H15.6308V10.0912H16.4231V9.31451Z" fill="#FD0505"/>
<path d="M16.4231 8.54565H15.6308V9.31458H16.4231V8.54565Z" fill="#BC1830"/>
<path d="M16.4231 7.76898H15.6308V8.54565H16.4231V7.76898Z" fill="#0E0E11"/>
<path d="M15.6308 13.9514H14.8464V14.7281H15.6308V13.9514Z" fill="#0E0E11"/>
<path d="M15.6308 13.1825H14.8464V13.9514H15.6308V13.1825Z" fill="#BC1830"/>
<path d="M15.6308 12.4058H14.8464V13.1825H15.6308V12.4058Z" fill="#FD0505"/>
<path d="M15.6308 11.6368H14.8464V12.4058H15.6308V11.6368Z" fill="#FD0505"/>
<path d="M15.6308 10.8602H14.8464V11.6368H15.6308V10.8602Z" fill="#FD0505"/>
<path d="M15.6308 10.0912H14.8464V10.8602H15.6308V10.0912Z" fill="#FD0505"/>
<path d="M15.6308 9.31451H14.8464V10.0912H15.6308V9.31451Z" fill="#FD0505"/>
<path d="M15.6308 8.54565H14.8464V9.31458H15.6308V8.54565Z" fill="#FD0505"/>
<path d="M15.6308 7.76898H14.8464V8.54565H15.6308V7.76898Z" fill="#BC1830"/>
<path d="M15.6308 7H14.8464V7.76893H15.6308V7Z" fill="#0E0E11"/>
<path d="M14.8463 14.7281H14.0539V15.4971H14.8463V14.7281Z" fill="#0E0E11"/>
<path d="M14.8463 13.9514H14.0539V14.7281H14.8463V13.9514Z" fill="#BC1830"/>
<path d="M14.8463 13.1825H14.0539V13.9514H14.8463V13.1825Z" fill="#FD0505"/>
<path d="M14.8463 12.4058H14.0539V13.1825H14.8463V12.4058Z" fill="#FD0505"/>
<path d="M14.8463 11.6368H14.0539V12.4058H14.8463V11.6368Z" fill="#FD0505"/>
<path d="M14.8463 10.8602H14.0539V11.6368H14.8463V10.8602Z" fill="#FD0505"/>
<path d="M14.8463 10.0912H14.0539V10.8602H14.8463V10.0912Z" fill="#FD0505"/>
<path d="M14.8463 9.31451H14.0539V10.0912H14.8463V9.31451Z" fill="#FD0505"/>
<path d="M14.8463 8.54565H14.0539V9.31458H14.8463V8.54565Z" fill="#FD0505"/>
<path d="M14.8463 7.76898H14.0539V8.54565H14.8463V7.76898Z" fill="#BC1830"/>
<path d="M14.8464 7H14.054V7.76893H14.8464V7Z" fill="#0E0E11"/>
<path d="M14.0539 15.4971H13.2694V16.2737H14.0539V15.4971Z" fill="#0E0E11"/>
<path d="M14.0539 14.7281H13.2694V15.4971H14.0539V14.7281Z" fill="#BC1830"/>
<path d="M14.0539 13.9514H13.2694V14.7281H14.0539V13.9514Z" fill="#FD0505"/>
<path d="M14.0539 13.1825H13.2694V13.9514H14.0539V13.1825Z" fill="#FD0505"/>
<path d="M14.0539 12.4058H13.2694V13.1825H14.0539V12.4058Z" fill="#FD0505"/>
<path d="M14.0539 11.6368H13.2694V12.4058H14.0539V11.6368Z" fill="#FD0505"/>
<path d="M14.0539 10.8602H13.2694V11.6368H14.0539V10.8602Z" fill="#FD0505"/>
<path d="M14.0539 10.0912H13.2694V10.8602H14.0539V10.0912Z" fill="#FD0505"/>
<path d="M14.0539 9.31451H13.2694V10.0912H14.0539V9.31451Z" fill="#FD0505"/>
<path d="M14.0539 8.54565H13.2694V9.31458H14.0539V8.54565Z" fill="#FD0505"/>
<path d="M14.0539 7.76898H13.2694V8.54565H14.0539V7.76898Z" fill="#BC1830"/>
<path d="M14.054 7H13.2695V7.76893H14.054V7Z" fill="#0E0E11"/>
<path d="M13.2694 16.2737H12.477V17.0427H13.2694V16.2737Z" fill="#0E0E11"/>
<path d="M13.2694 15.4971H12.477V16.2737H13.2694V15.4971Z" fill="#BC1830"/>
<path d="M13.2694 14.7281H12.477V15.4971H13.2694V14.7281Z" fill="#FD0505"/>
<path d="M13.2694 13.9514H12.477V14.7281H13.2694V13.9514Z" fill="#FD0505"/>
<path d="M13.2694 13.1825H12.477V13.9514H13.2694V13.1825Z" fill="#FD0505"/>
<path d="M13.2694 12.4058H12.477V13.1825H13.2694V12.4058Z" fill="#FD0505"/>
<path d="M13.2694 11.6368H12.477V12.4058H13.2694V11.6368Z" fill="#FD0505"/>
<path d="M13.2694 10.8602H12.477V11.6368H13.2694V10.8602Z" fill="#FD0505"/>
<path d="M13.2694 10.0912H12.477V10.8602H13.2694V10.0912Z" fill="#FD0505"/>
<path d="M13.2694 9.31451H12.477V10.0912H13.2694V9.31451Z" fill="#FD0505"/>
<path d="M13.2694 8.54565H12.477V9.31458H13.2694V8.54565Z" fill="#FD0505"/>
<path d="M13.2694 7.76898H12.477V8.54565H13.2694V7.76898Z" fill="#BC1830"/>
<path d="M13.2695 7H12.4771V7.76893H13.2695V7Z" fill="#0E0E11"/>
<path d="M12.477 17.0427H11.6847V17.8194H12.477V17.0427Z" fill="#0E0E11"/>
<path d="M12.477 16.2737H11.6847V17.0427H12.477V16.2737Z" fill="#BC1830"/>
<path d="M12.477 15.4971H11.6847V16.2737H12.477V15.4971Z" fill="#FD0505"/>
<path d="M12.477 14.7281H11.6847V15.4971H12.477V14.7281Z" fill="#FD0505"/>
<path d="M12.477 13.9514H11.6847V14.7281H12.477V13.9514Z" fill="#FD0505"/>
<path d="M12.477 13.1825H11.6847V13.9514H12.477V13.1825Z" fill="#FD0505"/>
<path d="M12.477 12.4058H11.6847V13.1825H12.477V12.4058Z" fill="#FD0505"/>
<path d="M12.477 11.6368H11.6847V12.4058H12.477V11.6368Z" fill="#FD0505"/>
<path d="M12.477 10.8602H11.6847V11.6368H12.477V10.8602Z" fill="#FD0505"/>
<path d="M12.477 10.0912H11.6847V10.8602H12.477V10.0912Z" fill="#FD0505"/>
<path d="M12.477 9.31451H11.6847V10.0912H12.477V9.31451Z" fill="#FD0505"/>
<path d="M12.477 8.54565H11.6847V9.31458H12.477V8.54565Z" fill="#FD0505"/>
<path d="M12.477 7.76898H11.6847V8.54565H12.477V7.76898Z" fill="#0E0E11"/>
<path d="M11.6847 17.8194H10.9002V18.5883H11.6847V17.8194Z" fill="#0E0E11"/>
<path d="M11.6847 17.0427H10.9002V17.8194H11.6847V17.0427Z" fill="#BC1830"/>
<path d="M11.6847 16.2737H10.9002V17.0427H11.6847V16.2737Z" fill="#FD0505"/>
<path d="M11.6847 15.4971H10.9002V16.2737H11.6847V15.4971Z" fill="#FD0505"/>
<path d="M11.6847 14.7281H10.9002V15.4971H11.6847V14.7281Z" fill="#FD0505"/>
<path d="M11.6847 13.9514H10.9002V14.7281H11.6847V13.9514Z" fill="#FD0505"/>
<path d="M11.6847 13.1825H10.9002V13.9514H11.6847V13.1825Z" fill="#FD0505"/>
<path d="M11.6847 12.4058H10.9002V13.1825H11.6847V12.4058Z" fill="#FD0505"/>
<path d="M11.6847 11.6368H10.9002V12.4058H11.6847V11.6368Z" fill="#FD0505"/>
<path d="M11.6847 10.8602H10.9002V11.6368H11.6847V10.8602Z" fill="#FD0505"/>
<path d="M11.6847 10.0912H10.9002V10.8602H11.6847V10.0912Z" fill="#FD0505"/>
<path d="M11.6847 9.31451H10.9002V10.0912H11.6847V9.31451Z" fill="#FD0505"/>
<path d="M11.6847 8.54565H10.9002V9.31458H11.6847V8.54565Z" fill="#0E0E11"/>
<path d="M10.9002 18.5883H10.1078V19.3649H10.9002V18.5883Z" fill="#0E0E11"/>
<path d="M10.9002 17.8194H10.1078V18.5883H10.9002V17.8194Z" fill="#BC1830"/>
<path d="M10.9002 17.0427H10.1078V17.8194H10.9002V17.0427Z" fill="#FD0505"/>
<path d="M10.9002 16.2737H10.1078V17.0427H10.9002V16.2737Z" fill="#FD0505"/>
<path d="M10.9002 15.4971H10.1078V16.2737H10.9002V15.4971Z" fill="#FD0505"/>
<path d="M10.9002 14.7281H10.1078V15.4971H10.9002V14.7281Z" fill="#FD0505"/>
<path d="M10.9002 13.9514H10.1078V14.7281H10.9002V13.9514Z" fill="#FD0505"/>
<path d="M10.9002 13.1825H10.1078V13.9514H10.9002V13.1825Z" fill="#FD0505"/>
<path d="M10.9002 12.4058H10.1078V13.1825H10.9002V12.4058Z" fill="#FD0505"/>
<path d="M10.9002 11.6368H10.1078V12.4058H10.9002V11.6368Z" fill="#FD0505"/>
<path d="M10.9002 10.8602H10.1078V11.6368H10.9002V10.8602Z" fill="#FD0505"/>
<path d="M10.9002 10.0912H10.1078V10.8602H10.9002V10.0912Z" fill="#FD0505"/>
<path d="M10.9002 9.31451H10.1078V10.0912H10.9002V9.31451Z" fill="#0E0E11"/>
<path d="M10.1078 17.8194H9.31538V18.5883H10.1078V17.8194Z" fill="#0E0E11"/>
<path d="M10.1078 17.0427H9.31538V17.8194H10.1078V17.0427Z" fill="#BC1830"/>
<path d="M10.1078 16.2737H9.31538V17.0427H10.1078V16.2737Z" fill="#FD0505"/>
<path d="M10.1078 15.4971H9.31538V16.2737H10.1078V15.4971Z" fill="#FD0505"/>
<path d="M10.1078 14.7281H9.31538V15.4971H10.1078V14.7281Z" fill="#FD0505"/>
<path d="M10.1078 13.9514H9.31538V14.7281H10.1078V13.9514Z" fill="#FD0505"/>
<path d="M10.1078 13.1825H9.31538V13.9514H10.1078V13.1825Z" fill="#FD0505"/>
<path d="M10.1078 12.4058H9.31538V13.1825H10.1078V12.4058Z" fill="#FD0505"/>
<path d="M10.1078 11.6368H9.31538V12.4058H10.1078V11.6368Z" fill="#FD0505"/>
<path d="M10.1078 10.8602H9.31538V11.6368H10.1078V10.8602Z" fill="#FD0505"/>
<path d="M10.1078 10.0912H9.31538V10.8602H10.1078V10.0912Z" fill="#FD0505"/>
<path d="M10.1078 9.31451H9.31538V10.0912H10.1078V9.31451Z" fill="#FD0505"/>
<path d="M10.1078 8.54565H9.31538V9.31458H10.1078V8.54565Z" fill="#0E0E11"/>
<path d="M9.31541 17.0427H8.53098V17.8194H9.31541V17.0427Z" fill="#0E0E11"/>
<path d="M9.31541 16.2737H8.53098V17.0427H9.31541V16.2737Z" fill="#BC1830"/>
<path d="M9.31541 15.4971H8.53098V16.2737H9.31541V15.4971Z" fill="#FD0505"/>
<path d="M9.31541 14.7281H8.53098V15.4971H9.31541V14.7281Z" fill="#FD0505"/>
<path d="M9.31541 13.9514H8.53098V14.7281H9.31541V13.9514Z" fill="#FD0505"/>
<path d="M9.31541 13.1825H8.53098V13.9514H9.31541V13.1825Z" fill="#FD0505"/>
<path d="M9.31541 12.4058H8.53098V13.1825H9.31541V12.4058Z" fill="#FD0505"/>
<path d="M9.31541 11.6368H8.53098V12.4058H9.31541V11.6368Z" fill="#FD0505"/>
<path d="M9.31541 10.8602H8.53098V11.6368H9.31541V10.8602Z" fill="#FD0505"/>
<path d="M9.31541 10.0912H8.53098V10.8602H9.31541V10.0912Z" fill="#FD0505"/>
<path d="M9.31541 9.31451H8.53098V10.0912H9.31541V9.31451Z" fill="#FD0505"/>
<path d="M9.31541 8.54565H8.53098V9.31458H9.31541V8.54565Z" fill="#FD0505"/>
<path d="M9.31541 7.76898H8.53098V8.54565H9.31541V7.76898Z" fill="#0E0E11"/>
<path d="M8.53093 16.2737H7.73853V17.0427H8.53093V16.2737Z" fill="#0E0E11"/>
<path d="M8.53093 15.4971H7.73853V16.2737H8.53093V15.4971Z" fill="#FD0505"/>
<path d="M8.53093 14.7281H7.73853V15.4971H8.53093V14.7281Z" fill="#FD0505"/>
<path d="M8.53093 13.9514H7.73853V14.7281H8.53093V13.9514Z" fill="#FD0505"/>
<path d="M8.53093 13.1825H7.73853V13.9514H8.53093V13.1825Z" fill="#FD0505"/>
<path d="M8.53093 12.4058H7.73853V13.1825H8.53093V12.4058Z" fill="#FD0505"/>
<path d="M8.53093 11.6368H7.73853V12.4058H8.53093V11.6368Z" fill="#FD0505"/>
<path d="M8.53093 10.8602H7.73853V11.6368H8.53093V10.8602Z" fill="#FD0505"/>
<path d="M8.53093 10.0912H7.73853V10.8602H8.53093V10.0912Z" fill="#FD0505"/>
<path d="M8.53093 9.31451H7.73853V10.0912H8.53093V9.31451Z" fill="#FD0505"/>
<path d="M8.53093 8.54565H7.73853V9.31458H8.53093V8.54565Z" fill="#FD0505"/>
<path d="M8.53093 7.76898H7.73853V8.54565H8.53093V7.76898Z" fill="#FD0505"/>
<path d="M8.53093 7H7.73853V7.76893H8.53093V7Z" fill="#0E0E11"/>
<path d="M7.73853 15.4971H6.94617V16.2737H7.73853V15.4971Z" fill="#0E0E11"/>
<path d="M7.73853 14.7281H6.94617V15.4971H7.73853V14.7281Z" fill="#FD0505"/>
<path d="M7.73853 13.9514H6.94617V14.7281H7.73853V13.9514Z" fill="#FD0505"/>
<path d="M7.73853 13.1825H6.94617V13.9514H7.73853V13.1825Z" fill="#FD0505"/>
<path d="M7.73853 12.4058H6.94617V13.1825H7.73853V12.4058Z" fill="#FD0505"/>
<path d="M7.73853 11.6368H6.94617V12.4058H7.73853V11.6368Z" fill="#FD0505"/>
<path d="M7.73853 10.8602H6.94617V11.6368H7.73853V10.8602Z" fill="#FD0505"/>
<path d="M7.73853 10.0912H6.94617V10.8602H7.73853V10.0912Z" fill="#FD0505"/>
<path d="M7.73853 9.31451H6.94617V10.0912H7.73853V9.31451Z" fill="white"/>
<path d="M7.73853 8.54565H6.94617V9.31458H7.73853V8.54565Z" fill="#FD0505"/>
<path d="M7.73853 7.76898H6.94617V8.54565H7.73853V7.76898Z" fill="#FD0505"/>
<path d="M7.73853 7H6.94617V7.76893H7.73853V7Z" fill="#0E0E11"/>
<path d="M6.94617 14.7281H6.16167V15.4971H6.94617V14.7281Z" fill="#0E0E11"/>
<path d="M6.94617 13.9514H6.16167V14.7281H6.94617V13.9514Z" fill="#FD0505"/>
<path d="M6.94617 13.1825H6.16167V13.9514H6.94617V13.1825Z" fill="#FD0505"/>
<path d="M6.94617 12.4058H6.16167V13.1825H6.94617V12.4058Z" fill="#FD0505"/>
<path d="M6.94617 11.6368H6.16167V12.4058H6.94617V11.6368Z" fill="#FD0505"/>
<path d="M6.94617 10.8602H6.16167V11.6368H6.94617V10.8602Z" fill="#FD0505"/>
<path d="M6.94617 10.0912H6.16167V10.8602H6.94617V10.0912Z" fill="white"/>
<path d="M6.94617 9.31451H6.16167V10.0912H6.94617V9.31451Z" fill="white"/>
<path d="M6.94617 8.54565H6.16167V9.31458H6.94617V8.54565Z" fill="#FD0505"/>
<path d="M6.94617 7.76898H6.16167V8.54565H6.94617V7.76898Z" fill="#FD0505"/>
<path d="M6.94617 7H6.16167V7.76893H6.94617V7Z" fill="#0E0E11"/>
<path d="M6.16168 13.9514H5.36931V14.7281H6.16168V13.9514Z" fill="#0E0E11"/>
<path d="M6.16168 13.1825H5.36931V13.9514H6.16168V13.1825Z" fill="#FD0505"/>
<path d="M6.16168 12.4058H5.36931V13.1825H6.16168V12.4058Z" fill="#FD0505"/>
<path d="M6.16168 11.6368H5.36931V12.4058H6.16168V11.6368Z" fill="#FD0505"/>
<path d="M6.16168 10.8602H5.36931V11.6368H6.16168V10.8602Z" fill="white"/>
<path d="M6.16168 10.0912H5.36931V10.8602H6.16168V10.0912Z" fill="white"/>
<path d="M6.16168 9.31451H5.36931V10.0912H6.16168V9.31451Z" fill="#FD0505"/>
<path d="M6.16168 8.54565H5.36931V9.31458H6.16168V8.54565Z" fill="#FD0505"/>
<path d="M6.16168 7.76898H5.36931V8.54565H6.16168V7.76898Z" fill="#FD0505"/>
<path d="M6.16168 7H5.36931V7.76893H6.16168V7Z" fill="#0E0E11"/>
<path d="M5.36924 13.1825H4.58473V13.9514H5.36924V13.1825Z" fill="#0E0E11"/>
<path d="M5.36924 12.4058H4.58473V13.1825H5.36924V12.4058Z" fill="#FD0505"/>
<path d="M5.36924 11.6368H4.58473V12.4058H5.36924V11.6368Z" fill="#FD0505"/>
<path d="M5.36924 10.8602H4.58473V11.6368H5.36924V10.8602Z" fill="#FD0505"/>
<path d="M5.36924 10.0912H4.58473V10.8602H5.36924V10.0912Z" fill="#FD0505"/>
<path d="M5.36924 9.31451H4.58473V10.0912H5.36924V9.31451Z" fill="#FD0505"/>
<path d="M5.36924 8.54565H4.58473V9.31458H5.36924V8.54565Z" fill="#FD0505"/>
<path d="M5.36924 7.76898H4.58473V8.54565H5.36924V7.76898Z" fill="#0E0E11"/>
<path d="M4.58482 12.4058H3.79245V13.1825H4.58482V12.4058Z" fill="#0E0E11"/>
<path d="M4.58482 11.6368H3.79245V12.4058H4.58482V11.6368Z" fill="#FD0505"/>
<path d="M4.58482 10.8602H3.79245V11.6368H4.58482V10.8602Z" fill="#FD0505"/>
<path d="M4.58482 10.0912H3.79245V10.8602H4.58482V10.0912Z" fill="#FD0505"/>
<path d="M4.58482 9.31451H3.79245V10.0912H4.58482V9.31451Z" fill="#FD0505"/>
<path d="M4.58482 8.54565H3.79245V9.31458H4.58482V8.54565Z" fill="#0E0E11"/>
<path d="M3.79236 11.6368H3V12.4058H3.79236V11.6368Z" fill="#0E0E11"/>
<path d="M3.79236 10.8602H3V11.6368H3.79236V10.8602Z" fill="#0E0E11"/>
<path d="M3.79236 10.0912H3V10.8602H3.79236V10.0912Z" fill="#0E0E11"/>
<path d="M3.79236 9.31451H3V10.0912H3.79236V9.31451Z" fill="#0E0E11"/>
</svg>
