<svg width="44" height="44" viewBox="0 0 44 44" fill="none" xmlns="http://www.w3.org/2000/svg">
<path d="M18.13 10.1584H15.5327V12.6789H18.13V10.1584Z" fill="#4CC9FF"/>
<path d="M15.5324 12.6787H12.9351V15.2247H15.5324V12.6787Z" fill="#4CC9FF"/>
<path d="M18.13 15.2245H15.5327V17.745H18.13V15.2245Z" fill="#4CC9FF"/>
<path d="M44.0001 20.291H41.4028V22.8115H44.0001V20.291Z" fill="#0E0E11"/>
<path d="M44.0001 17.7452H41.4028V20.2911H44.0001V17.7452Z" fill="#0E0E11"/>
<path d="M44.0001 15.2245H41.4028V17.745H44.0001V15.2245Z" fill="#0E0E11"/>
<path d="M44.0001 12.6787H41.4028V15.2247H44.0001V12.6787Z" fill="#0E0E11"/>
<path d="M44.0001 10.1584H41.4028V12.6789H44.0001V10.1584Z" fill="#0E0E11"/>
<path d="M41.4024 22.8115H38.8311V25.3574H41.4024V22.8115Z" fill="#0E0E11"/>
<path d="M41.4024 20.291H38.8311V22.8115H41.4024V20.291Z" fill="#1FA1ED"/>
<path d="M41.4024 17.7452H38.8311V20.2911H41.4024V17.7452Z" fill="#1FA1ED"/>
<path d="M41.4024 15.2245H38.8311V17.745H41.4024V15.2245Z" fill="#4CC9FF"/>
<path d="M41.4024 12.6787H38.8311V15.2247H41.4024V12.6787Z" fill="#4CC9FF"/>
<path d="M41.4024 10.1584H38.8311V12.6789H41.4024V10.1584Z" fill="#A4FFED"/>
<path d="M41.4024 7.6123H38.8311V10.1583H41.4024V7.6123Z" fill="#0E0E11"/>
<path d="M38.8316 25.3575H36.2341V27.878H38.8316V25.3575Z" fill="#0E0E11"/>
<path d="M38.8316 22.8115H36.2341V25.3574H38.8316V22.8115Z" fill="#1FA1ED"/>
<path d="M38.8316 20.291H36.2341V22.8115H38.8316V20.291Z" fill="#4CC9FF"/>
<path d="M38.8316 17.7452H36.2341V20.2911H38.8316V17.7452Z" fill="#4CC9FF"/>
<path d="M38.8316 15.2245H36.2341V17.745H38.8316V15.2245Z" fill="#4CC9FF"/>
<path d="M38.8316 12.6787H36.2341V15.2247H38.8316V12.6787Z" fill="#4CC9FF"/>
<path d="M38.8316 10.1584H36.2341V12.6789H38.8316V10.1584Z" fill="#A4FFED"/>
<path d="M38.8316 7.6123H36.2341V10.1583H38.8316V7.6123Z" fill="#4CC9FF"/>
<path d="M38.8316 5.06628H36.2341V7.61224H38.8316V5.06628Z" fill="#0E0E11"/>
<path d="M36.2337 27.8781H33.6624V30.4239H36.2337V27.8781Z" fill="#0E0E11"/>
<path d="M36.2337 25.3575H33.6624V27.878H36.2337V25.3575Z" fill="#1FA1ED"/>
<path d="M36.2337 22.8115H33.6624V25.3574H36.2337V22.8115Z" fill="#A4FFED"/>
<path d="M36.2337 20.291H33.6624V22.8115H36.2337V20.291Z" fill="#4CC9FF"/>
<path d="M36.2337 17.7452H33.6624V20.2911H36.2337V17.7452Z" fill="#4CC9FF"/>
<path d="M36.2337 15.2245H33.6624V17.745H36.2337V15.2245Z" fill="#4CC9FF"/>
<path d="M36.2337 12.6787H33.6624V15.2247H36.2337V12.6787Z" fill="#A4FFED"/>
<path d="M36.2337 10.1584H33.6624V12.6789H36.2337V10.1584Z" fill="#4CC9FF"/>
<path d="M36.2337 7.6123H33.6624V10.1583H36.2337V7.6123Z" fill="#4CC9FF"/>
<path d="M36.2337 5.06628H33.6624V7.61224H36.2337V5.06628Z" fill="#4CC9FF"/>
<path d="M36.2337 2.54602H33.6624V5.06637H36.2337V2.54602Z" fill="#0E0E11"/>
<path d="M33.6623 30.424H31.0647V32.9444H33.6623V30.424Z" fill="#0E0E11"/>
<path d="M33.6623 27.8781H31.0647V30.4239H33.6623V27.8781Z" fill="#1FA1ED"/>
<path d="M33.6623 25.3575H31.0647V27.878H33.6623V25.3575Z" fill="#4CC9FF"/>
<path d="M33.6623 22.8115H31.0647V25.3574H33.6623V22.8115Z" fill="#4CC9FF"/>
<path d="M33.6623 20.291H31.0647V22.8115H33.6623V20.291Z" fill="#A4FFED"/>
<path d="M33.6623 17.7452H31.0647V20.2911H33.6623V17.7452Z" fill="#A4FFED"/>
<path d="M33.6623 15.2245H31.0647V17.745H33.6623V15.2245Z" fill="#4CC9FF"/>
<path d="M33.6623 12.6787H31.0647V15.2247H33.6623V12.6787Z" fill="#A4FFED"/>
<path d="M33.6623 10.1584H31.0647V12.6789H33.6623V10.1584Z" fill="#4CC9FF"/>
<path d="M33.6623 7.6123H31.0647V10.1583H33.6623V7.6123Z" fill="#4CC9FF"/>
<path d="M33.6623 5.06628H31.0647V7.61224H33.6623V5.06628Z" fill="#4CC9FF"/>
<path d="M33.6623 2.54602H31.0647V5.06637H33.6623V2.54602Z" fill="#A4FFED"/>
<path d="M33.6623 0H31.0647V2.54596H33.6623V0Z" fill="#0E0E11"/>
<path d="M31.0646 32.9445H28.4673V35.4903H31.0646V32.9445Z" fill="#0E0E11"/>
<path d="M31.0646 30.424H28.4673V32.9444H31.0646V30.424Z" fill="#1FA1ED"/>
<path d="M31.0646 27.8781H28.4673V30.4239H31.0646V27.8781Z" fill="#4CC9FF"/>
<path d="M31.0646 25.3575H28.4673V27.878H31.0646V25.3575Z" fill="#4CC9FF"/>
<path d="M31.0646 22.8115H28.4673V25.3574H31.0646V22.8115Z" fill="#A4FFED"/>
<path d="M31.0646 20.291H28.4673V22.8115H31.0646V20.291Z" fill="#4CC9FF"/>
<path d="M31.0646 17.7452H28.4673V20.2911H31.0646V17.7452Z" fill="#4CC9FF"/>
<path d="M31.0646 15.2245H28.4673V17.745H31.0646V15.2245Z" fill="#A4FFED"/>
<path d="M31.0646 12.6787H28.4673V15.2247H31.0646V12.6787Z" fill="#4CC9FF"/>
<path d="M31.0646 10.1584H28.4673V12.6789H31.0646V10.1584Z" fill="#4CC9FF"/>
<path d="M31.0646 7.6123H28.4673V10.1583H31.0646V7.6123Z" fill="#4CC9FF"/>
<path d="M31.0646 5.06628H28.4673V7.61224H31.0646V5.06628Z" fill="#A4FFED"/>
<path d="M31.0646 2.54602H28.4673V5.06637H31.0646V2.54602Z" fill="white"/>
<path d="M31.0646 0H28.4673V2.54596H31.0646V0Z" fill="#0E0E11"/>
<path d="M28.4674 35.4902H25.896V38.0107H28.4674V35.4902Z" fill="#0E0E11"/>
<path d="M28.4674 32.9445H25.896V35.4903H28.4674V32.9445Z" fill="#1FA1ED"/>
<path d="M28.4674 30.424H25.896V32.9444H28.4674V30.424Z" fill="#4CC9FF"/>
<path d="M28.4674 27.8781H25.896V30.4239H28.4674V27.8781Z" fill="#4CC9FF"/>
<path d="M28.4674 25.3575H25.896V27.878H28.4674V25.3575Z" fill="#A4FFED"/>
<path d="M28.4674 22.8115H25.896V25.3574H28.4674V22.8115Z" fill="#4CC9FF"/>
<path d="M28.4674 20.291H25.896V22.8115H28.4674V20.291Z" fill="#4CC9FF"/>
<path d="M28.4674 17.7452H25.896V20.2911H28.4674V17.7452Z" fill="#4CC9FF"/>
<path d="M28.4674 15.2245H25.896V17.745H28.4674V15.2245Z" fill="#4CC9FF"/>
<path d="M28.4674 12.6787H25.896V15.2247H28.4674V12.6787Z" fill="#A4FFED"/>
<path d="M28.4674 10.1584H25.896V12.6789H28.4674V10.1584Z" fill="#4CC9FF"/>
<path d="M28.4674 7.6123H25.896V10.1583H28.4674V7.6123Z" fill="#A4FFED"/>
<path d="M28.4674 5.06628H25.896V7.61224H28.4674V5.06628Z" fill="#4CC9FF"/>
<path d="M28.4674 2.54602H25.896V5.06637H28.4674V2.54602Z" fill="white"/>
<path d="M28.4674 0H25.896V2.54596H28.4674V0Z" fill="#0E0E11"/>
<path d="M25.896 38.0107H23.2986V40.5567H25.896V38.0107Z" fill="#0E0E11"/>
<path d="M25.896 35.4902H23.2986V38.0107H25.896V35.4902Z" fill="#1FA1ED"/>
<path d="M25.896 32.9445H23.2986V35.4903H25.896V32.9445Z" fill="#4CC9FF"/>
<path d="M25.896 30.424H23.2986V32.9444H25.896V30.424Z" fill="#4CC9FF"/>
<path d="M25.896 27.8781H23.2986V30.4239H25.896V27.8781Z" fill="#A4FFED"/>
<path d="M25.896 25.3575H23.2986V27.878H25.896V25.3575Z" fill="#4CC9FF"/>
<path d="M25.896 22.8115H23.2986V25.3574H25.896V22.8115Z" fill="#4CC9FF"/>
<path d="M25.896 20.291H23.2986V22.8115H25.896V20.291Z" fill="#4CC9FF"/>
<path d="M25.896 17.7452H23.2986V20.2911H25.896V17.7452Z" fill="#4CC9FF"/>
<path d="M25.896 15.2245H23.2986V17.745H25.896V15.2245Z" fill="#4CC9FF"/>
<path d="M25.896 12.6787H23.2986V15.2247H25.896V12.6787Z" fill="#4CC9FF"/>
<path d="M25.896 10.1584H23.2986V12.6789H25.896V10.1584Z" fill="#A4FFED"/>
<path d="M25.896 7.6123H23.2986V10.1583H25.896V7.6123Z" fill="white"/>
<path d="M25.896 5.06628H23.2986V7.61224H25.896V5.06628Z" fill="#4CC9FF"/>
<path d="M25.896 2.54602H23.2986V5.06637H25.896V2.54602Z" fill="white"/>
<path d="M25.896 0H23.2986V2.54596H25.896V0Z" fill="#0E0E11"/>
<path d="M23.2987 40.5568H20.7014V43.0772H23.2987V40.5568Z" fill="#0E0E11"/>
<path d="M23.2987 38.0107H20.7014V40.5567H23.2987V38.0107Z" fill="#A4FFED"/>
<path d="M23.2987 35.4902H20.7014V38.0107H23.2987V35.4902Z" fill="#A4FFED"/>
<path d="M23.2987 32.9445H20.7014V35.4903H23.2987V32.9445Z" fill="#A4FFED"/>
<path d="M23.2987 30.424H20.7014V32.9444H23.2987V30.424Z" fill="#A4FFED"/>
<path d="M23.2987 27.8781H20.7014V30.4239H23.2987V27.8781Z" fill="#4CC9FF"/>
<path d="M23.2987 25.3575H20.7014V27.878H23.2987V25.3575Z" fill="#4CC9FF"/>
<path d="M23.2987 22.8115H20.7014V25.3574H23.2987V22.8115Z" fill="#4CC9FF"/>
<path d="M23.2987 20.291H20.7014V22.8115H23.2987V20.291Z" fill="#4CC9FF"/>
<path d="M23.2987 17.7452H20.7014V20.2911H23.2987V17.7452Z" fill="#4CC9FF"/>
<path d="M23.2987 15.2245H20.7014V17.745H23.2987V15.2245Z" fill="#4CC9FF"/>
<path d="M23.2987 12.6787H20.7014V15.2247H23.2987V12.6787Z" fill="#4CC9FF"/>
<path d="M23.2987 10.1584H20.7014V12.6789H23.2987V10.1584Z" fill="#A4FFED"/>
<path d="M23.2987 7.6123H20.7014V10.1583H23.2987V7.6123Z" fill="white"/>
<path d="M23.2987 5.06628H20.7014V7.61224H23.2987V5.06628Z" fill="#4CC9FF"/>
<path d="M23.2987 2.54602H20.7014V5.06637H23.2987V2.54602Z" fill="white"/>
<path d="M23.2987 0H20.7014V2.54596H23.2987V0Z" fill="#0E0E11"/>
<path d="M20.7015 38.0107H18.1301V40.5567H20.7015V38.0107Z" fill="#0E0E11"/>
<path d="M20.7015 35.4902H18.1301V38.0107H20.7015V35.4902Z" fill="#1FA1ED"/>
<path d="M20.7015 32.9445H18.1301V35.4903H20.7015V32.9445Z" fill="#4CC9FF"/>
<path d="M20.7015 30.424H18.1301V32.9444H20.7015V30.424Z" fill="#4CC9FF"/>
<path d="M20.7015 27.8781H18.1301V30.4239H20.7015V27.8781Z" fill="#A4FFED"/>
<path d="M20.7015 25.3575H18.1301V27.878H20.7015V25.3575Z" fill="#4CC9FF"/>
<path d="M20.7015 22.8115H18.1301V25.3574H20.7015V22.8115Z" fill="#4CC9FF"/>
<path d="M20.7015 20.291H18.1301V22.8115H20.7015V20.291Z" fill="#4CC9FF"/>
<path d="M20.7015 17.7452H18.1301V20.2911H20.7015V17.7452Z" fill="#4CC9FF"/>
<path d="M20.7015 15.2245H18.1301V17.745H20.7015V15.2245Z" fill="white"/>
<path d="M20.7015 12.6787H18.1301V15.2247H20.7015V12.6787Z" fill="#4CC9FF"/>
<path d="M20.7015 10.1584H18.1301V12.6789H20.7015V10.1584Z" fill="#A4FFED"/>
<path d="M20.7015 7.6123H18.1301V10.1583H20.7015V7.6123Z" fill="white"/>
<path d="M20.7015 5.06628H18.1301V7.61224H20.7015V5.06628Z" fill="#4CC9FF"/>
<path d="M20.7015 2.54602H18.1301V5.06637H20.7015V2.54602Z" fill="white"/>
<path d="M20.7015 0H18.1301V2.54596H20.7015V0Z" fill="#0E0E11"/>
<path d="M18.13 35.4902H15.5327V38.0107H18.13V35.4902Z" fill="#0E0E11"/>
<path d="M18.13 32.9445H15.5327V35.4903H18.13V32.9445Z" fill="#1FA1ED"/>
<path d="M18.13 30.424H15.5327V32.9444H18.13V30.424Z" fill="#4CC9FF"/>
<path d="M18.13 27.8781H15.5327V30.4239H18.13V27.8781Z" fill="#4CC9FF"/>
<path d="M18.13 25.3575H15.5327V27.878H18.13V25.3575Z" fill="#A4FFED"/>
<path d="M18.13 22.8115H15.5327V25.3574H18.13V22.8115Z" fill="#4CC9FF"/>
<path d="M18.13 20.291H15.5327V22.8115H18.13V20.291Z" fill="#4CC9FF"/>
<path d="M18.13 17.7452H15.5327V20.2911H18.13V17.7452Z" fill="white"/>
<path d="M18.13 12.6787H15.5327V15.2247H18.13V12.6787Z" fill="#A4FFED"/>
<path d="M18.13 7.6123H15.5327V10.1583H18.13V7.6123Z" fill="#A4FFED"/>
<path d="M18.13 5.06628H15.5327V7.61224H18.13V5.06628Z" fill="#4CC9FF"/>
<path d="M18.13 2.54602H15.5327V5.06637H18.13V2.54602Z" fill="white"/>
<path d="M18.13 0H15.5327V2.54596H18.13V0Z" fill="#0E0E11"/>
<path d="M15.5324 32.9445H12.9351V35.4903H15.5324V32.9445Z" fill="#0E0E11"/>
<path d="M15.5324 30.424H12.9351V32.9444H15.5324V30.424Z" fill="#1FA1ED"/>
<path d="M15.5324 27.8781H12.9351V30.4239H15.5324V27.8781Z" fill="#4CC9FF"/>
<path d="M15.5324 25.3575H12.9351V27.878H15.5324V25.3575Z" fill="#4CC9FF"/>
<path d="M15.5324 22.8115H12.9351V25.3574H15.5324V22.8115Z" fill="#A4FFED"/>
<path d="M15.5324 20.291H12.9351V22.8115H15.5324V20.291Z" fill="#4CC9FF"/>
<path d="M15.5324 17.7452H12.9351V20.2911H15.5324V17.7452Z" fill="#4CC9FF"/>
<path d="M15.5324 15.2245H12.9351V17.745H15.5324V15.2245Z" fill="#A4FFED"/>
<path d="M15.5324 10.1584H12.9351V12.6789H15.5324V10.1584Z" fill="white"/>
<path d="M15.5324 7.6123H12.9351V10.1583H15.5324V7.6123Z" fill="#4CC9FF"/>
<path d="M15.5324 5.06628H12.9351V7.61224H15.5324V5.06628Z" fill="#A4FFED"/>
<path d="M15.5324 2.54602H12.9351V5.06637H15.5324V2.54602Z" fill="white"/>
<path d="M15.5324 0H12.9351V2.54596H15.5324V0Z" fill="#0E0E11"/>
<path d="M12.9353 30.424H10.3638V32.9444H12.9353V30.424Z" fill="#0E0E11"/>
<path d="M12.9353 27.8781H10.3638V30.4239H12.9353V27.8781Z" fill="#1FA1ED"/>
<path d="M12.9353 25.3575H10.3638V27.878H12.9353V25.3575Z" fill="#4CC9FF"/>
<path d="M12.9353 22.8115H10.3638V25.3574H12.9353V22.8115Z" fill="#4CC9FF"/>
<path d="M12.9353 20.291H10.3638V22.8115H12.9353V20.291Z" fill="#A4FFED"/>
<path d="M12.9353 17.7452H10.3638V20.2911H12.9353V17.7452Z" fill="#A4FFED"/>
<path d="M12.9353 15.2245H10.3638V17.745H12.9353V15.2245Z" fill="white"/>
<path d="M12.9353 12.6787H10.3638V15.2247H12.9353V12.6787Z" fill="#A4FFED"/>
<path d="M12.9353 10.1584H10.3638V12.6789H12.9353V10.1584Z" fill="#4CC9FF"/>
<path d="M12.9353 7.6123H10.3638V10.1583H12.9353V7.6123Z" fill="#4CC9FF"/>
<path d="M12.9353 5.06628H10.3638V7.61224H12.9353V5.06628Z" fill="#4CC9FF"/>
<path d="M12.9353 2.54602H10.3638V5.06637H12.9353V2.54602Z" fill="#A4FFED"/>
<path d="M12.9353 0H10.3638V2.54596H12.9353V0Z" fill="#0E0E11"/>
<path d="M10.3637 27.8781H7.76636V30.4239H10.3637V27.8781Z" fill="#0E0E11"/>
<path d="M10.3637 25.3575H7.76636V27.878H10.3637V25.3575Z" fill="#4CC9FF"/>
<path d="M10.3637 22.8115H7.76636V25.3574H10.3637V22.8115Z" fill="#A4FFED"/>
<path d="M10.3637 20.291H7.76636V22.8115H10.3637V20.291Z" fill="white"/>
<path d="M10.3637 17.7452H7.76636V20.2911H10.3637V17.7452Z" fill="white"/>
<path d="M10.3637 15.2245H7.76636V17.745H10.3637V15.2245Z" fill="#4CC9FF"/>
<path d="M10.3637 12.6787H7.76636V15.2247H10.3637V12.6787Z" fill="#A4FFED"/>
<path d="M10.3637 10.1584H7.76636V12.6789H10.3637V10.1584Z" fill="#4CC9FF"/>
<path d="M10.3637 7.6123H7.76636V10.1583H10.3637V7.6123Z" fill="#4CC9FF"/>
<path d="M10.3637 5.06628H7.76636V7.61224H10.3637V5.06628Z" fill="white"/>
<path d="M10.3637 2.54602H7.76636V5.06637H10.3637V2.54602Z" fill="#0E0E11"/>
<path d="M7.76622 25.3575H5.19482V27.878H7.76622V25.3575Z" fill="#0E0E11"/>
<path d="M7.76622 22.8115H5.19482V25.3574H7.76622V22.8115Z" fill="#4CC9FF"/>
<path d="M7.76622 20.291H5.19482V22.8115H7.76622V20.291Z" fill="#4CC9FF"/>
<path d="M7.76622 17.7452H5.19482V20.2911H7.76622V17.7452Z" fill="#4CC9FF"/>
<path d="M7.76622 15.2245H5.19482V17.745H7.76622V15.2245Z" fill="#4CC9FF"/>
<path d="M7.76622 12.6787H5.19482V15.2247H7.76622V12.6787Z" fill="#4CC9FF"/>
<path d="M7.76622 10.1584H5.19482V12.6789H7.76622V10.1584Z" fill="#A4FFED"/>
<path d="M7.76622 7.6123H5.19482V10.1583H7.76622V7.6123Z" fill="white"/>
<path d="M7.76622 5.06628H5.19482V7.61224H7.76622V5.06628Z" fill="#0E0E11"/>
<path d="M5.19471 22.8115H2.59741V25.3574H5.19471V22.8115Z" fill="#0E0E11"/>
<path d="M5.19471 20.291H2.59741V22.8115H5.19471V20.291Z" fill="white"/>
<path d="M5.19471 17.7452H2.59741V20.2911H5.19471V17.7452Z" fill="white"/>
<path d="M5.19471 15.2245H2.59741V17.745H5.19471V15.2245Z" fill="white"/>
<path d="M5.19471 12.6787H2.59741V15.2247H5.19471V12.6787Z" fill="white"/>
<path d="M5.19471 10.1584H2.59741V12.6789H5.19471V10.1584Z" fill="#A4FFED"/>
<path d="M5.19471 7.6123H2.59741V10.1583H5.19471V7.6123Z" fill="#0E0E11"/>
<path d="M2.59756 20.291H0V22.8115H2.59756V20.291Z" fill="#0E0E11"/>
<path d="M2.59756 17.7452H0V20.2911H2.59756V17.7452Z" fill="#0E0E11"/>
<path d="M2.59756 15.2245H0V17.745H2.59756V15.2245Z" fill="#0E0E11"/>
<path d="M2.59756 12.6787H0V15.2247H2.59756V12.6787Z" fill="#0E0E11"/>
<path d="M2.59756 10.1584H0V12.6789H2.59756V10.1584Z" fill="#0E0E11"/>
</svg>
