<svg width="21" height="21" viewBox="0 0 21 21" fill="none" xmlns="http://www.w3.org/2000/svg">
<path d="M16 16.6293H15.159V17.4997H16V16.6293Z" fill="#0E0E11"/>
<path d="M16 15.7499H15.159V16.6293H16V15.7499Z" fill="#0E0E11"/>
<path d="M16 14.8794H15.159V15.7499H16V14.8794Z" fill="#0E0E11"/>
<path d="M16 14H15.159V14.8794H16V14Z" fill="#0E0E11"/>
<path d="M15.1595 18.3796H14.3099V19.2501H15.1595V18.3796Z" fill="#0E0E11"/>
<path d="M15.1595 17.5002H14.3099V18.3797H15.1595V17.5002Z" fill="#0E0E11"/>
<path d="M15.1595 16.6293H14.3099V17.4997H15.1595V16.6293Z" fill="#E6E6E6"/>
<path d="M15.1595 15.7499H14.3099V16.6293H15.1595V15.7499Z" fill="#E6E6E6"/>
<path d="M15.1595 14.8794H14.3099V15.7499H15.1595V14.8794Z" fill="#E6E6E6"/>
<path d="M15.1595 14H14.3099V14.8794H15.1595V14Z" fill="#E6E6E6"/>
<path d="M15.1595 13.1295H14.3099V14H15.1595V13.1295Z" fill="#0E0E11"/>
<path d="M15.1595 12.2501H14.3099V13.1295H15.1595V12.2501Z" fill="#0E0E11"/>
<path d="M14.3099 19.2501H13.4602V20.1295H14.3099V19.2501Z" fill="#0E0E11"/>
<path d="M14.3099 18.3796H13.4602V19.2501H14.3099V18.3796Z" fill="#E6E6E6"/>
<path d="M14.3099 17.5002H13.4602V18.3797H14.3099V17.5002Z" fill="#E6E6E6"/>
<path d="M14.3099 16.6293H13.4602V17.4997H14.3099V16.6293Z" fill="#00B933"/>
<path d="M14.3099 15.7499H13.4602V16.6293H14.3099V15.7499Z" fill="#00B933"/>
<path d="M14.3099 14.8794H13.4602V15.7499H14.3099V14.8794Z" fill="#00B933"/>
<path d="M14.3099 14H13.4602V14.8794H14.3099V14Z" fill="#00B933"/>
<path d="M14.3099 13.1295H13.4602V14H14.3099V13.1295Z" fill="#E6E6E6"/>
<path d="M14.3099 12.2501H13.4602V13.1295H14.3099V12.2501Z" fill="#E6E6E6"/>
<path d="M14.3099 11.3796H13.4602V12.2501H14.3099V11.3796Z" fill="#0E0E11"/>
<path d="M14.3099 4.37073H13.4602V5.25014H14.3099V4.37073Z" fill="#00B933"/>
<path d="M14.3099 0.870483H13.4602V1.7499H14.3099V0.870483Z" fill="#00B933"/>
<path d="M13.4602 19.2501H12.6193V20.1295H13.4602V19.2501Z" fill="#0E0E11"/>
<path d="M13.4602 18.3796H12.6193V19.2501H13.4602V18.3796Z" fill="#E6E6E6"/>
<path d="M13.4602 17.5002H12.6193V18.3797H13.4602V17.5002Z" fill="#00B933"/>
<path d="M13.4602 16.6293H12.6193V17.4997H13.4602V16.6293Z" fill="#00B933"/>
<path d="M13.4602 15.7499H12.6193V16.6293H13.4602V15.7499Z" fill="#00B933"/>
<path d="M13.4602 14.8794H12.6193V15.7499H13.4602V14.8794Z" fill="#00B933"/>
<path d="M13.4602 14H12.6193V14.8794H13.4602V14Z" fill="#00B933"/>
<path d="M13.4602 13.1295H12.6193V14H13.4602V13.1295Z" fill="white"/>
<path d="M13.4602 12.2501H12.6193V13.1295H13.4602V12.2501Z" fill="#E6E6E6"/>
<path d="M13.4602 11.3796H12.6193V12.2501H13.4602V11.3796Z" fill="#0E0E11"/>
<path d="M13.4602 7H12.6193V7.87048H13.4602V7Z" fill="#0E0E11"/>
<path d="M12.6197 20.1295H11.7701V21H12.6197V20.1295Z" fill="#0E0E11"/>
<path d="M12.6197 19.2501H11.7701V20.1295H12.6197V19.2501Z" fill="#E6E6E6"/>
<path d="M12.6197 18.3796H11.7701V19.2501H12.6197V18.3796Z" fill="#00B933"/>
<path d="M12.6197 17.5002H11.7701V18.3797H12.6197V17.5002Z" fill="#00B933"/>
<path d="M12.6197 16.6293H11.7701V17.4997H12.6197V16.6293Z" fill="#00B933"/>
<path d="M12.6197 15.7499H11.7701V16.6293H12.6197V15.7499Z" fill="#00B933"/>
<path d="M12.6197 14.8794H11.7701V15.7499H12.6197V14.8794Z" fill="#00B933"/>
<path d="M12.6197 14H11.7701V14.8794H12.6197V14Z" fill="#00B933"/>
<path d="M12.6197 13.1295H11.7701V14H12.6197V13.1295Z" fill="white"/>
<path d="M12.6197 12.2501H11.7701V13.1295H12.6197V12.2501Z" fill="white"/>
<path d="M12.6197 11.3796H11.7701V12.2501H12.6197V11.3796Z" fill="#E6E6E6"/>
<path d="M12.6197 10.5002H11.7701V11.3796H12.6197V10.5002Z" fill="#0E0E11"/>
<path d="M12.6197 9.62927H11.7701V10.4997H12.6197V9.62927Z" fill="#0E0E11"/>
<path d="M12.6197 8.74988H11.7701V9.62929H12.6197V8.74988Z" fill="#0E0E11"/>
<path d="M12.6197 7.87048H11.7701V8.7499H12.6197V7.87048Z" fill="#0E0E11"/>
<path d="M12.6197 7H11.7701V7.87048H12.6197V7Z" fill="#E6E6E6"/>
<path d="M12.6197 6.12061H11.7701V7.00002H12.6197V6.12061Z" fill="#0E0E11"/>
<path d="M11.7701 20.1295H10.9205V21H11.7701V20.1295Z" fill="#0E0E11"/>
<path d="M11.7701 19.2501H10.9205V20.1295H11.7701V19.2501Z" fill="#E6E6E6"/>
<path d="M11.7701 18.3796H10.9205V19.2501H11.7701V18.3796Z" fill="#00B933"/>
<path d="M11.7701 17.5002H10.9205V18.3797H11.7701V17.5002Z" fill="#00B933"/>
<path d="M11.7701 16.6293H10.9205V17.4997H11.7701V16.6293Z" fill="#00B933"/>
<path d="M11.7701 15.7499H10.9205V16.6293H11.7701V15.7499Z" fill="#00B933"/>
<path d="M11.7701 14.8794H10.9205V15.7499H11.7701V14.8794Z" fill="#00B933"/>
<path d="M11.7701 14H10.9205V14.8794H11.7701V14Z" fill="#00B933"/>
<path d="M11.7701 13.1295H10.9205V14H11.7701V13.1295Z" fill="white"/>
<path d="M11.7701 12.2501H10.9205V13.1295H11.7701V12.2501Z" fill="white"/>
<path d="M11.7701 11.3796H10.9205V12.2501H11.7701V11.3796Z" fill="white"/>
<path d="M11.7701 10.5002H10.9205V11.3796H11.7701V10.5002Z" fill="white"/>
<path d="M11.7701 9.62927H10.9205V10.4997H11.7701V9.62927Z" fill="white"/>
<path d="M11.7701 8.74988H10.9205V9.62929H11.7701V8.74988Z" fill="white"/>
<path d="M11.7701 7.87048H10.9205V8.7499H11.7701V7.87048Z" fill="#B42F02"/>
<path d="M11.7701 7H10.9205V7.87048H11.7701V7Z" fill="#B42F02"/>
<path d="M11.7701 6.12061H10.9205V7.00002H11.7701V6.12061Z" fill="#0E0E11"/>
<path d="M11.7701 5.25012H10.9205V6.1206H11.7701V5.25012Z" fill="#B42F02"/>
<path d="M11.7701 1.74988H10.9205V2.62035H11.7701V1.74988Z" fill="#00B933"/>
<path d="M10.9205 20.1295H10.0795V21H10.9205V20.1295Z" fill="#0E0E11"/>
<path d="M10.9205 19.2501H10.0795V20.1295H10.9205V19.2501Z" fill="#E6E6E6"/>
<path d="M10.9205 18.3796H10.0795V19.2501H10.9205V18.3796Z" fill="#00B933"/>
<path d="M10.9205 17.5002H10.0795V18.3797H10.9205V17.5002Z" fill="#00B933"/>
<path d="M10.9205 16.6293H10.0795V17.4997H10.9205V16.6293Z" fill="#00B933"/>
<path d="M10.9205 15.7499H10.0795V16.6293H10.9205V15.7499Z" fill="#00B933"/>
<path d="M10.9205 14.8794H10.0795V15.7499H10.9205V14.8794Z" fill="#00B933"/>
<path d="M10.9205 14H10.0795V14.8794H10.9205V14Z" fill="#00B933"/>
<path d="M10.9205 13.1295H10.0795V14H10.9205V13.1295Z" fill="white"/>
<path d="M10.9205 12.2501H10.0795V13.1295H10.9205V12.2501Z" fill="white"/>
<path d="M10.9205 11.3796H10.0795V12.2501H10.9205V11.3796Z" fill="white"/>
<path d="M10.9205 10.5002H10.0795V11.3796H10.9205V10.5002Z" fill="white"/>
<path d="M10.9205 9.62927H10.0795V10.4997H10.9205V9.62927Z" fill="white"/>
<path d="M10.9205 8.74988H10.0795V9.62929H10.9205V8.74988Z" fill="white"/>
<path d="M10.9205 7.87048H10.0795V8.7499H10.9205V7.87048Z" fill="#B42F02"/>
<path d="M10.9205 7H10.0795V7.87048H10.9205V7Z" fill="#B42F02"/>
<path d="M10.9205 6.12061H10.0795V7.00002H10.9205V6.12061Z" fill="#0E0E11"/>
<path d="M10.9205 5.25012H10.0795V6.1206H10.9205V5.25012Z" fill="#B42F02"/>
<path d="M10.0799 20.1295H9.23034V21H10.0799V20.1295Z" fill="#0E0E11"/>
<path d="M10.0799 19.2501H9.23034V20.1295H10.0799V19.2501Z" fill="#E6E6E6"/>
<path d="M10.0799 18.3796H9.23034V19.2501H10.0799V18.3796Z" fill="#00B933"/>
<path d="M10.0799 17.5002H9.23034V18.3797H10.0799V17.5002Z" fill="#00B933"/>
<path d="M10.0799 16.6293H9.23034V17.4997H10.0799V16.6293Z" fill="#00B933"/>
<path d="M10.0799 15.7499H9.23034V16.6293H10.0799V15.7499Z" fill="#00B933"/>
<path d="M10.0799 14.8794H9.23034V15.7499H10.0799V14.8794Z" fill="#00B933"/>
<path d="M10.0799 14H9.23034V14.8794H10.0799V14Z" fill="#00B933"/>
<path d="M10.0799 13.1295H9.23034V14H10.0799V13.1295Z" fill="white"/>
<path d="M10.0799 12.2501H9.23034V13.1295H10.0799V12.2501Z" fill="white"/>
<path d="M10.0799 11.3796H9.23034V12.2501H10.0799V11.3796Z" fill="white"/>
<path d="M10.0799 10.5002H9.23034V11.3796H10.0799V10.5002Z" fill="#E6E6E6"/>
<path d="M10.0799 9.62927H9.23034V10.4997H10.0799V9.62927Z" fill="#E6E6E6"/>
<path d="M10.0799 8.74988H9.23034V9.62929H10.0799V8.74988Z" fill="#E6E6E6"/>
<path d="M10.0799 7.87048H9.23034V8.7499H10.0799V7.87048Z" fill="#F7A285"/>
<path d="M10.0799 7H9.23034V7.87048H10.0799V7Z" fill="#F7A285"/>
<path d="M10.0799 6.12061H9.23034V7.00002H10.0799V6.12061Z" fill="#0E0E11"/>
<path d="M10.0799 5.25012H9.23034V6.1206H10.0799V5.25012Z" fill="#F7A285"/>
<path d="M9.23033 20.1295H8.38072V21H9.23033V20.1295Z" fill="#0E0E11"/>
<path d="M9.23033 19.2501H8.38072V20.1295H9.23033V19.2501Z" fill="#E6E6E6"/>
<path d="M9.23033 18.3796H8.38072V19.2501H9.23033V18.3796Z" fill="#00B933"/>
<path d="M9.23033 17.5002H8.38072V18.3797H9.23033V17.5002Z" fill="#00B933"/>
<path d="M9.23033 16.6293H8.38072V17.4997H9.23033V16.6293Z" fill="white"/>
<path d="M9.23033 15.7499H8.38072V16.6293H9.23033V15.7499Z" fill="#00B933"/>
<path d="M9.23033 14.8794H8.38072V15.7499H9.23033V14.8794Z" fill="#00B933"/>
<path d="M9.23033 14H8.38072V14.8794H9.23033V14Z" fill="#00B933"/>
<path d="M9.23033 13.1295H8.38072V14H9.23033V13.1295Z" fill="white"/>
<path d="M9.23033 12.2501H8.38072V13.1295H9.23033V12.2501Z" fill="white"/>
<path d="M9.23033 11.3796H8.38072V12.2501H9.23033V11.3796Z" fill="#E6E6E6"/>
<path d="M9.23033 10.5002H8.38072V11.3796H9.23033V10.5002Z" fill="#0E0E11"/>
<path d="M9.23033 9.62927H8.38072V10.4997H9.23033V9.62927Z" fill="#0E0E11"/>
<path d="M9.23033 8.74988H8.38072V9.62929H9.23033V8.74988Z" fill="#0E0E11"/>
<path d="M9.23033 7.87048H8.38072V8.7499H9.23033V7.87048Z" fill="#0E0E11"/>
<path d="M9.23033 7H8.38072V7.87048H9.23033V7Z" fill="#E6E6E6"/>
<path d="M9.23033 6.12061H8.38072V7.00002H9.23033V6.12061Z" fill="#0E0E11"/>
<path d="M9.23033 0H8.38072V0.870476H9.23033V0Z" fill="#00B933"/>
<path d="M8.38072 19.2501H7.53976V20.1295H8.38072V19.2501Z" fill="#0E0E11"/>
<path d="M8.38072 18.3796H7.53976V19.2501H8.38072V18.3796Z" fill="#E6E6E6"/>
<path d="M8.38072 17.5002H7.53976V18.3797H8.38072V17.5002Z" fill="#00B933"/>
<path d="M8.38072 16.6293H7.53976V17.4997H8.38072V16.6293Z" fill="#00B933"/>
<path d="M8.38072 15.7499H7.53976V16.6293H8.38072V15.7499Z" fill="white"/>
<path d="M8.38072 14.8794H7.53976V15.7499H8.38072V14.8794Z" fill="white"/>
<path d="M8.38072 14H7.53976V14.8794H8.38072V14Z" fill="#00B933"/>
<path d="M8.38072 13.1295H7.53976V14H8.38072V13.1295Z" fill="white"/>
<path d="M8.38072 12.2501H7.53976V13.1295H8.38072V12.2501Z" fill="#E6E6E6"/>
<path d="M8.38072 11.3796H7.53976V12.2501H8.38072V11.3796Z" fill="#0E0E11"/>
<path d="M8.38072 7H7.53976V7.87048H8.38072V7Z" fill="#0E0E11"/>
<path d="M7.53976 19.2501H6.69015V20.1295H7.53976V19.2501Z" fill="#0E0E11"/>
<path d="M7.53976 18.3796H6.69015V19.2501H7.53976V18.3796Z" fill="#E6E6E6"/>
<path d="M7.53976 17.5002H6.69015V18.3797H7.53976V17.5002Z" fill="#E6E6E6"/>
<path d="M7.53976 16.6293H6.69015V17.4997H7.53976V16.6293Z" fill="#00B933"/>
<path d="M7.53976 15.7499H6.69015V16.6293H7.53976V15.7499Z" fill="#00B933"/>
<path d="M7.53976 14.8794H6.69015V15.7499H7.53976V14.8794Z" fill="#00B933"/>
<path d="M7.53976 14H6.69015V14.8794H7.53976V14Z" fill="#00B933"/>
<path d="M7.53976 13.1295H6.69015V14H7.53976V13.1295Z" fill="#E6E6E6"/>
<path d="M7.53976 12.2501H6.69015V13.1295H7.53976V12.2501Z" fill="#E6E6E6"/>
<path d="M7.53976 11.3796H6.69015V12.2501H7.53976V11.3796Z" fill="#0E0E11"/>
<path d="M7.53976 3.50024H6.69015V4.37072H7.53976V3.50024Z" fill="#00B933"/>
<path d="M6.69058 18.3796H5.84961V19.2501H6.69058V18.3796Z" fill="#0E0E11"/>
<path d="M6.69058 17.5002H5.84961V18.3797H6.69058V17.5002Z" fill="#0E0E11"/>
<path d="M6.69058 16.6293H5.84961V17.4997H6.69058V16.6293Z" fill="#E6E6E6"/>
<path d="M6.69058 15.7499H5.84961V16.6293H6.69058V15.7499Z" fill="#E6E6E6"/>
<path d="M6.69058 14.8794H5.84961V15.7499H6.69058V14.8794Z" fill="#E6E6E6"/>
<path d="M6.69058 14H5.84961V14.8794H6.69058V14Z" fill="#E6E6E6"/>
<path d="M6.69058 13.1295H5.84961V14H6.69058V13.1295Z" fill="#0E0E11"/>
<path d="M6.69058 12.2501H5.84961V13.1295H6.69058V12.2501Z" fill="#0E0E11"/>
<path d="M5.84961 16.6293H5V17.4997H5.84961V16.6293Z" fill="#0E0E11"/>
<path d="M5.84961 15.7499H5V16.6293H5.84961V15.7499Z" fill="#0E0E11"/>
<path d="M5.84961 14.8794H5V15.7499H5.84961V14.8794Z" fill="#0E0E11"/>
<path d="M5.84961 14H5V14.8794H5.84961V14Z" fill="#0E0E11"/>
</svg>
