<svg width="23" height="23" viewBox="0 0 23 23" fill="none" xmlns="http://www.w3.org/2000/svg">
<g clip-path="url(#clip0)">
<path d="M23.0007 14.3748H21.5575V15.8048H23.0007V14.3748Z" fill="black"/>
<path d="M23.0007 12.9301H21.5575V14.3748H23.0007V12.9301Z" fill="black"/>
<path d="M23.0007 11.5H21.5575V12.9301H23.0007V11.5Z" fill="black"/>
<path d="M23.0007 10.0553H21.5575V11.5H23.0007V10.0553Z" fill="black"/>
<path d="M23.0007 8.62524H21.5575V10.0553H23.0007V8.62524Z" fill="black"/>
<path d="M23.0007 7.18042H21.5575V8.62517H23.0007V7.18042Z" fill="black"/>
<path d="M21.5575 17.2504H20.1289V18.6804H21.5575V17.2504Z" fill="black"/>
<path d="M21.5575 15.8057H20.1289V17.2504H21.5575V15.8057Z" fill="black"/>
<path d="M21.5575 14.3748H20.1289V15.8048H21.5575V14.3748Z" fill="#FFDD1A"/>
<path d="M21.5575 12.9301H20.1289V14.3748H21.5575V12.9301Z" fill="#FFDD1A"/>
<path d="M21.5575 11.5H20.1289V12.9301H21.5575V11.5Z" fill="#FFDD1A"/>
<path d="M21.5575 10.0553H20.1289V11.5H21.5575V10.0553Z" fill="#FFDD1A"/>
<path d="M21.5575 8.62524H20.1289V10.0553H21.5575V8.62524Z" fill="#FFDD1A"/>
<path d="M21.5575 7.18042H20.1289V8.62517H21.5575V7.18042Z" fill="#FFDD1A"/>
<path d="M21.5575 5.75037H20.1289V7.18043H21.5575V5.75037Z" fill="black"/>
<path d="M21.5575 4.30566H20.1289V5.75041H21.5575V4.30566Z" fill="black"/>
<path d="M20.1289 18.6804H18.6857V20.1252H20.1289V18.6804Z" fill="black"/>
<path d="M20.1289 17.2504H18.6857V18.6804H20.1289V17.2504Z" fill="#FFDD1A"/>
<path d="M20.1289 15.8057H18.6857V17.2504H20.1289V15.8057Z" fill="#FFDD1A"/>
<path d="M20.1289 14.3748H18.6857V15.8048H20.1289V14.3748Z" fill="#EA9E09"/>
<path d="M20.1289 12.9301H18.6857V14.3748H20.1289V12.9301Z" fill="#EA9E09"/>
<path d="M20.1289 11.5H18.6857V12.9301H20.1289V11.5Z" fill="#EA9E09"/>
<path d="M20.1289 10.0553H18.6857V11.5H20.1289V10.0553Z" fill="#EA9E09"/>
<path d="M20.1289 8.62524H18.6857V10.0553H20.1289V8.62524Z" fill="#EA9E09"/>
<path d="M20.1289 7.18042H18.6857V8.62517H20.1289V7.18042Z" fill="#EA9E09"/>
<path d="M20.1289 5.75037H18.6857V7.18043H20.1289V5.75037Z" fill="#FFDD1A"/>
<path d="M20.1289 4.30566H18.6857V5.75041H20.1289V4.30566Z" fill="#FFDD1A"/>
<path d="M20.1289 2.87476H18.6857V4.30482H20.1289V2.87476Z" fill="black"/>
<path d="M18.6864 20.1252H17.2432V21.5553H18.6864V20.1252Z" fill="black"/>
<path d="M18.6864 18.6804H17.2432V20.1252H18.6864V18.6804Z" fill="#FFDD1A"/>
<path d="M18.6864 17.2504H17.2432V18.6804H18.6864V17.2504Z" fill="#EA9E09"/>
<path d="M18.6864 15.8057H17.2432V17.2504H18.6864V15.8057Z" fill="#EA9E09"/>
<path d="M18.6864 14.3748H17.2432V15.8048H18.6864V14.3748Z" fill="#FFDD1A"/>
<path d="M18.6864 12.9301H17.2432V14.3748H18.6864V12.9301Z" fill="#FFDD1A"/>
<path d="M18.6864 11.5H17.2432V12.9301H18.6864V11.5Z" fill="#FFDD1A"/>
<path d="M18.6864 10.0553H17.2432V11.5H18.6864V10.0553Z" fill="#FFDD1A"/>
<path d="M18.6864 8.62524H17.2432V10.0553H18.6864V8.62524Z" fill="#FFDD1A"/>
<path d="M18.6864 7.18042H17.2432V8.62517H18.6864V7.18042Z" fill="#FFDD1A"/>
<path d="M18.6864 5.75037H17.2432V7.18043H18.6864V5.75037Z" fill="#EA9E09"/>
<path d="M18.6864 4.30566H17.2432V5.75041H18.6864V4.30566Z" fill="#EA9E09"/>
<path d="M18.6864 2.87476H17.2432V4.30482H18.6864V2.87476Z" fill="#FFDD1A"/>
<path d="M18.6864 1.43005H17.2432V2.8748H18.6864V1.43005Z" fill="black"/>
<path d="M17.2433 20.1252H15.8147V21.5553H17.2433V20.1252Z" fill="black"/>
<path d="M17.2433 18.6804H15.8147V20.1252H17.2433V18.6804Z" fill="#FFDD1A"/>
<path d="M17.2433 17.2504H15.8147V18.6804H17.2433V17.2504Z" fill="#EA9E09"/>
<path d="M17.2433 15.8057H15.8147V17.2504H17.2433V15.8057Z" fill="#FFDD1A"/>
<path d="M17.2433 14.3748H15.8147V15.8048H17.2433V14.3748Z" fill="#FFDD1A"/>
<path d="M17.2433 12.9301H15.8147V14.3748H17.2433V12.9301Z" fill="#FFDD1A"/>
<path d="M17.2433 11.5H15.8147V12.9301H17.2433V11.5Z" fill="#FFDD1A"/>
<path d="M17.2433 10.0553H15.8147V11.5H17.2433V10.0553Z" fill="#FFDD1A"/>
<path d="M17.2433 8.62524H15.8147V10.0553H17.2433V8.62524Z" fill="#FFDD1A"/>
<path d="M17.2433 7.18042H15.8147V8.62517H17.2433V7.18042Z" fill="#FFDD1A"/>
<path d="M17.2433 5.75037H15.8147V7.18043H17.2433V5.75037Z" fill="#FFDD1A"/>
<path d="M17.2433 4.30566H15.8147V5.75041H17.2433V4.30566Z" fill="white"/>
<path d="M17.2433 2.87476H15.8147V4.30482H17.2433V2.87476Z" fill="#FFDD1A"/>
<path d="M17.2433 1.43005H15.8147V2.8748H17.2433V1.43005Z" fill="black"/>
<path d="M15.8147 21.5553H14.3715V23H15.8147V21.5553Z" fill="black"/>
<path d="M15.8147 20.1252H14.3715V21.5553H15.8147V20.1252Z" fill="#FFDD1A"/>
<path d="M15.8147 18.6804H14.3715V20.1252H15.8147V18.6804Z" fill="#EA9E09"/>
<path d="M15.8147 17.2504H14.3715V18.6804H15.8147V17.2504Z" fill="#FFDD1A"/>
<path d="M15.8147 15.8057H14.3715V17.2504H15.8147V15.8057Z" fill="#FFDD1A"/>
<path d="M15.8147 14.3748H14.3715V15.8048H15.8147V14.3748Z" fill="#FFDD1A"/>
<path d="M15.8147 12.9301H14.3715V14.3748H15.8147V12.9301Z" fill="#FFDD1A"/>
<path d="M15.8147 11.5H14.3715V12.9301H15.8147V11.5Z" fill="#FFDD1A"/>
<path d="M15.8147 10.0553H14.3715V11.5H15.8147V10.0553Z" fill="#FFDD1A"/>
<path d="M15.8147 8.62524H14.3715V10.0553H15.8147V8.62524Z" fill="#FFDD1A"/>
<path d="M15.8147 7.18042H14.3715V8.62517H15.8147V7.18042Z" fill="#FFDD1A"/>
<path d="M15.8147 5.75037H14.3715V7.18043H15.8147V5.75037Z" fill="#FFDD1A"/>
<path d="M15.8147 4.30566H14.3715V5.75041H15.8147V4.30566Z" fill="#FFDD1A"/>
<path d="M15.8147 2.87476H14.3715V4.30482H15.8147V2.87476Z" fill="white"/>
<path d="M15.8147 1.43005H14.3715V2.8748H15.8147V1.43005Z" fill="#FFDD1A"/>
<path d="M15.8147 0H14.3715V1.43007H15.8147V0Z" fill="black"/>
<path d="M14.3715 21.5553H12.9282V23H14.3715V21.5553Z" fill="black"/>
<path d="M14.3715 20.1252H12.9282V21.5553H14.3715V20.1252Z" fill="#FFDD1A"/>
<path d="M14.3715 18.6804H12.9282V20.1252H14.3715V18.6804Z" fill="#EA9E09"/>
<path d="M14.3715 17.2504H12.9282V18.6804H14.3715V17.2504Z" fill="#FFDD1A"/>
<path d="M14.3715 15.8057H12.9282V17.2504H14.3715V15.8057Z" fill="#EA9E09"/>
<path d="M14.3715 14.3748H12.9282V15.8048H14.3715V14.3748Z" fill="#EA9E09"/>
<path d="M14.3715 12.9301H12.9282V14.3748H14.3715V12.9301Z" fill="#EA9E09"/>
<path d="M14.3715 11.5H12.9282V12.9301H14.3715V11.5Z" fill="#EA9E09"/>
<path d="M14.3715 10.0553H12.9282V11.5H14.3715V10.0553Z" fill="#EA9E09"/>
<path d="M14.3715 8.62524H12.9282V10.0553H14.3715V8.62524Z" fill="#EA9E09"/>
<path d="M14.3715 7.18042H12.9282V8.62517H14.3715V7.18042Z" fill="#EA9E09"/>
<path d="M14.3715 5.75037H12.9282V7.18043H14.3715V5.75037Z" fill="#EA9E09"/>
<path d="M14.3715 4.30566H12.9282V5.75041H14.3715V4.30566Z" fill="#FFDD1A"/>
<path d="M14.3715 2.87476H12.9282V4.30482H14.3715V2.87476Z" fill="white"/>
<path d="M14.3715 1.43005H12.9282V2.8748H14.3715V1.43005Z" fill="#FFDD1A"/>
<path d="M14.3715 0H12.9282V1.43007H14.3715V0Z" fill="black"/>
<path d="M12.9289 21.5553H11.5004V23H12.9289V21.5553Z" fill="black"/>
<path d="M12.9289 20.1252H11.5004V21.5553H12.9289V20.1252Z" fill="#FFDD1A"/>
<path d="M12.9289 18.6804H11.5004V20.1252H12.9289V18.6804Z" fill="#EA9E09"/>
<path d="M12.9289 17.2504H11.5004V18.6804H12.9289V17.2504Z" fill="#FFDD1A"/>
<path d="M12.9289 15.8057H11.5004V17.2504H12.9289V15.8057Z" fill="#EA9E09"/>
<path d="M12.9289 14.3748H11.5004V15.8048H12.9289V14.3748Z" fill="#FFDD1A"/>
<path d="M12.9289 12.9301H11.5004V14.3748H12.9289V12.9301Z" fill="#FFDD1A"/>
<path d="M12.9289 11.5H11.5004V12.9301H12.9289V11.5Z" fill="#FFDD1A"/>
<path d="M12.9289 10.0553H11.5004V11.5H12.9289V10.0553Z" fill="#FFDD1A"/>
<path d="M12.9289 8.62524H11.5004V10.0553H12.9289V8.62524Z" fill="#FFDD1A"/>
<path d="M12.9289 7.18042H11.5004V8.62517H12.9289V7.18042Z" fill="#FFDD1A"/>
<path d="M12.9289 5.75037H11.5004V7.18043H12.9289V5.75037Z" fill="white"/>
<path d="M12.9289 4.30566H11.5004V5.75041H12.9289V4.30566Z" fill="#FFDD1A"/>
<path d="M12.9289 2.87476H11.5004V4.30482H12.9289V2.87476Z" fill="white"/>
<path d="M12.9289 1.43005H11.5004V2.8748H12.9289V1.43005Z" fill="#FFDD1A"/>
<path d="M12.9289 0H11.5004V1.43007H12.9289V0Z" fill="black"/>
<path d="M11.5004 21.5553H10.0571V23H11.5004V21.5553Z" fill="black"/>
<path d="M11.5004 20.1252H10.0571V21.5553H11.5004V20.1252Z" fill="#FFDD1A"/>
<path d="M11.5004 18.6804H10.0571V20.1252H11.5004V18.6804Z" fill="#EA9E09"/>
<path d="M11.5004 17.2504H10.0571V18.6804H11.5004V17.2504Z" fill="#FFDD1A"/>
<path d="M11.5004 15.8057H10.0571V17.2504H11.5004V15.8057Z" fill="#EA9E09"/>
<path d="M11.5004 14.3748H10.0571V15.8048H11.5004V14.3748Z" fill="#FFDD1A"/>
<path d="M11.5004 12.9301H10.0571V14.3748H11.5004V12.9301Z" fill="#FFDD1A"/>
<path d="M11.5004 11.5H10.0571V12.9301H11.5004V11.5Z" fill="#FFDD1A"/>
<path d="M11.5004 10.0553H10.0571V11.5H11.5004V10.0553Z" fill="#FFDD1A"/>
<path d="M11.5004 8.62524H10.0571V10.0553H11.5004V8.62524Z" fill="#FFDD1A"/>
<path d="M11.5004 7.18042H10.0571V8.62517H11.5004V7.18042Z" fill="#FFDD1A"/>
<path d="M11.5004 5.75037H10.0571V7.18043H11.5004V5.75037Z" fill="white"/>
<path d="M11.5004 4.30566H10.0571V5.75041H11.5004V4.30566Z" fill="#FFDD1A"/>
<path d="M11.5004 2.87476H10.0571V4.30482H11.5004V2.87476Z" fill="white"/>
<path d="M11.5004 1.43005H10.0571V2.8748H11.5004V1.43005Z" fill="#FFDD1A"/>
<path d="M11.5004 0H10.0571V1.43007H11.5004V0Z" fill="black"/>
<path d="M10.0571 21.5553H8.62854V23H10.0571V21.5553Z" fill="black"/>
<path d="M10.0571 20.1252H8.62854V21.5553H10.0571V20.1252Z" fill="#FFDD1A"/>
<path d="M10.0571 18.6804H8.62854V20.1252H10.0571V18.6804Z" fill="#EA9E09"/>
<path d="M10.0571 17.2504H8.62854V18.6804H10.0571V17.2504Z" fill="#FFDD1A"/>
<path d="M10.0571 15.8057H8.62854V17.2504H10.0571V15.8057Z" fill="white"/>
<path d="M10.0571 14.3748H8.62854V15.8048H10.0571V14.3748Z" fill="white"/>
<path d="M10.0571 12.9301H8.62854V14.3748H10.0571V12.9301Z" fill="white"/>
<path d="M10.0571 11.5H8.62854V12.9301H10.0571V11.5Z" fill="white"/>
<path d="M10.0571 10.0553H8.62854V11.5H10.0571V10.0553Z" fill="white"/>
<path d="M10.0571 8.62524H8.62854V10.0553H10.0571V8.62524Z" fill="white"/>
<path d="M10.0571 7.18042H8.62854V8.62517H10.0571V7.18042Z" fill="white"/>
<path d="M10.0571 5.75037H8.62854V7.18043H10.0571V5.75037Z" fill="white"/>
<path d="M10.0571 4.30566H8.62854V5.75041H10.0571V4.30566Z" fill="#FFDD1A"/>
<path d="M10.0571 2.87476H8.62854V4.30482H10.0571V2.87476Z" fill="white"/>
<path d="M10.0571 1.43005H8.62854V2.8748H10.0571V1.43005Z" fill="#FFDD1A"/>
<path d="M10.0571 0H8.62854V1.43007H10.0571V0Z" fill="black"/>
<path d="M8.62927 21.5553H7.18604V23H8.62927V21.5553Z" fill="black"/>
<path d="M8.62927 20.1252H7.18604V21.5553H8.62927V20.1252Z" fill="#FFDD1A"/>
<path d="M8.62927 18.6804H7.18604V20.1252H8.62927V18.6804Z" fill="#EA9E09"/>
<path d="M8.62927 17.2504H7.18604V18.6804H8.62927V17.2504Z" fill="#FFDD1A"/>
<path d="M8.62927 15.8057H7.18604V17.2504H8.62927V15.8057Z" fill="#FFDD1A"/>
<path d="M8.62927 14.3748H7.18604V15.8048H8.62927V14.3748Z" fill="#FFDD1A"/>
<path d="M8.62927 12.9301H7.18604V14.3748H8.62927V12.9301Z" fill="#FFDD1A"/>
<path d="M8.62927 11.5H7.18604V12.9301H8.62927V11.5Z" fill="#FFDD1A"/>
<path d="M8.62927 10.0553H7.18604V11.5H8.62927V10.0553Z" fill="#FFDD1A"/>
<path d="M8.62927 8.62524H7.18604V10.0553H8.62927V8.62524Z" fill="#FFDD1A"/>
<path d="M8.62927 7.18042H7.18604V8.62517H8.62927V7.18042Z" fill="#FFDD1A"/>
<path d="M8.62927 5.75037H7.18604V7.18043H8.62927V5.75037Z" fill="#FFDD1A"/>
<path d="M8.62927 4.30566H7.18604V5.75041H8.62927V4.30566Z" fill="#FFDD1A"/>
<path d="M8.62927 2.87476H7.18604V4.30482H8.62927V2.87476Z" fill="white"/>
<path d="M8.62927 1.43005H7.18604V2.8748H8.62927V1.43005Z" fill="#FFDD1A"/>
<path d="M8.62927 0H7.18604V1.43007H8.62927V0Z" fill="black"/>
<path d="M7.18603 20.1252H5.7428V21.5553H7.18603V20.1252Z" fill="black"/>
<path d="M7.18603 18.6804H5.7428V20.1252H7.18603V18.6804Z" fill="#FFDD1A"/>
<path d="M7.18603 17.2504H5.7428V18.6804H7.18603V17.2504Z" fill="#EA9E09"/>
<path d="M7.18603 15.8057H5.7428V17.2504H7.18603V15.8057Z" fill="#FFDD1A"/>
<path d="M7.18603 14.3748H5.7428V15.8048H7.18603V14.3748Z" fill="#FFDD1A"/>
<path d="M7.18603 12.9301H5.7428V14.3748H7.18603V12.9301Z" fill="#FFDD1A"/>
<path d="M7.18603 11.5H5.7428V12.9301H7.18603V11.5Z" fill="#FFDD1A"/>
<path d="M7.18603 10.0553H5.7428V11.5H7.18603V10.0553Z" fill="#FFDD1A"/>
<path d="M7.18603 8.62524H5.7428V10.0553H7.18603V8.62524Z" fill="#FFDD1A"/>
<path d="M7.18603 7.18042H5.7428V8.62517H7.18603V7.18042Z" fill="#FFDD1A"/>
<path d="M7.18603 5.75037H5.7428V7.18043H7.18603V5.75037Z" fill="#FFDD1A"/>
<path d="M7.18603 4.30566H5.7428V5.75041H7.18603V4.30566Z" fill="white"/>
<path d="M7.18603 2.87476H5.7428V4.30482H7.18603V2.87476Z" fill="#FFDD1A"/>
<path d="M7.18603 1.43005H5.7428V2.8748H7.18603V1.43005Z" fill="black"/>
<path d="M5.74288 20.1252H4.31433V21.5553H5.74288V20.1252Z" fill="black"/>
<path d="M5.74288 18.6804H4.31433V20.1252H5.74288V18.6804Z" fill="#FFDD1A"/>
<path d="M5.74288 17.2504H4.31433V18.6804H5.74288V17.2504Z" fill="#EA9E09"/>
<path d="M5.74288 15.8057H4.31433V17.2504H5.74288V15.8057Z" fill="white"/>
<path d="M5.74288 14.3748H4.31433V15.8048H5.74288V14.3748Z" fill="#FFDD1A"/>
<path d="M5.74288 12.9301H4.31433V14.3748H5.74288V12.9301Z" fill="#FFDD1A"/>
<path d="M5.74288 11.5H4.31433V12.9301H5.74288V11.5Z" fill="#FFDD1A"/>
<path d="M5.74288 10.0553H4.31433V11.5H5.74288V10.0553Z" fill="#FFDD1A"/>
<path d="M5.74288 8.62524H4.31433V10.0553H5.74288V8.62524Z" fill="#FFDD1A"/>
<path d="M5.74288 7.18042H4.31433V8.62517H5.74288V7.18042Z" fill="#FFDD1A"/>
<path d="M5.74288 5.75037H4.31433V7.18043H5.74288V5.75037Z" fill="white"/>
<path d="M5.74288 4.30566H4.31433V5.75041H5.74288V4.30566Z" fill="white"/>
<path d="M5.74288 2.87476H4.31433V4.30482H5.74288V2.87476Z" fill="#FFDD1A"/>
<path d="M5.74288 1.43005H4.31433V2.8748H5.74288V1.43005Z" fill="black"/>
<path d="M4.31433 18.6804H2.87109V20.1252H4.31433V18.6804Z" fill="black"/>
<path d="M4.31433 17.2504H2.87109V18.6804H4.31433V17.2504Z" fill="#FFDD1A"/>
<path d="M4.31433 15.8057H2.87109V17.2504H4.31433V15.8057Z" fill="#FFDD1A"/>
<path d="M4.31433 14.3748H2.87109V15.8048H4.31433V14.3748Z" fill="white"/>
<path d="M4.31433 12.9301H2.87109V14.3748H4.31433V12.9301Z" fill="white"/>
<path d="M4.31433 11.5H2.87109V12.9301H4.31433V11.5Z" fill="white"/>
<path d="M4.31433 10.0553H2.87109V11.5H4.31433V10.0553Z" fill="white"/>
<path d="M4.31433 8.62524H2.87109V10.0553H4.31433V8.62524Z" fill="white"/>
<path d="M4.31433 7.18042H2.87109V8.62517H4.31433V7.18042Z" fill="white"/>
<path d="M4.31433 5.75037H2.87109V7.18043H4.31433V5.75037Z" fill="#FFDD1A"/>
<path d="M4.31433 4.30566H2.87109V5.75041H4.31433V4.30566Z" fill="#FFDD1A"/>
<path d="M4.31433 2.87476H2.87109V4.30482H4.31433V2.87476Z" fill="black"/>
<path d="M2.87182 17.2504H1.42859V18.6804H2.87182V17.2504Z" fill="black"/>
<path d="M2.87182 15.8057H1.42859V17.2504H2.87182V15.8057Z" fill="black"/>
<path d="M2.87182 14.3748H1.42859V15.8048H2.87182V14.3748Z" fill="#FFDD1A"/>
<path d="M2.87182 12.9301H1.42859V14.3748H2.87182V12.9301Z" fill="#FFDD1A"/>
<path d="M2.87182 11.5H1.42859V12.9301H2.87182V11.5Z" fill="#FFDD1A"/>
<path d="M2.87182 10.0553H1.42859V11.5H2.87182V10.0553Z" fill="#FFDD1A"/>
<path d="M2.87182 8.62524H1.42859V10.0553H2.87182V8.62524Z" fill="#FFDD1A"/>
<path d="M2.87182 7.18042H1.42859V8.62517H2.87182V7.18042Z" fill="#FFDD1A"/>
<path d="M2.87182 5.75037H1.42859V7.18043H2.87182V5.75037Z" fill="black"/>
<path d="M2.87182 4.30566H1.42859V5.75041H2.87182V4.30566Z" fill="black"/>
<path d="M1.42855 15.8057H0V17.2504H1.42855V15.8057Z" fill="black"/>
<path d="M1.42855 14.3748H0V15.8048H1.42855V14.3748Z" fill="black"/>
<path d="M1.42855 12.9301H0V14.3748H1.42855V12.9301Z" fill="black"/>
<path d="M1.42855 11.5H0V12.9301H1.42855V11.5Z" fill="black"/>
<path d="M1.42855 10.0553H0V11.5H1.42855V10.0553Z" fill="black"/>
<path d="M1.42855 8.62524H0V10.0553H1.42855V8.62524Z" fill="black"/>
<path d="M1.42855 7.18042H0V8.62517H1.42855V7.18042Z" fill="black"/>
</g>
<defs>
<clipPath id="clip0">
<rect width="23" height="23" fill="white"/>
</clipPath>
</defs>
</svg>
