<svg width="80" height="115" viewBox="0 0 80 115" fill="none" xmlns="http://www.w3.org/2000/svg">
<path d="M80.0001 76.6909H76.5089V80.1572H80.0001V76.6909Z" fill="black"/>
<path d="M80.0001 73.189H76.5089V76.6908H80.0001V73.189Z" fill="black"/>
<path d="M80.0001 69.7209H76.5089V73.1872H80.0001V69.7209Z" fill="black"/>
<path d="M80.0001 66.219H76.5089V69.7209H80.0001V66.219Z" fill="black"/>
<path d="M80.0001 62.7529H76.5089V66.2193H80.0001V62.7529Z" fill="black"/>
<path d="M80.0001 59.251H76.5089V62.7529H80.0001V59.251Z" fill="black"/>
<path d="M76.5089 83.6592H73.0532V87.1255H76.5089V83.6592Z" fill="black"/>
<path d="M76.5089 80.1572H73.0532V83.6592H76.5089V80.1572Z" fill="black"/>
<path d="M76.5089 76.6909H73.0532V80.1572H76.5089V76.6909Z" fill="#EA9E09"/>
<path d="M76.5089 73.189H73.0532V76.6908H76.5089V73.189Z" fill="#EA9E09"/>
<path d="M76.5089 69.7209H73.0532V73.1872H76.5089V69.7209Z" fill="#EA9E09"/>
<path d="M76.5089 66.219H73.0532V69.7209H76.5089V66.219Z" fill="#EA9E09"/>
<path d="M76.5089 62.7529H73.0532V66.2193H76.5089V62.7529Z" fill="#EA9E09"/>
<path d="M76.5089 59.251H73.0532V62.7529H76.5089V59.251Z" fill="#EA9E09"/>
<path d="M76.5089 55.7847H73.0532V59.251H76.5089V55.7847Z" fill="black"/>
<path d="M76.5089 52.2827H73.0532V55.7846H76.5089V52.2827Z" fill="black"/>
<path d="M73.055 87.1257H69.5638V90.6276H73.055V87.1257Z" fill="black"/>
<path d="M73.055 83.6592H69.5638V87.1255H73.055V83.6592Z" fill="#EA9E09"/>
<path d="M73.055 80.1572H69.5638V83.6592H73.055V80.1572Z" fill="#EA9E09"/>
<path d="M73.055 76.6909H69.5638V80.1572H73.055V76.6909Z" fill="#FFDD1A"/>
<path d="M73.055 73.189H69.5638V76.6908H73.055V73.189Z" fill="black"/>
<path d="M73.055 69.7209H69.5638V73.1872H73.055V69.7209Z" fill="black"/>
<path d="M73.055 66.219H69.5638V69.7209H73.055V66.219Z" fill="black"/>
<path d="M73.055 62.7529H69.5638V66.2193H73.055V62.7529Z" fill="#FFDD1A"/>
<path d="M73.055 59.251H69.5638V62.7529H73.055V59.251Z" fill="#FFDD1A"/>
<path d="M73.055 55.7847H69.5638V59.251H73.055V55.7847Z" fill="#EA9E09"/>
<path d="M73.055 52.2827H69.5638V55.7846H73.055V52.2827Z" fill="#EA9E09"/>
<path d="M73.055 48.7808H69.5638V52.2826H73.055V48.7808Z" fill="black"/>
<path d="M69.5639 87.1257H66.0728V90.6276H69.5639V87.1257Z" fill="black"/>
<path d="M69.5639 83.6592H66.0728V87.1255H69.5639V83.6592Z" fill="#FFDD1A"/>
<path d="M69.5639 80.1572H66.0728V83.6592H69.5639V80.1572Z" fill="black"/>
<path d="M69.5639 76.6909H66.0728V80.1572H69.5639V76.6909Z" fill="black"/>
<path d="M69.5639 73.189H66.0728V76.6908H69.5639V73.189Z" fill="#AFAFAF"/>
<path d="M69.5639 69.7209H66.0728V73.1872H69.5639V69.7209Z" fill="#AFAFAF"/>
<path d="M69.5639 66.219H66.0728V69.7209H69.5639V66.219Z" fill="#AFAFAF"/>
<path d="M69.5639 62.7529H66.0728V66.2193H69.5639V62.7529Z" fill="black"/>
<path d="M69.5639 59.251H66.0728V62.7529H69.5639V59.251Z" fill="black"/>
<path d="M69.5639 55.7847H66.0728V59.251H69.5639V55.7847Z" fill="#FFDD1A"/>
<path d="M69.5639 52.2827H66.0728V55.7846H69.5639V52.2827Z" fill="#FFDD1A"/>
<path d="M69.5639 48.7808H66.0728V52.2826H69.5639V48.7808Z" fill="black"/>
<path d="M66.0726 111.534H62.617V115H66.0726V111.534Z" fill="black"/>
<path d="M66.0726 108.032H62.617V111.534H66.0726V108.032Z" fill="black"/>
<path d="M66.0726 90.6272H62.617V94.0935H66.0726V90.6272Z" fill="black"/>
<path d="M66.0726 87.1257H62.617V90.6276H66.0726V87.1257Z" fill="#EA9E09"/>
<path d="M66.0726 83.6592H62.617V87.1255H66.0726V83.6592Z" fill="#FFDD1A"/>
<path d="M66.0726 80.1572H62.617V83.6592H66.0726V80.1572Z" fill="black"/>
<path d="M66.0726 76.6909H62.617V80.1572H66.0726V76.6909Z" fill="#AFAFAF"/>
<path d="M66.0726 73.189H62.617V76.6908H66.0726V73.189Z" fill="#E6E6E6"/>
<path d="M66.0726 69.7209H62.617V73.1872H66.0726V69.7209Z" fill="#E6E6E6"/>
<path d="M66.0726 66.219H62.617V69.7209H66.0726V66.219Z" fill="#E6E6E6"/>
<path d="M66.0726 62.7529H62.617V66.2193H66.0726V62.7529Z" fill="white"/>
<path d="M66.0726 59.251H62.617V62.7529H66.0726V59.251Z" fill="black"/>
<path d="M66.0726 55.7847H62.617V59.251H66.0726V55.7847Z" fill="#EA9E09"/>
<path d="M66.0726 52.2827H62.617V55.7846H66.0726V52.2827Z" fill="#EA9E09"/>
<path d="M66.0726 48.7808H62.617V52.2826H66.0726V48.7808Z" fill="#EA9E09"/>
<path d="M66.0726 45.3147H62.617V48.781H66.0726V45.3147Z" fill="black"/>
<path d="M62.6188 111.534H59.1277V115H62.6188V111.534Z" fill="black"/>
<path d="M62.6188 108.032H59.1277V111.534H62.6188V108.032Z" fill="#E6E6E6"/>
<path d="M62.6188 104.565H59.1277V108.032H62.6188V104.565Z" fill="black"/>
<path d="M62.6188 101.064H59.1277V104.566H62.6188V101.064Z" fill="black"/>
<path d="M62.6188 90.6272H59.1277V94.0935H62.6188V90.6272Z" fill="black"/>
<path d="M62.6188 87.1257H59.1277V90.6276H62.6188V87.1257Z" fill="#EA9E09"/>
<path d="M62.6188 83.6592H59.1277V87.1255H62.6188V83.6592Z" fill="#FFDD1A"/>
<path d="M62.6188 80.1572H59.1277V83.6592H62.6188V80.1572Z" fill="black"/>
<path d="M62.6188 76.6909H59.1277V80.1572H62.6188V76.6909Z" fill="black"/>
<path d="M62.6188 73.189H59.1277V76.6908H62.6188V73.189Z" fill="#E6E6E6"/>
<path d="M62.6188 69.7209H59.1277V73.1872H62.6188V69.7209Z" fill="#E6E6E6"/>
<path d="M62.6188 66.219H59.1277V69.7209H62.6188V66.219Z" fill="white"/>
<path d="M62.6188 62.7529H59.1277V66.2193H62.6188V62.7529Z" fill="black"/>
<path d="M62.6188 59.251H59.1277V62.7529H62.6188V59.251Z" fill="black"/>
<path d="M62.6188 55.7847H59.1277V59.251H62.6188V55.7847Z" fill="#FFDD1A"/>
<path d="M62.6188 52.2827H59.1277V55.7846H62.6188V52.2827Z" fill="#FFDD1A"/>
<path d="M62.6188 48.7808H59.1277V52.2826H62.6188V48.7808Z" fill="#FFDD1A"/>
<path d="M62.6188 45.3147H59.1277V48.781H62.6188V45.3147Z" fill="black"/>
<path d="M59.1276 111.534H55.6364V115H59.1276V111.534Z" fill="black"/>
<path d="M59.1276 108.032H55.6364V111.534H59.1276V108.032Z" fill="white"/>
<path d="M59.1276 104.565H55.6364V108.032H59.1276V104.565Z" fill="black"/>
<path d="M59.1276 101.064H55.6364V104.566H59.1276V101.064Z" fill="#F7A285"/>
<path d="M59.1276 97.5955H55.6364V101.062H59.1276V97.5955Z" fill="black"/>
<path d="M59.1276 94.0935H55.6364V97.5954H59.1276V94.0935Z" fill="black"/>
<path d="M59.1276 90.6272H55.6364V94.0935H59.1276V90.6272Z" fill="black"/>
<path d="M59.1276 87.1257H55.6364V90.6276H59.1276V87.1257Z" fill="#EA9E09"/>
<path d="M59.1276 83.6592H55.6364V87.1255H59.1276V83.6592Z" fill="#FFDD1A"/>
<path d="M59.1276 80.1572H55.6364V83.6592H59.1276V80.1572Z" fill="#FFDD1A"/>
<path d="M59.1276 76.6909H55.6364V80.1572H59.1276V76.6909Z" fill="#FFDD1A"/>
<path d="M59.1276 73.189H55.6364V76.6908H59.1276V73.189Z" fill="black"/>
<path d="M59.1276 69.7209H55.6364V73.1872H59.1276V69.7209Z" fill="black"/>
<path d="M59.1276 66.219H55.6364V69.7209H59.1276V66.219Z" fill="black"/>
<path d="M59.1276 62.7529H55.6364V66.2193H59.1276V62.7529Z" fill="#FFDD1A"/>
<path d="M59.1276 59.251H55.6364V62.7529H59.1276V59.251Z" fill="#FFDD1A"/>
<path d="M59.1276 55.7847H55.6364V59.251H59.1276V55.7847Z" fill="#FFDD1A"/>
<path d="M59.1276 52.2827H55.6364V55.7846H59.1276V52.2827Z" fill="#FFDD1A"/>
<path d="M59.1276 48.7808H55.6364V52.2826H59.1276V48.7808Z" fill="white"/>
<path d="M59.1276 45.3147H55.6364V48.781H59.1276V45.3147Z" fill="black"/>
<path d="M55.6365 111.534H52.1809V115H55.6365V111.534Z" fill="black"/>
<path d="M55.6365 108.032H52.1809V111.534H55.6365V108.032Z" fill="#AFAFAF"/>
<path d="M55.6365 104.565H52.1809V108.032H55.6365V104.565Z" fill="black"/>
<path d="M55.6365 101.064H52.1809V104.566H55.6365V101.064Z" fill="#AF370D"/>
<path d="M55.6365 97.5955H52.1809V101.062H55.6365V97.5955Z" fill="#F7A285"/>
<path d="M55.6365 94.0935H52.1809V97.5954H55.6365V94.0935Z" fill="#F7A285"/>
<path d="M55.6365 90.6272H52.1809V94.0935H55.6365V90.6272Z" fill="black"/>
<path d="M55.6365 87.1257H52.1809V90.6276H55.6365V87.1257Z" fill="black"/>
<path d="M55.6365 83.6592H52.1809V87.1255H55.6365V83.6592Z" fill="#EA9E09"/>
<path d="M55.6365 80.1572H52.1809V83.6592H55.6365V80.1572Z" fill="#FFDD1A"/>
<path d="M55.6365 76.6909H52.1809V80.1572H55.6365V76.6909Z" fill="#EA9E09"/>
<path d="M55.6365 73.189H52.1809V76.6908H55.6365V73.189Z" fill="#FFDD1A"/>
<path d="M55.6365 69.7209H52.1809V73.1872H55.6365V69.7209Z" fill="#FFDD1A"/>
<path d="M55.6365 66.219H52.1809V69.7209H55.6365V66.219Z" fill="#FFDD1A"/>
<path d="M55.6365 62.7529H52.1809V66.2193H55.6365V62.7529Z" fill="#EA9E09"/>
<path d="M55.6365 59.251H52.1809V62.7529H55.6365V59.251Z" fill="#FFDD1A"/>
<path d="M55.6365 55.7847H52.1809V59.251H55.6365V55.7847Z" fill="#FFDD1A"/>
<path d="M55.6365 52.2827H52.1809V55.7846H55.6365V52.2827Z" fill="#FFDD1A"/>
<path d="M55.6365 48.7808H52.1809V52.2826H55.6365V48.7808Z" fill="black"/>
<path d="M55.6365 34.8425H52.1809V38.3444H55.6365V34.8425Z" fill="black"/>
<path d="M55.6365 31.3762H52.1809V34.8425H55.6365V31.3762Z" fill="black"/>
<path d="M55.6365 27.8748H52.1809V31.3767H55.6365V27.8748Z" fill="black"/>
<path d="M52.1827 111.534H48.6916V115H52.1827V111.534Z" fill="black"/>
<path d="M52.1827 108.032H48.6916V111.534H52.1827V108.032Z" fill="black"/>
<path d="M52.1827 104.565H48.6916V108.032H52.1827V104.565Z" fill="black"/>
<path d="M52.1827 101.064H48.6916V104.566H52.1827V101.064Z" fill="#AF370D"/>
<path d="M52.1827 97.5955H48.6916V101.062H52.1827V97.5955Z" fill="#AF370D"/>
<path d="M52.1827 94.0935H48.6916V97.5954H52.1827V94.0935Z" fill="#AF370D"/>
<path d="M52.1827 90.6272H48.6916V94.0935H52.1827V90.6272Z" fill="#AF370D"/>
<path d="M52.1827 87.1257H48.6916V90.6276H52.1827V87.1257Z" fill="black"/>
<path d="M52.1827 83.6592H48.6916V87.1255H52.1827V83.6592Z" fill="#EA9E09"/>
<path d="M52.1827 80.1572H48.6916V83.6592H52.1827V80.1572Z" fill="#EA9E09"/>
<path d="M52.1827 76.6909H48.6916V80.1572H52.1827V76.6909Z" fill="#FFDD1A"/>
<path d="M52.1827 73.189H48.6916V76.6908H52.1827V73.189Z" fill="#FFDD1A"/>
<path d="M52.1827 69.7209H48.6916V73.1872H52.1827V69.7209Z" fill="#FFDD1A"/>
<path d="M52.1827 66.219H48.6916V69.7209H52.1827V66.219Z" fill="#FFDD1A"/>
<path d="M52.1827 62.7529H48.6916V66.2193H52.1827V62.7529Z" fill="#FFDD1A"/>
<path d="M52.1827 59.251H48.6916V62.7529H52.1827V59.251Z" fill="#EA9E09"/>
<path d="M52.1827 55.7847H48.6916V59.251H52.1827V55.7847Z" fill="#FFDD1A"/>
<path d="M52.1827 52.2827H48.6916V55.7846H52.1827V52.2827Z" fill="white"/>
<path d="M52.1827 48.7808H48.6916V52.2826H52.1827V48.7808Z" fill="black"/>
<path d="M52.1827 45.3147H48.6916V48.781H52.1827V45.3147Z" fill="black"/>
<path d="M52.1827 41.8108H48.6916V45.3127H52.1827V41.8108Z" fill="black"/>
<path d="M52.1827 38.3447H48.6916V41.811H52.1827V38.3447Z" fill="black"/>
<path d="M52.1827 34.8425H48.6916V38.3444H52.1827V34.8425Z" fill="#AF370D"/>
<path d="M52.1827 31.3762H48.6916V34.8425H52.1827V31.3762Z" fill="#AF370D"/>
<path d="M52.1827 27.8748H48.6916V31.3767H52.1827V27.8748Z" fill="#AF370D"/>
<path d="M52.1827 24.4084H48.6916V27.8747H52.1827V24.4084Z" fill="black"/>
<path d="M48.6915 101.064H45.2359V104.566H48.6915V101.064Z" fill="black"/>
<path d="M48.6915 97.5955H45.2359V101.062H48.6915V97.5955Z" fill="#AF370D"/>
<path d="M48.6915 94.0935H45.2359V97.5954H48.6915V94.0935Z" fill="black"/>
<path d="M48.6915 90.6272H45.2359V94.0935H48.6915V90.6272Z" fill="black"/>
<path d="M48.6915 87.1257H45.2359V90.6276H48.6915V87.1257Z" fill="black"/>
<path d="M48.6915 83.6592H45.2359V87.1255H48.6915V83.6592Z" fill="black"/>
<path d="M48.6915 80.1572H45.2359V83.6592H48.6915V80.1572Z" fill="black"/>
<path d="M48.6915 76.6909H45.2359V80.1572H48.6915V76.6909Z" fill="white"/>
<path d="M48.6915 73.189H45.2359V76.6908H48.6915V73.189Z" fill="white"/>
<path d="M48.6915 69.7209H45.2359V73.1872H48.6915V69.7209Z" fill="white"/>
<path d="M48.6915 66.219H45.2359V69.7209H48.6915V66.219Z" fill="white"/>
<path d="M48.6915 62.7529H45.2359V66.2193H48.6915V62.7529Z" fill="white"/>
<path d="M48.6915 59.251H45.2359V62.7529H48.6915V59.251Z" fill="white"/>
<path d="M48.6915 55.7847H45.2359V59.251H48.6915V55.7847Z" fill="black"/>
<path d="M48.6915 52.2827H45.2359V55.7846H48.6915V52.2827Z" fill="black"/>
<path d="M48.6915 48.7808H45.2359V52.2826H48.6915V48.7808Z" fill="#F1B380"/>
<path d="M48.6915 45.3147H45.2359V48.781H48.6915V45.3147Z" fill="black"/>
<path d="M48.6915 41.8108H45.2359V45.3127H48.6915V41.8108Z" fill="black"/>
<path d="M48.6915 38.3447H45.2359V41.811H48.6915V38.3447Z" fill="black"/>
<path d="M48.6915 34.8425H45.2359V38.3444H48.6915V34.8425Z" fill="#AF370D"/>
<path d="M48.6915 31.3762H45.2359V34.8425H48.6915V31.3762Z" fill="#C53C0D"/>
<path d="M48.6915 27.8748H45.2359V31.3767H48.6915V27.8748Z" fill="#C53C0D"/>
<path d="M48.6915 24.4084H45.2359V27.8747H48.6915V24.4084Z" fill="#F7A285"/>
<path d="M48.6915 20.9062H45.2359V24.4081H48.6915V20.9062Z" fill="black"/>
<path d="M45.2359 97.5955H41.7448V101.062H45.2359V97.5955Z" fill="black"/>
<path d="M45.2359 94.0935H41.7448V97.5954H45.2359V94.0935Z" fill="#AFAFAF"/>
<path d="M45.2359 90.6272H41.7448V94.0935H45.2359V90.6272Z" fill="#AFAFAF"/>
<path d="M45.2359 87.1257H41.7448V90.6276H45.2359V87.1257Z" fill="black"/>
<path d="M45.2359 83.6592H41.7448V87.1255H45.2359V83.6592Z" fill="black"/>
<path d="M45.2359 80.1572H41.7448V83.6592H45.2359V80.1572Z" fill="#E6E6E6"/>
<path d="M45.2359 76.6909H41.7448V80.1572H45.2359V76.6909Z" fill="black"/>
<path d="M45.2359 73.189H41.7448V76.6908H45.2359V73.189Z" fill="black"/>
<path d="M45.2359 69.7209H41.7448V73.1872H45.2359V69.7209Z" fill="black"/>
<path d="M45.2359 66.219H41.7448V69.7209H45.2359V66.219Z" fill="black"/>
<path d="M45.2359 62.7529H41.7448V66.2193H45.2359V62.7529Z" fill="black"/>
<path d="M45.2359 59.251H41.7448V62.7529H45.2359V59.251Z" fill="black"/>
<path d="M45.2359 55.7847H41.7448V59.251H45.2359V55.7847Z" fill="black"/>
<path d="M45.2359 52.2827H41.7448V55.7846H45.2359V52.2827Z" fill="#F1B380"/>
<path d="M45.2359 48.7808H41.7448V52.2826H45.2359V48.7808Z" fill="#E4976F"/>
<path d="M45.2359 45.3147H41.7448V48.781H45.2359V45.3147Z" fill="#F1B380"/>
<path d="M45.2359 41.8108H41.7448V45.3127H45.2359V41.8108Z" fill="#E4976F"/>
<path d="M45.2359 38.3447H41.7448V41.811H45.2359V38.3447Z" fill="black"/>
<path d="M45.2359 34.8425H41.7448V38.3444H45.2359V34.8425Z" fill="#AF370D"/>
<path d="M45.2359 31.3762H41.7448V34.8425H45.2359V31.3762Z" fill="#C53C0D"/>
<path d="M45.2359 27.8748H41.7448V31.3767H45.2359V27.8748Z" fill="#C53C0D"/>
<path d="M45.2359 24.4084H41.7448V27.8747H45.2359V24.4084Z" fill="#F7A285"/>
<path d="M45.2359 20.9062H41.7448V24.4081H45.2359V20.9062Z" fill="black"/>
<path d="M41.7465 97.5955H38.2554V101.062H41.7465V97.5955Z" fill="black"/>
<path d="M41.7465 94.0935H38.2554V97.5954H41.7465V94.0935Z" fill="#AFAFAF"/>
<path d="M41.7465 90.6272H38.2554V94.0935H41.7465V90.6272Z" fill="#E6E6E6"/>
<path d="M41.7465 87.1257H38.2554V90.6276H41.7465V87.1257Z" fill="#AFAFAF"/>
<path d="M41.7465 83.6592H38.2554V87.1255H41.7465V83.6592Z" fill="#E6E6E6"/>
<path d="M41.7465 80.1572H38.2554V83.6592H41.7465V80.1572Z" fill="black"/>
<path d="M41.7465 76.6909H38.2554V80.1572H41.7465V76.6909Z" fill="#AFAFAF"/>
<path d="M41.7465 73.189H38.2554V76.6908H41.7465V73.189Z" fill="#AFAFAF"/>
<path d="M41.7465 69.7209H38.2554V73.1872H41.7465V69.7209Z" fill="#AFAFAF"/>
<path d="M41.7465 66.219H38.2554V69.7209H41.7465V66.219Z" fill="#AFAFAF"/>
<path d="M41.7465 62.7529H38.2554V66.2193H41.7465V62.7529Z" fill="#AFAFAF"/>
<path d="M41.7465 59.251H38.2554V62.7529H41.7465V59.251Z" fill="#E6E6E6"/>
<path d="M41.7465 55.7847H38.2554V59.251H41.7465V55.7847Z" fill="black"/>
<path d="M41.7465 52.2827H38.2554V55.7846H41.7465V52.2827Z" fill="#F1B380"/>
<path d="M41.7465 48.7808H38.2554V52.2826H41.7465V48.7808Z" fill="#F1B380"/>
<path d="M41.7465 45.3147H38.2554V48.781H41.7465V45.3147Z" fill="#F1B380"/>
<path d="M41.7465 41.8108H38.2554V45.3127H41.7465V41.8108Z" fill="#E4976F"/>
<path d="M41.7465 38.3447H38.2554V41.811H41.7465V38.3447Z" fill="black"/>
<path d="M41.7465 34.8425H38.2554V38.3444H41.7465V34.8425Z" fill="#AF370D"/>
<path d="M41.7465 31.3762H38.2554V34.8425H41.7465V31.3762Z" fill="#AF370D"/>
<path d="M41.7465 27.8748H38.2554V31.3767H41.7465V27.8748Z" fill="#C53C0D"/>
<path d="M41.7465 24.4084H38.2554V27.8747H41.7465V24.4084Z" fill="#F7A285"/>
<path d="M41.7465 20.9062H38.2554V24.4081H41.7465V20.9062Z" fill="black"/>
<path d="M38.2554 97.5955H34.7997V101.062H38.2554V97.5955Z" fill="black"/>
<path d="M38.2554 94.0935H34.7997V97.5954H38.2554V94.0935Z" fill="#AFAFAF"/>
<path d="M38.2554 90.6272H34.7997V94.0935H38.2554V90.6272Z" fill="#AFAFAF"/>
<path d="M38.2554 87.1257H34.7997V90.6276H38.2554V87.1257Z" fill="#E6E6E6"/>
<path d="M38.2554 83.6592H34.7997V87.1255H38.2554V83.6592Z" fill="white"/>
<path d="M38.2554 80.1572H34.7997V83.6592H38.2554V80.1572Z" fill="black"/>
<path d="M38.2554 76.6909H34.7997V80.1572H38.2554V76.6909Z" fill="#AFAFAF"/>
<path d="M38.2554 73.189H34.7997V76.6908H38.2554V73.189Z" fill="#E6E6E6"/>
<path d="M38.2554 69.7209H34.7997V73.1872H38.2554V69.7209Z" fill="#AFAFAF"/>
<path d="M38.2554 66.219H34.7997V69.7209H38.2554V66.219Z" fill="#E6E6E6"/>
<path d="M38.2554 62.7529H34.7997V66.2193H38.2554V62.7529Z" fill="#E6E6E6"/>
<path d="M38.2554 59.251H34.7997V62.7529H38.2554V59.251Z" fill="#AFAFAF"/>
<path d="M38.2554 55.7847H34.7997V59.251H38.2554V55.7847Z" fill="black"/>
<path d="M38.2554 52.2827H34.7997V55.7846H38.2554V52.2827Z" fill="#F1B380"/>
<path d="M38.2554 48.7808H34.7997V52.2826H38.2554V48.7808Z" fill="#F1B380"/>
<path d="M38.2554 45.3147H34.7997V48.781H38.2554V45.3147Z" fill="black"/>
<path d="M38.2554 41.8108H34.7997V45.3127H38.2554V41.8108Z" fill="black"/>
<path d="M38.2554 38.3447H34.7997V41.811H38.2554V38.3447Z" fill="black"/>
<path d="M38.2554 34.8425H34.7997V38.3444H38.2554V34.8425Z" fill="#AF370D"/>
<path d="M38.2554 31.3762H34.7997V34.8425H38.2554V31.3762Z" fill="#C53C0D"/>
<path d="M38.2554 27.8748H34.7997V31.3767H38.2554V27.8748Z" fill="#C53C0D"/>
<path d="M38.2554 24.4084H34.7997V27.8747H38.2554V24.4084Z" fill="#F7A285"/>
<path d="M38.2554 20.9062H34.7997V24.4081H38.2554V20.9062Z" fill="black"/>
<path d="M34.7996 97.5955H31.3084V101.062H34.7996V97.5955Z" fill="black"/>
<path d="M34.7996 94.0935H31.3084V97.5954H34.7996V94.0935Z" fill="#AFAFAF"/>
<path d="M34.7996 90.6272H31.3084V94.0935H34.7996V90.6272Z" fill="#E6E6E6"/>
<path d="M34.7996 87.1257H31.3084V90.6276H34.7996V87.1257Z" fill="white"/>
<path d="M34.7996 83.6592H31.3084V87.1255H34.7996V83.6592Z" fill="#E6E6E6"/>
<path d="M34.7996 80.1572H31.3084V83.6592H34.7996V80.1572Z" fill="black"/>
<path d="M34.7996 76.6909H31.3084V80.1572H34.7996V76.6909Z" fill="#AFAFAF"/>
<path d="M34.7996 73.189H31.3084V76.6908H34.7996V73.189Z" fill="#AFAFAF"/>
<path d="M34.7996 69.7209H31.3084V73.1872H34.7996V69.7209Z" fill="#E6E6E6"/>
<path d="M34.7996 66.219H31.3084V69.7209H34.7996V66.219Z" fill="white"/>
<path d="M34.7996 62.7529H31.3084V66.2193H34.7996V62.7529Z" fill="#AFAFAF"/>
<path d="M34.7996 59.251H31.3084V62.7529H34.7996V59.251Z" fill="#E6E6E6"/>
<path d="M34.7996 55.7847H31.3084V59.251H34.7996V55.7847Z" fill="black"/>
<path d="M34.7996 52.2827H31.3084V55.7846H34.7996V52.2827Z" fill="#F1B380"/>
<path d="M34.7996 48.7808H31.3084V52.2826H34.7996V48.7808Z" fill="#F1B380"/>
<path d="M34.7996 45.3147H31.3084V48.781H34.7996V45.3147Z" fill="#E4976F"/>
<path d="M34.7996 41.8108H31.3084V45.3127H34.7996V41.8108Z" fill="#E4976F"/>
<path d="M34.7996 38.3447H31.3084V41.811H34.7996V38.3447Z" fill="black"/>
<path d="M34.7996 34.8425H31.3084V38.3444H34.7996V34.8425Z" fill="#AF370D"/>
<path d="M34.7996 31.3762H31.3084V34.8425H34.7996V31.3762Z" fill="#C53C0D"/>
<path d="M34.7996 27.8748H31.3084V31.3767H34.7996V27.8748Z" fill="#F7A285"/>
<path d="M34.7996 24.4084H31.3084V27.8747H34.7996V24.4084Z" fill="black"/>
<path d="M31.3102 97.5955H27.8191V101.062H31.3102V97.5955Z" fill="black"/>
<path d="M31.3102 94.0935H27.8191V97.5954H31.3102V94.0935Z" fill="#AFAFAF"/>
<path d="M31.3102 90.6272H27.8191V94.0935H31.3102V90.6272Z" fill="white"/>
<path d="M31.3102 87.1257H27.8191V90.6276H31.3102V87.1257Z" fill="#E6E6E6"/>
<path d="M31.3102 83.6592H27.8191V87.1255H31.3102V83.6592Z" fill="white"/>
<path d="M31.3102 80.1572H27.8191V83.6592H31.3102V80.1572Z" fill="black"/>
<path d="M31.3102 76.6909H27.8191V80.1572H31.3102V76.6909Z" fill="#AFAFAF"/>
<path d="M31.3102 73.189H27.8191V76.6908H31.3102V73.189Z" fill="#E6E6E6"/>
<path d="M31.3102 69.7209H27.8191V73.1872H31.3102V69.7209Z" fill="white"/>
<path d="M31.3102 66.219H27.8191V69.7209H31.3102V66.219Z" fill="#E6E6E6"/>
<path d="M31.3102 62.7529H27.8191V66.2193H31.3102V62.7529Z" fill="white"/>
<path d="M31.3102 59.251H27.8191V62.7529H31.3102V59.251Z" fill="#AFAFAF"/>
<path d="M31.3102 55.7847H27.8191V59.251H31.3102V55.7847Z" fill="black"/>
<path d="M31.3102 52.2827H27.8191V55.7846H31.3102V52.2827Z" fill="#F1B380"/>
<path d="M31.3102 48.7808H27.8191V52.2826H31.3102V48.7808Z" fill="#E4976F"/>
<path d="M31.3102 45.3147H27.8191V48.781H31.3102V45.3147Z" fill="black"/>
<path d="M31.3102 41.8108H27.8191V45.3127H31.3102V41.8108Z" fill="black"/>
<path d="M31.3102 38.3447H27.8191V41.811H31.3102V38.3447Z" fill="#AF370D"/>
<path d="M31.3102 34.8425H27.8191V38.3444H31.3102V34.8425Z" fill="#C53C0D"/>
<path d="M31.3102 31.3762H27.8191V34.8425H31.3102V31.3762Z" fill="#F7A285"/>
<path d="M31.3102 27.8748H27.8191V31.3767H31.3102V27.8748Z" fill="black"/>
<path d="M27.8192 104.565H24.3636V108.032H27.8192V104.565Z" fill="black"/>
<path d="M27.8192 101.064H24.3636V104.566H27.8192V101.064Z" fill="black"/>
<path d="M27.8192 97.5955H24.3636V101.062H27.8192V97.5955Z" fill="#AF370D"/>
<path d="M27.8192 94.0935H24.3636V97.5954H27.8192V94.0935Z" fill="black"/>
<path d="M27.8192 90.6272H24.3636V94.0935H27.8192V90.6272Z" fill="black"/>
<path d="M27.8192 87.1257H24.3636V90.6276H27.8192V87.1257Z" fill="black"/>
<path d="M27.8192 83.6592H24.3636V87.1255H27.8192V83.6592Z" fill="white"/>
<path d="M27.8192 80.1572H24.3636V83.6592H27.8192V80.1572Z" fill="black"/>
<path d="M27.8192 76.6909H24.3636V80.1572H27.8192V76.6909Z" fill="black"/>
<path d="M27.8192 73.189H24.3636V76.6908H27.8192V73.189Z" fill="black"/>
<path d="M27.8192 69.7209H24.3636V73.1872H27.8192V69.7209Z" fill="black"/>
<path d="M27.8192 66.219H24.3636V69.7209H27.8192V66.219Z" fill="white"/>
<path d="M27.8192 62.7529H24.3636V66.2193H27.8192V62.7529Z" fill="#E6E6E6"/>
<path d="M27.8192 59.251H24.3636V62.7529H27.8192V59.251Z" fill="white"/>
<path d="M27.8192 55.7847H24.3636V59.251H27.8192V55.7847Z" fill="black"/>
<path d="M27.8192 52.2827H24.3636V55.7846H27.8192V52.2827Z" fill="#E4976F"/>
<path d="M27.8192 48.7808H24.3636V52.2826H27.8192V48.7808Z" fill="black"/>
<path d="M27.8192 45.3147H24.3636V48.781H27.8192V45.3147Z" fill="#AF370D"/>
<path d="M27.8192 41.8108H24.3636V45.3127H27.8192V41.8108Z" fill="#AF370D"/>
<path d="M27.8192 38.3447H24.3636V41.811H27.8192V38.3447Z" fill="#C53C0D"/>
<path d="M27.8192 34.8425H24.3636V38.3444H27.8192V34.8425Z" fill="#C53C0D"/>
<path d="M27.8192 31.3762H24.3636V34.8425H27.8192V31.3762Z" fill="#F7A285"/>
<path d="M27.8192 27.8748H24.3636V31.3767H27.8192V27.8748Z" fill="black"/>
<path d="M24.3634 111.534H20.8723V115H24.3634V111.534Z" fill="black"/>
<path d="M24.3634 108.032H20.8723V111.534H24.3634V108.032Z" fill="black"/>
<path d="M24.3634 104.565H20.8723V108.032H24.3634V104.565Z" fill="#AF370D"/>
<path d="M24.3634 101.064H20.8723V104.566H24.3634V101.064Z" fill="#AF370D"/>
<path d="M24.3634 97.5955H20.8723V101.062H24.3634V97.5955Z" fill="#C53C0D"/>
<path d="M24.3634 94.0935H20.8723V97.5954H24.3634V94.0935Z" fill="#AF370D"/>
<path d="M24.3634 90.6272H20.8723V94.0935H24.3634V90.6272Z" fill="#C53C0D"/>
<path d="M24.3634 87.1257H20.8723V90.6276H24.3634V87.1257Z" fill="black"/>
<path d="M24.3634 83.6592H20.8723V87.1255H24.3634V83.6592Z" fill="black"/>
<path d="M24.3634 80.1572H20.8723V83.6592H24.3634V80.1572Z" fill="black"/>
<path d="M24.3634 76.6909H20.8723V80.1572H24.3634V76.6909Z" fill="#E6E6E6"/>
<path d="M24.3634 73.189H20.8723V76.6908H24.3634V73.189Z" fill="#E6E6E6"/>
<path d="M24.3634 69.7209H20.8723V73.1872H24.3634V69.7209Z" fill="white"/>
<path d="M24.3634 66.219H20.8723V69.7209H24.3634V66.219Z" fill="#E6E6E6"/>
<path d="M24.3634 62.7529H20.8723V66.2193H24.3634V62.7529Z" fill="white"/>
<path d="M24.3634 59.251H20.8723V62.7529H24.3634V59.251Z" fill="black"/>
<path d="M24.3634 55.7847H20.8723V59.251H24.3634V55.7847Z" fill="white"/>
<path d="M24.3634 52.2827H20.8723V55.7846H24.3634V52.2827Z" fill="black"/>
<path d="M24.3634 48.7808H20.8723V52.2826H24.3634V48.7808Z" fill="#AF370D"/>
<path d="M24.3634 45.3147H20.8723V48.781H24.3634V45.3147Z" fill="#C53C0D"/>
<path d="M24.3634 41.8108H20.8723V45.3127H24.3634V41.8108Z" fill="#C53C0D"/>
<path d="M24.3634 38.3447H20.8723V41.811H24.3634V38.3447Z" fill="#C53C0D"/>
<path d="M24.3634 34.8425H20.8723V38.3444H24.3634V34.8425Z" fill="#F7A285"/>
<path d="M24.3634 31.3762H20.8723V34.8425H24.3634V31.3762Z" fill="black"/>
<path d="M20.8724 111.534H17.4167V115H20.8724V111.534Z" fill="black"/>
<path d="M20.8724 108.032H17.4167V111.534H20.8724V108.032Z" fill="#AFAFAF"/>
<path d="M20.8724 104.565H17.4167V108.032H20.8724V104.565Z" fill="black"/>
<path d="M20.8724 101.064H17.4167V104.566H20.8724V101.064Z" fill="#C53C0D"/>
<path d="M20.8724 97.5955H17.4167V101.062H20.8724V97.5955Z" fill="#C53C0D"/>
<path d="M20.8724 94.0935H17.4167V97.5954H20.8724V94.0935Z" fill="#C53C0D"/>
<path d="M20.8724 90.6272H17.4167V94.0935H20.8724V90.6272Z" fill="black"/>
<path d="M20.8724 87.1257H17.4167V90.6276H20.8724V87.1257Z" fill="white"/>
<path d="M20.8724 83.6592H17.4167V87.1255H20.8724V83.6592Z" fill="black"/>
<path d="M20.8724 80.1572H17.4167V83.6592H20.8724V80.1572Z" fill="#E6E6E6"/>
<path d="M20.8724 76.6909H17.4167V80.1572H20.8724V76.6909Z" fill="#E6E6E6"/>
<path d="M20.8724 73.189H17.4167V76.6908H20.8724V73.189Z" fill="#E6E6E6"/>
<path d="M20.8724 69.7209H17.4167V73.1872H20.8724V69.7209Z" fill="white"/>
<path d="M20.8724 66.219H17.4167V69.7209H20.8724V66.219Z" fill="black"/>
<path d="M20.8724 62.7529H17.4167V66.2193H20.8724V62.7529Z" fill="black"/>
<path d="M20.8724 59.251H17.4167V62.7529H20.8724V59.251Z" fill="white"/>
<path d="M20.8724 55.7847H17.4167V59.251H20.8724V55.7847Z" fill="white"/>
<path d="M20.8724 52.2827H17.4167V55.7846H20.8724V52.2827Z" fill="white"/>
<path d="M20.8724 48.7808H17.4167V52.2826H20.8724V48.7808Z" fill="black"/>
<path d="M20.8724 45.3147H17.4167V48.781H20.8724V45.3147Z" fill="black"/>
<path d="M20.8724 41.8108H17.4167V45.3127H20.8724V41.8108Z" fill="black"/>
<path d="M20.8724 38.3447H17.4167V41.811H20.8724V38.3447Z" fill="black"/>
<path d="M20.8724 34.8425H17.4167V38.3444H20.8724V34.8425Z" fill="black"/>
<path d="M17.4184 111.534H13.9272V115H17.4184V111.534Z" fill="black"/>
<path d="M17.4184 108.032H13.9272V111.534H17.4184V108.032Z" fill="#AFAFAF"/>
<path d="M17.4184 104.565H13.9272V108.032H17.4184V104.565Z" fill="black"/>
<path d="M17.4184 101.064H13.9272V104.566H17.4184V101.064Z" fill="#C53C0D"/>
<path d="M17.4184 97.5955H13.9272V101.062H17.4184V97.5955Z" fill="#F7A285"/>
<path d="M17.4184 94.0935H13.9272V97.5954H17.4184V94.0935Z" fill="black"/>
<path d="M17.4184 87.1257H13.9272V90.6276H17.4184V87.1257Z" fill="black"/>
<path d="M17.4184 83.6592H13.9272V87.1255H17.4184V83.6592Z" fill="black"/>
<path d="M17.4184 80.1572H13.9272V83.6592H17.4184V80.1572Z" fill="#E6E6E6"/>
<path d="M17.4184 76.6909H13.9272V80.1572H17.4184V76.6909Z" fill="black"/>
<path d="M17.4184 73.189H13.9272V76.6908H17.4184V73.189Z" fill="black"/>
<path d="M17.4184 69.7209H13.9272V73.1872H17.4184V69.7209Z" fill="black"/>
<path d="M17.4184 66.219H13.9272V69.7209H17.4184V66.219Z" fill="#EA9E09"/>
<path d="M17.4184 62.7529H13.9272V66.2193H17.4184V62.7529Z" fill="#EA9E09"/>
<path d="M17.4184 59.251H13.9272V62.7529H17.4184V59.251Z" fill="black"/>
<path d="M17.4184 55.7847H13.9272V59.251H17.4184V55.7847Z" fill="black"/>
<path d="M17.4184 52.2827H13.9272V55.7846H17.4184V52.2827Z" fill="black"/>
<path d="M17.4184 48.7808H13.9272V52.2826H17.4184V48.7808Z" fill="black"/>
<path d="M17.4184 45.3147H13.9272V48.781H17.4184V45.3147Z" fill="black"/>
<path d="M17.4184 41.8108H13.9272V45.3127H17.4184V41.8108Z" fill="black"/>
<path d="M17.4184 38.3447H13.9272V41.811H17.4184V38.3447Z" fill="black"/>
<path d="M17.4184 34.8425H13.9272V38.3444H17.4184V34.8425Z" fill="black"/>
<path d="M17.4184 31.3762H13.9272V34.8425H17.4184V31.3762Z" fill="black"/>
<path d="M17.4184 27.8748H13.9272V31.3767H17.4184V27.8748Z" fill="black"/>
<path d="M17.4184 24.4084H13.9272V27.8747H17.4184V24.4084Z" fill="black"/>
<path d="M17.4184 20.9062H13.9272V24.4081H17.4184V20.9062Z" fill="black"/>
<path d="M17.4184 17.4382H13.9272V20.9045H17.4184V17.4382Z" fill="black"/>
<path d="M17.4184 13.9382H13.9272V17.4401H17.4184V13.9382Z" fill="black"/>
<path d="M17.4184 10.47H13.9272V13.9363H17.4184V10.47Z" fill="black"/>
<path d="M13.9273 111.534H10.4362V115H13.9273V111.534Z" fill="black"/>
<path d="M13.9273 108.032H10.4362V111.534H13.9273V108.032Z" fill="white"/>
<path d="M13.9273 104.565H10.4362V108.032H13.9273V104.565Z" fill="black"/>
<path d="M13.9273 101.064H10.4362V104.566H13.9273V101.064Z" fill="black"/>
<path d="M13.9273 97.5955H10.4362V101.062H13.9273V97.5955Z" fill="black"/>
<path d="M13.9273 87.1257H10.4362V90.6276H13.9273V87.1257Z" fill="black"/>
<path d="M13.9273 83.6592H10.4362V87.1255H13.9273V83.6592Z" fill="#EA9E09"/>
<path d="M13.9273 80.1572H10.4362V83.6592H13.9273V80.1572Z" fill="black"/>
<path d="M13.9273 76.6909H10.4362V80.1572H13.9273V76.6909Z" fill="#E4976F"/>
<path d="M13.9273 73.189H10.4362V76.6908H13.9273V73.189Z" fill="#E4976F"/>
<path d="M13.9273 69.7209H10.4362V73.1872H13.9273V69.7209Z" fill="#F1B380"/>
<path d="M13.9273 66.219H10.4362V69.7209H13.9273V66.219Z" fill="black"/>
<path d="M13.9273 62.7529H10.4362V66.2193H13.9273V62.7529Z" fill="#EA9E09"/>
<path d="M13.9273 59.251H10.4362V62.7529H13.9273V59.251Z" fill="black"/>
<path d="M13.9273 55.7847H10.4362V59.251H13.9273V55.7847Z" fill="#AFAFAF"/>
<path d="M13.9273 52.2827H10.4362V55.7846H13.9273V52.2827Z" fill="#AFAFAF"/>
<path d="M13.9273 48.7808H10.4362V52.2826H13.9273V48.7808Z" fill="#AFAFAF"/>
<path d="M13.9273 45.3147H10.4362V48.781H13.9273V45.3147Z" fill="#AFAFAF"/>
<path d="M13.9273 41.8108H10.4362V45.3127H13.9273V41.8108Z" fill="#AFAFAF"/>
<path d="M13.9273 38.3447H10.4362V41.811H13.9273V38.3447Z" fill="#AFAFAF"/>
<path d="M13.9273 34.8425H10.4362V38.3444H13.9273V34.8425Z" fill="#AFAFAF"/>
<path d="M13.9273 31.3762H10.4362V34.8425H13.9273V31.3762Z" fill="#AFAFAF"/>
<path d="M13.9273 27.8748H10.4362V31.3767H13.9273V27.8748Z" fill="#AFAFAF"/>
<path d="M13.9273 24.4084H10.4362V27.8747H13.9273V24.4084Z" fill="#AFAFAF"/>
<path d="M13.9273 20.9062H10.4362V24.4081H13.9273V20.9062Z" fill="#AFAFAF"/>
<path d="M13.9273 17.4382H10.4362V20.9045H13.9273V17.4382Z" fill="#AFAFAF"/>
<path d="M13.9273 13.9382H10.4362V17.4401H13.9273V13.9382Z" fill="#AFAFAF"/>
<path d="M13.9273 10.47H10.4362V13.9363H13.9273V10.47Z" fill="#AFAFAF"/>
<path d="M13.9273 6.96802H10.4362V10.4699H13.9273V6.96802Z" fill="black"/>
<path d="M10.4361 111.534H6.98047V115H10.4361V111.534Z" fill="black"/>
<path d="M10.4361 108.032H6.98047V111.534H10.4361V108.032Z" fill="black"/>
<path d="M10.4361 87.1257H6.98047V90.6276H10.4361V87.1257Z" fill="black"/>
<path d="M10.4361 83.6592H6.98047V87.1255H10.4361V83.6592Z" fill="#FFDD1A"/>
<path d="M10.4361 80.1572H6.98047V83.6592H10.4361V80.1572Z" fill="black"/>
<path d="M10.4361 76.6909H6.98047V80.1572H10.4361V76.6909Z" fill="#E4976F"/>
<path d="M10.4361 73.189H6.98047V76.6908H10.4361V73.189Z" fill="#F1B380"/>
<path d="M10.4361 69.7209H6.98047V73.1872H10.4361V69.7209Z" fill="#F1B380"/>
<path d="M10.4361 66.219H6.98047V69.7209H10.4361V66.219Z" fill="black"/>
<path d="M10.4361 62.7529H6.98047V66.2193H10.4361V62.7529Z" fill="#FFDD1A"/>
<path d="M10.4361 59.251H6.98047V62.7529H10.4361V59.251Z" fill="black"/>
<path d="M10.4361 55.7847H6.98047V59.251H10.4361V55.7847Z" fill="#E6E6E6"/>
<path d="M10.4361 52.2827H6.98047V55.7846H10.4361V52.2827Z" fill="#E6E6E6"/>
<path d="M10.4361 48.7808H6.98047V52.2826H10.4361V48.7808Z" fill="white"/>
<path d="M10.4361 45.3147H6.98047V48.781H10.4361V45.3147Z" fill="white"/>
<path d="M10.4361 41.8108H6.98047V45.3127H10.4361V41.8108Z" fill="white"/>
<path d="M10.4361 38.3447H6.98047V41.811H10.4361V38.3447Z" fill="#E6E6E6"/>
<path d="M10.4361 34.8425H6.98047V38.3444H10.4361V34.8425Z" fill="#E6E6E6"/>
<path d="M10.4361 31.3762H6.98047V34.8425H10.4361V31.3762Z" fill="#E6E6E6"/>
<path d="M10.4361 27.8748H6.98047V31.3767H10.4361V27.8748Z" fill="#E6E6E6"/>
<path d="M10.4361 24.4084H6.98047V27.8747H10.4361V24.4084Z" fill="#E6E6E6"/>
<path d="M10.4361 20.9062H6.98047V24.4081H10.4361V20.9062Z" fill="white"/>
<path d="M10.4361 17.4382H6.98047V20.9045H10.4361V17.4382Z" fill="white"/>
<path d="M10.4361 13.9382H6.98047V17.4401H10.4361V13.9382Z" fill="white"/>
<path d="M10.4361 10.47H6.98047V13.9363H10.4361V10.47Z" fill="white"/>
<path d="M10.4361 6.96802H6.98047V10.4699H10.4361V6.96802Z" fill="white"/>
<path d="M10.4361 3.50171H6.98047V6.96801H10.4361V3.50171Z" fill="black"/>
<path d="M6.98224 83.6592H3.49109V87.1255H6.98224V83.6592Z" fill="black"/>
<path d="M6.98224 76.6909H3.49109V80.1572H6.98224V76.6909Z" fill="black"/>
<path d="M6.98224 73.189H3.49109V76.6908H6.98224V73.189Z" fill="black"/>
<path d="M6.98224 69.7209H3.49109V73.1872H6.98224V69.7209Z" fill="black"/>
<path d="M6.98224 66.219H3.49109V69.7209H6.98224V66.219Z" fill="#FFDD1A"/>
<path d="M6.98224 62.7529H3.49109V66.2193H6.98224V62.7529Z" fill="white"/>
<path d="M6.98224 59.251H3.49109V62.7529H6.98224V59.251Z" fill="black"/>
<path d="M6.98224 55.7847H3.49109V59.251H6.98224V55.7847Z" fill="black"/>
<path d="M6.98224 52.2827H3.49109V55.7846H6.98224V52.2827Z" fill="black"/>
<path d="M6.98224 48.7808H3.49109V52.2826H6.98224V48.7808Z" fill="black"/>
<path d="M6.98224 45.3147H3.49109V48.781H6.98224V45.3147Z" fill="black"/>
<path d="M6.98224 41.8108H3.49109V45.3127H6.98224V41.8108Z" fill="black"/>
<path d="M6.98224 38.3447H3.49109V41.811H6.98224V38.3447Z" fill="black"/>
<path d="M6.98224 34.8425H3.49109V38.3444H6.98224V34.8425Z" fill="black"/>
<path d="M6.98224 31.3762H3.49109V34.8425H6.98224V31.3762Z" fill="black"/>
<path d="M6.98224 27.8748H3.49109V31.3767H6.98224V27.8748Z" fill="black"/>
<path d="M6.98224 24.4084H3.49109V27.8747H6.98224V24.4084Z" fill="black"/>
<path d="M6.98224 20.9062H3.49109V24.4081H6.98224V20.9062Z" fill="black"/>
<path d="M6.98224 17.4382H3.49109V20.9045H6.98224V17.4382Z" fill="black"/>
<path d="M6.98224 13.9382H3.49109V17.4401H6.98224V13.9382Z" fill="black"/>
<path d="M6.98224 10.47H3.49109V13.9363H6.98224V10.47Z" fill="black"/>
<path d="M6.98224 6.96802H3.49109V10.4699H6.98224V6.96802Z" fill="black"/>
<path d="M6.98224 3.50171H3.49109V6.96801H6.98224V3.50171Z" fill="black"/>
<path d="M6.98224 0H3.49109V3.50189H6.98224V0Z" fill="black"/>
<path d="M3.49115 66.219H0V69.7209H3.49115V66.219Z" fill="black"/>
<path d="M3.49115 62.7529H0V66.2193H3.49115V62.7529Z" fill="black"/>
</svg>
