<svg width="20" height="20" viewBox="0 0 20 20" fill="none" xmlns="http://www.w3.org/2000/svg">
<path d="M18.6216 5.47962L18.9807 5.13173L18.6216 4.78383L15.7019 1.9554L15.3428 1.60751L14.9837 1.9554L9.86841 6.91081L4.75315 1.9554L4.39403 1.60751L4.03491 1.9554L1.11524 4.78383L0.756122 5.13173L1.11524 5.47962L6.2305 10.435L1.11524 15.3904L0.756122 15.7383L1.11524 16.0862L4.03491 18.9147L4.39403 19.2625L4.75315 18.9147L9.86841 13.9592L14.9837 18.9147L15.3428 19.2625L15.7019 18.9147L18.6216 16.0862L18.9807 15.7383L18.6216 15.3904L13.5063 10.435L18.6216 5.47962Z" fill="white" stroke="#443100"/>
</svg>
