<svg width="44" height="47" viewBox="0 0 44 47" fill="none" xmlns="http://www.w3.org/2000/svg">
<path d="M44 26.4523H41.0543V29.3746H44V26.4523Z" fill="#0E0E11"/>
<path d="M44 23.5H41.0543V26.4523H44V23.5Z" fill="#0E0E11"/>
<path d="M44 20.5778H41.0543V23.5001H44V20.5778Z" fill="#0E0E11"/>
<path d="M44 17.6254H41.0543V20.5777H44V17.6254Z" fill="#0E0E11"/>
<path d="M44 14.7015H41.0543V17.6238H44V14.7015Z" fill="#0E0E11"/>
<path d="M41.0543 29.3746H38.1385V32.327H41.0543V29.3746Z" fill="#0E0E11"/>
<path d="M41.0543 26.4523H38.1385V29.3746H41.0543V26.4523Z" fill="#AFAFAF"/>
<path d="M41.0543 23.5H38.1385V26.4523H41.0543V23.5Z" fill="#AFAFAF"/>
<path d="M41.0543 20.5778H38.1385V23.5001H41.0543V20.5778Z" fill="#AFAFAF"/>
<path d="M41.0543 17.6254H38.1385V20.5777H41.0543V17.6254Z" fill="white"/>
<path d="M41.0543 14.7015H38.1385V17.6238H41.0543V14.7015Z" fill="white"/>
<path d="M41.0543 11.7507H38.1385V14.703H41.0543V11.7507Z" fill="#0E0E11"/>
<path d="M41.0543 8.8269H38.1385V11.7492H41.0543V8.8269Z" fill="#0E0E11"/>
<path d="M38.14 35.2507H35.1943V38.203H38.14V35.2507Z" fill="#0E0E11"/>
<path d="M38.14 32.3269H35.1943V35.2492H38.14V32.3269Z" fill="#0E0E11"/>
<path d="M38.14 29.3746H35.1943V32.327H38.14V29.3746Z" fill="#0E0E11"/>
<path d="M38.14 26.4523H35.1943V29.3746H38.14V26.4523Z" fill="#0E0E11"/>
<path d="M38.14 23.5H35.1943V26.4523H38.14V23.5Z" fill="white"/>
<path d="M38.14 20.5778H35.1943V23.5001H38.14V20.5778Z" fill="white"/>
<path d="M38.14 17.6254H35.1943V20.5777H38.14V17.6254Z" fill="white"/>
<path d="M38.14 14.7015H35.1943V17.6238H38.14V14.7015Z" fill="white"/>
<path d="M38.14 11.7507H35.1943V14.703H38.14V11.7507Z" fill="white"/>
<path d="M38.14 8.8269H35.1943V11.7492H38.14V8.8269Z" fill="white"/>
<path d="M38.14 5.87463H35.1943V8.82695H38.14V5.87463Z" fill="#0E0E11"/>
<path d="M35.1943 38.203H32.2786V41.1253H35.1943V38.203Z" fill="#0E0E11"/>
<path d="M35.1943 35.2507H32.2786V38.203H35.1943V35.2507Z" fill="#AFAFAF"/>
<path d="M35.1943 32.3269H32.2786V35.2492H35.1943V32.3269Z" fill="#AFAFAF"/>
<path d="M35.1943 29.3746H32.2786V32.327H35.1943V29.3746Z" fill="white"/>
<path d="M35.1943 26.4523H32.2786V29.3746H35.1943V26.4523Z" fill="white"/>
<path d="M35.1943 23.5H32.2786V26.4523H35.1943V23.5Z" fill="#0E0E11"/>
<path d="M35.1943 20.5778H32.2786V23.5001H35.1943V20.5778Z" fill="#0E0E11"/>
<path d="M35.1943 17.6254H32.2786V20.5777H35.1943V17.6254Z" fill="#0E0E11"/>
<path d="M35.1943 14.7015H32.2786V17.6238H35.1943V14.7015Z" fill="white"/>
<path d="M35.1943 11.7507H32.2786V14.703H35.1943V11.7507Z" fill="white"/>
<path d="M35.1943 8.8269H32.2786V11.7492H35.1943V8.8269Z" fill="white"/>
<path d="M35.1943 5.87463H32.2786V8.82695H35.1943V5.87463Z" fill="white"/>
<path d="M35.1943 2.95239H32.2786V5.8747H35.1943V2.95239Z" fill="#0E0E11"/>
<path d="M32.2786 41.1254H29.3328V44.0777H32.2786V41.1254Z" fill="#0E0E11"/>
<path d="M32.2786 38.203H29.3328V41.1253H32.2786V38.203Z" fill="#0E0E11"/>
<path d="M32.2786 35.2507H29.3328V38.203H32.2786V35.2507Z" fill="white"/>
<path d="M32.2786 32.3269H29.3328V35.2492H32.2786V32.3269Z" fill="white"/>
<path d="M32.2786 29.3746H29.3328V32.327H32.2786V29.3746Z" fill="white"/>
<path d="M32.2786 26.4523H29.3328V29.3746H32.2786V26.4523Z" fill="#0E0E11"/>
<path d="M32.2786 23.5H29.3328V26.4523H32.2786V23.5Z" fill="#0E0E11"/>
<path d="M32.2786 20.5778H29.3328V23.5001H32.2786V20.5778Z" fill="#0E0E11"/>
<path d="M32.2786 17.6254H29.3328V20.5777H32.2786V17.6254Z" fill="#0E0E11"/>
<path d="M32.2786 14.7015H29.3328V17.6238H32.2786V14.7015Z" fill="#AFAFAF"/>
<path d="M32.2786 11.7507H29.3328V14.703H32.2786V11.7507Z" fill="white"/>
<path d="M32.2786 8.8269H29.3328V11.7492H32.2786V8.8269Z" fill="white"/>
<path d="M32.2786 5.87463H29.3328V8.82695H32.2786V5.87463Z" fill="white"/>
<path d="M32.2786 2.95239H29.3328V5.8747H32.2786V2.95239Z" fill="#0E0E11"/>
<path d="M29.3343 44.0778H26.3886V47.0001H29.3343V44.0778Z" fill="#0E0E11"/>
<path d="M29.3343 41.1254H26.3886V44.0777H29.3343V41.1254Z" fill="#AFAFAF"/>
<path d="M29.3343 38.203H26.3886V41.1253H29.3343V38.203Z" fill="white"/>
<path d="M29.3343 35.2507H26.3886V38.203H29.3343V35.2507Z" fill="white"/>
<path d="M29.3343 32.3269H26.3886V35.2492H29.3343V32.3269Z" fill="#0E0E11"/>
<path d="M29.3343 29.3746H26.3886V32.327H29.3343V29.3746Z" fill="white"/>
<path d="M29.3343 26.4523H26.3886V29.3746H29.3343V26.4523Z" fill="#0E0E11"/>
<path d="M29.3343 23.5H26.3886V26.4523H29.3343V23.5Z" fill="#0E0E11"/>
<path d="M29.3343 20.5778H26.3886V23.5001H29.3343V20.5778Z" fill="#FD0505"/>
<path d="M29.3343 17.6254H26.3886V20.5777H29.3343V17.6254Z" fill="#AFAFAF"/>
<path d="M29.3343 14.7015H26.3886V17.6238H29.3343V14.7015Z" fill="white"/>
<path d="M29.3343 11.7507H26.3886V14.703H29.3343V11.7507Z" fill="white"/>
<path d="M29.3343 8.8269H26.3886V11.7492H29.3343V8.8269Z" fill="white"/>
<path d="M29.3343 5.87463H26.3886V8.82695H29.3343V5.87463Z" fill="white"/>
<path d="M29.3343 2.95239H26.3886V5.8747H29.3343V2.95239Z" fill="white"/>
<path d="M29.3343 0H26.3886V2.95231H29.3343V0Z" fill="#0E0E11"/>
<path d="M26.3886 44.0778H23.4729V47.0001H26.3886V44.0778Z" fill="#0E0E11"/>
<path d="M26.3886 41.1254H23.4729V44.0777H26.3886V41.1254Z" fill="#0E0E11"/>
<path d="M26.3886 38.203H23.4729V41.1253H26.3886V38.203Z" fill="white"/>
<path d="M26.3886 35.2507H23.4729V38.203H26.3886V35.2507Z" fill="#0E0E11"/>
<path d="M26.3886 32.3269H23.4729V35.2492H26.3886V32.3269Z" fill="#0E0E11"/>
<path d="M26.3886 29.3746H23.4729V32.327H26.3886V29.3746Z" fill="white"/>
<path d="M26.3886 26.4523H23.4729V29.3746H26.3886V26.4523Z" fill="white"/>
<path d="M26.3886 23.5H23.4729V26.4523H26.3886V23.5Z" fill="#0E0E11"/>
<path d="M26.3886 20.5778H23.4729V23.5001H26.3886V20.5778Z" fill="#0E0E11"/>
<path d="M26.3886 17.6254H23.4729V20.5777H26.3886V17.6254Z" fill="#AFAFAF"/>
<path d="M26.3886 14.7015H23.4729V17.6238H26.3886V14.7015Z" fill="white"/>
<path d="M26.3886 11.7507H23.4729V14.703H26.3886V11.7507Z" fill="white"/>
<path d="M26.3886 8.8269H23.4729V11.7492H26.3886V8.8269Z" fill="white"/>
<path d="M26.3886 5.87463H23.4729V8.82695H26.3886V5.87463Z" fill="white"/>
<path d="M26.3886 2.95239H23.4729V5.8747H26.3886V2.95239Z" fill="white"/>
<path d="M26.3886 0H23.4729V2.95231H26.3886V0Z" fill="#0E0E11"/>
<path d="M23.4729 44.0778H20.5271V47.0001H23.4729V44.0778Z" fill="#0E0E11"/>
<path d="M23.4729 41.1254H20.5271V44.0777H23.4729V41.1254Z" fill="#AFAFAF"/>
<path d="M23.4729 38.203H20.5271V41.1253H23.4729V38.203Z" fill="white"/>
<path d="M23.4729 35.2507H20.5271V38.203H23.4729V35.2507Z" fill="white"/>
<path d="M23.4729 32.3269H20.5271V35.2492H23.4729V32.3269Z" fill="white"/>
<path d="M23.4729 29.3746H20.5271V32.327H23.4729V29.3746Z" fill="white"/>
<path d="M23.4729 26.4523H20.5271V29.3746H23.4729V26.4523Z" fill="white"/>
<path d="M23.4729 23.5H20.5271V26.4523H23.4729V23.5Z" fill="white"/>
<path d="M23.4729 20.5778H20.5271V23.5001H23.4729V20.5778Z" fill="white"/>
<path d="M23.4729 17.6254H20.5271V20.5777H23.4729V17.6254Z" fill="white"/>
<path d="M23.4729 14.7015H20.5271V17.6238H23.4729V14.7015Z" fill="white"/>
<path d="M23.4729 11.7507H20.5271V14.703H23.4729V11.7507Z" fill="white"/>
<path d="M23.4729 8.8269H20.5271V11.7492H23.4729V8.8269Z" fill="white"/>
<path d="M23.4729 5.87463H20.5271V8.82695H23.4729V5.87463Z" fill="white"/>
<path d="M23.4729 2.95239H20.5271V5.8747H23.4729V2.95239Z" fill="white"/>
<path d="M23.4729 0H20.5271V2.95231H23.4729V0Z" fill="#0E0E11"/>
<path d="M20.5286 44.0778H17.5829V47.0001H20.5286V44.0778Z" fill="#0E0E11"/>
<path d="M20.5286 41.1254H17.5829V44.0777H20.5286V41.1254Z" fill="#0E0E11"/>
<path d="M20.5286 38.203H17.5829V41.1253H20.5286V38.203Z" fill="white"/>
<path d="M20.5286 35.2507H17.5829V38.203H20.5286V35.2507Z" fill="#0E0E11"/>
<path d="M20.5286 32.3269H17.5829V35.2492H20.5286V32.3269Z" fill="#0E0E11"/>
<path d="M20.5286 29.3746H17.5829V32.327H20.5286V29.3746Z" fill="white"/>
<path d="M20.5286 26.4523H17.5829V29.3746H20.5286V26.4523Z" fill="white"/>
<path d="M20.5286 23.5H17.5829V26.4523H20.5286V23.5Z" fill="#0E0E11"/>
<path d="M20.5286 20.5778H17.5829V23.5001H20.5286V20.5778Z" fill="#0E0E11"/>
<path d="M20.5286 17.6254H17.5829V20.5777H20.5286V17.6254Z" fill="#AFAFAF"/>
<path d="M20.5286 14.7015H17.5829V17.6238H20.5286V14.7015Z" fill="white"/>
<path d="M20.5286 11.7507H17.5829V14.703H20.5286V11.7507Z" fill="white"/>
<path d="M20.5286 8.8269H17.5829V11.7492H20.5286V8.8269Z" fill="white"/>
<path d="M20.5286 5.87463H17.5829V8.82695H20.5286V5.87463Z" fill="white"/>
<path d="M20.5286 2.95239H17.5829V5.8747H20.5286V2.95239Z" fill="white"/>
<path d="M20.5286 0H17.5829V2.95231H20.5286V0Z" fill="#0E0E11"/>
<path d="M17.5829 44.0778H14.6672V47.0001H17.5829V44.0778Z" fill="#0E0E11"/>
<path d="M17.5829 41.1254H14.6672V44.0777H17.5829V41.1254Z" fill="#AFAFAF"/>
<path d="M17.5829 38.203H14.6672V41.1253H17.5829V38.203Z" fill="white"/>
<path d="M17.5829 35.2507H14.6672V38.203H17.5829V35.2507Z" fill="white"/>
<path d="M17.5829 32.3269H14.6672V35.2492H17.5829V32.3269Z" fill="#0E0E11"/>
<path d="M17.5829 29.3746H14.6672V32.327H17.5829V29.3746Z" fill="white"/>
<path d="M17.5829 26.4523H14.6672V29.3746H17.5829V26.4523Z" fill="#0E0E11"/>
<path d="M17.5829 23.5H14.6672V26.4523H17.5829V23.5Z" fill="#0E0E11"/>
<path d="M17.5829 20.5778H14.6672V23.5001H17.5829V20.5778Z" fill="#FD0505"/>
<path d="M17.5829 17.6254H14.6672V20.5777H17.5829V17.6254Z" fill="#AFAFAF"/>
<path d="M17.5829 14.7015H14.6672V17.6238H17.5829V14.7015Z" fill="white"/>
<path d="M17.5829 11.7507H14.6672V14.703H17.5829V11.7507Z" fill="white"/>
<path d="M17.5829 8.8269H14.6672V11.7492H17.5829V8.8269Z" fill="white"/>
<path d="M17.5829 5.87463H14.6672V8.82695H17.5829V5.87463Z" fill="white"/>
<path d="M17.5829 2.95239H14.6672V5.8747H17.5829V2.95239Z" fill="white"/>
<path d="M17.5829 0H14.6672V2.95231H17.5829V0Z" fill="#0E0E11"/>
<path d="M14.6672 41.1254H11.7214V44.0777H14.6672V41.1254Z" fill="#0E0E11"/>
<path d="M14.6672 38.203H11.7214V41.1253H14.6672V38.203Z" fill="#0E0E11"/>
<path d="M14.6672 35.2507H11.7214V38.203H14.6672V35.2507Z" fill="white"/>
<path d="M14.6672 32.3269H11.7214V35.2492H14.6672V32.3269Z" fill="white"/>
<path d="M14.6672 29.3746H11.7214V32.327H14.6672V29.3746Z" fill="white"/>
<path d="M14.6672 26.4523H11.7214V29.3746H14.6672V26.4523Z" fill="#0E0E11"/>
<path d="M14.6672 23.5H11.7214V26.4523H14.6672V23.5Z" fill="#0E0E11"/>
<path d="M14.6672 20.5778H11.7214V23.5001H14.6672V20.5778Z" fill="#0E0E11"/>
<path d="M14.6672 17.6254H11.7214V20.5777H14.6672V17.6254Z" fill="#0E0E11"/>
<path d="M14.6672 14.7015H11.7214V17.6238H14.6672V14.7015Z" fill="#AFAFAF"/>
<path d="M14.6672 11.7507H11.7214V14.703H14.6672V11.7507Z" fill="white"/>
<path d="M14.6672 8.8269H11.7214V11.7492H14.6672V8.8269Z" fill="white"/>
<path d="M14.6672 5.87463H11.7214V8.82695H14.6672V5.87463Z" fill="white"/>
<path d="M14.6672 2.95239H11.7214V5.8747H14.6672V2.95239Z" fill="#0E0E11"/>
<path d="M11.7214 38.203H8.77573V41.1253H11.7214V38.203Z" fill="#0E0E11"/>
<path d="M11.7214 35.2507H8.77573V38.203H11.7214V35.2507Z" fill="white"/>
<path d="M11.7214 32.3269H8.77573V35.2492H11.7214V32.3269Z" fill="white"/>
<path d="M11.7214 29.3746H8.77573V32.327H11.7214V29.3746Z" fill="white"/>
<path d="M11.7214 26.4523H8.77573V29.3746H11.7214V26.4523Z" fill="white"/>
<path d="M11.7214 23.5H8.77573V26.4523H11.7214V23.5Z" fill="#0E0E11"/>
<path d="M11.7214 20.5778H8.77573V23.5001H11.7214V20.5778Z" fill="#0E0E11"/>
<path d="M11.7214 17.6254H8.77573V20.5777H11.7214V17.6254Z" fill="#0E0E11"/>
<path d="M11.7214 14.7015H8.77573V17.6238H11.7214V14.7015Z" fill="white"/>
<path d="M11.7214 11.7507H8.77573V14.703H11.7214V11.7507Z" fill="white"/>
<path d="M11.7214 8.8269H8.77573V11.7492H11.7214V8.8269Z" fill="white"/>
<path d="M11.7214 5.87463H8.77573V8.82695H11.7214V5.87463Z" fill="white"/>
<path d="M11.7214 2.95239H8.77573V5.8747H11.7214V2.95239Z" fill="#0E0E11"/>
<path d="M8.77574 35.2507H5.85999V38.203H8.77574V35.2507Z" fill="#0E0E11"/>
<path d="M8.77574 32.3269H5.85999V35.2492H8.77574V32.3269Z" fill="#0E0E11"/>
<path d="M8.77574 29.3746H5.85999V32.327H8.77574V29.3746Z" fill="#0E0E11"/>
<path d="M8.77574 26.4523H5.85999V29.3746H8.77574V26.4523Z" fill="#0E0E11"/>
<path d="M8.77574 23.5H5.85999V26.4523H8.77574V23.5Z" fill="white"/>
<path d="M8.77574 20.5778H5.85999V23.5001H8.77574V20.5778Z" fill="white"/>
<path d="M8.77574 17.6254H5.85999V20.5777H8.77574V17.6254Z" fill="white"/>
<path d="M8.77574 14.7015H5.85999V17.6238H8.77574V14.7015Z" fill="white"/>
<path d="M8.77574 11.7507H5.85999V14.703H8.77574V11.7507Z" fill="white"/>
<path d="M8.77574 8.8269H5.85999V11.7492H8.77574V8.8269Z" fill="white"/>
<path d="M8.77574 5.87463H5.85999V8.82695H8.77574V5.87463Z" fill="#0E0E11"/>
<path d="M5.86146 29.3746H2.91574V32.327H5.86146V29.3746Z" fill="#0E0E11"/>
<path d="M5.86146 26.4523H2.91574V29.3746H5.86146V26.4523Z" fill="white"/>
<path d="M5.86146 23.5H2.91574V26.4523H5.86146V23.5Z" fill="white"/>
<path d="M5.86146 20.5778H2.91574V23.5001H5.86146V20.5778Z" fill="white"/>
<path d="M5.86146 17.6254H2.91574V20.5777H5.86146V17.6254Z" fill="white"/>
<path d="M5.86146 14.7015H2.91574V17.6238H5.86146V14.7015Z" fill="white"/>
<path d="M5.86146 11.7507H2.91574V14.703H5.86146V11.7507Z" fill="#0E0E11"/>
<path d="M5.86146 8.8269H2.91574V11.7492H5.86146V8.8269Z" fill="#0E0E11"/>
<path d="M2.91575 26.4523H0V29.3746H2.91575V26.4523Z" fill="#0E0E11"/>
<path d="M2.91575 23.5H0V26.4523H2.91575V23.5Z" fill="#0E0E11"/>
<path d="M2.91575 20.5778H0V23.5001H2.91575V20.5778Z" fill="#0E0E11"/>
<path d="M2.91575 17.6254H0V20.5777H2.91575V17.6254Z" fill="#0E0E11"/>
<path d="M2.91575 14.7015H0V17.6238H2.91575V14.7015Z" fill="#0E0E11"/>
</svg>
