<svg width="107" height="131" viewBox="0 0 107 131" fill="none" xmlns="http://www.w3.org/2000/svg">
<g clip-path="url(#clip0)">
<path d="M107.002 77.8013H102.87V81.8739H107.002V77.8013Z" fill="black"/>
<path d="M107.002 73.687H102.87V77.8014H107.002V73.687Z" fill="black"/>
<path d="M107.002 69.6144H102.87V73.687H107.002V69.6144Z" fill="black"/>
<path d="M107.002 65.5002H102.87V69.6146H107.002V65.5002Z" fill="black"/>
<path d="M107.002 61.4276H102.87V65.5001H107.002V61.4276Z" fill="black"/>
<path d="M107.002 57.3129H102.87V61.4273H107.002V57.3129Z" fill="black"/>
<path d="M102.87 81.8762H98.7797V85.9906H102.87V81.8762Z" fill="black"/>
<path d="M102.87 77.8013H98.7797V81.8739H102.87V77.8013Z" fill="#C53C0D"/>
<path d="M102.87 73.687H98.7797V77.8014H102.87V73.687Z" fill="black"/>
<path d="M102.87 69.6144H98.7797V73.687H102.87V69.6144Z" fill="black"/>
<path d="M102.87 65.5002H98.7797V69.6146H102.87V65.5002Z" fill="black"/>
<path d="M102.87 61.4276H98.7797V65.5001H102.87V61.4276Z" fill="black"/>
<path d="M102.87 57.3129H98.7797V61.4273H102.87V57.3129Z" fill="#AF370D"/>
<path d="M102.87 53.1987H98.7797V57.3131H102.87V53.1987Z" fill="black"/>
<path d="M98.7797 85.9904H94.6475V90.063H98.7797V85.9904Z" fill="black"/>
<path d="M98.7797 81.8762H94.6475V85.9906H98.7797V81.8762Z" fill="#AF370D"/>
<path d="M98.7797 77.8013H94.6475V81.8739H98.7797V77.8013Z" fill="black"/>
<path d="M98.7797 73.687H94.6475V77.8014H98.7797V73.687Z" fill="#AFAFAF"/>
<path d="M98.7797 69.6144H94.6475V73.687H98.7797V69.6144Z" fill="#AFAFAF"/>
<path d="M98.7797 65.5002H94.6475V69.6146H98.7797V65.5002Z" fill="#E6E6E6"/>
<path d="M98.7797 61.4276H94.6475V65.5001H98.7797V61.4276Z" fill="#E6E6E6"/>
<path d="M98.7797 57.3129H94.6475V61.4273H98.7797V57.3129Z" fill="black"/>
<path d="M98.7797 53.1987H94.6475V57.3131H98.7797V53.1987Z" fill="#AF370D"/>
<path d="M98.7797 49.1261H94.6475V53.1987H98.7797V49.1261Z" fill="black"/>
<path d="M94.6475 90.063H90.5574V94.1774H94.6475V90.063Z" fill="black"/>
<path d="M94.6475 85.9904H90.5574V90.063H94.6475V85.9904Z" fill="#AF370D"/>
<path d="M94.6475 81.8762H90.5574V85.9906H94.6475V81.8762Z" fill="#C53C0D"/>
<path d="M94.6475 77.8013H90.5574V81.8739H94.6475V77.8013Z" fill="black"/>
<path d="M94.6475 73.687H90.5574V77.8014H94.6475V73.687Z" fill="#AFAFAF"/>
<path d="M94.6475 69.6144H90.5574V73.687H94.6475V69.6144Z" fill="#E6E6E6"/>
<path d="M94.6475 65.5002H90.5574V69.6146H94.6475V65.5002Z" fill="#E6E6E6"/>
<path d="M94.6475 61.4276H90.5574V65.5001H94.6475V61.4276Z" fill="white"/>
<path d="M94.6475 57.3129H90.5574V61.4273H94.6475V57.3129Z" fill="black"/>
<path d="M94.6475 53.1987H90.5574V57.3131H94.6475V53.1987Z" fill="#C53C0D"/>
<path d="M94.6475 49.1261H90.5574V53.1987H94.6475V49.1261Z" fill="#AF370D"/>
<path d="M94.6475 45.0118H90.5574V49.1262H94.6475V45.0118Z" fill="black"/>
<path d="M90.5595 122.813H86.4273V126.927H90.5595V122.813Z" fill="black"/>
<path d="M90.5595 118.74H86.4273V122.813H90.5595V118.74Z" fill="black"/>
<path d="M90.5595 90.063H86.4273V94.1774H90.5595V90.063Z" fill="black"/>
<path d="M90.5595 85.9904H86.4273V90.063H90.5595V85.9904Z" fill="#AF370D"/>
<path d="M90.5595 81.8762H86.4273V85.9906H90.5595V81.8762Z" fill="#AF370D"/>
<path d="M90.5595 77.8013H86.4273V81.8739H90.5595V77.8013Z" fill="black"/>
<path d="M90.5595 73.687H86.4273V77.8014H90.5595V73.687Z" fill="#E6E6E6"/>
<path d="M90.5595 69.6144H86.4273V73.687H90.5595V69.6144Z" fill="#E6E6E6"/>
<path d="M90.5595 65.5002H86.4273V69.6146H90.5595V65.5002Z" fill="white"/>
<path d="M90.5595 61.4276H86.4273V65.5001H90.5595V61.4276Z" fill="white"/>
<path d="M90.5595 57.3129H86.4273V61.4273H90.5595V57.3129Z" fill="black"/>
<path d="M90.5595 53.1987H86.4273V57.3131H90.5595V53.1987Z" fill="#AF370D"/>
<path d="M90.5595 49.1261H86.4273V53.1987H90.5595V49.1261Z" fill="#AF370D"/>
<path d="M90.5595 45.0118H86.4273V49.1262H90.5595V45.0118Z" fill="black"/>
<path d="M86.4273 126.927H82.2951V131H86.4273V126.927Z" fill="black"/>
<path d="M86.4273 122.813H82.2951V126.927H86.4273V122.813Z" fill="#AFAFAF"/>
<path d="M86.4273 118.74H82.2951V122.813H86.4273V118.74Z" fill="#AFAFAF"/>
<path d="M86.4273 114.626H82.2951V118.74H86.4273V114.626Z" fill="black"/>
<path d="M86.4273 90.063H82.2951V94.1774H86.4273V90.063Z" fill="black"/>
<path d="M86.4273 85.9904H82.2951V90.063H86.4273V85.9904Z" fill="#AF370D"/>
<path d="M86.4273 81.8762H82.2951V85.9906H86.4273V81.8762Z" fill="#C53C0D"/>
<path d="M86.4273 77.8013H82.2951V81.8739H86.4273V77.8013Z" fill="#C53C0D"/>
<path d="M86.4273 73.687H82.2951V77.8014H86.4273V73.687Z" fill="black"/>
<path d="M86.4273 69.6144H82.2951V73.687H86.4273V69.6144Z" fill="black"/>
<path d="M86.4273 65.5002H82.2951V69.6146H86.4273V65.5002Z" fill="black"/>
<path d="M86.4273 61.4276H82.2951V65.5001H86.4273V61.4276Z" fill="black"/>
<path d="M86.4273 57.3129H82.2951V61.4273H86.4273V57.3129Z" fill="#C53C0D"/>
<path d="M86.4273 53.1987H82.2951V57.3131H86.4273V53.1987Z" fill="#C53C0D"/>
<path d="M86.4273 49.1261H82.2951V53.1987H86.4273V49.1261Z" fill="#F7A285"/>
<path d="M86.4273 45.0118H82.2951V49.1262H86.4273V45.0118Z" fill="black"/>
<path d="M82.2951 126.927H78.2049V131H82.2951V126.927Z" fill="black"/>
<path d="M82.2951 122.813H78.2049V126.927H82.2951V122.813Z" fill="#AFAFAF"/>
<path d="M82.2951 118.74H78.2049V122.813H82.2951V118.74Z" fill="black"/>
<path d="M82.2951 114.626H78.2049V118.74H82.2951V114.626Z" fill="white"/>
<path d="M82.2951 110.551H78.2049V114.624H82.2951V110.551Z" fill="black"/>
<path d="M82.2951 98.2499H78.2049V102.364H82.2951V98.2499Z" fill="black"/>
<path d="M82.2951 94.1772H78.2049V98.2498H82.2951V94.1772Z" fill="black"/>
<path d="M82.2951 90.063H78.2049V94.1774H82.2951V90.063Z" fill="black"/>
<path d="M82.2951 85.9904H78.2049V90.063H82.2951V85.9904Z" fill="black"/>
<path d="M82.2951 81.8762H78.2049V85.9906H82.2951V81.8762Z" fill="#C53C0D"/>
<path d="M82.2951 77.8013H78.2049V81.8739H82.2951V77.8013Z" fill="#AF370D"/>
<path d="M82.2951 73.687H78.2049V77.8014H82.2951V73.687Z" fill="#AF370D"/>
<path d="M82.2951 69.6144H78.2049V73.687H82.2951V69.6144Z" fill="#AF370D"/>
<path d="M82.2951 65.5002H78.2049V69.6146H82.2951V65.5002Z" fill="#AF370D"/>
<path d="M82.2951 61.4276H78.2049V65.5001H82.2951V61.4276Z" fill="#AF370D"/>
<path d="M82.2951 57.3129H78.2049V61.4273H82.2951V57.3129Z" fill="#F7A285"/>
<path d="M82.2951 53.1987H78.2049V57.3131H82.2951V53.1987Z" fill="#F7A285"/>
<path d="M82.2951 49.1261H78.2049V53.1987H82.2951V49.1261Z" fill="black"/>
<path d="M78.207 126.927H74.0748V131H78.207V126.927Z" fill="black"/>
<path d="M78.207 122.813H74.0748V126.927H78.207V122.813Z" fill="white"/>
<path d="M78.207 118.74H74.0748V122.813H78.207V118.74Z" fill="black"/>
<path d="M78.207 114.626H74.0748V118.74H78.207V114.626Z" fill="black"/>
<path d="M78.207 110.551H74.0748V114.624H78.207V110.551Z" fill="#AFAFAF"/>
<path d="M78.207 106.437H74.0748V110.551H78.207V106.437Z" fill="black"/>
<path d="M78.207 102.365H74.0748V106.437H78.207V102.365Z" fill="black"/>
<path d="M78.207 98.2499H74.0748V102.364H78.207V98.2499Z" fill="#AFAFAF"/>
<path d="M78.207 94.1772H74.0748V98.2498H78.207V94.1772Z" fill="#AFAFAF"/>
<path d="M78.207 90.063H74.0748V94.1774H78.207V90.063Z" fill="#AFAFAF"/>
<path d="M78.207 85.9904H74.0748V90.063H78.207V85.9904Z" fill="#AFAFAF"/>
<path d="M78.207 81.8762H74.0748V85.9906H78.207V81.8762Z" fill="black"/>
<path d="M78.207 77.8013H74.0748V81.8739H78.207V77.8013Z" fill="#C53C0D"/>
<path d="M78.207 73.687H74.0748V77.8014H78.207V73.687Z" fill="#C53C0D"/>
<path d="M78.207 69.6144H74.0748V73.687H78.207V69.6144Z" fill="#C53C0D"/>
<path d="M78.207 65.5002H74.0748V69.6146H78.207V65.5002Z" fill="#C53C0D"/>
<path d="M78.207 61.4276H74.0748V65.5001H78.207V61.4276Z" fill="#C53C0D"/>
<path d="M78.207 57.3129H74.0748V61.4273H78.207V57.3129Z" fill="#F7A285"/>
<path d="M78.207 53.1987H74.0748V57.3131H78.207V53.1987Z" fill="black"/>
<path d="M74.0748 126.927H69.9426V131H74.0748V126.927Z" fill="black"/>
<path d="M74.0748 122.813H69.9426V126.927H74.0748V122.813Z" fill="black"/>
<path d="M74.0748 110.551H69.9426V114.624H74.0748V110.551Z" fill="black"/>
<path d="M74.0748 106.437H69.9426V110.551H74.0748V106.437Z" fill="#AFAFAF"/>
<path d="M74.0748 102.365H69.9426V106.437H74.0748V102.365Z" fill="white"/>
<path d="M74.0748 98.2499H69.9426V102.364H74.0748V98.2499Z" fill="black"/>
<path d="M74.0748 94.1772H69.9426V98.2498H74.0748V94.1772Z" fill="black"/>
<path d="M74.0748 90.063H69.9426V94.1774H74.0748V90.063Z" fill="white"/>
<path d="M74.0748 85.9904H69.9426V90.063H74.0748V85.9904Z" fill="white"/>
<path d="M74.0748 81.8762H69.9426V85.9906H74.0748V81.8762Z" fill="#AFAFAF"/>
<path d="M74.0748 77.8013H69.9426V81.8739H74.0748V77.8013Z" fill="black"/>
<path d="M74.0748 73.687H69.9426V77.8014H74.0748V73.687Z" fill="black"/>
<path d="M74.0748 69.6144H69.9426V73.687H74.0748V69.6144Z" fill="black"/>
<path d="M74.0748 65.5002H69.9426V69.6146H74.0748V65.5002Z" fill="black"/>
<path d="M74.0748 61.4276H69.9426V65.5001H74.0748V61.4276Z" fill="black"/>
<path d="M74.0748 57.3129H69.9426V61.4273H74.0748V57.3129Z" fill="black"/>
<path d="M74.0748 53.1987H69.9426V57.3131H74.0748V53.1987Z" fill="black"/>
<path d="M69.9426 106.437H65.8525V110.551H69.9426V106.437Z" fill="black"/>
<path d="M69.9426 102.365H65.8525V106.437H69.9426V102.365Z" fill="black"/>
<path d="M69.9426 94.1772H65.8525V98.2498H69.9426V94.1772Z" fill="black"/>
<path d="M69.9426 90.063H65.8525V94.1774H69.9426V90.063Z" fill="white"/>
<path d="M69.9426 85.9904H65.8525V90.063H69.9426V85.9904Z" fill="white"/>
<path d="M69.9426 81.8762H65.8525V85.9906H69.9426V81.8762Z" fill="black"/>
<path d="M69.9426 77.8013H65.8525V81.8739H69.9426V77.8013Z" fill="#AFAFAF"/>
<path d="M69.9426 73.687H65.8525V77.8014H69.9426V73.687Z" fill="#AFAFAF"/>
<path d="M69.9426 69.6144H65.8525V73.687H69.9426V69.6144Z" fill="black"/>
<path d="M69.9426 65.5002H65.8525V69.6146H69.9426V65.5002Z" fill="white"/>
<path d="M69.9426 61.4276H65.8525V65.5001H69.9426V61.4276Z" fill="black"/>
<path d="M69.9426 57.3129H65.8525V61.4273H69.9426V57.3129Z" fill="#AFAFAF"/>
<path d="M69.9426 53.1987H65.8525V57.3131H69.9426V53.1987Z" fill="#AFAFAF"/>
<path d="M69.9426 49.1261H65.8525V53.1987H69.9426V49.1261Z" fill="black"/>
<path d="M69.9426 32.7501H65.8525V36.8226H69.9426V32.7501Z" fill="black"/>
<path d="M69.9426 28.6354H65.8525V32.7498H69.9426V28.6354Z" fill="black"/>
<path d="M69.9426 24.5628H65.8525V28.6354H69.9426V24.5628Z" fill="black"/>
<path d="M65.8546 94.1772H61.7224V98.2498H65.8546V94.1772Z" fill="black"/>
<path d="M65.8546 90.063H61.7224V94.1774H65.8546V90.063Z" fill="white"/>
<path d="M65.8546 85.9904H61.7224V90.063H65.8546V85.9904Z" fill="black"/>
<path d="M65.8546 77.8013H61.7224V81.8739H65.8546V77.8013Z" fill="black"/>
<path d="M65.8546 73.687H61.7224V77.8014H65.8546V73.687Z" fill="black"/>
<path d="M65.8546 69.6144H61.7224V73.687H65.8546V69.6144Z" fill="#AFAFAF"/>
<path d="M65.8546 65.5002H61.7224V69.6146H65.8546V65.5002Z" fill="white"/>
<path d="M65.8546 61.4276H61.7224V65.5001H65.8546V61.4276Z" fill="white"/>
<path d="M65.8546 57.3129H61.7224V61.4273H65.8546V57.3129Z" fill="white"/>
<path d="M65.8546 53.1987H61.7224V57.3131H65.8546V53.1987Z" fill="black"/>
<path d="M65.8546 49.1261H61.7224V53.1987H65.8546V49.1261Z" fill="#AFAFAF"/>
<path d="M65.8546 45.0118H61.7224V49.1262H65.8546V45.0118Z" fill="black"/>
<path d="M65.8546 36.8227H61.7224V40.9371H65.8546V36.8227Z" fill="black"/>
<path d="M65.8546 32.7501H61.7224V36.8226H65.8546V32.7501Z" fill="white"/>
<path d="M65.8546 28.6354H61.7224V32.7498H65.8546V28.6354Z" fill="white"/>
<path d="M65.8546 24.5628H61.7224V28.6354H65.8546V24.5628Z" fill="white"/>
<path d="M65.8546 20.4486H61.7224V24.563H65.8546V20.4486Z" fill="black"/>
<path d="M61.7224 106.437H57.5902V110.551H61.7224V106.437Z" fill="black"/>
<path d="M61.7224 102.365H57.5902V106.437H61.7224V102.365Z" fill="black"/>
<path d="M61.7224 98.2499H57.5902V102.364H61.7224V98.2499Z" fill="black"/>
<path d="M61.7224 94.1772H57.5902V98.2498H61.7224V94.1772Z" fill="#AFAFAF"/>
<path d="M61.7224 90.063H57.5902V94.1774H61.7224V90.063Z" fill="white"/>
<path d="M61.7224 85.9904H57.5902V90.063H61.7224V85.9904Z" fill="black"/>
<path d="M61.7224 77.8013H57.5902V81.8739H61.7224V77.8013Z" fill="black"/>
<path d="M61.7224 73.687H57.5902V77.8014H61.7224V73.687Z" fill="white"/>
<path d="M61.7224 69.6144H57.5902V73.687H61.7224V69.6144Z" fill="black"/>
<path d="M61.7224 65.5002H57.5902V69.6146H61.7224V65.5002Z" fill="black"/>
<path d="M61.7224 61.4276H57.5902V65.5001H61.7224V61.4276Z" fill="black"/>
<path d="M61.7224 57.3129H57.5902V61.4273H61.7224V57.3129Z" fill="black"/>
<path d="M61.7224 53.1987H57.5902V57.3131H61.7224V53.1987Z" fill="#AFAFAF"/>
<path d="M61.7224 49.1261H57.5902V53.1987H61.7224V49.1261Z" fill="black"/>
<path d="M61.7224 45.0118H57.5902V49.1262H61.7224V45.0118Z" fill="#AFAFAF"/>
<path d="M61.7224 40.9369H57.5902V45.0095H61.7224V40.9369Z" fill="black"/>
<path d="M61.7224 36.8227H57.5902V40.9371H61.7224V36.8227Z" fill="white"/>
<path d="M61.7224 32.7501H57.5902V36.8226H61.7224V32.7501Z" fill="white"/>
<path d="M61.7224 28.6354H57.5902V32.7498H61.7224V28.6354Z" fill="white"/>
<path d="M61.7224 24.5628H57.5902V28.6354H61.7224V24.5628Z" fill="white"/>
<path d="M61.7224 20.4486H57.5902V24.563H61.7224V20.4486Z" fill="white"/>
<path d="M61.7224 16.376H57.5902V20.4486H61.7224V16.376Z" fill="black"/>
<path d="M57.5902 122.813H53.5V126.927H57.5902V122.813Z" fill="black"/>
<path d="M57.5902 118.74H53.5V122.813H57.5902V118.74Z" fill="black"/>
<path d="M57.5902 114.626H53.5V118.74H57.5902V114.626Z" fill="black"/>
<path d="M57.5902 110.551H53.5V114.624H57.5902V110.551Z" fill="black"/>
<path d="M57.5902 106.437H53.5V110.551H57.5902V106.437Z" fill="#AFAFAF"/>
<path d="M57.5902 102.365H53.5V106.437H57.5902V102.365Z" fill="white"/>
<path d="M57.5902 98.2499H53.5V102.364H57.5902V98.2499Z" fill="white"/>
<path d="M57.5902 94.1772H53.5V98.2498H57.5902V94.1772Z" fill="black"/>
<path d="M57.5902 90.063H53.5V94.1774H57.5902V90.063Z" fill="black"/>
<path d="M57.5902 77.8013H53.5V81.8739H57.5902V77.8013Z" fill="black"/>
<path d="M57.5902 73.687H53.5V77.8014H57.5902V73.687Z" fill="#AFAFAF"/>
<path d="M57.5902 69.6144H53.5V73.687H57.5902V69.6144Z" fill="black"/>
<path d="M57.5902 65.5002H53.5V69.6146H57.5902V65.5002Z" fill="white"/>
<path d="M57.5902 61.4276H53.5V65.5001H57.5902V61.4276Z" fill="black"/>
<path d="M57.5902 57.3129H53.5V61.4273H57.5902V57.3129Z" fill="#AFAFAF"/>
<path d="M57.5902 53.1987H53.5V57.3131H57.5902V53.1987Z" fill="black"/>
<path d="M57.5902 45.0118H53.5V49.1262H57.5902V45.0118Z" fill="black"/>
<path d="M57.5902 40.9369H53.5V45.0095H57.5902V40.9369Z" fill="white"/>
<path d="M57.5902 36.8227H53.5V40.9371H57.5902V36.8227Z" fill="white"/>
<path d="M57.5902 32.7501H53.5V36.8226H57.5902V32.7501Z" fill="#E32121"/>
<path d="M57.5902 28.6354H53.5V32.7498H57.5902V28.6354Z" fill="black"/>
<path d="M57.5902 24.5628H53.5V28.6354H57.5902V24.5628Z" fill="white"/>
<path d="M57.5902 20.4486H53.5V24.563H57.5902V20.4486Z" fill="white"/>
<path d="M57.5902 16.376H53.5V20.4486H57.5902V16.376Z" fill="black"/>
<path d="M53.5021 126.927H49.3699V131H53.5021V126.927Z" fill="black"/>
<path d="M53.5021 122.813H49.3699V126.927H53.5021V122.813Z" fill="#AFAFAF"/>
<path d="M53.5021 118.74H49.3699V122.813H53.5021V118.74Z" fill="#AFAFAF"/>
<path d="M53.5021 114.626H49.3699V118.74H53.5021V114.626Z" fill="white"/>
<path d="M53.5021 110.551H49.3699V114.624H53.5021V110.551Z" fill="white"/>
<path d="M53.5021 106.437H49.3699V110.551H53.5021V106.437Z" fill="black"/>
<path d="M53.5021 102.365H49.3699V106.437H53.5021V102.365Z" fill="black"/>
<path d="M53.5021 98.2499H49.3699V102.364H53.5021V98.2499Z" fill="black"/>
<path d="M53.5021 73.687H49.3699V77.8014H53.5021V73.687Z" fill="black"/>
<path d="M53.5021 69.6144H49.3699V73.687H53.5021V69.6144Z" fill="black"/>
<path d="M53.5021 65.5002H49.3699V69.6146H53.5021V65.5002Z" fill="#AFAFAF"/>
<path d="M53.5021 61.4276H49.3699V65.5001H53.5021V61.4276Z" fill="black"/>
<path d="M53.5021 57.3129H49.3699V61.4273H53.5021V57.3129Z" fill="white"/>
<path d="M53.5021 53.1987H49.3699V57.3131H53.5021V53.1987Z" fill="black"/>
<path d="M53.5021 45.0118H49.3699V49.1262H53.5021V45.0118Z" fill="black"/>
<path d="M53.5021 40.9369H49.3699V45.0095H53.5021V40.9369Z" fill="black"/>
<path d="M53.5021 36.8227H49.3699V40.9371H53.5021V36.8227Z" fill="white"/>
<path d="M53.5021 32.7501H49.3699V36.8226H53.5021V32.7501Z" fill="white"/>
<path d="M53.5021 28.6354H49.3699V32.7498H53.5021V28.6354Z" fill="white"/>
<path d="M53.5021 24.5628H49.3699V28.6354H53.5021V24.5628Z" fill="white"/>
<path d="M53.5021 20.4486H49.3699V24.563H53.5021V20.4486Z" fill="white"/>
<path d="M53.5021 16.376H49.3699V20.4486H53.5021V16.376Z" fill="black"/>
<path d="M49.3699 126.927H45.2797V131H49.3699V126.927Z" fill="black"/>
<path d="M49.3699 122.813H45.2797V126.927H49.3699V122.813Z" fill="#AFAFAF"/>
<path d="M49.3699 118.74H45.2797V122.813H49.3699V118.74Z" fill="black"/>
<path d="M49.3699 114.626H45.2797V118.74H49.3699V114.626Z" fill="black"/>
<path d="M49.3699 110.551H45.2797V114.624H49.3699V110.551Z" fill="black"/>
<path d="M49.3699 106.437H45.2797V110.551H49.3699V106.437Z" fill="black"/>
<path d="M49.3699 65.5002H45.2797V69.6146H49.3699V65.5002Z" fill="black"/>
<path d="M49.3699 61.4276H45.2797V65.5001H49.3699V61.4276Z" fill="#AFAFAF"/>
<path d="M49.3699 57.3129H45.2797V61.4273H49.3699V57.3129Z" fill="black"/>
<path d="M49.3699 53.1987H45.2797V57.3131H49.3699V53.1987Z" fill="black"/>
<path d="M49.3699 45.0118H45.2797V49.1262H49.3699V45.0118Z" fill="black"/>
<path d="M49.3699 40.9369H45.2797V45.0095H49.3699V40.9369Z" fill="white"/>
<path d="M49.3699 36.8227H45.2797V40.9371H49.3699V36.8227Z" fill="white"/>
<path d="M49.3699 32.7501H45.2797V36.8226H49.3699V32.7501Z" fill="white"/>
<path d="M49.3699 28.6354H45.2797V32.7498H49.3699V28.6354Z" fill="white"/>
<path d="M49.3699 24.5628H45.2797V28.6354H49.3699V24.5628Z" fill="white"/>
<path d="M49.3699 20.4486H45.2797V24.563H49.3699V20.4486Z" fill="white"/>
<path d="M49.3699 16.376H45.2797V20.4486H49.3699V16.376Z" fill="black"/>
<path d="M45.2797 126.927H41.1475V131H45.2797V126.927Z" fill="black"/>
<path d="M45.2797 122.813H41.1475V126.927H45.2797V122.813Z" fill="white"/>
<path d="M45.2797 118.74H41.1475V122.813H45.2797V118.74Z" fill="black"/>
<path d="M45.2797 61.4276H41.1475V65.5001H45.2797V61.4276Z" fill="#AFAFAF"/>
<path d="M45.2797 57.3129H41.1475V61.4273H45.2797V57.3129Z" fill="white"/>
<path d="M45.2797 53.1987H41.1475V57.3131H45.2797V53.1987Z" fill="black"/>
<path d="M45.2797 45.0118H41.1475V49.1262H45.2797V45.0118Z" fill="black"/>
<path d="M45.2797 40.9369H41.1475V45.0095H45.2797V40.9369Z" fill="black"/>
<path d="M45.2797 36.8227H41.1475V40.9371H45.2797V36.8227Z" fill="white"/>
<path d="M45.2797 32.7501H41.1475V36.8226H45.2797V32.7501Z" fill="#E32121"/>
<path d="M45.2797 28.6354H41.1475V32.7498H45.2797V28.6354Z" fill="black"/>
<path d="M45.2797 24.5628H41.1475V28.6354H45.2797V24.5628Z" fill="white"/>
<path d="M45.2797 20.4486H41.1475V24.563H45.2797V20.4486Z" fill="black"/>
<path d="M41.1496 126.927H37.0174V131H41.1496V126.927Z" fill="black"/>
<path d="M41.1496 122.813H37.0174V126.927H41.1496V122.813Z" fill="black"/>
<path d="M41.1496 65.5002H37.0174V69.6146H41.1496V65.5002Z" fill="black"/>
<path d="M41.1496 61.4276H37.0174V65.5001H41.1496V61.4276Z" fill="white"/>
<path d="M41.1496 57.3129H37.0174V61.4273H41.1496V57.3129Z" fill="black"/>
<path d="M41.1496 36.8227H37.0174V40.9371H41.1496V36.8227Z" fill="black"/>
<path d="M41.1496 32.7501H37.0174V36.8226H41.1496V32.7501Z" fill="black"/>
<path d="M41.1496 28.6354H37.0174V32.7498H41.1496V28.6354Z" fill="black"/>
<path d="M41.1496 24.5628H37.0174V28.6354H41.1496V24.5628Z" fill="black"/>
<path d="M37.0174 69.6144H32.9273V73.687H37.0174V69.6144Z" fill="black"/>
<path d="M37.0174 65.5002H32.9273V69.6146H37.0174V65.5002Z" fill="#AFAFAF"/>
<path d="M37.0174 61.4276H32.9273V65.5001H37.0174V61.4276Z" fill="black"/>
<path d="M32.9273 69.6144H28.7951V73.687H32.9273V69.6144Z" fill="black"/>
<path d="M32.9273 65.5002H28.7951V69.6146H32.9273V65.5002Z" fill="white"/>
<path d="M32.9273 61.4276H28.7951V65.5001H32.9273V61.4276Z" fill="black"/>
<path d="M28.7951 69.6144H24.6629V73.687H28.7951V69.6144Z" fill="black"/>
<path d="M28.7951 65.5002H24.6629V69.6146H28.7951V65.5002Z" fill="white"/>
<path d="M28.7951 61.4276H24.6629V65.5001H28.7951V61.4276Z" fill="black"/>
<path d="M28.7951 53.1987H24.6629V57.3131H28.7951V53.1987Z" fill="black"/>
<path d="M24.665 69.6144H20.5748V73.687H24.665V69.6144Z" fill="black"/>
<path d="M24.665 65.5002H20.5748V69.6146H24.665V65.5002Z" fill="black"/>
<path d="M24.665 61.4276H20.5748V65.5001H24.665V61.4276Z" fill="black"/>
<path d="M24.665 57.3129H20.5748V61.4273H24.665V57.3129Z" fill="black"/>
<path d="M24.665 53.1987H20.5748V57.3131H24.665V53.1987Z" fill="#C53C0D"/>
<path d="M24.665 49.1261H20.5748V53.1987H24.665V49.1261Z" fill="black"/>
<path d="M20.5748 69.6144H16.4426V73.687H20.5748V69.6144Z" fill="black"/>
<path d="M20.5748 65.5002H16.4426V69.6146H20.5748V65.5002Z" fill="black"/>
<path d="M20.5748 61.4276H16.4426V65.5001H20.5748V61.4276Z" fill="black"/>
<path d="M20.5748 57.3129H16.4426V61.4273H20.5748V57.3129Z" fill="white"/>
<path d="M20.5748 53.1987H16.4426V57.3131H20.5748V53.1987Z" fill="black"/>
<path d="M20.5748 49.1261H16.4426V53.1987H20.5748V49.1261Z" fill="black"/>
<path d="M20.5748 45.0118H16.4426V49.1262H20.5748V45.0118Z" fill="black"/>
<path d="M20.5748 40.9369H16.4426V45.0095H20.5748V40.9369Z" fill="black"/>
<path d="M20.5748 36.8227H16.4426V40.9371H20.5748V36.8227Z" fill="black"/>
<path d="M20.5748 32.7501H16.4426V36.8226H20.5748V32.7501Z" fill="black"/>
<path d="M20.5748 28.6354H16.4426V32.7498H20.5748V28.6354Z" fill="black"/>
<path d="M20.5748 24.5628H16.4426V28.6354H20.5748V24.5628Z" fill="black"/>
<path d="M20.5748 20.4486H16.4426V24.563H20.5748V20.4486Z" fill="black"/>
<path d="M20.5748 16.376H16.4426V20.4486H20.5748V16.376Z" fill="black"/>
<path d="M20.5748 12.2617H16.4426V16.3761H20.5748V12.2617Z" fill="black"/>
<path d="M20.5748 8.18704H16.4426V12.2596H20.5748V8.18704Z" fill="black"/>
<path d="M20.5748 4.0726H16.4426V8.187H20.5748V4.0726Z" fill="black"/>
<path d="M20.5748 0H16.4426V4.07258H20.5748V0Z" fill="black"/>
<path d="M16.4426 73.687H12.3104V77.8014H16.4426V73.687Z" fill="black"/>
<path d="M16.4426 69.6144H12.3104V73.687H16.4426V69.6144Z" fill="#C53C0D"/>
<path d="M16.4426 65.5002H12.3104V69.6146H16.4426V65.5002Z" fill="black"/>
<path d="M16.4426 61.4276H12.3104V65.5001H16.4426V61.4276Z" fill="#AFAFAF"/>
<path d="M16.4426 57.3129H12.3104V61.4273H16.4426V57.3129Z" fill="white"/>
<path d="M16.4426 53.1987H12.3104V57.3131H16.4426V53.1987Z" fill="black"/>
<path d="M16.4426 49.1261H12.3104V53.1987H16.4426V49.1261Z" fill="black"/>
<path d="M16.4426 45.0118H12.3104V49.1262H16.4426V45.0118Z" fill="#AFAFAF"/>
<path d="M16.4426 40.9369H12.3104V45.0095H16.4426V40.9369Z" fill="#AFAFAF"/>
<path d="M16.4426 36.8227H12.3104V40.9371H16.4426V36.8227Z" fill="#AFAFAF"/>
<path d="M16.4426 32.7501H12.3104V36.8226H16.4426V32.7501Z" fill="#E6E6E6"/>
<path d="M16.4426 28.6354H12.3104V32.7498H16.4426V28.6354Z" fill="#AFAFAF"/>
<path d="M16.4426 24.5628H12.3104V28.6354H16.4426V24.5628Z" fill="#E6E6E6"/>
<path d="M16.4426 20.4486H12.3104V24.563H16.4426V20.4486Z" fill="#E6E6E6"/>
<path d="M16.4426 16.376H12.3104V20.4486H16.4426V16.376Z" fill="#E6E6E6"/>
<path d="M16.4426 12.2617H12.3104V16.3761H16.4426V12.2617Z" fill="white"/>
<path d="M16.4426 8.18704H12.3104V12.2596H16.4426V8.18704Z" fill="#E6E6E6"/>
<path d="M16.4426 4.0726H12.3104V8.187H16.4426V4.0726Z" fill="black"/>
<path d="M12.3104 69.6144H8.22026V73.687H12.3104V69.6144Z" fill="black"/>
<path d="M12.3104 65.5002H8.22026V69.6146H12.3104V65.5002Z" fill="black"/>
<path d="M12.3104 61.4276H8.22026V65.5001H12.3104V61.4276Z" fill="black"/>
<path d="M12.3104 57.3129H8.22026V61.4273H12.3104V57.3129Z" fill="black"/>
<path d="M12.3104 53.1987H8.22026V57.3131H12.3104V53.1987Z" fill="#C53C0D"/>
<path d="M12.3104 49.1261H8.22026V53.1987H12.3104V49.1261Z" fill="black"/>
<path d="M12.3104 45.0118H8.22026V49.1262H12.3104V45.0118Z" fill="black"/>
<path d="M12.3104 40.9369H8.22026V45.0095H12.3104V40.9369Z" fill="black"/>
<path d="M12.3104 36.8227H8.22026V40.9371H12.3104V36.8227Z" fill="black"/>
<path d="M12.3104 32.7501H8.22026V36.8226H12.3104V32.7501Z" fill="black"/>
<path d="M12.3104 28.6354H8.22026V32.7498H12.3104V28.6354Z" fill="black"/>
<path d="M12.3104 24.5628H8.22026V28.6354H12.3104V24.5628Z" fill="black"/>
<path d="M12.3104 20.4486H8.22026V24.563H12.3104V20.4486Z" fill="black"/>
<path d="M12.3104 16.376H8.22026V20.4486H12.3104V16.376Z" fill="black"/>
<path d="M12.3104 12.2617H8.22026V16.3761H12.3104V12.2617Z" fill="black"/>
<path d="M12.3104 8.18704H8.22026V12.2596H12.3104V8.18704Z" fill="black"/>
<path d="M8.22237 57.3129H4.09017V61.4273H8.22237V57.3129Z" fill="black"/>
<path d="M8.22237 53.1987H4.09017V57.3131H8.22237V53.1987Z" fill="#F7A285"/>
<path d="M8.22237 49.1261H4.09017V53.1987H8.22237V49.1261Z" fill="black"/>
<path d="M4.09016 53.1987H0V57.3131H4.09016V53.1987Z" fill="black"/>
</g>
<defs>
<clipPath id="clip0">
<rect width="107" height="131" fill="white"/>
</clipPath>
</defs>
</svg>
