<svg width="62" height="34" viewBox="0 0 62 34" fill="none" xmlns="http://www.w3.org/2000/svg">
<path d="M40.869 12.5931H38.7385V14.6815H40.869V12.5931Z" fill="#0E0E11"/>
<path d="M40.869 10.4838H38.7385V12.5931H40.869V10.4838Z" fill="#0E0E11"/>
<path d="M40.869 8.39526H38.7385V10.4836H40.869V8.39526Z" fill="#0E0E11"/>
<path d="M40.869 6.28601H38.7385V8.39533H40.869V6.28601Z" fill="#0E0E11"/>
<path d="M38.7386 14.6813H36.5867V16.7907H38.7386V14.6813Z" fill="#0E0E11"/>
<path d="M38.7386 12.5931H36.5867V14.6815H38.7386V12.5931Z" fill="#BC1830"/>
<path d="M38.7386 10.4838H36.5867V12.5931H38.7386V10.4838Z" fill="#BC1830"/>
<path d="M38.7386 8.39526H36.5867V10.4836H38.7386V8.39526Z" fill="#BC1830"/>
<path d="M38.7386 6.28601H36.5867V8.39533H38.7386V6.28601Z" fill="#BC1830"/>
<path d="M38.7386 4.19775H36.5867V6.28607H38.7386V4.19775Z" fill="#0E0E11"/>
<path d="M36.5866 16.7908H34.4346V18.8791H36.5866V16.7908Z" fill="#0E0E11"/>
<path d="M36.5866 14.6813H34.4346V16.7907H36.5866V14.6813Z" fill="#BC1830"/>
<path d="M36.5866 12.5931H34.4346V14.6815H36.5866V12.5931Z" fill="#FD0505"/>
<path d="M36.5866 10.4838H34.4346V12.5931H36.5866V10.4838Z" fill="#FD0505"/>
<path d="M36.5866 8.39526H34.4346V10.4836H36.5866V8.39526Z" fill="#FD0505"/>
<path d="M36.5866 6.28601H34.4346V8.39533H36.5866V6.28601Z" fill="#FD0505"/>
<path d="M36.5866 4.19775H34.4346V6.28607H36.5866V4.19775Z" fill="#BC1830"/>
<path d="M36.5866 2.0885H34.4346V4.19782H36.5866V2.0885Z" fill="#0E0E11"/>
<path d="M34.4346 18.879H32.3041V20.9885H34.4346V18.879Z" fill="#0E0E11"/>
<path d="M34.4346 16.7908H32.3041V18.8791H34.4346V16.7908Z" fill="#BC1830"/>
<path d="M34.4346 14.6813H32.3041V16.7907H34.4346V14.6813Z" fill="#FD0505"/>
<path d="M34.4346 12.5931H32.3041V14.6815H34.4346V12.5931Z" fill="#FD0505"/>
<path d="M34.4346 10.4838H32.3041V12.5931H34.4346V10.4838Z" fill="#FD0505"/>
<path d="M34.4346 8.39526H32.3041V10.4836H34.4346V8.39526Z" fill="#FD0505"/>
<path d="M34.4346 6.28601H32.3041V8.39533H34.4346V6.28601Z" fill="#FD0505"/>
<path d="M34.4346 4.19775H32.3041V6.28607H34.4346V4.19775Z" fill="#FD0505"/>
<path d="M34.4346 2.0885H32.3041V4.19782H34.4346V2.0885Z" fill="#BC1830"/>
<path d="M34.4346 0H32.3041V2.08831H34.4346V0Z" fill="#0E0E11"/>
<path d="M32.3042 20.9888H30.1522V23.0771H32.3042V20.9888Z" fill="#0E0E11"/>
<path d="M32.3042 18.879H30.1522V20.9885H32.3042V18.879Z" fill="#BC1830"/>
<path d="M32.3042 16.7908H30.1522V18.8791H32.3042V16.7908Z" fill="#FD0505"/>
<path d="M32.3042 14.6813H30.1522V16.7907H32.3042V14.6813Z" fill="#FD0505"/>
<path d="M32.3042 12.5931H30.1522V14.6815H32.3042V12.5931Z" fill="#FD0505"/>
<path d="M32.3042 10.4838H30.1522V12.5931H32.3042V10.4838Z" fill="#FD0505"/>
<path d="M32.3042 8.39526H30.1522V10.4836H32.3042V8.39526Z" fill="#FD0505"/>
<path d="M32.3042 6.28601H30.1522V8.39533H32.3042V6.28601Z" fill="#FD0505"/>
<path d="M32.3042 4.19775H30.1522V6.28607H32.3042V4.19775Z" fill="#FD0505"/>
<path d="M32.3042 2.0885H30.1522V4.19782H32.3042V2.0885Z" fill="#BC1830"/>
<path d="M32.3042 0H30.1522V2.08831H32.3042V0Z" fill="#0E0E11"/>
<path d="M30.1521 23.0768H28.0216V25.1861H30.1521V23.0768Z" fill="#0E0E11"/>
<path d="M30.1521 20.9888H28.0216V23.0771H30.1521V20.9888Z" fill="#BC1830"/>
<path d="M30.1521 18.879H28.0216V20.9885H30.1521V18.879Z" fill="#FD0505"/>
<path d="M30.1521 16.7908H28.0216V18.8791H30.1521V16.7908Z" fill="#FD0505"/>
<path d="M30.1521 14.6813H28.0216V16.7907H30.1521V14.6813Z" fill="#FD0505"/>
<path d="M30.1521 12.5931H28.0216V14.6815H30.1521V12.5931Z" fill="#FD0505"/>
<path d="M30.1521 10.4838H28.0216V12.5931H30.1521V10.4838Z" fill="#FD0505"/>
<path d="M30.1521 8.39526H28.0216V10.4836H30.1521V8.39526Z" fill="#FD0505"/>
<path d="M30.1521 6.28601H28.0216V8.39533H30.1521V6.28601Z" fill="#FD0505"/>
<path d="M30.1521 4.19775H28.0216V6.28607H30.1521V4.19775Z" fill="#FD0505"/>
<path d="M30.1521 2.0885H28.0216V4.19782H30.1521V2.0885Z" fill="#BC1830"/>
<path d="M30.1521 0H28.0216V2.08831H30.1521V0Z" fill="#0E0E11"/>
<path d="M28.0214 25.1863H25.8693V27.2746H28.0214V25.1863Z" fill="#0E0E11"/>
<path d="M28.0214 23.0768H25.8693V25.1861H28.0214V23.0768Z" fill="#BC1830"/>
<path d="M28.0214 20.9888H25.8693V23.0771H28.0214V20.9888Z" fill="#FD0505"/>
<path d="M28.0214 18.879H25.8693V20.9885H28.0214V18.879Z" fill="#FD0505"/>
<path d="M28.0214 16.7908H25.8693V18.8791H28.0214V16.7908Z" fill="#FD0505"/>
<path d="M28.0214 14.6813H25.8693V16.7907H28.0214V14.6813Z" fill="#FD0505"/>
<path d="M28.0214 12.5931H25.8693V14.6815H28.0214V12.5931Z" fill="#FD0505"/>
<path d="M28.0214 10.4838H25.8693V12.5931H28.0214V10.4838Z" fill="#FD0505"/>
<path d="M28.0214 8.39526H25.8693V10.4836H28.0214V8.39526Z" fill="#FD0505"/>
<path d="M28.0214 6.28601H25.8693V8.39533H28.0214V6.28601Z" fill="#FD0505"/>
<path d="M28.0214 4.19775H25.8693V6.28607H28.0214V4.19775Z" fill="#FD0505"/>
<path d="M28.0214 2.0885H25.8693V4.19782H28.0214V2.0885Z" fill="#BC1830"/>
<path d="M28.0214 0H25.8693V2.08831H28.0214V0Z" fill="#0E0E11"/>
<path d="M25.8694 27.2745H23.7176V29.3839H25.8694V27.2745Z" fill="#0E0E11"/>
<path d="M25.8694 25.1863H23.7176V27.2746H25.8694V25.1863Z" fill="#BC1830"/>
<path d="M25.8694 23.0768H23.7176V25.1861H25.8694V23.0768Z" fill="#FD0505"/>
<path d="M25.8694 20.9888H23.7176V23.0771H25.8694V20.9888Z" fill="#FD0505"/>
<path d="M25.8694 18.879H23.7176V20.9885H25.8694V18.879Z" fill="#FD0505"/>
<path d="M25.8694 16.7908H23.7176V18.8791H25.8694V16.7908Z" fill="#FD0505"/>
<path d="M25.8694 14.6813H23.7176V16.7907H25.8694V14.6813Z" fill="#FD0505"/>
<path d="M25.8694 12.5931H23.7176V14.6815H25.8694V12.5931Z" fill="#FD0505"/>
<path d="M25.8694 10.4838H23.7176V12.5931H25.8694V10.4838Z" fill="#FD0505"/>
<path d="M25.8694 8.39526H23.7176V10.4836H25.8694V8.39526Z" fill="#FD0505"/>
<path d="M25.8694 6.28601H23.7176V8.39533H25.8694V6.28601Z" fill="#FD0505"/>
<path d="M25.8694 4.19775H23.7176V6.28607H25.8694V4.19775Z" fill="#FD0505"/>
<path d="M25.8694 2.0885H23.7176V4.19782H25.8694V2.0885Z" fill="#0E0E11"/>
<path d="M23.7176 29.384H21.587V31.4723H23.7176V29.384Z" fill="#0E0E11"/>
<path d="M23.7176 27.2745H21.587V29.3839H23.7176V27.2745Z" fill="#BC1830"/>
<path d="M23.7176 25.1863H21.587V27.2746H23.7176V25.1863Z" fill="#FD0505"/>
<path d="M23.7176 23.0768H21.587V25.1861H23.7176V23.0768Z" fill="#FD0505"/>
<path d="M23.7176 20.9888H21.587V23.0771H23.7176V20.9888Z" fill="#FD0505"/>
<path d="M23.7176 18.879H21.587V20.9885H23.7176V18.879Z" fill="#FD0505"/>
<path d="M23.7176 16.7908H21.587V18.8791H23.7176V16.7908Z" fill="#FD0505"/>
<path d="M23.7176 14.6813H21.587V16.7907H23.7176V14.6813Z" fill="#FD0505"/>
<path d="M23.7176 12.5931H21.587V14.6815H23.7176V12.5931Z" fill="#FD0505"/>
<path d="M23.7176 10.4838H21.587V12.5931H23.7176V10.4838Z" fill="#FD0505"/>
<path d="M23.7176 8.39526H21.587V10.4836H23.7176V8.39526Z" fill="#FD0505"/>
<path d="M23.7176 6.28601H21.587V8.39533H23.7176V6.28601Z" fill="#FD0505"/>
<path d="M23.7176 4.19775H21.587V6.28607H23.7176V4.19775Z" fill="#0E0E11"/>
<path d="M21.587 31.4722H19.4351V33.5815H21.587V31.4722Z" fill="#0E0E11"/>
<path d="M21.587 29.384H19.4351V31.4723H21.587V29.384Z" fill="#BC1830"/>
<path d="M21.587 27.2745H19.4351V29.3839H21.587V27.2745Z" fill="#FD0505"/>
<path d="M21.587 25.1863H19.4351V27.2746H21.587V25.1863Z" fill="#FD0505"/>
<path d="M21.587 23.0768H19.4351V25.1861H21.587V23.0768Z" fill="#FD0505"/>
<path d="M21.587 20.9888H19.4351V23.0771H21.587V20.9888Z" fill="#FD0505"/>
<path d="M21.587 18.879H19.4351V20.9885H21.587V18.879Z" fill="#FD0505"/>
<path d="M21.587 16.7908H19.4351V18.8791H21.587V16.7908Z" fill="#FD0505"/>
<path d="M21.587 14.6813H19.4351V16.7907H21.587V14.6813Z" fill="#FD0505"/>
<path d="M21.587 12.5931H19.4351V14.6815H21.587V12.5931Z" fill="#FD0505"/>
<path d="M21.587 10.4838H19.4351V12.5931H21.587V10.4838Z" fill="#FD0505"/>
<path d="M21.587 8.39526H19.4351V10.4836H21.587V8.39526Z" fill="#FD0505"/>
<path d="M21.587 6.28601H19.4351V8.39533H21.587V6.28601Z" fill="#0E0E11"/>
<path d="M19.435 29.384H17.2828V31.4723H19.435V29.384Z" fill="#0E0E11"/>
<path d="M19.435 27.2745H17.2828V29.3839H19.435V27.2745Z" fill="#BC1830"/>
<path d="M19.435 25.1863H17.2828V27.2746H19.435V25.1863Z" fill="#FD0505"/>
<path d="M19.435 23.0768H17.2828V25.1861H19.435V23.0768Z" fill="#FD0505"/>
<path d="M19.435 20.9888H17.2828V23.0771H19.435V20.9888Z" fill="#FD0505"/>
<path d="M19.435 18.879H17.2828V20.9885H19.435V18.879Z" fill="#FD0505"/>
<path d="M19.435 16.7908H17.2828V18.8791H19.435V16.7908Z" fill="#FD0505"/>
<path d="M19.435 14.6813H17.2828V16.7907H19.435V14.6813Z" fill="#FD0505"/>
<path d="M19.435 12.5931H17.2828V14.6815H19.435V12.5931Z" fill="#FD0505"/>
<path d="M19.435 10.4838H17.2828V12.5931H19.435V10.4838Z" fill="#FD0505"/>
<path d="M19.435 8.39526H17.2828V10.4836H19.435V8.39526Z" fill="#FD0505"/>
<path d="M19.435 6.28601H17.2828V8.39533H19.435V6.28601Z" fill="#FD0505"/>
<path d="M19.435 4.19775H17.2828V6.28607H19.435V4.19775Z" fill="#0E0E11"/>
<path d="M17.2829 27.2745H15.1525V29.3839H17.2829V27.2745Z" fill="#0E0E11"/>
<path d="M17.2829 25.1863H15.1525V27.2746H17.2829V25.1863Z" fill="#BC1830"/>
<path d="M17.2829 23.0768H15.1525V25.1861H17.2829V23.0768Z" fill="#FD0505"/>
<path d="M17.2829 20.9888H15.1525V23.0771H17.2829V20.9888Z" fill="#FD0505"/>
<path d="M17.2829 18.879H15.1525V20.9885H17.2829V18.879Z" fill="#FD0505"/>
<path d="M17.2829 16.7908H15.1525V18.8791H17.2829V16.7908Z" fill="#FD0505"/>
<path d="M17.2829 14.6813H15.1525V16.7907H17.2829V14.6813Z" fill="#FD0505"/>
<path d="M17.2829 12.5931H15.1525V14.6815H17.2829V12.5931Z" fill="#FD0505"/>
<path d="M17.2829 10.4838H15.1525V12.5931H17.2829V10.4838Z" fill="#FD0505"/>
<path d="M17.2829 8.39526H15.1525V10.4836H17.2829V8.39526Z" fill="#FD0505"/>
<path d="M17.2829 6.28601H15.1525V8.39533H17.2829V6.28601Z" fill="#FD0505"/>
<path d="M17.2829 4.19775H15.1525V6.28607H17.2829V4.19775Z" fill="#FD0505"/>
<path d="M17.2829 2.0885H15.1525V4.19782H17.2829V2.0885Z" fill="#0E0E11"/>
<path d="M15.1524 25.1863H13.0003V27.2746H15.1524V25.1863Z" fill="#0E0E11"/>
<path d="M15.1524 23.0768H13.0003V25.1861H15.1524V23.0768Z" fill="#FD0505"/>
<path d="M15.1524 20.9888H13.0003V23.0771H15.1524V20.9888Z" fill="#FD0505"/>
<path d="M15.1524 18.879H13.0003V20.9885H15.1524V18.879Z" fill="#FD0505"/>
<path d="M15.1524 16.7908H13.0003V18.8791H15.1524V16.7908Z" fill="#FD0505"/>
<path d="M15.1524 14.6813H13.0003V16.7907H15.1524V14.6813Z" fill="#FD0505"/>
<path d="M15.1524 12.5931H13.0003V14.6815H15.1524V12.5931Z" fill="#FD0505"/>
<path d="M15.1524 10.4838H13.0003V12.5931H15.1524V10.4838Z" fill="#FD0505"/>
<path d="M15.1524 8.39526H13.0003V10.4836H15.1524V8.39526Z" fill="#FD0505"/>
<path d="M15.1524 6.28601H13.0003V8.39533H15.1524V6.28601Z" fill="#FD0505"/>
<path d="M15.1524 4.19775H13.0003V6.28607H15.1524V4.19775Z" fill="#FD0505"/>
<path d="M15.1524 2.0885H13.0003V4.19782H15.1524V2.0885Z" fill="#FD0505"/>
<path d="M15.1524 0H13.0003V2.08831H15.1524V0Z" fill="#0E0E11"/>
<path d="M13.0003 23.0768H10.8483V25.1861H13.0003V23.0768Z" fill="#0E0E11"/>
<path d="M13.0003 20.9888H10.8483V23.0771H13.0003V20.9888Z" fill="#FD0505"/>
<path d="M13.0003 18.879H10.8483V20.9885H13.0003V18.879Z" fill="#FD0505"/>
<path d="M13.0003 16.7908H10.8483V18.8791H13.0003V16.7908Z" fill="#FD0505"/>
<path d="M13.0003 14.6813H10.8483V16.7907H13.0003V14.6813Z" fill="#FD0505"/>
<path d="M13.0003 12.5931H10.8483V14.6815H13.0003V12.5931Z" fill="#FD0505"/>
<path d="M13.0003 10.4838H10.8483V12.5931H13.0003V10.4838Z" fill="#FD0505"/>
<path d="M13.0003 8.39526H10.8483V10.4836H13.0003V8.39526Z" fill="#FD0505"/>
<path d="M13.0003 6.28601H10.8483V8.39533H13.0003V6.28601Z" fill="white"/>
<path d="M13.0003 4.19775H10.8483V6.28607H13.0003V4.19775Z" fill="#FD0505"/>
<path d="M13.0003 2.0885H10.8483V4.19782H13.0003V2.0885Z" fill="#FD0505"/>
<path d="M13.0003 0H10.8483V2.08831H13.0003V0Z" fill="#0E0E11"/>
<path d="M10.8483 20.9888H8.71765V23.0771H10.8483V20.9888Z" fill="#0E0E11"/>
<path d="M10.8483 18.879H8.71765V20.9885H10.8483V18.879Z" fill="#FD0505"/>
<path d="M10.8483 16.7908H8.71765V18.8791H10.8483V16.7908Z" fill="#FD0505"/>
<path d="M10.8483 14.6813H8.71765V16.7907H10.8483V14.6813Z" fill="#FD0505"/>
<path d="M10.8483 12.5931H8.71765V14.6815H10.8483V12.5931Z" fill="#FD0505"/>
<path d="M10.8483 10.4838H8.71765V12.5931H10.8483V10.4838Z" fill="#FD0505"/>
<path d="M10.8483 8.39526H8.71765V10.4836H10.8483V8.39526Z" fill="white"/>
<path d="M10.8483 6.28601H8.71765V8.39533H10.8483V6.28601Z" fill="white"/>
<path d="M10.8483 4.19775H8.71765V6.28607H10.8483V4.19775Z" fill="#FD0505"/>
<path d="M10.8483 2.0885H8.71765V4.19782H10.8483V2.0885Z" fill="#FD0505"/>
<path d="M10.8483 0H8.71765V2.08831H10.8483V0Z" fill="#0E0E11"/>
<path d="M8.71764 18.879H6.56567V20.9885H8.71764V18.879Z" fill="#0E0E11"/>
<path d="M8.71764 16.7908H6.56567V18.8791H8.71764V16.7908Z" fill="#FD0505"/>
<path d="M8.71764 14.6813H6.56567V16.7907H8.71764V14.6813Z" fill="#FD0505"/>
<path d="M8.71764 12.5931H6.56567V14.6815H8.71764V12.5931Z" fill="#FD0505"/>
<path d="M8.71764 10.4838H6.56567V12.5931H8.71764V10.4838Z" fill="white"/>
<path d="M8.71764 8.39526H6.56567V10.4836H8.71764V8.39526Z" fill="white"/>
<path d="M8.71764 6.28601H6.56567V8.39533H8.71764V6.28601Z" fill="#FD0505"/>
<path d="M8.71764 4.19775H6.56567V6.28607H8.71764V4.19775Z" fill="#FD0505"/>
<path d="M8.71764 2.0885H6.56567V4.19782H8.71764V2.0885Z" fill="#FD0505"/>
<path d="M8.71764 0H6.56567V2.08831H8.71764V0Z" fill="#0E0E11"/>
<path d="M6.56573 16.7908H4.43512V18.8791H6.56573V16.7908Z" fill="#0E0E11"/>
<path d="M6.56573 14.6813H4.43512V16.7907H6.56573V14.6813Z" fill="#FD0505"/>
<path d="M6.56573 12.5931H4.43512V14.6815H6.56573V12.5931Z" fill="#FD0505"/>
<path d="M6.56573 10.4838H4.43512V12.5931H6.56573V10.4838Z" fill="#FD0505"/>
<path d="M6.56573 8.39526H4.43512V10.4836H6.56573V8.39526Z" fill="#FD0505"/>
<path d="M6.56573 6.28601H4.43512V8.39533H6.56573V6.28601Z" fill="#FD0505"/>
<path d="M6.56573 4.19775H4.43512V6.28607H6.56573V4.19775Z" fill="#FD0505"/>
<path d="M6.56573 2.0885H4.43512V4.19782H6.56573V2.0885Z" fill="#0E0E11"/>
<path d="M4.43511 14.6813H2.28314V16.7907H4.43511V14.6813Z" fill="#0E0E11"/>
<path d="M4.43511 12.5931H2.28314V14.6815H4.43511V12.5931Z" fill="#FD0505"/>
<path d="M4.43511 10.4838H2.28314V12.5931H4.43511V10.4838Z" fill="#FD0505"/>
<path d="M4.43511 8.39526H2.28314V10.4836H4.43511V8.39526Z" fill="#FD0505"/>
<path d="M4.43511 6.28601H2.28314V8.39533H4.43511V6.28601Z" fill="#FD0505"/>
<path d="M4.43511 4.19775H2.28314V6.28607H4.43511V4.19775Z" fill="#0E0E11"/>
<path d="M2.28304 12.5931H0.131104V14.6815H2.28304V12.5931Z" fill="#0E0E11"/>
<path d="M2.28304 10.4838H0.131104V12.5931H2.28304V10.4838Z" fill="#0E0E11"/>
<path d="M2.28304 8.39526H0.131104V10.4836H2.28304V8.39526Z" fill="#0E0E11"/>
<path d="M2.28304 6.28601H0.131104V8.39533H2.28304V6.28601Z" fill="#0E0E11"/>
<path d="M54.8 16.904H52.224V19.56H49.216V16.904H46.624V14.072H49.216V11.4H52.224V14.072H54.8V16.904ZM55.7099 12.248V9.304H60.6379V21H57.3579V12.248H55.7099Z" fill="black"/>
</svg>
