<svg width="122" height="34" viewBox="0 0 122 34" fill="none" xmlns="http://www.w3.org/2000/svg">
<path d="M16.773 32.0076C25.1862 32.0076 32.0065 25.1871 32.0065 16.7736C32.0065 8.36013 25.1862 1.53964 16.773 1.53964C8.35972 1.53964 1.53943 8.36013 1.53943 16.7736C1.53943 25.1871 8.35972 32.0076 16.773 32.0076Z" fill="#FFC60B"/>
<path d="M16.773 32.0136L16.7105 32.0133L16.7435 29.4996L16.7403 22.5126H16.7727C17.5289 22.5126 18.2616 22.3691 18.9505 22.0865L22.5602 30.8748C20.7206 31.6304 18.7737 32.0136 16.773 32.0136ZM10.8987 30.8389C9.04765 30.0652 7.38923 28.9492 5.96961 27.5225L12.7044 20.8211C13.2411 21.3607 13.8665 21.7819 14.5628 22.073L10.8987 30.8389ZM27.5106 27.588L20.8162 20.8463C21.3563 20.3099 21.7781 19.685 22.0698 18.989L30.8319 22.6617C30.0561 24.5122 28.939 26.1695 27.5106 27.588ZM2.67791 22.5752C1.91856 20.7314 1.53333 18.7792 1.53333 16.7732L1.5342 16.6782L5.23802 16.7521L11.034 16.7516L11.0337 16.7732C11.0337 17.5317 11.1778 18.2662 11.4622 18.9569L2.67791 22.5752ZM32.0124 16.8164H22.5117V16.7735C22.5117 16.0109 22.3662 15.2728 22.0788 14.5795L30.8555 10.9425C31.6231 12.7948 32.0124 14.7567 32.0124 16.7738V16.8164ZM11.4713 14.5687L2.70217 10.9133C3.47409 9.06134 4.58828 7.4017 6.01345 5.98087L12.7214 12.7091C12.1824 13.2461 11.7618 13.8719 11.4713 14.5687ZM20.8328 12.717C20.295 12.1786 19.6692 11.7589 18.9724 11.4692L22.6184 2.69579C24.4712 3.46569 26.1319 4.57815 27.5545 6.0022L20.8328 12.717ZM14.5844 11.4649L10.9563 2.6841C12.8044 1.92034 14.7612 1.53305 16.773 1.53305L16.7838 11.034H16.773C16.0125 11.034 15.2762 11.179 14.5844 11.4649Z" fill="#FAA819"/>
<path d="M26.7566 10.6348C26.5877 10.2861 26.3331 10.0239 26.0563 9.81203C25.9113 9.70067 25.7602 9.6235 25.6448 9.5554C25.5205 9.48379 25.3948 9.41217 25.2695 9.33998C24.7661 9.05207 24.2549 8.75978 23.7513 8.45462C22.7386 7.85396 21.7431 7.2229 20.801 6.64709C20.6832 6.57431 20.5663 6.50182 20.4503 6.4305C20.3147 6.34515 20.1644 6.27529 20.0054 6.23116C19.6865 6.13938 19.3454 6.1689 19.0651 6.26682C18.4975 6.46324 18.1149 6.84643 17.7993 7.11417C17.1361 7.70489 16.5837 8.19711 16.197 8.54143C16.1075 8.62211 16.028 8.69343 15.9576 8.75685L14.9013 7.64994L14.8367 7.58184L14.7388 7.59148L13.2747 7.73734L13.1347 7.75166L13.0865 7.8791L12.6144 9.13479L12.5884 9.20348L12.6103 9.25755L12.8769 9.92135L12.2052 9.8398L12.1497 9.8322L12.0921 9.86844L11.1767 10.4329L11.0981 10.4811L11.0858 10.5694L10.9376 11.6573L10.3051 11.6418L10.2572 11.6409L10.204 11.6695L9.37769 12.115L9.29906 12.1577L9.27305 12.2465L8.91149 13.4888L8.52772 13.3914L8.43682 13.3689L8.36229 13.4215L7.67104 13.9091L7.6158 13.948L7.593 14.0091L7.13236 15.2554L7.0929 15.3621L7.15779 15.4644L7.81192 16.4976C7.68916 16.6058 7.47141 16.7981 7.17416 17.0597C6.93595 17.2722 6.64658 17.5309 6.31484 17.8261C6.14912 17.9743 5.97199 18.1316 5.7861 18.2976C5.61073 18.4575 5.34826 18.6591 5.18429 19.0201C5.10186 19.1984 5.06562 19.4171 5.08257 19.6217C5.10011 19.8251 5.15915 20.0125 5.23573 20.1773C5.39093 20.5085 5.60196 20.7777 5.82644 21.0328C6.25083 21.5061 6.70066 21.9892 7.14171 22.5048C7.58628 23.0207 8.04546 23.5542 8.51194 24.0952C8.63441 24.2343 8.75717 24.3735 8.88022 24.5132L9.06728 24.7239C9.13188 24.7961 9.23359 24.8896 9.31163 24.9542C9.64513 25.2348 10.0216 25.4508 10.46 25.5947C10.4743 25.5993 10.4892 25.6025 10.5036 25.6072L12.7179 28.4878L13.5606 32.7266L22.4045 31.7179L21.7471 29.5666L20.9296 26.905L20.725 26.2406L20.6227 25.9071L20.5988 25.8308C20.8124 25.4643 21.0766 25.0694 21.3251 24.69C21.8354 23.9099 22.349 23.1292 22.8529 22.3409C23.106 21.9474 23.3655 21.5593 23.6099 21.1603C23.8571 20.7625 24.1094 20.3682 24.3496 19.9663L24.4218 19.8669L24.3818 19.7377L23.134 15.7055C23.1928 15.6567 23.4064 15.4805 23.7353 15.1899C23.9328 15.0216 24.1655 14.8099 24.4303 14.5644C24.6904 14.3168 24.9953 14.0503 25.306 13.7358C25.624 13.421 25.9686 13.0802 26.3331 12.7195C26.5552 12.4909 26.7703 12.1869 26.8706 11.8034C26.9746 11.4211 26.9238 10.9792 26.7566 10.6348ZM11.5216 10.6734L11.4058 11.0046L11.4509 10.7155L11.5216 10.6734ZM6.0249 19.8774L6.67844 20.6289C6.60888 20.5608 6.53844 20.4921 6.47063 20.4252C6.29058 20.2437 6.13304 20.0572 6.0249 19.8774Z" fill="black"/>
<path d="M12.8656 32.6599L12.2392 28.7043L10.1938 26.0435C9.74539 25.8828 9.34906 25.6539 8.98195 25.345C8.90011 25.2774 8.77647 25.1658 8.68557 25.0644L8.1276 24.4327L6.75357 22.838C6.44872 22.4817 6.13686 22.1382 5.83551 21.8059C5.70369 21.6606 5.57333 21.5165 5.44502 21.3736C5.21675 21.1137 4.96158 20.7978 4.77218 20.3935C4.66053 20.153 4.5933 19.9083 4.57226 19.6645C4.548 19.3673 4.60003 19.0624 4.71928 18.8043C4.90605 18.3931 5.18869 18.1423 5.37604 17.9763L7.14523 16.4014L6.52413 15.421L7.19112 13.6196L8.33308 12.815L8.55784 12.8705L8.86825 11.8077L10.1333 11.1255L10.4922 11.1337L10.624 10.1706L12.0346 9.30015L12.0781 9.30599L12.0389 9.20866L12.7676 7.27485L15.0363 7.04803L15.9854 8.04475L17.5999 6.61018C17.9019 6.34624 18.3155 5.98467 18.8977 5.78329C19.2972 5.64386 19.7538 5.62662 20.1466 5.73973C20.3416 5.79381 20.5365 5.88091 20.7224 5.99754L21.0696 6.21179C21.4005 6.41376 21.7399 6.62421 22.0842 6.83729C22.7117 7.22604 23.3606 7.62794 24.0127 8.01465C24.5072 8.31425 25.0123 8.60332 25.5007 8.88275L25.9832 9.15985C26.0928 9.22181 26.2288 9.29927 26.3682 9.40625C26.7554 9.70263 27.0334 10.0318 27.2175 10.412C27.4435 10.8774 27.4984 11.4479 27.3637 11.9381C27.2567 12.3479 27.0328 12.7325 26.6999 13.0751L25.6658 14.0984C25.4574 14.3097 25.2452 14.5053 25.0582 14.6777C24.9623 14.766 24.8699 14.8511 24.7828 14.9341C24.4607 15.2325 24.2482 15.424 24.067 15.5783C23.9332 15.6967 23.8174 15.7969 23.7233 15.8773L24.9865 19.9592L24.777 20.2474C24.611 20.5245 24.4397 20.7981 24.2678 21.0716L24.0442 21.4294C23.8744 21.7065 23.6958 21.981 23.5169 22.2557L23.2828 22.6167C22.8646 23.2711 22.4387 23.9218 22.0134 24.5713L21.6452 25.1333C21.4783 25.3876 21.3064 25.6489 21.1547 25.8971L23.073 32.156L12.8656 32.6599ZM6.40722 20.9126C6.4686 20.9804 6.53086 21.0491 6.5937 21.1184C6.90001 21.456 7.21655 21.8053 7.53017 22.1715L9.4496 24.3836C9.48906 24.4277 9.57061 24.504 9.63754 24.5593C9.93596 24.8104 10.2557 24.9889 10.6193 25.1082L10.8116 25.1684L13.1964 28.2705L13.9704 32.1647L21.7352 31.2791L20.0431 25.7679L20.1568 25.5729C20.3471 25.247 20.5725 24.9039 20.7902 24.5721L21.1573 24.0115C21.5806 23.3653 22.0044 22.7178 22.4215 22.0651L22.6594 21.6983C22.8333 21.4315 23.0069 21.1646 23.1735 20.8928L23.4009 20.5289C23.5558 20.2819 23.7107 20.0352 23.861 19.7858L22.5439 15.5298L22.807 15.3114C22.8833 15.2483 23.0879 15.0785 23.3959 14.8061C23.5707 14.6573 23.78 14.4688 24.0822 14.1887C24.1681 14.1069 24.2643 14.0183 24.3643 13.926C24.5469 13.7573 24.7431 13.5767 24.9415 13.3759L25.9727 12.3552C26.1738 12.1482 26.3118 11.9165 26.3752 11.6733C26.4453 11.4175 26.4138 11.1004 26.2966 10.8587C26.1834 10.6251 26.0034 10.4158 25.7453 10.2185C25.6614 10.1542 25.5682 10.101 25.4776 10.0499L25.014 9.7836C24.4981 9.48838 23.9875 9.19609 23.486 8.8924C22.8298 8.50307 22.1768 8.09883 21.5449 7.70745C21.2023 7.49524 20.8648 7.28625 20.5339 7.08399L20.1823 6.86681C20.0762 6.80017 19.9718 6.75311 19.8681 6.72447C19.6652 6.66601 19.4367 6.67887 19.2332 6.7499C18.8381 6.88669 18.5379 7.14917 18.2725 7.38066L18.1299 7.5043L15.9304 9.46968L14.6379 8.11549L13.5015 8.2286L13.1374 9.19726L13.6737 10.5333L12.2649 10.3623L12.1468 10.4351L11.8893 11.1732L11.7434 11.1366L11.7125 11.155L11.6941 11.1243L11.5315 11.0837L11.3822 12.1792L10.3802 12.1547L9.7299 12.5054L9.26429 14.1051L8.53943 13.9216L8.03962 14.2741L7.65995 15.3015L8.47688 16.5923L6.05472 18.7424C5.90361 18.8762 5.74753 19.0148 5.64933 19.2308C5.60285 19.3313 5.58181 19.4602 5.59175 19.5786C5.60227 19.7008 5.63851 19.8303 5.69901 19.9609C5.71041 19.9852 5.7224 20.0092 5.73467 20.0328L6.41073 19.5415L7.06427 20.293L6.40722 20.9126Z" fill="black"/>
<path d="M13.7217 32.0076H22.1649L20.1841 25.7955L24.158 19.8193L22.7018 15.2531L26.2124 12.0832V10.627L19.8301 6.47235L18.9021 6.6676L16.1453 8.96823L14.7841 7.77568L13.328 7.97766L12.782 9.20061L13.1055 10.0813L12.2158 10.0401L11.5383 10.627L11.1136 11.8406H10.325L9.516 12.3156L9.07114 13.7311L8.5047 13.6306L7.77662 14.055L7.41214 15.3294L8.14051 16.6032L5.49973 19.273L10.5673 25.1025L13.055 28.3437L13.7217 32.0076Z" fill="white"/>
<path d="M13.5683 32.6597L12.7009 28.4042L12.7655 28.5501L10.2761 25.3106L10.8189 24.8938L13.3042 28.1368L13.3559 28.2043L13.3688 28.2826L13.9195 32.6597H13.5683Z" fill="black"/>
<path d="M21.9155 32.4274L21.0314 29.7418L20.1498 27.0524L19.9297 26.3795L19.8196 26.0431L19.7646 25.8748L19.7611 25.8642C19.7608 25.887 19.755 25.6468 19.7582 25.7462L19.7596 25.7409L19.7652 25.7196C19.7713 25.6903 19.7865 25.6354 19.8023 25.595C19.847 25.4857 19.857 25.4834 19.8733 25.4495C20.1273 25.011 20.3813 24.6351 20.6409 24.237C21.1635 23.456 21.6984 22.687 22.2435 21.925C22.7915 21.1648 23.3495 20.4127 23.9259 19.672L23.8937 19.9L21.7825 14.0717L22.166 14.3473L18.4952 14.2117L18.4566 14.2102L18.4216 14.2015L16.5556 13.7306L16.9493 13.5318C16.8283 13.7172 16.7611 13.9223 16.674 14.1202C16.591 14.3199 16.5121 14.5207 16.4372 14.7232L16.3949 14.4637L18.0442 16.5974L17.8811 16.5232L20.4927 16.5015L20.4041 16.5401L21.2643 15.8225L21.307 15.8652L20.5906 16.7263L20.5614 16.7614L20.5017 16.7649L17.8952 16.9248L17.8002 16.9306L17.7321 16.8508L15.9836 14.7972L15.8863 14.6826L15.9415 14.5373C16.0184 14.3356 16.0912 14.1325 16.1599 13.9279C16.2242 13.7215 16.3086 13.5225 16.3396 13.3036L16.3832 12.994L16.7333 13.1048L18.5683 13.685L18.4949 13.6748L22.1657 13.5391L22.4413 13.5289L22.5492 13.8151L24.3815 19.7372L24.4213 19.8661L24.3491 19.9655C23.8621 20.7655 23.362 21.5564 22.8564 22.3433L21.3248 24.6892C21.0726 25.0742 20.804 25.4755 20.5888 25.8467C20.5772 25.8639 20.5573 25.9119 20.5777 25.8561C20.5815 25.8426 20.5818 25.8131 20.578 25.811L20.5722 25.8324L20.571 25.8376C20.5731 25.9402 20.566 25.7038 20.5678 25.7301L20.571 25.7406L20.6222 25.9066L20.7245 26.239L20.9288 26.9039L21.7463 29.5658L22.5612 32.2318L21.9155 32.4274Z" fill="black"/>
<path d="M19.358 16.7766L19.4732 17.6625L19.4183 17.5579L20.0259 18.0901L19.8608 18.0226L20.9527 18.2591L19.8608 18.4953L19.7745 18.514L19.6956 18.428L19.1496 17.8326L19.1073 17.7862L19.0947 17.7277L18.907 16.854L19.358 16.7766Z" fill="black"/>
<path d="M16.2075 21.7774L14.851 24.3729L14.8659 24.1601L15.2482 26.2105L15.1904 26.2293L14.3153 24.3355L14.2749 24.2484L14.3299 24.1227L15.5049 21.4403L16.2075 21.7774Z" fill="black"/>
<path d="M14.6116 27.212C14.6116 27.212 14.5271 27.2983 14.4009 27.428C14.2729 27.5561 14.0893 27.7212 13.9063 27.8925C13.5439 28.2213 13.1818 28.5504 13.1818 28.5504L12.8883 28.1363C12.8883 28.1363 13.3127 27.9004 13.7368 27.6645C13.942 27.5464 14.1536 27.4312 14.3103 27.3339C14.4658 27.2345 14.5692 27.1682 14.5692 27.1682L14.6116 27.212Z" fill="black"/>
<path d="M20.1638 26.0075L18.5258 25.9642L18.6048 25.9449L16.8715 26.7022L16.8432 26.6488L18.4469 25.6456L18.4762 25.6275L18.5258 25.626L20.1638 25.5828V26.0075Z" fill="black"/>
<path d="M15.7261 9.14637L14.6274 7.9012L14.7896 7.95966L13.341 8.21805L13.5293 8.07629L12.9096 9.2665L12.914 9.14491L13.2116 10.0346L13.27 10.2097L13.0789 10.2153L12.1865 10.2413L12.2999 10.2124L11.3748 10.7607L11.4655 10.6245L11.2714 11.8664L11.248 12.0164L11.0934 12.0202L10.3048 12.0401L10.4056 12.0126L9.61413 12.5171L9.71876 12.3856L9.2438 13.7918L9.1909 13.9487L9.01523 13.9303L8.44207 13.8698L8.60692 13.8403L7.84201 14.2019L7.92005 14.1016L7.65319 15.4035L7.62805 15.1948L8.29826 16.5013L8.18369 16.4084L9.48084 16.8556L9.35604 16.8603L10.5328 16.359L10.4118 16.5101L10.7298 15.6274L10.7897 15.6373L10.8043 16.5756L10.8061 16.6787L10.6836 16.727L9.4937 17.1958L9.43232 17.2198L9.36861 17.2005L8.05713 16.7974L7.98815 16.7764L7.94285 16.7045L7.15748 15.4637L7.09259 15.3614L7.13205 15.2547L7.59269 14.0081L7.61549 13.9467L7.67073 13.9075L8.36198 13.4203L8.43622 13.3679L8.52712 13.391L9.08626 13.5319L8.85799 13.6705L9.27274 12.2453L9.29875 12.1564L9.37737 12.114L10.2037 11.6683L10.2569 11.6396L10.3048 11.6408L11.0934 11.6607L10.9157 11.8144L11.0858 10.569L11.0978 10.481L11.1764 10.4325L12.0915 9.86775L12.1494 9.83209L12.2052 9.83881L13.0914 9.94667L12.959 10.1273L12.6097 9.25627L12.5884 9.20278L12.6141 9.13468L13.0862 7.8784L13.1341 7.75096L13.2744 7.73693L14.7387 7.59137L14.8361 7.58173L14.901 7.64983L16.0479 8.85115L15.7261 9.14637Z" fill="black"/>
<path d="M9.14146 13.7849C9.65033 14.221 10.1253 14.6887 10.6029 15.1534L10.6041 15.1546L10.6163 15.1701C10.9077 15.5285 11.2021 15.8842 11.459 16.268L11.2708 16.1779L12.9569 16.175L12.8137 16.2829L13.2647 14.779L13.3059 14.9798L12.2359 13.6695C12.057 13.4523 11.8775 13.231 11.6998 13.0235L11.5598 12.8587C11.518 12.8101 11.4692 12.723 11.4417 12.664C11.3783 12.5336 11.3245 12.4027 11.2731 12.27L11.328 12.2443C11.3982 12.3656 11.4718 12.4863 11.5508 12.5994C11.5955 12.6605 11.6183 12.6967 11.6762 12.7488L11.8238 12.8937C12.0327 13.0963 12.2271 13.2971 12.4261 13.4979L13.6119 14.7074L13.692 14.8027L13.6535 14.9082L13.1133 16.3822L13.0768 16.4816L12.9698 16.4901L11.2889 16.6234L11.1813 16.6319L11.1006 16.5334C10.8087 16.1756 10.5538 15.7904 10.296 15.4074L10.3097 15.4241C9.88386 14.9111 9.45537 14.4011 9.06079 13.8592L9.14146 13.7849Z" fill="black"/>
<path d="M13.5114 10.0355L14.6128 11.9216L14.6268 11.9459L14.6326 11.9696L15.0088 13.4646L15.0322 13.5579L14.967 13.6266L14.1866 14.4535L14.1404 14.5023L14.0741 14.5081L13.102 14.5908L13.0686 14.2573L14.0384 14.1477L13.9259 14.2024L14.723 13.3916L14.6815 13.5535L14.2483 12.0739L14.2685 12.1221L13.1706 10.2339L13.5114 10.0355Z" fill="black"/>
<path d="M13.1385 9.85799L14.7463 10.2672L14.4792 10.3169L15.6209 9.55868L15.5662 9.67355L15.487 8.81158H15.9421L15.8629 9.67355L15.8567 9.7402L15.8082 9.78843L14.837 10.7553L14.7241 10.8676L14.5698 10.805L13.0321 10.1816L13.1385 9.85799Z" fill="black"/>
<path d="M8.73318 15.4623L9.00764 14.9552L9.03774 14.8996L9.10146 14.9087L9.72841 14.9958V15.0566L9.10146 15.1434L9.19499 15.0969L8.78141 15.4988L8.73318 15.4623Z" fill="black"/>
<path d="M10.9446 15.0138L11.2059 14.2962L11.2211 14.2547L11.2647 14.2489L12.0585 14.1463L12.0702 14.2059L11.296 14.4088L11.3547 14.362L10.9999 15.0384L10.9446 15.0138Z" fill="black"/>
<path d="M12.5513 13.0437L12.7442 12.22L12.7603 12.151L12.8322 12.1443L13.8073 12.0531L13.8181 12.1127L12.8734 12.3702L12.9614 12.2945L12.6086 13.0633L12.5513 13.0437Z" fill="black"/>
<path d="M18.4987 14.8456L19.0888 14.5016L19.028 14.5709L19.0617 14.121L19.4463 14.2309L19.2367 14.6308L19.2049 14.6913L19.1759 14.7001L18.523 14.9012L18.4987 14.8456Z" fill="black"/>
<path d="M8.31471 16.8109C8.31471 16.8109 8.05691 17.0693 7.60563 17.5212C7.37998 17.7471 7.10611 18.0216 6.79191 18.3364C6.63466 18.4939 6.46747 18.6611 6.29122 18.8379C6.24767 18.8815 6.20325 18.9256 6.15853 18.9706C6.11848 19.0136 6.08429 19.0478 6.05155 19.0899C5.98433 19.1706 5.93288 19.2498 5.90921 19.3223C5.88407 19.3953 5.87852 19.4623 5.88699 19.5406C5.90512 19.6216 5.93055 19.7128 5.98725 19.8124C6.09189 20.0109 6.27047 20.2222 6.47303 20.4245C6.90853 20.8612 7.39401 21.3151 7.87365 21.8108C8.36089 22.3042 8.85426 22.8152 9.34735 23.334L9.71416 23.709L9.89742 23.8955C9.95822 23.9557 9.99329 23.9808 10.0564 24.0302C10.2897 24.2033 10.5592 24.3532 10.8181 24.4257C11.0791 24.5014 11.3194 24.5031 11.5254 24.4307C11.6298 24.395 11.7295 24.3415 11.8262 24.2687C11.8744 24.2322 11.9218 24.1919 11.9677 24.146L12.1638 23.9633C12.6914 23.4757 13.2108 22.9961 13.7132 22.5319C14.742 21.62 15.7069 20.7674 16.5399 20.0571C18.2033 18.6322 19.3458 17.7199 19.3458 17.7199L19.9497 18.4007C19.9497 18.4007 18.9103 19.426 17.3112 20.9191C16.5112 21.6659 15.5859 22.5296 14.5813 23.448C14.0815 23.9145 13.565 24.3965 13.0404 24.886L12.841 25.0711C12.7568 25.15 12.6648 25.2248 12.5669 25.2944C12.371 25.4338 12.1451 25.5496 11.9031 25.6235C11.4153 25.7775 10.8918 25.736 10.4595 25.5946C10.0211 25.4513 9.6446 25.2348 9.3111 24.9544C9.23336 24.8896 9.13106 24.7954 9.06705 24.7241L8.87998 24.5134C8.75693 24.3737 8.63417 24.2342 8.51171 24.0954C8.04493 23.5538 7.58575 23.0206 7.14119 22.505C6.70042 21.9883 6.24972 21.508 5.82679 21.0307C5.60231 20.7764 5.3907 20.509 5.23637 20.176C5.15804 20.0127 5.1028 19.8221 5.08146 19.6216C5.06655 19.4158 5.10397 19.2007 5.18405 19.0209C5.26268 18.8385 5.37404 18.6994 5.48014 18.5851C5.53187 18.5269 5.59208 18.4723 5.64235 18.4249C5.69058 18.382 5.73822 18.3396 5.78528 18.2978C5.97176 18.1323 6.14859 17.9751 6.3149 17.8275C6.64723 17.532 6.93717 17.2745 7.17568 17.0625C7.65298 16.6384 7.92568 16.3961 7.92568 16.3961L8.31471 16.8109Z" fill="black"/>
<path d="M15.5949 9.08357C15.5949 9.08357 15.8138 8.88657 16.1967 8.54166C16.5834 8.19705 17.1358 7.70483 17.7987 7.11411C18.1144 6.84666 18.497 6.46346 19.0646 6.26733C19.3449 6.16942 19.6857 6.1396 20.0049 6.23138C20.1636 6.27523 20.3141 6.34508 20.4497 6.43043C20.5655 6.50204 20.6827 6.57395 20.8008 6.64673C21.7428 7.22255 22.7383 7.85361 23.7505 8.45485C24.2541 8.75971 24.7656 9.05171 25.2686 9.33962C25.3943 9.41182 25.5194 9.48343 25.6439 9.55504L25.8447 9.67196L25.9365 9.7272C25.9692 9.74795 26.0125 9.78127 26.0496 9.80846C26.1984 9.92391 26.3264 10.0321 26.4442 10.1729C26.5681 10.3042 26.6701 10.4629 26.7561 10.6342C26.9192 10.9797 26.9762 11.4205 26.8698 11.8019C26.7689 12.1836 26.555 12.4905 26.3323 12.7176C25.9666 13.0777 25.6208 13.4183 25.302 13.7325C24.9907 14.0461 24.6846 14.3118 24.4242 14.5588C24.162 14.804 23.9314 15.0156 23.7359 15.1837C23.3507 15.5266 23.1221 15.7136 23.1221 15.7136L22.242 14.7929C22.242 14.7929 22.442 14.576 22.8067 14.2115C22.9859 14.0259 23.2107 13.8085 23.4705 13.5609C23.7324 13.3154 24.0153 13.0257 24.3468 12.7331C24.6692 12.4403 25.0184 12.1228 25.3879 11.787C25.5244 11.6593 25.617 11.5289 25.691 11.4076C25.7611 11.286 25.8041 11.1548 25.7871 10.9797C25.7687 10.8107 25.6734 10.5982 25.5241 10.4556C25.5057 10.4383 25.496 10.424 25.4709 10.403L25.3864 10.3366C25.3587 10.313 25.2759 10.2615 25.223 10.2253C25.1035 10.1455 24.9831 10.0654 24.8624 9.985C24.3795 9.6626 23.8896 9.33465 23.3916 9.01956C22.399 8.38499 21.4067 7.75013 20.4763 7.15532C20.3603 7.08166 20.2454 7.00859 20.1315 6.9361C20.0376 6.87764 19.9412 6.83438 19.8441 6.80837C19.6501 6.75458 19.451 6.77008 19.2558 6.83789C18.853 6.96708 18.5327 7.28305 18.1699 7.56833C17.4822 8.11725 16.9093 8.57498 16.5083 8.89534C16.0973 9.20838 15.8624 9.38726 15.8624 9.38726L15.5949 9.08357Z" fill="black"/>
<path d="M9.53428 21.4311C9.92804 21.1398 10.053 20.6411 9.81347 20.3172C9.5739 19.9932 9.06048 19.9667 8.66671 20.2579C8.27295 20.5491 8.14795 21.0478 8.38752 21.3718C8.62709 21.6957 9.14051 21.7223 9.53428 21.4311Z" fill="black"/>
<path d="M21.0268 8.11589L23.114 9.46833L23.1155 9.4692C23.2312 9.54403 23.2642 9.69865 23.1891 9.8144C23.114 9.93015 22.9594 9.96318 22.8436 9.88806C22.8392 9.88543 22.8346 9.88192 22.8308 9.879L20.8336 8.3962C20.7576 8.34066 20.7412 8.23398 20.7971 8.15827C20.8503 8.08549 20.952 8.06825 21.0268 8.11589Z" fill="black"/>
<path d="M14.3216 10.5592L14.0123 10.1856L13.5493 10.5685L13.8586 10.9421L14.3216 10.5592Z" fill="black"/>
<path d="M13.1967 9.17108L13.624 8.35939L13.641 8.32694L13.6761 8.32051L14.5059 8.16998L13.7319 8.50466L13.7839 8.46608L13.1967 9.17108Z" fill="black"/>
<path d="M16.773 1.53921C25.1864 1.53921 32.0066 8.35956 32.0066 16.7732C32.0066 25.1866 25.1864 32.0072 16.773 32.0072C8.35961 32.0072 1.53946 25.1866 1.53946 16.7732C1.53946 8.35986 8.35961 1.53921 16.773 1.53921ZM16.773 0C7.52427 0 0 7.52449 0 16.7735C0 26.0225 7.52427 33.547 16.773 33.547C26.0218 33.547 33.546 26.0225 33.546 16.7735C33.546 7.52449 26.0218 0 16.773 0Z" fill="black"/>
<path fill-rule="evenodd" clip-rule="evenodd" d="M74.9708 6.84988H70.2038V9.73154H71.7295V12.4973C71.365 12.3362 70.9825 12.2116 70.5828 12.124C70.1828 12.0364 69.7547 11.9926 69.2985 11.9926C68.4704 11.9926 67.7113 12.1397 67.0203 12.4343C66.3292 12.7289 65.7363 13.132 65.2415 13.6438C64.747 14.1555 64.3612 14.757 64.084 15.4474C63.8068 16.1383 63.6682 16.8832 63.6682 17.6825C63.6682 18.4817 63.8087 19.2303 64.0892 19.928C64.3698 20.6255 64.7609 21.2338 65.2628 21.7526C65.7643 22.2717 66.3641 22.6798 67.0623 22.9778C67.7599 23.2758 68.5269 23.4248 69.3615 23.4248C69.7686 23.4248 70.1704 23.3686 70.5668 23.2564C70.9631 23.1444 71.3508 22.9899 71.7295 22.7937V23.2144H77.0968V20.3328H74.9708V6.84988ZM70.7985 20.1644C70.4227 20.3889 70.004 20.508 69.5405 20.5219C69.1759 20.5082 68.8334 20.4379 68.5148 20.312C68.1953 20.1859 67.915 20.002 67.6725 19.7602C67.4305 19.518 67.2392 19.2237 67.0993 18.8767C66.9588 18.5294 66.8885 18.1423 66.8885 17.7145C66.8885 17.2796 66.9588 16.8906 67.0993 16.5469C67.2394 16.2036 67.4305 15.909 67.6725 15.6635C67.915 15.418 68.1953 15.2286 68.5148 15.0954C68.8337 14.9621 69.1759 14.8992 69.5405 14.906C69.9757 14.8992 70.388 14.9991 70.777 15.2058C71.1665 15.4128 71.4839 15.7018 71.7295 16.0735V19.2812C71.4839 19.6455 71.1733 19.9404 70.7985 20.1644ZM47.4764 16.0837C47.1748 15.7052 46.8378 15.4196 46.4661 15.2265C46.0942 15.0337 45.6559 14.9514 45.1506 14.9794C44.7435 14.9516 44.3734 15.0075 44.0404 15.1478C43.707 15.2881 43.4194 15.4844 43.1774 15.7367C42.9354 15.989 42.7474 16.2888 42.6144 16.6359C42.481 16.9829 42.4143 17.3737 42.4143 17.8086C42.4143 18.1942 42.4844 18.5588 42.6249 18.9022C42.7653 19.246 42.9564 19.5422 43.1986 19.7911C43.4406 20.04 43.7283 20.2344 44.0616 20.375C44.3947 20.515 44.7577 20.5992 45.1509 20.6273C45.4805 20.5995 45.7805 20.531 46.0506 20.4222C46.3204 20.3136 46.5609 20.1735 46.7716 20.0015C46.9821 19.8299 47.1627 19.6369 47.3134 19.4231C47.464 19.2093 47.5816 19.0076 47.6659 18.8182L50.5599 19.6175C50.4405 20.0382 50.2352 20.4765 49.9441 20.9324C49.653 21.388 49.274 21.8035 48.8076 22.1786C48.341 22.5537 47.7869 22.864 47.1449 23.1092C46.5029 23.3547 45.7716 23.4772 44.9506 23.4772C44.1154 23.4772 43.3474 23.3248 42.6459 23.0198C41.9443 22.715 41.3408 22.2995 40.8358 21.7736C40.3306 21.2477 39.9361 20.631 39.6518 19.9225C39.3676 19.2146 39.2256 18.4536 39.2256 17.6402C39.2256 16.8342 39.3713 16.0855 39.6623 15.3949C39.9534 14.7043 40.355 14.1012 40.8673 13.5861C41.3794 13.0706 41.9881 12.6693 42.6934 12.3818C43.3986 12.0944 44.1648 11.9648 44.9929 11.9928C45.5824 11.9648 46.154 12.0314 46.7084 12.1927C47.2625 12.354 47.7887 12.5959 48.2869 12.9185H50.3811V16.084H47.4764V16.0837ZM51.105 17.7244C51.105 16.9323 51.2488 16.1889 51.5365 15.4949C51.8242 14.8008 52.2239 14.1944 52.7363 13.6753C53.2483 13.1565 53.8586 12.7462 54.5675 12.4448C55.2762 12.1434 56.055 11.9926 56.9038 11.9926C57.7526 11.9926 58.5332 12.1434 59.2453 12.4448C59.9574 12.7465 60.5695 13.1565 61.0818 13.6753C61.5939 14.1944 61.992 14.8006 62.2763 15.4949C62.5606 16.1889 62.7026 16.9323 62.7026 17.7244C62.7026 18.5169 62.564 19.2615 62.2868 19.9595C62.0096 20.6573 61.6167 21.2671 61.108 21.7896C60.5994 22.3121 59.9889 22.7239 59.2768 23.0253C58.5647 23.3267 57.7736 23.4775 56.9038 23.4775C56.0266 23.4775 55.2321 23.327 54.52 23.0253C53.8079 22.7239 53.1993 22.3137 52.694 21.7949C52.1888 21.276 51.7977 20.668 51.5205 19.9703C51.2433 19.2726 51.105 18.5239 51.105 17.7244ZM54.2515 17.7244C54.2515 18.1384 54.3216 18.5184 54.462 18.8657C54.6022 19.2128 54.7935 19.5126 55.0355 19.7649C55.2775 20.0175 55.5581 20.2137 55.8775 20.3538C56.1967 20.4941 56.5387 20.5644 56.9038 20.5644C57.2754 20.5644 57.6209 20.4959 57.9403 20.3593C58.2594 20.2226 58.5364 20.028 58.7715 19.7754C59.0064 19.5231 59.1907 19.2235 59.324 18.8762C59.4571 18.5292 59.524 18.1452 59.524 17.7244C59.524 17.2898 59.4574 16.8971 59.324 16.5464C59.1907 16.196 59.0064 15.898 58.7715 15.6525C58.5364 15.4073 58.2592 15.2197 57.9403 15.0899C57.6209 14.9603 57.2754 14.8989 56.9038 14.9057C56.5387 14.8989 56.1969 14.9603 55.8775 15.0899C55.5584 15.2197 55.2778 15.4073 55.0355 15.6525C54.7935 15.898 54.6022 16.196 54.462 16.5464C54.3216 16.8971 54.2515 17.2898 54.2515 17.7244ZM77.9472 12.3186H82.8404V20.3325H84.3562V23.2142H77.9472V20.3325H79.5887V15.2006H77.9472V12.3186ZM79.4204 8.80615C79.4204 8.54674 79.4677 8.30306 79.5624 8.07512C79.6566 7.84717 79.7884 7.64914 79.9572 7.48074C80.1254 7.31234 80.3236 7.17935 80.5514 7.08125C80.7795 6.98315 81.0267 6.93384 81.2937 6.93384C81.5459 6.93384 81.7842 6.98315 82.0094 7.08125C82.2336 7.17962 82.4305 7.3126 82.5984 7.48074C82.7672 7.64914 82.9003 7.84717 82.9982 8.07512C83.0966 8.30306 83.1459 8.54674 83.1459 8.80615C83.1459 9.06557 83.0966 9.30925 82.9982 9.53719C82.9003 9.76513 82.7669 9.96317 82.5984 10.1313C82.4302 10.2997 82.2333 10.433 82.0094 10.5311C81.7845 10.6294 81.5459 10.6782 81.2937 10.6782C81.0265 10.6782 80.7795 10.6292 80.5514 10.5311C80.3239 10.433 80.1254 10.2997 79.9572 10.1313C79.7884 9.96291 79.6566 9.76513 79.5624 9.53719C79.4677 9.30925 79.4204 9.06557 79.4204 8.80615ZM92.6358 23.1305C93.029 23.0324 93.4217 22.8708 93.8148 22.6466V22.6993C93.8148 23.2116 93.7477 23.6354 93.6148 23.972C93.4812 24.3085 93.2972 24.5766 93.0623 24.7764C92.8269 24.9763 92.5503 25.1182 92.2308 25.2024C91.9114 25.2864 91.5623 25.3286 91.1836 25.3286C90.4893 25.3286 89.8578 25.2394 89.2893 25.0605C88.7213 24.8816 88.1948 24.638 87.7108 24.3295L86.3953 26.6642C87.0268 27.106 87.7476 27.4567 88.5581 27.7161C89.3681 27.9752 90.2502 28.1051 91.2043 28.1051C91.9765 28.1051 92.713 27.9978 93.4148 27.784C94.1162 27.57 94.7317 27.2439 95.2613 26.8059C95.791 26.3676 96.2138 25.8139 96.5296 25.1442C96.8453 24.4745 97.0033 23.6805 97.0033 22.7622V12.3187H93.8148V12.55C93.4497 12.3816 93.0587 12.2486 92.6413 12.1503C92.2237 12.0522 91.7657 11.9997 91.2681 11.9926C90.4542 11.9997 89.6998 12.1503 89.0053 12.4448C88.3108 12.7394 87.7148 13.1407 87.2163 13.6491C86.7179 14.1574 86.3305 14.7499 86.0536 15.4264C85.7761 16.1032 85.6378 16.8234 85.6378 17.5878C85.6378 18.4012 85.7814 19.155 86.0691 19.8491C86.3573 20.5431 86.7586 21.1443 87.2743 21.6527C87.7901 22.1613 88.4022 22.5589 89.1106 22.8464C89.819 23.1342 90.5946 23.2777 91.4363 23.2777C91.8432 23.2777 92.2432 23.2286 92.6358 23.1305ZM92.8726 19.991C92.4765 20.2399 92.0324 20.3643 91.5413 20.3643C91.1626 20.3643 90.8103 20.2997 90.4836 20.1699C90.1573 20.0403 89.8749 19.8562 89.6366 19.6177C89.3977 19.3796 89.2085 19.0887 89.0681 18.7448C88.9276 18.4014 88.8578 18.0193 88.8578 17.5985C88.8578 17.1988 88.9276 16.836 89.0681 16.51C89.2087 16.1837 89.3998 15.9017 89.6418 15.6633C89.8838 15.4248 90.1699 15.2407 90.4996 15.1111C90.8292 14.9816 91.166 14.9131 91.5101 14.906C91.9941 14.9131 92.4432 15.0463 92.8568 15.3058C93.271 15.5652 93.597 15.9156 93.8358 16.3573L93.8148 19.0076C93.5831 19.4145 93.2689 19.7423 92.8726 19.991ZM101.642 18.4502L101.674 18.7763C101.751 19.0918 101.882 19.3688 102.068 19.607C102.254 19.8454 102.474 20.0453 102.726 20.2066C102.979 20.3679 103.259 20.4888 103.568 20.5694C103.877 20.6502 104.189 20.6903 104.505 20.6903C104.82 20.6903 105.12 20.6711 105.405 20.6323C105.689 20.594 105.964 20.5413 106.23 20.4747C106.497 20.4081 106.757 20.3309 107.009 20.2431C107.262 20.1555 107.518 20.0626 107.778 19.9642L108.935 22.1204C108.535 22.3659 108.169 22.5744 107.836 22.7462C107.502 22.918 107.167 23.0599 106.83 23.1722C106.494 23.2842 106.136 23.3666 105.757 23.4193C105.378 23.4717 104.936 23.4982 104.431 23.4982C103.484 23.4982 102.642 23.3419 101.905 23.03C101.169 22.7184 100.549 22.2958 100.048 21.7628C99.5463 21.2301 99.1639 20.6061 98.9009 19.8908C98.6379 19.1755 98.5061 18.4185 98.5061 17.619C98.5061 16.8195 98.6444 16.0696 98.9219 15.3682C99.1993 14.6673 99.5904 14.0553 100.095 13.5328C100.6 13.0106 101.204 12.5985 101.905 12.2971C102.607 11.9957 103.385 11.8449 104.241 11.8449C105.097 11.8449 105.857 11.9868 106.52 12.2709C107.183 12.555 107.742 12.9476 108.199 13.4486C108.655 13.9502 109.005 14.539 109.251 15.2155C109.497 15.892 109.63 16.6196 109.651 17.3979C109.672 17.5731 109.684 17.7467 109.688 17.9183C109.692 18.0901 109.686 18.2671 109.672 18.4494H101.642V18.4502ZM104.158 14.4748C103.765 14.4748 103.43 14.522 103.153 14.6167C102.875 14.7114 102.642 14.8412 102.453 15.0057C102.263 15.1704 102.112 15.3579 102 15.5686C101.888 15.7789 101.8 15.9998 101.737 16.2311H106.294C106.245 15.9927 106.175 15.7684 106.083 15.5581C105.992 15.3477 105.866 15.162 105.705 15.0007C105.543 14.8396 105.338 14.7114 105.089 14.6169C104.84 14.5225 104.529 14.4748 104.158 14.4748ZM113.616 18.7763L113.585 18.4502V18.4494H121.614C121.628 18.2671 121.634 18.0901 121.63 17.9183C121.627 17.7467 121.614 17.5731 121.593 17.3979C121.572 16.6196 121.439 15.892 121.194 15.2155C120.948 14.539 120.597 13.9502 120.141 13.4486C119.685 12.9476 119.125 12.555 118.463 12.2709C117.8 11.9868 117.04 11.8449 116.184 11.8449C115.328 11.8449 114.549 11.9957 113.848 12.2971C113.146 12.5985 112.543 13.0106 112.038 13.5328C111.533 14.0553 111.142 14.6673 110.864 15.3682C110.587 16.0696 110.448 16.8195 110.448 17.619C110.448 18.4185 110.58 19.1755 110.843 19.8908C111.106 20.6061 111.489 21.2301 111.991 21.7628C112.492 22.2958 113.111 22.7184 113.848 23.03C114.585 23.3419 115.426 23.4982 116.374 23.4982C116.879 23.4982 117.321 23.4717 117.699 23.4193C118.079 23.3666 118.436 23.2842 118.773 23.1722C119.11 23.0599 119.445 22.918 119.778 22.7462C120.111 22.5744 120.478 22.3659 120.878 22.1204L119.72 19.9642C119.46 20.0626 119.204 20.1555 118.951 20.2431C118.699 20.3309 118.439 20.4081 118.173 20.4747C117.906 20.5413 117.631 20.594 117.347 20.6323C117.062 20.6711 116.762 20.6903 116.447 20.6903C116.132 20.6903 115.819 20.6502 115.511 20.5694C115.202 20.4888 114.921 20.3679 114.668 20.2066C114.416 20.0453 114.197 19.8454 114.011 19.607C113.825 19.3688 113.693 19.0918 113.616 18.7763ZM115.095 14.6167C115.372 14.522 115.707 14.4748 116.1 14.4748C116.472 14.4748 116.782 14.5225 117.031 14.6169C117.281 14.7114 117.486 14.8396 117.647 15.0007C117.808 15.162 117.934 15.3477 118.026 15.5581C118.117 15.7684 118.187 15.9927 118.236 16.2311H113.68C113.743 15.9998 113.83 15.7789 113.943 15.5686C114.055 15.3579 114.206 15.1704 114.395 15.0057C114.585 14.8412 114.818 14.7114 115.095 14.6167Z" fill="black"/>
</svg>
